<?xml version="1.0" standalone="no"?>
<!DOCTYPE svg PUBLIC "-//W3C//DTD SVG 20010904//EN"
 "http://www.w3.org/TR/2001/REC-SVG-20010904/DTD/svg10.dtd">
<svg version="1.0" xmlns="http://www.w3.org/2000/svg"
 width="275.000000pt" height="183.000000pt" viewBox="0 0 275.000000 183.000000"
 preserveAspectRatio="xMidYMid meet">
<metadata>
Created by potrace 1.10, written by Peter Selinger 2001-2011
</metadata>
<g transform="translate(0.000000,183.000000) scale(0.100000,-0.100000)"
fill="#000000" stroke="none">
<path d="M107 1200 c-9 -11 -12 -22 -7 -25 5 -3 12 0 15 5 4 7 21 9 38 6 31
-6 31 -6 7 6 -14 7 -27 16 -30 20 -3 4 -13 -1 -23 -12z"/>
<path d="M1383 1155 c2 -16 27 -26 145 -60 79 -23 143 -45 143 -49 1 -23 -9
-25 -51 -12 -89 28 -195 56 -210 56 -26 -1 9 -15 73 -30 40 -9 57 -18 57 -29
0 -13 2 -13 9 -3 7 12 16 12 56 0 38 -10 50 -19 58 -41 5 -16 7 -30 5 -32 -9
-9 -175 41 -171 52 2 6 -1 14 -6 18 -7 3 -8 0 -5 -9 7 -19 -3 -20 -62 -5 l-44
11 0 53 c0 54 -14 74 -35 50 -5 -6 -65 -29 -132 -50 -112 -36 -123 -42 -123
-63 0 -15 5 -22 13 -19 123 51 214 80 227 72 6 -4 10 -1 10 4 0 6 5 11 10 11
18 0 11 -40 -7 -41 -15 0 -15 -2 2 -9 18 -7 17 -9 -11 -15 -18 -4 -36 -16 -41
-29 -13 -27 -33 -86 -38 -106 -1 -8 -8 -14 -15 -12 -6 1 -9 -2 -5 -7 11 -19
50 5 47 28 -2 12 2 21 9 21 7 0 9 -3 6 -7 -4 -3 -2 -12 5 -20 8 -10 8 -17 0
-25 -6 -6 -8 -16 -6 -23 8 -20 -16 -29 -29 -12 -7 8 -22 18 -34 21 -18 6 -23
1 -33 -29 -7 -20 -10 -38 -8 -40 9 -8 50 17 58 37 8 20 15 11 11 -14 -1 -11 7
-10 28 1 13 8 18 6 18 -5 0 -8 -11 -17 -24 -20 -12 -4 -20 -10 -18 -15 6 -8
55 9 55 20 0 3 3 44 6 91 4 64 2 81 -6 68 -6 -10 -19 -18 -28 -17 -10 0 -12 3
-4 6 6 2 12 15 12 27 0 12 5 27 11 33 12 12 52 5 44 -7 -7 -11 5 -40 16 -40 5
0 9 16 9 35 0 19 3 35 8 35 4 0 65 -15 137 -33 115 -30 130 -36 135 -57 3 -13
11 -25 18 -28 9 -3 10 3 2 22 -5 14 -6 27 -2 30 7 4 8 61 3 124 -1 6 -10 12
-21 12 -11 0 -20 4 -20 9 0 5 -9 7 -20 4 -12 -3 -20 0 -20 7 0 9 -10 11 -30 6
-21 -4 -29 -2 -24 5 4 7 -1 9 -12 7 -11 -3 -30 1 -44 7 -14 7 -42 15 -62 19
-20 4 -39 12 -42 19 -3 7 -5 3 -3 -8z"/>
<path d="M2348 1133 c18 -2 45 -2 60 0 15 2 0 4 -33 4 -33 0 -45 -2 -27 -4z"/>
<path d="M297 1094 c-13 -13 5 -24 36 -24 l32 1 -25 14 c-29 16 -34 17 -43 9z"/>
<path d="M1095 970 c3 -5 1 -10 -5 -10 -6 0 -8 -14 -4 -38 5 -34 3 -39 -23
-52 -15 -7 -37 -12 -48 -11 -26 2 -51 -18 -60 -49 l-7 -25 24 26 c28 31 55 42
64 26 4 -7 4 -9 0 -5 -5 4 -26 -9 -47 -29 -30 -27 -36 -39 -27 -46 10 -6 9 -8
-3 -4 -11 4 -71 -51 -190 -170 -96 -97 -166 -173 -157 -170 10 3 20 1 24 -4 4
-7 -3 -9 -18 -7 -20 2 -50 -21 -151 -117 -69 -65 -124 -123 -121 -127 3 -5 0
-7 -6 -6 -17 4 -39 -33 -22 -39 6 -3 12 -9 12 -15 0 -6 -9 -3 -20 7 -17 15
-20 16 -25 2 -4 -9 -16 -14 -31 -12 -13 1 -24 -2 -24 -7 0 -11 121 -2 129 10
3 5 14 11 23 15 21 7 26 -18 6 -26 -7 -3 -2 -6 11 -6 18 -1 22 3 17 16 -4 9
-1 20 6 25 10 6 7 10 -9 14 -13 4 -20 11 -17 16 3 5 18 7 33 3 49 -13 62 -14
57 -6 -6 9 42 57 52 54 4 -2 7 3 7 10 0 6 6 12 13 12 6 0 12 4 11 8 -2 16 53
65 67 60 8 -3 21 0 29 7 12 10 13 5 8 -38 -5 -48 8 -79 21 -46 4 10 2 13 -7 8
-7 -5 -6 -1 2 10 9 10 11 20 5 24 -5 4 -9 18 -9 31 0 15 -6 25 -18 27 -9 1
-15 -1 -12 -6 3 -5 -3 -7 -12 -6 -9 2 -19 9 -21 17 -3 11 -1 11 5 1 13 -17 55
29 59 65 l3 28 -19 -25 c-10 -13 -16 -28 -13 -32 2 -5 1 -8 -4 -7 -23 4 -34
-4 -49 -36 -13 -27 -20 -33 -29 -25 -9 8 -15 8 -20 0 -3 -5 -1 -10 4 -10 6 0
11 -4 11 -10 0 -5 -5 -10 -11 -10 -12 0 -40 -26 -34 -32 2 -2 -4 -9 -15 -16
-14 -8 -21 -9 -26 0 -5 7 -3 8 6 3 9 -5 11 -4 6 3 -11 18 -26 14 -26 -7 0 -10
-7 -24 -15 -31 -12 -10 -16 -9 -21 4 -6 16 -8 16 -25 0 -11 -9 -19 -13 -19 -8
0 5 -5 2 -11 -6 -7 -10 -9 -11 -7 -2 2 8 8 14 13 14 6 0 16 9 23 20 7 10 17
16 21 14 10 -7 52 40 44 48 -4 3 6 6 20 6 15 0 27 5 27 10 0 6 -5 10 -11 10
-5 0 2 11 17 25 15 14 31 25 35 25 5 0 9 7 9 15 0 16 15 21 23 8 2 -5 2 -2 1
5 -3 10 21 17 48 13 3 0 5 13 3 29 -3 22 0 30 11 30 8 0 13 4 10 9 -3 5 1 12
10 15 22 8 22 9 17 -21 l-3 -28 11 25 c7 14 13 34 15 45 1 11 0 14 -2 8 -3 -7
-12 -13 -21 -13 -12 0 -12 2 -1 13 28 25 55 36 66 25 6 -6 12 -6 17 2 4 7 1
16 -6 21 -11 7 -10 11 6 23 11 9 24 16 28 16 5 0 5 4 2 10 -3 5 0 7 9 4 11 -4
17 3 22 22 7 26 8 26 20 9 8 -11 14 -14 14 -8 0 7 -5 15 -10 18 -6 4 -7 11 -4
17 4 6 10 5 15 -3 7 -11 9 -10 9 4 0 9 7 17 15 17 8 0 15 5 15 10 0 6 7 10 15
10 8 0 15 5 15 11 0 5 -4 7 -10 4 -5 -3 -10 -1 -10 4 0 6 11 11 25 11 14 0 25
5 25 10 0 6 7 10 15 10 18 0 20 17 3 23 -9 3 -6 11 10 27 13 12 30 19 38 16 9
-3 14 1 14 13 0 23 30 51 31 30 0 -8 5 -2 11 14 5 15 14 27 19 27 6 0 6 8 -1
19 -8 16 -6 21 13 27 21 7 21 7 2 15 -11 4 -14 8 -7 8 21 1 13 21 -9 21 -11 0
-17 -4 -14 -10z"/>
<path d="M1226 972 c-4 -7 -13 -9 -19 -5 -8 4 -7 1 1 -9 10 -13 11 -22 2 -37
-14 -27 -20 -27 -13 -1 4 14 0 20 -12 20 -13 0 -16 -6 -11 -25 4 -14 3 -25 -1
-24 -11 2 -73 -24 -73 -31 0 -3 4 -12 10 -20 8 -12 10 -12 16 3 3 9 11 17 17
17 5 0 2 -9 -7 -19 -10 -11 -24 -17 -32 -14 -10 4 -12 0 -8 -11 4 -11 1 -16
-10 -16 -9 0 -15 -5 -13 -11 1 -6 -4 -14 -12 -17 -8 -3 -11 0 -7 7 4 6 2 11
-4 11 -6 0 -10 -6 -9 -12 3 -26 -1 -39 -11 -33 -5 3 -10 2 -10 -3 0 -5 -9 -12
-21 -15 -12 -3 -18 -10 -14 -17 3 -6 3 -10 -2 -9 -20 3 -34 -2 -28 -11 3 -5
13 -6 23 -3 9 3 14 3 10 -1 -5 -6 -25 -12 -50 -15 -4 -1 -10 -11 -14 -23 -7
-22 -7 -22 -15 -3 -7 17 -8 16 -8 -7 -1 -16 -6 -28 -12 -28 -5 0 -7 -4 -4 -10
3 -5 -3 -10 -14 -10 -12 0 -21 6 -21 13 0 6 -6 3 -12 -8 -6 -11 -16 -23 -21
-26 -5 -4 -5 -9 2 -13 19 -12 -7 -46 -47 -63 -27 -11 -32 -17 -21 -23 12 -8
12 -11 0 -22 -10 -9 -12 -10 -7 -1 5 8 2 11 -7 7 -15 -6 -51 -74 -43 -82 3 -3
0 -12 -7 -20 -10 -13 -9 -14 3 -10 8 2 15 12 15 20 0 22 25 49 38 41 5 -3 7
-2 4 4 -7 11 69 94 89 97 8 1 14 4 13 7 -1 2 4 15 11 29 12 23 12 24 -4 11
-14 -12 -16 -12 -10 4 5 13 4 16 -4 11 -8 -5 -10 -2 -6 8 5 14 8 14 21 1 8 -8
16 -15 18 -15 2 0 56 54 121 120 64 66 120 117 124 115 4 -3 13 2 20 10 7 8 9
15 5 15 -4 0 -2 7 5 15 7 8 16 12 21 9 5 -3 8 -1 7 4 -3 11 54 77 74 85 9 4
10 8 2 14 -6 4 -13 15 -16 23 -3 10 -6 11 -12 2z"/>
<path d="M1502 943 c2 -16 10 -29 19 -31 13 -2 15 3 12 22 -7 36 -35 44 -31 9z"/>
<path d="M1424 907 c3 -12 6 -29 6 -39 0 -11 6 -15 21 -11 15 4 22 0 26 -16 3
-11 9 -21 13 -21 5 0 6 -9 3 -20 -4 -14 2 -22 20 -29 19 -7 26 -18 29 -42 4
-41 30 -59 58 -41 19 11 19 11 8 -7 -17 -28 1 -85 29 -89 15 -2 25 -15 34 -48
10 -34 18 -44 35 -44 18 0 23 -8 30 -52 8 -45 12 -53 29 -50 16 2 24 -7 36
-40 11 -30 23 -44 39 -48 17 -4 28 -18 38 -48 11 -34 18 -42 38 -42 20 0 26
-8 39 -52 l15 -53 83 -1 c58 0 91 -5 112 -17 17 -10 23 -17 15 -16 -8 1 -37 0
-65 -1 -46 -3 -44 -4 25 -10 78 -8 94 -5 70 10 -11 7 -10 9 7 8 13 -2 19 -7
15 -16 -4 -11 2 -11 27 2 21 12 31 13 31 5 0 -7 3 -9 7 -6 3 4 12 2 20 -5 16
-13 18 -11 27 19 7 23 7 23 -77 18 l-85 -5 -90 97 c-84 90 -109 126 -65 92 10
-7 -4 10 -31 39 -28 28 -52 49 -55 47 -6 -6 -41 25 -41 37 0 5 6 6 13 2 8 -5
8 -2 -2 9 -7 9 -19 17 -25 17 -6 0 -4 -5 4 -10 12 -7 10 -9 -7 -8 -11 1 -19 7
-16 14 2 7 -1 15 -6 19 -6 3 -9 11 -5 16 3 5 0 8 -8 7 -7 -2 -12 3 -10 10 1 8
-2 11 -7 8 -5 -3 -22 11 -37 32 -32 42 -74 78 -87 74 -5 -1 -6 1 -3 6 3 5 -10
26 -29 47 -18 22 -31 43 -28 47 2 5 -1 7 -8 6 -7 -2 -14 4 -14 12 0 8 -6 14
-12 13 -12 -3 -105 101 -98 109 5 5 -11 22 -50 56 -12 9 -14 13 -5 7 12 -7 13
-7 3 5 -7 8 -20 15 -29 16 -12 2 -14 -3 -10 -19z m293 -360 c-1 -5 4 -12 12
-15 8 -3 11 0 7 7 -4 6 -2 11 5 11 6 0 9 -8 6 -20 -3 -13 0 -20 10 -20 10 0
13 6 9 16 -3 9 -2 12 5 9 6 -4 8 -13 6 -19 -3 -7 -1 -19 3 -27 6 -8 4 -16 -3
-21 -21 -14 -28 -9 -17 12 6 11 7 19 2 18 -13 -4 -72 43 -66 53 3 5 0 9 -5 9
-6 0 -11 5 -11 10 0 6 8 5 19 -2 11 -7 19 -16 18 -21z m94 -97 c5 0 9 -5 9
-11 0 -5 -4 -7 -10 -4 -5 3 -10 2 -10 -3 0 -6 7 -12 15 -16 9 -3 15 0 15 9 0
21 13 18 29 -6 11 -19 11 -21 -4 -16 -10 4 -14 3 -10 -4 4 -5 15 -7 26 -4 10
4 19 2 19 -3 0 -5 -9 -12 -21 -15 -16 -4 -19 -11 -14 -26 4 -12 2 -21 -4 -21
-6 0 -11 9 -11 20 0 11 -7 23 -15 26 -8 3 -17 14 -20 25 -4 10 -14 19 -23 19
-15 0 -15 2 -2 11 12 9 10 10 -8 6 -19 -5 -21 -3 -11 9 7 8 19 12 26 9 8 -3
19 -5 24 -5z m89 -105 c0 -18 16 -20 24 -2 3 6 4 3 3 -8 -2 -11 -9 -19 -17
-17 -11 3 -11 0 0 -12 10 -13 10 -16 -1 -16 -12 0 -12 -2 0 -9 7 -5 9 -11 4
-14 -10 -6 -25 16 -43 66 -8 24 -7 27 10 27 11 0 20 -7 20 -15z m75 -61 c27
-29 32 -44 14 -44 -5 0 -7 -5 -4 -10 5 -8 12 -7 23 2 12 10 14 10 8 1 -5 -9 0
-13 14 -13 17 0 20 -4 15 -20 -4 -14 -2 -20 9 -20 11 0 15 -7 12 -22 -2 -19
-10 -24 -42 -26 -26 -2 -34 0 -25 6 17 12 6 49 -20 63 -16 8 -19 17 -14 47 3
24 2 30 -3 18 -9 -20 -42 -32 -42 -15 0 5 5 9 11 9 6 0 7 5 2 13 -26 42 6 50
42 11z"/>
<path d="M1745 783 c54 -54 103 -97 108 -95 11 3 50 -19 43 -25 -3 -3 -12 0
-21 7 -9 7 -18 11 -21 8 -2 -3 11 -17 29 -31 l34 -26 -5 27 c-4 26 -4 26 12 7
8 -11 16 -16 16 -11 0 5 7 3 15 -4 9 -7 13 -21 10 -31 -4 -12 4 -25 24 -40 24
-17 28 -26 20 -36 -7 -8 -8 -13 -1 -13 5 0 8 -16 6 -35 -2 -22 1 -33 7 -29 6
3 8 12 5 19 -2 7 -2 15 1 18 6 7 43 -30 43 -42 0 -5 11 -18 25 -29 13 -11 21
-22 18 -26 -3 -3 -1 -6 5 -6 6 0 21 -10 32 -22 12 -13 27 -23 33 -23 7 0 12
-5 12 -11 0 -6 17 -28 39 -50 21 -21 49 -53 63 -71 14 -18 29 -31 33 -28 4 3
11 -2 14 -11 9 -22 8 -26 -6 -18 -7 4 -8 3 -4 -5 4 -6 10 -9 14 -7 10 6 37
-16 45 -37 4 -11 2 -17 -7 -17 -8 0 -16 6 -18 12 -3 7 -7 3 -10 -8 -5 -18 0
-20 51 -22 31 -1 67 -3 80 -4 13 -2 26 3 28 10 3 8 -10 12 -49 12 -48 0 -54 3
-70 30 -10 17 -14 38 -11 47 5 13 2 15 -15 11 -19 -5 -20 -3 -12 13 8 15 7 17
-4 13 -9 -3 -23 7 -37 25 -13 17 -31 31 -41 31 -11 0 -17 4 -14 9 3 4 -3 19
-14 31 -25 29 -17 40 10 15 11 -10 20 -13 20 -7 0 7 -5 12 -11 12 -5 0 -7 5
-3 11 5 8 -1 10 -20 7 -21 -4 -34 3 -66 34 -22 22 -37 45 -33 51 3 5 2 8 -3 4
-5 -3 -18 2 -29 10 -14 11 -16 17 -7 20 6 3 10 8 7 13 -3 4 2 10 10 14 11 4
15 -1 15 -17 0 -15 3 -18 8 -9 7 10 14 10 38 -3 16 -8 43 -15 61 -15 37 0 50
-15 32 -36 -11 -14 -13 -14 -21 0 -11 20 -35 21 -35 2 0 -18 58 -31 68 -15 4
8 11 4 18 -10 7 -12 10 -25 7 -29 -2 -4 13 -6 35 -4 22 3 39 0 39 -6 0 -25 53
-72 80 -72 21 0 34 -10 55 -40 23 -33 33 -40 61 -40 20 0 34 -5 34 -12 1 -31
45 -66 90 -71 25 -3 37 -4 28 -1 -10 3 -18 10 -18 15 0 6 -9 8 -19 4 -11 -3
-23 0 -27 6 -4 7 -3 9 2 6 6 -3 16 -2 24 4 12 7 11 9 -6 9 -12 0 -26 11 -34
25 -7 13 -17 22 -23 18 -5 -3 -5 3 1 14 9 15 7 19 -8 19 -10 0 -16 -5 -14 -11
3 -5 -1 -3 -8 6 -7 9 -22 19 -33 21 -11 2 -19 9 -18 16 2 7 -4 9 -13 5 -13 -5
-15 -2 -10 15 9 29 -11 37 -37 15 -16 -13 -18 -14 -9 -1 18 22 -8 31 -26 9
-12 -14 -13 -14 -9 5 3 17 0 20 -13 17 -12 -3 -20 2 -25 16 -3 12 -11 21 -18
21 -7 0 -8 3 -1 10 12 12 44 3 44 -12 0 -5 -4 -6 -10 -3 -5 3 -10 1 -10 -4 0
-6 7 -11 15 -11 8 0 15 6 15 13 0 8 4 7 10 -3 8 -11 9 -6 8 19 -2 23 2 35 12
39 12 4 13 2 3 -9 -20 -21 -15 -28 15 -20 15 5 26 13 25 19 -2 6 4 9 12 6 8
-4 12 -10 9 -15 -3 -5 2 -9 10 -9 9 0 15 3 15 8 -3 19 2 25 11 12 6 -9 13 -11
18 -5 11 15 32 17 47 5 18 -15 65 8 65 32 0 14 -8 18 -35 18 -19 0 -35 -4 -35
-10 0 -5 11 -10 25 -10 27 0 34 -15 10 -24 -8 -3 -24 4 -35 16 -11 12 -20 18
-20 14 0 -5 -6 -3 -14 3 -11 9 -19 9 -35 -1 -16 -10 -23 -10 -33 0 -16 16 -29
15 -25 0 1 -8 -9 -13 -26 -14 -15 -1 -33 -6 -39 -12 -6 -6 -17 -8 -25 -5 -8 3
-19 0 -23 -7 -4 -7 -24 -14 -44 -15 -25 -1 -33 2 -26 9 16 16 12 25 -10 21
-11 -2 -20 1 -20 6 0 15 27 21 47 10 25 -13 42 -1 45 29 2 20 -1 25 -17 23
-11 -1 -23 3 -26 9 -4 6 -12 7 -18 4 -6 -4 -9 -12 -6 -17 4 -5 0 -9 -9 -9 -8
0 -23 -3 -33 -6 -10 -3 -7 2 7 10 17 10 20 15 9 16 -9 0 -24 -9 -34 -20 -25
-28 -51 -25 -70 8 -14 24 -22 27 -63 26 -26 0 -54 4 -62 10 -13 10 -13 9 -1
-7 22 -28 7 -30 -19 -2 -13 14 -24 37 -26 52 -1 16 0 22 3 16 2 -7 11 -13 19
-13 9 0 12 -4 9 -10 -3 -5 3 -10 14 -10 17 0 18 3 9 28 -9 24 -15 27 -44 24
-22 -3 -31 -8 -27 -16 3 -6 -3 -2 -15 8 -14 12 -19 23 -13 30 5 6 3 24 -5 43
-11 26 -18 31 -41 28 -31 -3 -49 12 -58 48 -4 15 -13 32 -21 38 -12 10 -13 8
-8 -7 5 -16 3 -16 -14 4 -22 24 -42 31 -22 7 10 -12 10 -15 -1 -15 -19 0 -58
40 -53 54 3 7 -3 19 -13 26 -15 12 -16 12 -5 0 26 -30 10 -32 -20 -3 -18 16
-42 33 -53 37 -11 4 25 -37 80 -91z m70 -33 c8 13 40 -12 57 -43 8 -16 7 -17
-10 -8 -10 5 -24 17 -31 25 -8 9 -17 14 -21 11 -4 -3 -14 3 -21 13 -13 15 -12
16 3 4 12 -9 18 -10 23 -2z"/>
<path d="M1353 838 c1 -20 17 -25 18 -5 0 6 5 1 10 -12 6 -15 15 -21 24 -17 8
3 15 0 16 -7 0 -7 4 -3 9 8 8 19 9 19 9 1 1 -11 4 -17 7 -13 3 3 3 15 -1 26
-5 17 -10 19 -25 11 -28 -15 -38 -11 -16 5 11 8 16 15 10 16 -58 5 -62 4 -61
-13z"/>
<path d="M2278 813 c23 -2 61 -2 85 0 23 2 4 4 -43 4 -47 0 -66 -2 -42 -4z"/>
<path d="M903 773 c-13 -3 -32 -21 -45 -44 -16 -29 -30 -40 -54 -45 -24 -4
-36 -15 -50 -44 -15 -30 -26 -40 -52 -45 -25 -5 -37 -15 -52 -45 -15 -30 -27
-40 -44 -40 -29 0 -54 -22 -62 -55 -4 -18 -15 -25 -46 -30 -33 -6 -39 -10 -35
-26 3 -10 1 -17 -4 -13 -5 3 -13 -6 -19 -20 -8 -21 -16 -26 -43 -26 -27 0 -36
-6 -46 -26 -10 -22 -15 -25 -44 -18 -17 3 -41 13 -52 20 -11 8 -29 14 -40 14
-15 -1 -11 -4 13 -15 17 -8 32 -17 32 -20 0 -3 -5 -3 -10 0 -6 4 -9 1 -8 -6 2
-7 -8 -18 -22 -26 -14 -7 -19 -13 -12 -13 6 0 12 -7 12 -15 0 -18 -12 -19 -28
-3 -7 7 -12 8 -12 3 0 -4 -9 0 -20 10 -16 14 -19 15 -15 4 4 -10 0 -16 -9 -16
-8 0 -13 4 -10 9 3 4 0 16 -6 25 -10 16 -11 16 -6 1 3 -9 1 -18 -4 -20 -6 -2
0 -14 13 -28 12 -14 19 -21 15 -14 -6 7 3 11 25 12 26 1 29 -1 14 -9 -23 -13
-22 -36 4 -49 15 -9 18 -15 10 -24 -13 -15 -4 -26 21 -26 20 0 25 16 6 23 -7
2 -10 8 -6 12 4 4 21 2 38 -4 28 -9 34 -8 55 17 13 15 23 27 22 28 -1 0 -21
-1 -44 -4 -28 -3 -41 -8 -36 -16 4 -7 1 -7 -7 1 -11 10 -11 18 -2 37 8 17 8
27 1 32 -15 9 20 44 43 44 11 0 17 -4 14 -9 -15 -24 23 -15 52 12 18 17 32 25
32 18 0 -11 3 -11 15 -1 9 7 18 10 22 7 9 -10 -40 -57 -60 -57 -11 0 -17 -6
-15 -17 2 -10 -2 -18 -9 -18 -6 0 -15 -3 -19 -7 -4 -5 1 -8 12 -8 19 0 114 84
114 101 0 5 4 9 10 9 15 0 140 122 140 137 0 7 4 12 9 11 5 -2 83 70 174 160
90 89 162 161 158 161 -3 -1 -16 -4 -28 -6z m-673 -564 c-7 -11 -9 -27 -6 -35
3 -8 -1 -14 -8 -14 -26 0 -46 12 -46 28 0 13 3 12 20 -3 19 -17 20 -17 14 -1
-4 11 0 22 12 31 25 19 27 19 14 -6z"/>
<path d="M1158 759 c-10 -5 -18 -18 -18 -27 0 -10 -7 -27 -15 -38 -8 -12 -11
-25 -7 -30 4 -5 0 -3 -8 3 -11 8 -19 6 -33 -7 -22 -21 -8 -36 43 -47 30 -6 33
-4 28 15 -4 12 -2 25 3 28 5 3 9 10 9 16 0 6 -7 5 -17 -3 -15 -12 -16 -12 -10
4 4 10 7 21 7 23 0 2 7 4 15 4 8 0 12 6 9 14 -6 16 24 36 43 29 7 -2 20 0 30
6 16 9 15 10 -9 11 -14 0 -32 2 -40 5 -7 2 -21 0 -30 -6z"/>
<path d="M1390 759 c0 -5 4 -7 10 -4 6 3 7 -1 4 -9 -7 -19 16 -21 35 -3 11 10
14 9 18 -1 3 -7 12 -16 21 -21 14 -7 17 -4 17 13 0 20 -5 23 -37 22 -21 -1
-38 2 -38 6 0 5 -7 8 -15 8 -8 0 -15 -5 -15 -11z"/>
<path d="M1300 745 c-7 -8 -16 -13 -19 -10 -4 2 -8 -2 -8 -10 0 -8 4 -15 9
-15 12 0 10 -38 -3 -46 -6 -3 -16 -1 -22 5 -9 9 -8 11 6 6 11 -5 17 -2 17 8 0
10 -7 13 -23 10 -28 -6 -31 -30 -5 -39 11 -3 18 -15 18 -32 0 -21 2 -24 10
-12 6 9 10 10 10 3 0 -6 -5 -15 -11 -19 -6 -3 -8 -15 -5 -26 3 -14 -3 -27 -17
-39 -25 -21 -57 -25 -57 -7 0 6 -7 3 -15 -8 -18 -24 -18 -31 -1 -37 10 -4 13
-1 9 9 -6 17 13 19 23 2 5 -8 10 -7 18 3 13 16 46 24 46 11 0 -5 -9 -12 -20
-15 -23 -6 -27 -27 -5 -27 8 0 15 -5 15 -11 0 -7 -10 -9 -26 -5 -17 5 -23 3
-19 -4 3 -5 16 -10 28 -11 13 -1 1 -7 -27 -16 -31 -10 -44 -18 -36 -23 10 -6
9 -9 -1 -13 -10 -4 -9 -6 4 -6 9 -1 17 6 17 14 0 8 6 15 14 15 8 0 23 3 33 7
16 6 16 5 4 -10 -7 -9 -11 -26 -8 -37 3 -11 1 -20 -4 -20 -5 0 -9 -5 -9 -11 0
-5 4 -8 8 -5 4 2 9 -4 9 -15 1 -10 -2 -19 -8 -19 -5 0 -9 5 -9 11 0 8 -12 10
-35 6 -24 -4 -40 -1 -50 9 -13 14 -15 14 -15 0 0 -17 -12 -21 -24 -9 -4 4 -19
9 -34 10 -21 3 -24 1 -12 -7 12 -8 11 -10 -7 -10 -17 0 -21 4 -17 18 4 12 0
10 -12 -6 -18 -24 -40 -29 -47 -9 -2 6 -8 9 -12 5 -4 -4 -5 -14 -2 -21 5 -13
14 -13 59 -2 29 6 62 10 73 8 11 -2 27 -5 35 -5 8 -1 18 -6 23 -12 5 -7 11 -5
18 7 12 20 49 23 49 3 0 -7 -7 -19 -15 -26 -11 -9 -15 -9 -15 -1 0 7 -5 9 -11
5 -17 -10 8 -22 35 -17 33 7 42 -13 11 -21 -14 -4 -23 -10 -21 -15 3 -5 -1
-14 -9 -21 -11 -9 -15 -9 -15 -1 0 7 -4 9 -10 6 -17 -10 -11 -21 12 -22 12 -1
26 3 30 10 5 7 8 3 8 -12 0 -17 -4 -22 -16 -17 -8 3 -12 2 -9 -4 3 -6 -1 -10
-10 -10 -10 0 -13 5 -9 12 4 7 3 8 -5 4 -6 -4 -9 -11 -6 -16 3 -5 -5 -11 -17
-13 -20 -4 -20 -4 4 -6 46 -2 43 -21 -4 -22 -36 0 -39 -2 -20 -9 13 -6 38 -6
60 -1 20 5 31 9 24 10 -20 1 -4 21 17 21 14 0 18 9 20 47 2 60 19 123 38 146
10 10 12 17 5 17 -7 0 -12 -5 -12 -12 0 -6 -3 -8 -7 -4 -10 10 -13 36 -4 36 4
0 7 22 5 48 -1 27 2 55 7 63 5 8 9 10 9 6 0 -4 9 -3 19 3 11 5 21 6 23 1 2 -4
13 -11 24 -15 19 -6 21 -3 16 19 -5 27 -17 33 -25 13 -4 -10 -8 -10 -15 1 -7
9 -12 10 -16 2 -15 -24 -36 -12 -34 19 1 17 5 30 8 30 3 0 6 41 7 91 2 50 7
97 13 104 7 8 7 16 2 19 -6 3 -15 -1 -22 -9z"/>
<path d="M1698 718 c19 -19 14 -30 -9 -18 -11 7 -23 9 -26 6 -9 -9 49 -27 65
-21 12 5 12 9 -3 25 -10 11 -23 20 -29 20 -6 0 -5 -5 2 -12z"/>
<path d="M1398 665 c2 -14 11 -25 18 -25 8 0 14 -5 14 -11 0 -5 5 -7 11 -4 6
5 3 13 -10 22 -12 8 -21 21 -21 29 0 8 -4 14 -9 14 -4 0 -6 -11 -3 -25z"/>
<path d="M1175 652 c0 -15 3 -26 8 -24 4 1 10 2 15 2 15 0 7 46 -8 47 -11 1
-16 -7 -15 -25z"/>
<path d="M1424 669 c-4 -8 0 -9 15 -4 15 4 21 2 21 -8 0 -21 48 -28 53 -8 3 9
5 5 6 -9 1 -19 4 -21 10 -11 13 21 1 43 -20 38 -11 -3 -19 -1 -19 4 0 13 -57
11 -66 -2z"/>
<path d="M2504 653 c22 -4 26 -7 15 -14 -11 -7 -10 -9 5 -9 10 0 24 -7 31 -17
9 -11 18 -14 31 -8 17 8 17 9 -4 13 -18 3 -23 9 -19 23 5 17 0 19 -41 18 -33
-2 -38 -3 -18 -6z"/>
<path d="M1215 600 c-19 -8 -19 -9 3 -9 13 -1 22 -7 22 -16 0 -8 3 -15 8 -15
4 0 7 11 7 25 0 26 -7 29 -40 15z"/>
<path d="M1365 601 c2 -4 -1 -13 -6 -21 -8 -13 -10 -13 -19 0 -8 13 -10 13
-10 -1 0 -9 9 -19 20 -22 11 -3 18 0 17 6 -1 6 8 16 21 22 l23 12 -25 5 c-14
3 -24 2 -21 -1z"/>
<path d="M1894 586 c0 -13 8 -29 18 -35 22 -13 33 2 13 19 -8 7 -15 19 -15 26
0 8 -4 14 -8 14 -4 0 -8 -11 -8 -24z"/>
<path d="M1440 600 c-7 -29 -8 -41 -3 -36 3 3 11 -2 18 -11 8 -10 14 -12 18
-6 4 6 -2 22 -13 34 -11 13 -20 22 -20 19z"/>
<path d="M1005 577 c-10 -12 -15 -33 -17 -72 0 -15 -7 -21 -26 -20 -21 0 -28
-7 -39 -42 -10 -28 -21 -43 -32 -43 -9 0 -22 -5 -29 -12 -15 -15 -16 -48 -2
-48 9 0 14 14 11 32 0 4 6 5 14 2 8 -4 15 -12 15 -19 0 -8 4 -17 10 -20 6 -3
7 1 4 9 -5 12 0 16 20 16 14 0 26 5 26 10 0 6 -12 10 -26 10 l-27 0 27 25 c30
28 42 31 49 13 3 -8 6 -6 6 5 1 9 -4 17 -10 17 -5 0 -7 5 -4 10 9 15 25 12 25
-5 0 -8 4 -15 10 -15 5 0 9 10 7 23 -2 20 3 22 51 25 29 2 50 7 48 11 -3 4
-27 5 -54 1 -35 -4 -52 -2 -61 8 -11 11 -9 14 8 19 12 3 21 9 21 14 0 5 14 6
30 3 19 -4 30 -2 30 4 0 6 -7 9 -15 6 -8 -4 -15 -1 -15 6 0 6 5 8 10 5 6 -3
10 1 10 9 0 9 -6 16 -12 16 -7 0 -22 2 -33 5 -11 3 -24 -1 -30 -8z"/>
<path d="M1125 580 c-6 -10 7 -14 32 -11 8 1 10 -5 7 -14 -5 -11 -2 -14 10 -9
9 3 16 12 16 19 0 22 -53 34 -65 15z"/>
<path d="M1486 575 c4 -8 14 -15 23 -15 10 0 21 -3 25 -7 10 -11 46 -11 46 0
0 5 -9 7 -19 4 -12 -3 -21 1 -24 12 -2 9 -15 17 -30 19 -20 1 -25 -2 -21 -13z"/>
<path d="M1940 584 c0 -2 6 -13 13 -24 9 -16 9 -22 0 -28 -8 -5 -3 -11 13 -19
13 -6 24 -7 24 -3 0 5 -6 11 -12 13 -10 4 -10 8 -1 14 8 6 5 14 -13 30 -13 12
-24 20 -24 17z"/>
<path d="M1839 556 c8 -10 9 -16 1 -21 -6 -3 -8 -11 -4 -16 3 -5 10 -7 15 -3
5 3 7 10 4 15 -4 5 -2 9 4 9 6 0 8 7 5 15 -4 8 -13 15 -21 15 -12 0 -13 -3 -4
-14z"/>
<path d="M1566 469 c8 -42 8 -41 34 -37 20 3 20 4 5 23 -9 11 -13 14 -9 6 5
-10 3 -12 -6 -6 -10 6 -9 11 5 22 11 7 14 13 8 13 -6 0 -18 3 -27 6 -13 5 -15
0 -10 -27z"/>
<path d="M1637 473 c-4 -3 -2 -12 4 -20 9 -9 8 -13 0 -13 -6 0 -11 -5 -11 -12
0 -8 7 -6 18 5 15 16 15 19 2 27 -12 8 -10 10 9 10 18 0 22 -4 17 -17 -4 -10
-4 -14 0 -11 3 4 13 0 21 -8 9 -8 18 -12 22 -9 3 4 -2 12 -12 19 -9 7 -17 18
-17 25 0 12 -42 16 -53 4z"/>
<path d="M1463 463 c-7 -2 -13 -11 -13 -19 0 -17 26 -19 33 -1 4 10 6 10 6 0
1 -18 21 -16 21 1 0 11 -24 29 -33 25 -1 0 -8 -3 -14 -6z"/>
<path d="M771 405 c-4 -24 -1 -58 5 -64 2 -3 10 1 17 9 8 9 9 11 0 6 -8 -4
-13 6 -16 31 -2 21 -5 29 -6 18z"/>
<path d="M1304 401 c0 -11 5 -17 10 -14 5 4 7 -1 3 -10 -3 -9 1 -18 11 -22 9
-3 18 -2 20 4 2 5 11 7 20 4 9 -3 2 4 -16 16 -18 12 -30 26 -27 31 3 6 0 10
-7 10 -8 0 -14 -9 -14 -19z"/>
<path d="M2733 408 c1 -8 -6 -12 -17 -10 -14 3 -17 -1 -13 -12 4 -10 1 -16 -8
-16 -16 0 -20 -16 -6 -24 5 -3 11 0 14 8 4 9 15 13 29 10 21 -4 21 -4 3 5 -14
7 -16 10 -5 10 17 1 25 41 9 41 -5 0 -8 -6 -6 -12z"/>
<path d="M1398 403 c19 -4 23 -9 18 -26 -5 -21 -5 -21 10 -3 11 16 17 17 26 8
9 -9 8 -15 -8 -26 -18 -14 -18 -16 -2 -30 10 -9 13 -11 8 -4 -13 16 -13 31 0
23 5 -3 18 -1 27 4 13 7 14 10 4 11 -8 0 -11 3 -8 6 13 13 -36 44 -67 43 -25
-1 -27 -3 -8 -6z"/>
<path d="M1055 390 c3 -5 1 -11 -5 -15 -5 -3 -10 -1 -10 4 0 6 -12 11 -27 10
-22 0 -24 -2 -10 -8 10 -4 18 -11 18 -16 -2 -18 42 -10 55 10 12 19 11 21 -6
22 -11 1 -18 -2 -15 -7z"/>
<path d="M1503 373 c5 -12 16 -23 24 -23 7 0 13 -6 13 -14 0 -8 6 -16 14 -19
11 -5 11 0 -2 24 -9 16 -24 29 -31 29 -11 0 -12 3 -4 11 15 15 49 6 45 -12 -1
-9 5 -16 13 -16 8 0 15 7 15 16 1 14 2 14 14 -1 7 -10 16 -15 19 -11 4 3 -3
14 -15 25 -15 13 -35 18 -69 17 -46 -2 -47 -3 -36 -26z"/>
<path d="M1648 373 c-3 -10 -9 -26 -13 -35 -5 -13 -2 -18 10 -18 13 0 16 6 12
21 -5 20 -5 20 15 2 l21 -18 -19 30 c-10 16 -13 26 -6 21 20 -12 72 -16 72 -6
0 6 -6 10 -14 10 -7 0 -27 3 -43 6 -24 5 -31 2 -35 -13z"/>
<path d="M25 348 c-30 -16 -31 -18 -15 -28 23 -15 40 -12 34 5 -4 8 -2 15 4
15 6 0 12 -6 14 -12 3 -7 19 -13 36 -14 17 -1 30 2 27 6 -7 11 29 7 37 -5 5
-6 8 -6 8 1 0 23 -29 36 -65 30 -22 -4 -35 -3 -35 4 0 13 -20 12 -45 -2z"/>
<path d="M2293 320 c-2 -20 23 -35 32 -19 4 5 10 7 14 5 4 -3 8 2 8 10 0 10
-4 11 -11 4 -5 -5 -17 -10 -25 -10 -13 0 -13 2 -3 9 11 7 11 9 0 14 -8 3 -14
-2 -15 -13z"/>
<path d="M840 316 c0 -8 -12 -16 -27 -18 -21 -2 -29 -11 -41 -45 -11 -35 -18
-43 -38 -43 -25 0 -33 -13 -48 -72 l-6 -28 57 1 58 1 -47 10 c-52 11 -61 24
-25 37 18 7 23 4 29 -13 4 -14 6 -16 7 -5 1 18 27 33 42 23 5 -3 9 0 9 5 0 6
-4 11 -10 11 -5 0 -10 5 -10 11 0 5 4 8 9 4 5 -3 13 0 17 6 5 8 -1 10 -19 7
-17 -3 -24 -1 -21 7 3 7 17 11 32 9 17 -2 19 -1 7 2 -25 7 -44 24 -27 24 6 0
21 10 33 23 l22 22 -6 -22 c-3 -16 -1 -23 10 -23 8 0 11 5 7 12 -5 8 0 9 14 6
12 -4 22 -2 22 3 0 5 13 9 29 9 16 0 31 6 35 15 3 8 1 15 -3 15 -5 0 -11 -4
-13 -8 -1 -5 -19 -11 -40 -15 -30 -4 -37 -2 -41 13 -3 11 0 21 7 24 6 2 3 5
-6 5 -10 1 -18 -5 -18 -13z"/>
<path d="M175 311 c-3 -5 -15 -7 -26 -4 -19 5 -20 4 -9 -16 9 -18 19 -22 47
-19 20 2 38 8 40 14 4 13 -44 37 -52 25z"/>
<path d="M719 310 c-17 -10 -15 -60 3 -60 5 0 6 5 3 10 -3 6 -1 10 6 10 9 0 9
3 0 14 -9 11 -9 15 1 19 7 2 11 7 8 10 -3 3 -12 1 -21 -3z"/>
<path d="M1721 297 c-1 -19 3 -26 11 -21 6 4 17 -1 25 -11 12 -17 13 -17 13
-2 0 21 7 21 27 2 18 -19 26 -15 17 9 -4 10 -16 16 -28 15 -41 -3 -55 1 -59
19 -3 10 -5 6 -6 -11z"/>
<path d="M40 302 c-44 -7 -40 -17 8 -19 26 -1 43 1 37 5 -5 4 -12 10 -15 13
-3 2 -16 3 -30 1z"/>
<path d="M1311 288 c-11 -17 -10 -22 1 -29 19 -12 68 -11 68 2 0 5 4 8 9 5 4
-3 6 6 3 19 -2 14 -8 25 -13 25 -5 0 -6 -7 -2 -16 4 -12 2 -15 -8 -12 -8 3
-13 10 -12 15 3 18 -33 11 -46 -9z"/>
<path d="M1405 300 c-3 -5 2 -15 10 -23 8 -9 13 -21 12 -29 -2 -7 -2 -10 0 -5
3 4 9 5 14 1 5 -3 4 7 -1 22 -15 38 -5 42 15 5 8 -17 18 -31 21 -31 2 0 0 10
-7 21 -9 17 -8 23 2 30 11 7 9 9 -6 10 -11 0 -28 2 -37 4 -10 2 -20 -1 -23 -5z"/>
<path d="M1683 296 c-28 -13 -34 -28 -21 -47 8 -11 8 -9 4 6 -6 20 -6 20 9 1
8 -11 18 -17 22 -13 6 6 16 69 10 66 -1 -1 -12 -6 -24 -13z"/>
<path d="M607 243 c-4 -3 -7 -20 -6 -37 0 -26 2 -28 8 -11 5 11 6 24 3 29 -3
5 2 7 11 3 11 -4 14 -2 10 9 -6 15 -16 18 -26 7z"/>
<path d="M1315 220 c-3 -5 -1 -18 4 -27 6 -10 11 -13 11 -8 0 6 4 4 9 -4 6
-10 10 -10 16 -1 4 7 -1 13 -13 17 -13 3 -18 11 -15 19 6 16 -3 19 -12 4z"/>
<path d="M1390 218 c0 -5 7 -8 15 -8 8 0 15 -4 15 -10 0 -5 7 -10 16 -10 8 0
12 5 9 10 -3 6 -2 10 4 10 16 0 22 -18 9 -23 -7 -2 -1 -4 14 -3 16 0 28 5 28
9 0 5 5 5 10 2 6 -4 8 -16 5 -28 -5 -16 -4 -18 3 -8 6 8 15 10 23 6 9 -6 11
-3 6 8 -3 10 -2 17 3 17 5 0 7 6 4 14 -4 11 1 13 18 10 21 -4 21 -4 3 5 -15 7
-24 4 -36 -11 -11 -14 -18 -17 -23 -9 -4 6 -2 11 3 11 6 0 11 5 11 11 0 8 -4
8 -15 -1 -8 -6 -20 -8 -26 -4 -8 4 -9 3 -5 -4 4 -7 2 -12 -3 -12 -6 0 -11 6
-11 13 0 7 -15 12 -40 12 -22 0 -40 -3 -40 -7z"/>
<path d="M1717 223 c-15 -15 -5 -21 41 -21 35 -1 51 -7 64 -23 13 -15 23 -19
35 -14 10 5 29 10 43 12 44 7 34 12 -20 10 -35 -1 -55 3 -58 11 -2 7 -18 12
-35 12 -24 0 -28 3 -17 10 8 5 11 10 5 10 -5 0 -17 -4 -25 -10 -9 -5 -17 -5
-20 1 -4 5 -9 6 -13 2z"/>
<path d="M87 213 c-4 -3 -7 -14 -7 -24 0 -9 -9 -19 -21 -22 -12 -3 -18 -10
-14 -17 5 -7 18 -2 41 15 37 28 41 24 19 -15 -17 -30 -18 -40 -5 -40 6 0 10 7
10 15 0 8 8 20 19 26 16 11 17 14 3 30 -8 9 -22 15 -30 11 -11 -4 -14 -1 -9
11 7 18 5 21 -6 10z"/>
<path d="M1096 205 c4 -8 9 -15 13 -15 4 0 8 -11 9 -25 1 -18 -3 -25 -16 -25
-14 0 -15 -2 -2 -10 17 -11 35 13 27 35 -3 7 3 22 14 34 l20 21 -35 0 c-27 0
-34 -3 -30 -15z"/>
<path d="M1645 205 c17 -7 23 -14 14 -14 -9 -1 -16 -7 -16 -15 0 -8 6 -12 14
-9 7 3 13 1 13 -5 0 -6 -6 -13 -12 -15 -7 -3 2 -4 21 -2 41 5 46 9 32 32 -6
10 -11 12 -11 6 0 -18 -20 -16 -20 2 0 8 5 15 10 15 6 0 10 5 10 10 0 6 -19
10 -42 10 l-43 -1 30 -14z"/>
<path d="M1030 191 c-5 -11 -10 -21 -10 -24 0 -9 27 -3 38 10 10 10 9 13 -5
14 -16 0 -16 1 2 9 17 7 17 9 3 9 -10 1 -22 -8 -28 -18z"/>
<path d="M1567 193 c-11 -10 -8 -43 3 -43 5 0 6 8 3 17 -6 16 -5 16 17 0 28
-20 40 -21 40 -6 0 5 -6 7 -12 3 -10 -6 -10 -4 0 8 10 13 9 17 -10 22 -29 7
-33 7 -41 -1z"/>
<path d="M910 175 c0 -18 33 -20 60 -2 17 10 22 9 30 -3 8 -13 10 -12 10 3 0
14 -9 17 -50 17 -38 0 -50 -4 -50 -15z"/>
<path d="M1733 169 c13 -21 28 -25 25 -7 -2 6 4 13 12 15 12 3 16 -6 17 -39 1
-24 -3 -46 -10 -50 -8 -5 -4 -8 10 -8 13 0 21 5 19 13 -16 49 -16 69 -3 64 11
-4 13 0 10 13 -4 15 -14 19 -48 18 -40 0 -43 -2 -32 -19z"/>
<path d="M2421 181 l-24 -7 26 -17 c27 -17 27 -17 27 8 0 14 -1 25 -2 24 -2
-1 -14 -4 -27 -8z"/>
<path d="M638 150 c-3 -22 -1 -29 8 -26 7 3 15 0 18 -7 2 -7 5 5 5 26 1 46
-25 52 -31 7z"/>
<path d="M1437 165 c2 -8 8 -14 11 -13 4 0 9 -1 12 -2 23 -8 40 -6 40 6 0 8
-3 14 -7 15 -5 0 -20 2 -35 4 -20 3 -25 0 -21 -10z"/>
<path d="M2464 169 c-6 -11 14 -22 26 -14 6 3 10 1 10 -4 0 -6 6 -11 13 -11 8
0 14 6 14 14 0 15 -55 28 -63 15z"/>
<path d="M2540 163 c0 -5 7 -16 14 -26 10 -13 15 -14 18 -5 7 19 -2 38 -18 38
-8 0 -14 -3 -14 -7z"/>
<path d="M5 138 c-10 -24 -3 -51 15 -55 13 -4 13 -3 0 6 -12 8 -11 13 10 32
16 14 19 20 8 16 -9 -3 -19 -1 -21 6 -3 8 -7 6 -12 -5z"/>
<path d="M60 127 c-11 -23 -11 -30 0 -40 10 -10 12 -8 6 8 -5 17 -4 18 6 5 9
-10 27 -14 58 -12 55 4 73 18 39 30 -30 12 -45 10 -41 -3 1 -6 -9 -12 -22 -13
-20 -1 -25 4 -28 26 l-4 27 -14 -28z"/>
<path d="M797 132 c1 -8 3 -16 3 -18 0 -2 7 -4 16 -4 8 0 13 -3 10 -8 -2 -4
41 -6 97 -5 68 2 103 7 109 15 5 9 8 7 8 -7 1 -19 1 -19 11 -2 6 10 9 20 7 22
-8 7 -118 11 -118 4 0 -4 5 -9 11 -11 7 -2 -5 -4 -25 -5 -20 -1 -36 3 -36 8 0
5 -20 9 -44 9 -24 0 -46 3 -49 8 -2 4 -2 1 0 -6z"/>
<path d="M1076 108 c6 -36 5 -38 -22 -38 -32 0 -30 -5 9 -14 25 -6 27 -4 26
21 0 16 -4 37 -9 48 -7 14 -8 9 -4 -17z"/>
<path d="M507 110 c-4 -15 -12 -19 -41 -16 -21 1 -36 -2 -36 -8 0 -6 17 -11
38 -12 20 0 94 -2 165 -4 70 -2 130 0 134 3 3 4 -25 8 -63 8 -62 2 -65 3 -29
9 39 8 39 8 -15 8 -106 0 -110 1 -111 20 -1 11 -3 9 -8 -7 -4 -14 -13 -27 -21
-29 -12 -4 -13 -2 -2 9 14 15 16 39 3 39 -5 0 -11 -9 -14 -20z"/>
<path d="M1500 108 c-1 -22 -1 -22 -15 -4 -8 11 -15 15 -15 9 0 -15 -30 -25
-44 -15 -12 10 -61 8 -94 -2 -12 -4 -22 -3 -22 2 0 6 -16 10 -35 9 -21 -1 -30
-4 -22 -9 9 -6 8 -8 -3 -9 -8 -1 -1 -5 15 -9 21 -5 2 -8 -62 -9 -51 0 -93 -4
-93 -8 0 -5 164 -9 364 -9 345 -1 365 0 369 17 3 10 0 20 -7 22 -6 3 7 5 29 5
69 0 95 4 89 14 -3 5 -33 7 -67 4 -34 -3 -66 -5 -70 -5 -4 -1 -3 -10 3 -20 15
-29 13 -31 -25 -31 -28 0 -35 4 -35 20 0 11 5 20 12 20 6 0 8 3 5 6 -11 11
-52 10 -59 -1 -5 -6 -8 -4 -8 5 0 13 -1 13 -10 0 -6 -10 -10 -11 -10 -2 0 6
-8 12 -17 12 -15 0 -16 -2 -3 -10 9 -6 10 -10 3 -10 -6 0 -15 5 -18 10 -3 6
-34 9 -68 8 l-62 -1 59 -6 c51 -5 57 -8 44 -19 -11 -9 -18 -10 -23 -2 -9 14
-72 13 -78 -2 -3 -7 -6 -3 -6 9 -1 30 -21 40 -21 11z"/>
<path d="M2468 103 c17 -2 47 -2 65 0 17 2 3 4 -33 4 -36 0 -50 -2 -32 -4z"/>
<path d="M2570 101 c0 -6 -6 -11 -14 -11 -8 0 -17 -4 -21 -9 -3 -6 4 -8 16 -6
13 3 26 10 31 17 6 10 8 9 8 -2 0 -11 10 -16 33 -17 20 0 23 1 9 4 -12 2 -20
9 -17 14 4 5 2 9 -4 9 -5 0 -16 3 -25 6 -9 3 -16 1 -16 -5z"/>
<path d="M780 70 c0 -4 38 -7 85 -7 47 0 85 2 85 6 0 3 -38 6 -85 6 -47 1 -85
-2 -85 -5z"/>
<path d="M1970 69 c-22 -6 -21 -7 10 -8 19 0 41 3 49 8 17 11 -23 11 -59 0z"/>
<path d="M70 51 c41 -4 133 -7 205 -6 72 1 166 -3 210 -10 74 -11 113 -10 101
3 -9 8 -78 11 -341 16 -141 2 -217 1 -175 -3z"/>
<path d="M2405 53 c22 -2 44 -8 50 -13 13 -10 143 -25 133 -15 -8 8 -109 25
-178 29 -34 2 -35 2 -5 -1z"/>
<path d="M600 43 c0 -5 21 -7 47 -6 28 1 51 -3 55 -10 5 -7 8 -8 8 -1 0 6 29
9 81 6 57 -3 79 -1 75 7 -8 12 -266 16 -266 4z"/>
<path d="M891 41 c-21 -14 22 -24 62 -15 32 7 32 7 7 15 -35 10 -53 10 -69 0z"/>
<path d="M996 28 c3 -4 9 -6 14 -3 5 3 16 -3 26 -12 17 -17 18 -17 11 1 -6 15
-4 17 13 13 11 -3 20 -1 20 3 0 5 -20 8 -45 8 -24 -1 -42 -5 -39 -10z"/>
<path d="M1133 33 c9 -2 17 -8 17 -12 0 -12 179 -18 270 -10 14 2 41 -1 60 -5
26 -5 31 -4 20 3 -11 8 40 10 175 6 132 -3 185 -1 175 6 -11 8 2 9 45 5 34 -3
67 -1 75 5 10 7 -91 7 -310 2 -402 -9 -401 -9 -480 -1 -36 3 -57 4 -47 1z"/>
<path d="M2000 32 c0 -5 48 -7 108 -5 152 6 158 10 15 12 -68 0 -123 -3 -123
-7z"/>
</g>
</svg>
