<?xml version="1.0" standalone="no"?>
<!DOCTYPE svg PUBLIC "-//W3C//DTD SVG 20010904//EN"
 "http://www.w3.org/TR/2001/REC-SVG-20010904/DTD/svg10.dtd">
<svg version="1.0" xmlns="http://www.w3.org/2000/svg"
 width="300.000000pt" height="168.000000pt" viewBox="0 0 300.000000 168.000000"
 preserveAspectRatio="xMidYMid meet">
<metadata>
Created by potrace 1.10, written by Peter Selinger 2001-2011
</metadata>
<g transform="translate(0.000000,168.000000) scale(0.100000,-0.100000)"
fill="#000000" stroke="none">
<path d="M1380 1661 c0 -5 14 -14 30 -20 34 -11 39 -5 13 15 -21 15 -43 18
-43 5z"/>
<path d="M400 1641 c0 -5 -8 -12 -17 -14 -10 -3 -2 -5 17 -6 46 -1 71 14 38
22 -32 9 -38 9 -38 -2z"/>
<path d="M510 1641 c0 -6 10 -11 22 -11 12 0 32 -12 45 -26 12 -14 27 -23 33
-19 16 10 -33 52 -70 60 -19 4 -30 3 -30 -4z"/>
<path d="M653 1633 c-7 -2 -13 -8 -13 -12 0 -4 6 -8 13 -9 42 -5 76 -15 72
-21 -2 -4 6 -7 17 -6 12 1 24 7 26 13 2 7 -2 10 -12 6 -8 -3 -29 4 -45 15 -30
21 -37 23 -58 14z"/>
<path d="M180 1615 c-13 -16 -6 -20 34 -15 10 1 22 -4 26 -10 5 -9 10 -9 14
-1 4 6 -5 13 -21 17 -15 4 -31 11 -34 16 -3 5 -12 2 -19 -7z"/>
<path d="M914 1622 c3 -4 -36 -27 -86 -51 -104 -49 -197 -114 -194 -135 3 -20
27 -47 36 -41 5 3 11 -1 13 -7 3 -7 6 -3 6 10 1 12 5 22 10 22 5 0 8 6 7 13 0
6 4 12 9 12 5 0 9 -4 7 -8 -1 -4 7 -3 18 3 22 12 27 22 8 15 -8 -3 -14 4 -14
20 l-2 25 31 -26 c23 -20 32 -22 38 -12 14 21 10 26 -16 23 -21 -2 -23 0 -13
12 9 11 9 16 -1 23 -11 6 -9 10 7 19 26 14 43 14 19 0 -14 -8 -16 -14 -7 -24
17 -20 41 3 29 27 -8 14 -4 19 18 24 16 4 33 11 39 16 17 13 54 18 54 7 0 -5
-9 -9 -19 -9 -25 0 -38 -20 -21 -30 7 -4 9 -13 6 -19 -4 -6 -2 -11 3 -11 6 0
11 9 11 20 0 11 6 20 14 20 8 0 17 6 19 13 3 7 6 5 6 -5 1 -10 6 -18 12 -18 5
0 8 -4 5 -9 -4 -5 -1 -11 4 -13 6 -2 12 -27 12 -56 1 -35 6 -52 14 -52 8 0 11
6 8 15 -4 8 -1 15 5 15 6 0 11 -7 11 -16 0 -8 4 -13 9 -10 5 4 7 -4 3 -16 -3
-13 -1 -19 5 -15 7 5 9 0 6 -13 -4 -15 0 -20 15 -20 20 0 20 2 -9 88 -16 48
-37 94 -47 102 -10 8 -21 23 -25 33 -4 11 -12 15 -18 11 -8 -4 -9 -3 -5 4 3 6
-2 16 -13 21 -23 13 -34 14 -27 3z m-159 -112 c3 -5 0 -7 -9 -4 -9 3 -21 -5
-31 -20 -10 -14 -24 -26 -31 -26 -8 0 -14 -7 -14 -16 0 -8 5 -12 10 -9 6 3 10
3 10 0 0 -7 -30 -39 -31 -33 -9 43 -4 55 35 85 46 35 52 37 61 23z"/>
<path d="M1283 1560 c4 -14 7 -28 7 -32 0 -5 6 -8 14 -8 18 0 10 34 -12 52
-13 11 -15 10 -9 -12z"/>
<path d="M830 1546 c0 -8 6 -17 13 -20 8 -3 6 -9 -7 -20 -20 -16 -20 -16 0
-17 10 0 13 -3 7 -6 -7 -2 -13 -11 -13 -20 0 -12 2 -12 14 0 8 7 13 28 12 45
-1 18 2 32 7 32 4 0 5 5 2 10 -9 15 -35 12 -35 -4z"/>
<path d="M1407 1541 c6 -22 33 -37 33 -18 0 14 -20 37 -31 37 -4 0 -5 -9 -2
-19z"/>
<path d="M145 1529 c-18 -8 -17 -9 4 -5 14 3 31 0 38 -6 7 -6 22 -8 33 -5 11
3 20 1 20 -4 0 -5 5 -9 12 -9 8 0 8 4 -2 14 -20 18 -80 27 -105 15z"/>
<path d="M346 1531 c-3 -5 9 -11 28 -13 24 -3 32 0 29 9 -6 15 -49 18 -57 4z"/>
<path d="M930 1481 c0 -6 5 -11 11 -11 5 0 7 -4 4 -10 -3 -5 1 -10 10 -10 22
0 15 34 -8 38 -9 2 -17 -1 -17 -7z"/>
<path d="M885 1462 c-15 -10 -13 -82 2 -82 7 0 10 7 7 15 -4 8 -2 21 3 28 27
34 19 62 -12 39z"/>
<path d="M181 1441 c-17 -11 7 -29 49 -38 24 -4 31 -3 26 5 -4 7 -13 12 -21
12 -7 0 -20 6 -28 14 -7 8 -19 11 -26 7z"/>
<path d="M551 1376 c-34 -35 -51 -58 -46 -67 5 -7 4 -10 -2 -6 -12 8 -66 -100
-58 -114 4 -5 1 -9 -5 -9 -6 0 -10 -10 -8 -22 3 -24 24 -23 21 1 -1 9 2 10 10
2 8 -8 4 -18 -13 -36 -13 -14 -20 -25 -16 -25 4 0 2 -8 -3 -18 -7 -13 -6 -23
2 -31 9 -10 8 -11 -6 -5 -15 5 -16 3 -8 -18 7 -19 3 -35 -16 -74 -21 -39 -27
-67 -29 -137 -3 -77 -7 -93 -31 -123 -18 -25 -26 -47 -26 -72 3 -96 2 -107
-15 -120 -9 -7 -25 -11 -34 -8 -12 3 -18 -2 -18 -14 0 -10 -8 -21 -17 -23 -10
-3 -4 -4 12 -2 19 1 29 7 27 16 -3 11 -1 12 9 2 10 -11 9 -16 -6 -27 -11 -8
-24 -12 -29 -8 -5 3 -7 -2 -3 -11 3 -10 2 -17 -3 -17 -6 0 -10 5 -10 11 0 6
-7 9 -15 5 -9 -3 -15 0 -15 9 0 8 -7 15 -15 15 -8 0 -15 -5 -15 -11 0 -6 -7
-9 -15 -5 -10 4 -15 -1 -15 -14 0 -20 -14 -25 -55 -21 -15 1 -17 -1 -8 -10 6
-6 9 -17 7 -24 -3 -7 2 -15 10 -18 15 -6 20 3 17 31 -2 15 21 16 36 1 16 -16
32 -2 26 24 -3 15 -2 18 4 9 5 -7 16 -10 24 -7 8 3 23 -1 34 -9 17 -12 18 -17
7 -41 -11 -23 -11 -30 0 -36 10 -7 11 -12 1 -28 -11 -17 -10 -19 2 -15 22 9
18 -6 -8 -28 l-22 -20 25 4 c20 2 26 10 31 42 3 21 12 43 20 48 11 8 10 9 -3
4 -39 -12 -6 39 39 63 23 12 35 14 192 46 69 13 85 14 92 3 7 -10 9 -10 9 2 0
9 8 16 18 17 9 1 42 4 72 7 30 3 82 8 115 11 33 3 80 7 105 9 53 5 162 15 240
21 30 3 124 7 207 10 133 5 152 4 147 -9 -4 -11 0 -13 16 -9 13 3 20 12 18 22
-3 14 -22 16 -153 13 -83 -1 -242 -9 -354 -17 -112 -9 -219 -12 -239 -9 -27 5
-33 4 -27 -6 6 -10 0 -12 -24 -8 -17 2 -31 0 -31 -5 0 -6 -3 -7 -7 -4 -3 4
-13 1 -21 -6 -13 -10 -14 -9 -7 2 6 11 4 13 -11 6 -10 -5 -48 -10 -83 -11 -35
-2 -67 -7 -70 -13 -4 -5 -22 -12 -41 -14 -19 -2 -43 -8 -52 -12 -9 -4 -22 -4
-27 0 -6 3 -21 -1 -34 -10 -13 -8 -35 -16 -50 -17 -16 -1 -29 -10 -33 -20 -6
-19 -34 -25 -34 -8 0 6 4 10 9 10 9 0 26 38 35 83 4 15 11 25 15 22 5 -3 12
19 16 47 3 29 9 61 12 72 3 12 1 16 -6 12 -15 -9 -14 -1 3 32 13 25 66 78 66
66 0 -3 13 4 28 15 23 16 32 18 42 8 10 -9 11 -9 6 1 -4 7 -1 15 8 18 22 8 21
54 0 54 -13 0 -14 -3 -5 -14 12 -14 0 -32 -13 -19 -9 10 -7 41 3 45 5 2 12 32
16 68 6 60 5 64 -9 46 -9 -11 -16 -28 -16 -38 0 -10 -4 -18 -10 -18 -5 0 -10
-4 -10 -10 0 -5 7 -10 15 -10 12 0 12 -5 0 -40 -8 -22 -10 -40 -5 -40 6 0 10
-4 10 -10 0 -12 -26 -14 -33 -2 -2 4 -2 1 -1 -6 2 -7 -8 -17 -22 -22 -33 -13
-33 -13 -27 10 3 10 10 18 15 17 6 -1 15 12 21 28 5 17 15 33 21 37 6 5 7 8 1
8 -14 0 -12 61 3 85 6 11 12 16 12 12 0 -5 12 5 26 22 14 17 32 31 40 31 8 0
14 3 14 8 0 13 67 45 79 38 6 -4 11 -1 11 6 0 18 65 52 81 43 8 -5 10 -4 5 3
-4 7 -1 12 8 12 10 0 16 -9 17 -22 1 -20 2 -20 6 -4 7 28 22 40 76 61 47 18
70 35 45 35 -7 -1 -24 -7 -38 -15 -38 -21 -70 -19 -70 5 0 11 5 20 10 20 6 0
10 -7 10 -16 0 -12 6 -9 21 10 11 14 26 26 32 25 25 -3 37 2 34 14 -1 7 7 11
21 10 13 -2 22 3 22 11 0 17 -45 10 -61 -10 -6 -8 -16 -14 -21 -14 -6 0 -5 7
2 15 10 12 9 15 -4 15 -10 0 -14 5 -11 10 3 6 2 10 -4 10 -5 0 -13 -4 -16 -10
-3 -5 -1 -10 4 -10 38 0 -43 -54 -94 -63 -5 -1 -16 -8 -23 -14 -7 -7 -18 -13
-24 -13 -18 0 -2 23 28 39 16 9 40 24 54 33 18 14 26 15 32 5 4 -7 7 2 7 23 0
28 -2 31 -8 15 -5 -11 -31 -32 -57 -47 -43 -23 -51 -24 -62 -11 -8 8 -12 23
-9 34 3 10 1 17 -4 13 -5 -3 -9 -12 -9 -20 0 -8 -4 -13 -9 -10 -5 3 -11 -3
-14 -15 -4 -16 -3 -18 8 -9 8 7 19 9 25 5 8 -5 2 -18 -17 -38 -15 -18 -18 -24
-7 -14 17 14 23 15 27 4 3 -8 -11 -21 -39 -34 -46 -23 -57 -21 -26 4 9 8 11
12 5 8 -7 -3 -13 -1 -13 6 0 7 -6 4 -14 -6 -10 -14 -11 -25 -5 -37 7 -14 6
-18 -6 -18 -9 0 -13 5 -10 10 10 16 -1 11 -16 -7 -10 -11 -10 -14 -1 -9 6 4
12 5 12 2 0 -3 -9 -10 -19 -15 -16 -9 -18 -8 -15 12 4 20 4 21 -5 2 -4 -11 -7
-23 -5 -27 5 -9 -47 -50 -55 -43 -3 4 0 10 7 14 7 4 14 23 15 42 1 19 6 37 11
41 5 3 9 20 9 38 0 23 4 29 15 25 12 -4 13 -3 3 9 -7 8 -9 21 -5 27 5 8 3 10
-7 4 -8 -5 -5 1 5 13 11 12 16 25 13 28 -3 4 0 13 8 20 20 20 27 17 13 -6 -10
-15 -10 -22 0 -32 16 -16 15 -29 -1 -22 -8 3 -14 -2 -14 -11 0 -10 6 -14 15
-10 11 4 13 0 8 -17 -3 -13 -6 -27 -6 -33 0 -5 -5 -3 -11 5 -9 13 -10 13 -6
-1 3 -9 0 -22 -6 -28 -6 -6 -8 -11 -4 -11 17 0 52 47 53 70 1 14 5 40 9 59 6
24 5 32 -3 27 -6 -4 -9 -13 -5 -21 3 -8 0 -15 -6 -15 -7 0 -14 7 -18 16 -6 17
42 74 64 74 7 0 12 4 11 8 -2 5 10 19 25 33 28 24 28 24 9 47 -11 12 -21 22
-24 22 -2 0 -28 -24 -57 -54z m53 29 c-4 -8 -1 -15 5 -15 16 0 14 -27 -3 -33
-10 -4 -12 0 -9 14 3 10 0 19 -6 19 -6 0 -11 -7 -11 -15 0 -8 -4 -15 -10 -15
-16 0 -12 12 12 37 25 27 29 29 22 8z m148 -266 c-14 -13 -75 -29 -85 -22 -6
3 -7 1 -3 -5 8 -14 -50 -46 -66 -36 -6 4 -8 3 -5 -3 3 -5 -13 -20 -36 -33 -48
-27 -147 -121 -147 -139 0 -7 5 -9 10 -6 14 9 13 -3 -6 -52 -18 -46 -34 -56
-34 -22 0 11 5 17 10 14 6 -3 10 0 10 9 0 8 3 22 7 32 4 12 3 15 -6 10 -7 -5
-1 15 13 43 15 28 30 51 35 51 4 0 13 11 19 25 6 14 17 24 24 23 7 -2 12 3 10
10 -1 8 2 11 7 7 6 -3 19 3 31 15 11 11 20 17 20 14 0 -3 7 2 16 11 10 9 25
14 36 12 10 -3 15 -1 12 4 -3 5 2 12 10 15 9 3 14 10 11 14 -3 5 -1 11 5 15 5
3 10 1 10 -6 0 -8 4 -8 15 1 8 7 24 10 35 7 11 -3 18 -1 15 3 -3 5 1 10 7 13
15 5 31 -15 20 -24z"/>
<path d="M773 1412 c-18 -9 -33 -20 -33 -24 0 -5 4 -7 9 -4 5 4 7 -4 4 -16 -4
-16 -2 -20 5 -13 5 6 12 19 14 29 1 11 10 22 18 24 13 5 13 3 2 -11 -8 -9 -12
-22 -10 -29 3 -8 12 -2 23 15 23 36 9 49 -32 29z"/>
<path d="M1790 1410 c0 -5 -12 -10 -27 -10 -23 -1 -25 -2 -12 -10 22 -13 88 8
67 21 -18 12 -28 11 -28 -1z"/>
<path d="M1211 1395 c2 -10 19 -25 37 -32 45 -18 39 4 -7 31 -32 18 -33 18
-30 1z"/>
<path d="M990 1380 c-12 -8 -11 -10 7 -10 16 0 21 -4 17 -15 -6 -15 7 -21 19
-9 6 6 -14 44 -23 44 -3 0 -12 -5 -20 -10z"/>
<path d="M705 1371 c-3 -5 -1 -12 5 -16 6 -4 7 -12 3 -18 -4 -7 -8 -15 -9 -19
-1 -5 -2 -9 -4 -10 -6 -8 -7 -38 -2 -38 16 1 31 17 37 42 11 43 -11 88 -30 59z"/>
<path d="M915 1370 c-3 -5 -3 -22 0 -37 3 -15 2 -22 -1 -15 -4 10 -10 8 -22
-5 -10 -10 -28 -24 -42 -31 -25 -11 -25 -11 4 -5 22 4 27 3 21 -7 -5 -9 -4
-11 3 -6 7 4 12 14 12 22 0 8 7 14 16 14 11 0 14 -6 10 -17 -5 -14 -2 -13 11
3 19 23 119 48 129 33 3 -5 13 -9 22 -9 13 0 14 2 4 9 -11 7 -11 9 2 14 9 4
16 1 16 -5 0 -6 7 -20 17 -30 9 -10 13 -21 10 -25 -4 -4 -13 1 -20 10 -11 15
-15 15 -39 3 -19 -10 -29 -11 -37 -3 -9 9 -14 8 -20 -1 -5 -8 -11 -13 -15 -13
-3 1 -9 1 -13 0 -5 -1 -19 -2 -33 -2 -15 -1 -26 -9 -28 -20 -3 -17 0 -18 30
-11 18 5 49 9 70 9 20 0 34 3 32 7 -12 19 56 7 69 -12 19 -27 27 -15 27 37 0
67 -46 106 -83 68 -8 -8 -16 -12 -19 -10 -2 2 -30 -2 -61 -9 l-57 -13 0 28 c0
22 4 27 17 22 11 -4 14 -3 9 5 -9 14 -33 16 -41 2z"/>
<path d="M575 1277 c3 -7 1 -33 -4 -59 -4 -27 -5 -45 0 -42 5 3 9 16 9 30 0
13 3 24 8 24 4 0 8 14 9 30 2 20 -2 30 -12 30 -8 0 -12 -6 -10 -13z"/>
<path d="M1895 1244 c-11 -8 -28 -13 -37 -10 -11 2 -18 -2 -18 -11 0 -12 7
-14 28 -9 15 4 34 8 43 9 10 1 14 8 11 19 -2 10 -5 18 -6 18 0 0 -10 -7 -21
-16z"/>
<path d="M1081 1226 c-18 -10 -20 -15 -10 -20 9 -4 10 -8 3 -11 -6 -4 -9 -27
-6 -61 4 -54 4 -56 -16 -45 -19 10 -20 7 -24 -37 l-3 -47 53 -1 52 0 -4 33
c-2 19 -7 37 -11 41 -5 4 -5 -1 -1 -12 5 -14 2 -17 -9 -12 -8 3 -14 2 -14 -2
3 -19 -2 -33 -10 -28 -12 8 6 84 24 102 18 18 36 18 29 0 -3 -7 1 -29 9 -47 8
-19 13 -42 11 -52 -1 -11 4 -17 15 -17 17 0 17 3 1 73 -13 54 -21 72 -34 71
-20 -2 -20 10 0 31 9 9 15 17 13 18 -2 1 -13 10 -24 19 -17 14 -24 15 -44 4z
m35 -21 c4 -8 3 -23 -2 -32 -4 -10 -8 -22 -8 -27 -2 -22 -23 -14 -23 9 0 16 5
25 16 26 10 0 11 2 4 6 -16 6 -17 33 -3 33 6 0 13 -7 16 -15z"/>
<path d="M975 1209 c-22 -6 -48 -8 -58 -5 -9 2 -15 0 -11 -5 3 -5 1 -9 -4 -9
-5 0 -9 -11 -9 -25 0 -14 3 -25 8 -25 5 0 8 3 8 8 -4 23 6 30 55 41 29 6 59
11 66 9 7 -2 15 3 17 10 5 14 -14 14 -72 1z"/>
<path d="M1275 1208 c-4 -10 -13 -18 -21 -18 -8 0 -14 -9 -14 -19 0 -23 34
-18 53 9 7 9 19 20 27 24 9 3 6 5 -7 2 -12 -2 -24 1 -26 8 -3 6 -8 4 -12 -6z"/>
<path d="M1672 1198 c-21 -21 -13 -25 43 -24 30 0 55 4 55 8 0 4 -21 8 -46 8
-27 0 -43 4 -39 10 8 14 2 13 -13 -2z"/>
<path d="M2176 1195 c-3 -9 0 -15 9 -15 8 0 15 4 15 9 0 5 10 12 23 14 16 3
14 5 -9 6 -20 0 -34 -5 -38 -14z"/>
<path d="M1514 1192 c-13 -10 -14 -42 0 -42 25 0 35 15 22 32 -7 9 -16 14 -22
10z"/>
<path d="M962 1160 c-23 -10 -54 -67 -45 -85 2 -5 -3 -1 -11 9 -9 11 -16 16
-17 10 0 -5 -2 -16 -4 -25 -2 -11 4 -17 19 -17 11 0 30 -2 40 -4 15 -2 19 3
20 27 1 17 -5 35 -13 42 -9 7 -11 13 -5 13 5 0 15 -5 21 -11 8 -8 18 -6 38 7
25 17 26 19 9 31 -20 15 -21 15 -52 3z"/>
<path d="M1327 1156 c-16 -13 -15 -14 10 -12 15 2 29 7 31 12 5 15 -22 15 -41
0z"/>
<path d="M2880 1154 c0 -11 -56 -34 -82 -34 -16 0 -21 -31 -5 -41 12 -8 47 1
47 11 0 5 -10 11 -22 13 -13 2 -5 5 18 6 34 1 43 5 47 23 4 12 4 24 2 27 -3 2
-5 0 -5 -5z"/>
<path d="M1877 1143 c-14 -14 -6 -28 17 -28 19 0 21 3 12 18 -12 18 -19 21
-29 10z"/>
<path d="M850 1126 c0 -10 -7 -12 -22 -8 -17 4 -20 2 -15 -11 4 -10 2 -17 -3
-17 -6 0 -10 7 -10 16 0 14 -3 14 -15 4 -8 -7 -15 -19 -15 -26 0 -8 -8 -22
-18 -32 -23 -23 -35 -52 -22 -52 6 0 10 7 10 16 0 8 4 13 9 10 5 -3 8 -14 6
-24 -1 -9 0 -11 2 -4 6 17 33 15 33 -3 0 -8 -6 -15 -12 -15 -10 0 -9 -3 1 -9
9 -6 10 -11 2 -15 -6 -4 -11 -2 -11 3 0 22 -18 10 -22 -14 -4 -17 -1 -25 8
-25 8 0 14 5 14 10 0 6 11 3 25 -6 14 -9 25 -25 25 -35 0 -22 22 -21 32 1 5
12 7 11 7 -4 1 -20 1 -20 17 0 8 10 12 13 8 5 -4 -8 -3 -12 3 -8 6 4 28 9 49
11 21 3 76 12 121 20 45 8 92 12 103 9 11 -3 20 -1 20 4 0 13 58 15 65 2 4 -5
-4 -9 -16 -9 -12 0 -20 -3 -16 -6 11 -11 68 7 60 19 -4 7 1 6 10 -2 15 -12 20
-12 35 1 14 12 21 12 39 3 13 -6 20 -15 15 -20 -4 -5 -1 -5 6 -1 6 4 12 2 12
-4 0 -7 6 -10 13 -7 6 2 18 -3 25 -12 8 -9 11 -10 7 -3 -3 6 0 12 7 12 7 0 24
3 37 7 20 5 23 3 18 -10 -5 -13 -1 -17 14 -17 15 0 19 5 15 15 -7 20 3 19 26
-2 21 -19 31 -14 22 11 -6 15 -19 17 -90 14 -74 -3 -85 -1 -90 15 -3 11 -12
16 -20 13 -7 -3 -13 -2 -12 2 3 10 -55 91 -65 92 -5 0 -6 -4 -3 -9 3 -4 -8 -7
-24 -5 -17 2 -30 0 -30 -5 0 -5 -20 -14 -45 -20 -25 -6 -45 -16 -45 -22 0 -6
7 -8 16 -5 9 3 33 6 54 6 22 0 45 6 52 14 10 11 15 9 30 -10 24 -30 23 -36 -5
-28 -29 7 -342 -33 -368 -47 -13 -6 -19 -6 -19 0 0 7 -9 7 -25 1 -18 -7 -25
-6 -25 3 0 8 -4 7 -10 -3 -7 -12 -12 -12 -22 -2 -10 10 -10 15 2 23 12 8 10 9
-8 4 -21 -6 -22 -4 -18 29 2 19 7 40 11 46 3 5 -1 10 -10 10 -17 0 -14 5 30
53 18 20 33 67 20 67 -3 0 -5 -6 -5 -14z"/>
<path d="M1501 1104 c20 -22 25 -23 27 -9 4 19 -13 35 -37 35 -10 0 -7 -8 10
-26z"/>
<path d="M2527 1090 c-16 -10 -24 -20 -19 -24 5 -3 18 1 28 9 10 8 29 15 42
15 12 0 22 5 22 10 0 16 -42 10 -73 -10z"/>
<path d="M1366 1085 c-8 -8 -25 -16 -38 -16 -18 -1 -19 -2 -5 -6 17 -4 87 22
87 32 0 11 -30 4 -44 -10z"/>
<path d="M850 1037 c0 -48 5 -58 26 -50 19 7 18 53 -1 53 -8 0 -15 5 -15 10 0
6 5 10 11 10 5 0 7 5 4 10 -14 22 -25 7 -25 -33z"/>
<path d="M1590 1070 c0 -3 20 -10 45 -16 25 -6 45 -7 45 -2 0 4 16 8 37 8 20
0 33 3 30 7 -8 7 -157 10 -157 3z"/>
<path d="M663 1062 c-16 -10 -28 -62 -14 -62 6 0 11 -5 11 -10 0 -19 -35 -6
-42 15 -5 17 -6 16 -7 -7 -1 -14 -4 -35 -7 -45 -5 -16 -4 -16 5 -2 16 25 61
13 61 -17 0 -13 -5 -24 -11 -24 -6 0 -8 7 -5 16 4 11 1 14 -11 12 -9 -2 -18
-9 -21 -17 -3 -8 0 -11 7 -7 16 10 14 0 -6 -32 -15 -22 -15 -25 -2 -15 9 7 20
9 24 5 5 -4 5 -2 2 4 -4 7 3 14 16 18 20 5 23 11 22 43 -1 21 3 47 10 58 26
43 4 90 -32 67z"/>
<path d="M1596 1042 c-3 -5 -4 -18 -1 -30 4 -25 -32 -52 -70 -52 -15 0 -25 -6
-25 -15 0 -11 11 -14 50 -12 47 2 50 4 50 30 0 24 4 27 33 28 27 0 29 2 12 9
-11 5 -14 9 -7 9 7 1 10 6 7 12 -4 6 -14 8 -22 5 -8 -3 -11 -2 -8 3 3 5 1 12
-4 15 -5 4 -12 2 -15 -2z"/>
<path d="M921 1021 c-8 -5 -11 -16 -8 -26 4 -9 3 -14 -3 -10 -6 3 -10 -1 -10
-10 0 -12 6 -15 23 -9 25 8 37 22 37 47 0 18 -17 22 -39 8z"/>
<path d="M557 992 c-10 -10 -17 -24 -17 -31 0 -7 -7 -19 -15 -27 -8 -9 -14
-23 -14 -32 1 -15 2 -15 6 1 6 22 14 22 41 -3 l22 -21 1 28 c1 15 3 45 5 66 3
41 -5 46 -29 19z"/>
<path d="M1728 993 c-32 -2 -58 -8 -58 -13 0 -4 -3 -16 -6 -25 -6 -14 0 -16
48 -12 30 2 60 7 67 12 8 4 17 2 23 -6 8 -12 9 -11 5 1 -2 8 -19 18 -38 21
l-34 6 32 2 c17 0 38 -5 45 -12 17 -17 78 -30 78 -17 0 14 27 12 36 -2 4 -6 0
-16 -8 -22 -10 -7 -12 -18 -7 -31 7 -18 8 -18 8 -2 1 10 6 15 11 12 6 -3 10 3
10 14 0 30 37 28 43 -1 4 -20 4 -19 6 5 1 27 -9 33 -48 28 -7 -2 -10 2 -6 8 3
6 19 11 36 11 32 0 28 14 35 -145 2 -53 14 -114 24 -120 8 -5 7 15 -4 100 -19
157 -19 156 -2 149 9 -3 13 -10 10 -15 -8 -14 6 -10 22 6 22 21 34 19 35 -7 0
-21 1 -21 8 -4 5 14 10 16 15 8 4 -7 5 -16 1 -21 -3 -5 4 -16 15 -24 11 -7 17
-17 13 -20 -3 -4 -2 -7 4 -7 6 0 14 7 17 16 3 8 2 13 -3 10 -5 -3 -15 2 -22
11 -12 15 -12 16 5 9 19 -6 19 -6 3 12 -20 22 -23 39 -4 24 7 -6 37 -11 66
-10 30 0 56 -4 60 -10 3 -5 24 -12 46 -16 64 -11 175 -48 170 -56 -10 -17 6
-35 33 -36 l27 -1 -27 10 c-16 6 -28 14 -28 19 0 11 7 10 40 -7 17 -9 32 -15
36 -14 3 0 9 -3 12 -7 4 -4 2 -4 -5 0 -14 8 -27 -10 -13 -19 5 -3 10 -18 11
-33 0 -15 5 -36 10 -47 9 -19 9 -18 5 3 -2 12 0 22 5 22 5 0 9 -11 9 -25 0
-14 -4 -25 -10 -25 -6 0 -6 -9 -1 -22 4 -13 6 -30 4 -38 -4 -12 -3 -13 5 -1 5
7 14 11 20 7 7 -4 8 4 1 26 -5 18 -9 45 -9 60 0 16 -4 28 -9 28 -5 0 -9 13 -9
30 1 41 23 23 26 -22 1 -18 7 -46 12 -63 5 -16 11 -44 12 -62 1 -17 6 -29 11
-26 4 2 5 26 2 51 l-5 47 13 -40 c8 -22 12 -45 10 -51 -2 -6 3 -16 11 -23 11
-10 14 -24 9 -57 -5 -37 -3 -44 11 -44 21 0 19 7 66 -232 10 -52 14 -58 36
-58 13 0 24 -6 24 -12 0 -9 3 -9 8 -2 24 35 72 8 72 -41 0 -14 4 -25 10 -25 5
0 7 7 4 15 -4 8 -1 15 5 15 6 0 10 6 8 13 -1 7 8 11 23 10 20 -1 17 2 -13 14
-25 11 -36 21 -33 30 3 8 1 11 -4 8 -6 -4 -26 -8 -45 -10 -30 -3 -35 0 -35 18
0 18 2 19 10 7 7 -10 8 -3 5 25 -5 37 -4 38 6 13 11 -30 49 -39 49 -13 0 8 -6
12 -14 9 -8 -3 -19 3 -26 15 -14 27 -30 27 -30 0 0 -20 -25 -48 -43 -49 -5 0
-6 14 -2 30 4 20 3 30 -5 30 -6 0 -8 5 -5 10 5 8 12 7 23 -2 15 -12 16 -11 3
5 -7 9 -10 17 -5 18 5 0 -2 5 -16 10 -13 6 -20 13 -15 17 13 9 20 56 7 48 -22
-14 -22 16 0 34 l23 20 -30 -6 c-29 -5 -29 -5 -11 10 11 9 29 16 40 16 14 0
17 3 9 8 -8 5 -9 13 -3 22 6 9 10 10 10 3 0 -6 9 -9 23 -6 18 4 19 3 7 -6 -12
-9 -11 -11 10 -12 14 -1 30 -1 37 0 6 1 15 -8 18 -20 6 -17 9 -19 17 -8 7 11
11 11 15 2 2 -7 9 -13 14 -13 6 0 8 4 5 9 -3 5 5 12 19 15 30 8 34 36 4 36
-11 0 -18 -4 -15 -9 4 -5 -11 -5 -35 0 -22 5 -44 7 -49 4 -4 -3 -10 2 -14 10
-8 21 -56 18 -85 -4 -27 -21 -61 -17 -62 8 0 12 -2 12 -10 -4 -6 -14 -7 -3 -3
34 5 41 3 52 -6 46 -9 -5 -10 -2 -6 13 8 24 -11 108 -31 140 -19 31 -26 23
-13 -14 9 -22 8 -26 0 -17 -7 6 -13 26 -15 45 -2 28 -10 37 -56 65 -136 81
-350 131 -634 148 -60 3 -121 7 -135 9 -14 1 -51 1 -82 -1z"/>
<path d="M963 968 c-56 -22 -72 -43 -25 -32 15 3 34 8 42 12 15 5 25 7 84 10
22 2 26 5 18 15 -16 19 -61 17 -119 -5z"/>
<path d="M719 938 c-9 -28 -7 -58 3 -58 8 0 6 -5 -5 -11 -9 -6 -26 -7 -37 -4
-15 5 -18 3 -14 -9 8 -21 34 -28 40 -11 3 7 12 11 20 8 8 -3 14 1 14 8 0 11 3
11 10 -1 9 -13 10 -13 11 0 0 10 3 8 9 -5 8 -19 9 -19 9 3 1 12 -5 23 -11 23
-7 1 -20 2 -28 3 -10 1 -15 11 -14 29 1 22 -3 36 -7 25z"/>
<path d="M1603 923 c-7 -2 -13 -11 -13 -19 0 -10 13 -14 46 -14 25 0 43 4 39
9 -3 6 3 14 12 20 14 8 9 10 -27 10 -25 0 -51 -3 -57 -6z"/>
<path d="M1725 920 c18 -8 18 -9 2 -9 -22 -1 -12 -21 10 -21 9 0 22 8 29 18
13 16 14 16 7 -2 -4 -13 -2 -17 8 -14 8 3 14 11 14 19 0 10 -14 15 -45 16 -34
2 -40 0 -25 -7z"/>
<path d="M2220 920 c0 -5 5 -10 10 -10 16 0 12 -47 -5 -54 -10 -4 -14 1 -12
16 1 11 -4 23 -10 25 -8 3 -13 -4 -13 -16 0 -17 -7 -21 -32 -22 -18 -1 -25 -3
-15 -6 10 -3 14 -10 11 -16 -5 -9 -4 -9 5 -1 33 30 66 -19 63 -96 0 -22 0 -22
4 -3 4 15 10 20 21 16 12 -5 14 -3 8 7 -5 8 -3 11 5 8 21 -7 24 -28 3 -29 -13
-1 -11 -3 7 -9 14 -4 19 -8 12 -9 -10 -1 -10 -4 0 -15 18 -20 28 0 17 36 -4
16 -11 57 -14 91 -3 33 -7 63 -10 65 -5 5 -9 -79 -6 -105 2 -17 -9 -16 -32 1
-15 12 -17 18 -7 35 6 12 15 19 21 16 5 -4 9 11 9 33 0 27 -5 42 -16 46 -21 8
-24 8 -24 -4z"/>
<path d="M1335 903 c-3 -10 -2 -19 4 -21 7 -2 6 -10 -2 -23 -9 -15 -9 -23 1
-39 12 -20 12 -20 -12 -5 -27 18 -38 10 -25 -20 6 -17 8 -17 8 -2 1 23 17 22
34 -3 8 -11 17 -17 21 -13 4 4 9 -3 12 -15 7 -25 43 -40 54 -22 5 8 10 9 14 2
7 -12 -29 -26 -43 -18 -5 3 -11 -10 -13 -29 -2 -19 -1 -35 3 -35 4 0 5 -9 2
-20 -5 -17 0 -20 30 -20 54 0 68 8 61 36 -5 20 -2 24 17 25 13 0 18 3 12 6 -7
2 -13 13 -13 23 0 10 -5 22 -10 25 -6 4 -8 9 -6 13 6 11 -47 11 -66 1 -22 -12
-44 21 -26 39 9 9 9 12 0 12 -7 0 -12 -4 -12 -10 0 -5 -7 -7 -16 -3 -13 5 -13
8 -2 19 11 11 78 20 181 23 16 1 26 5 22 10 -3 5 0 13 6 17 14 8 28 -14 24
-38 -2 -10 1 -18 7 -18 5 0 8 7 5 15 -8 19 13 31 24 14 7 -11 9 -11 9 3 0 9
-8 19 -17 21 -11 3 -7 5 10 6 19 1 26 -3 21 -11 -5 -8 -2 -9 9 -5 10 3 17 2
17 -3 0 -6 4 -9 9 -7 5 1 16 -6 23 -16 12 -16 13 -14 15 13 2 26 -1 30 -25 31
l-27 1 25 9 c18 6 14 7 -17 3 -23 -3 -63 -6 -88 -6 -32 0 -45 -4 -45 -14 0 -8
-9 -14 -20 -14 -11 0 -20 4 -20 10 0 5 7 6 17 3 11 -4 14 -3 9 5 -10 17 -36
15 -36 -3 0 -8 -5 -15 -11 -15 -5 0 -7 5 -4 10 4 6 -16 10 -53 10 -58 0 -60 1
-65 30 -7 33 -21 39 -32 13z m120 -206 c17 -13 16 -15 -12 -24 -28 -10 -30
-10 -25 13 5 28 11 29 37 11z"/>
<path d="M1860 900 c0 -15 -7 -20 -29 -20 -21 0 -30 -6 -34 -22 -4 -12 -3 -25
1 -28 4 -3 7 -25 7 -50 1 -45 1 -45 38 -47 35 -1 37 1 37 28 0 24 4 29 24 29
26 0 39 -20 30 -45 -5 -12 -2 -14 17 -7 13 5 30 7 38 4 9 -3 11 0 6 8 -4 6
-15 10 -25 7 -11 -3 -21 2 -24 10 -3 8 -2 11 3 8 5 -3 12 -1 16 5 3 5 1 10 -6
10 -7 0 -9 3 -6 6 4 4 14 1 24 -7 9 -8 14 -9 10 -2 -4 6 -1 14 5 16 8 4 7 6
-3 6 -9 1 -19 8 -23 16 -3 8 -13 15 -23 15 -11 0 -14 -3 -7 -8 6 -4 8 -16 4
-26 -4 -14 -9 -16 -14 -8 -4 7 -16 12 -27 12 -10 0 -19 7 -19 15 0 8 -5 15
-11 15 -6 0 -9 -6 -6 -14 4 -9 -2 -13 -19 -13 -20 0 -24 4 -22 21 2 14 9 20
21 18 10 -2 16 3 15 10 -2 7 2 12 8 11 7 -1 9 8 6 22 -5 30 -12 33 -12 5z m1
-130 c5 0 9 -5 9 -11 0 -5 -4 -8 -9 -4 -5 3 -13 0 -17 -6 -4 -8 -9 -7 -15 2
-13 21 -11 32 7 25 9 -3 20 -6 25 -6z"/>
<path d="M2046 886 c5 -21 4 -27 -5 -22 -6 4 -11 2 -11 -3 0 -6 8 -11 18 -11
10 0 23 -5 29 -11 21 -21 8 19 -16 48 l-22 28 7 -29z"/>
<path d="M2590 905 c0 -4 6 -13 14 -21 16 -15 63 -17 111 -3 24 7 20 7 -18 4
-32 -3 -59 0 -78 10 -16 9 -29 13 -29 10z"/>
<path d="M528 877 c-7 -34 1 -40 27 -21 16 12 16 14 3 14 -9 0 -18 8 -20 18
-3 12 -6 8 -10 -11z"/>
<path d="M1160 888 c-30 -5 -74 -7 -97 -5 -24 3 -43 1 -43 -4 0 -5 3 -8 8 -8
18 3 24 -2 15 -13 -5 -7 -6 -29 -2 -48 l6 -35 3 30 c1 17 2 36 1 43 -1 6 3 12
9 12 5 0 10 -7 10 -15 0 -8 7 -15 16 -15 8 0 12 5 9 10 -3 6 -1 10 5 10 6 0 8
5 5 10 -4 6 8 10 27 11 18 0 43 2 56 5 14 2 21 0 17 -6 -3 -5 0 -10 8 -10 8 0
17 9 20 20 6 22 7 22 -73 8z"/>
<path d="M1737 860 c3 -11 9 -17 14 -14 5 3 7 9 4 14 -3 4 4 6 15 3 11 -3 20
0 20 6 0 6 -13 11 -29 11 -24 0 -28 -3 -24 -20z"/>
<path d="M1920 871 c-8 -6 -18 -7 -22 -5 -4 3 -8 1 -8 -4 0 -24 63 -18 68 6 2
14 -17 16 -38 3z"/>
<path d="M589 864 c-3 -5 -4 -19 -3 -32 1 -16 -2 -20 -9 -13 -6 6 -18 5 -33
-6 -29 -19 -30 -29 -4 -36 13 -3 20 0 20 9 0 8 3 13 8 12 12 -2 42 14 38 21
-3 4 8 6 25 5 31 -2 41 19 13 30 -9 3 -12 2 -9 -5 4 -6 -1 -9 -11 -7 -11 2
-22 9 -25 17 -3 8 -8 10 -10 5z"/>
<path d="M918 853 l-78 -15 0 -60 c0 -34 4 -57 9 -53 6 3 8 22 6 43 -5 43 2
59 30 64 14 2 21 -3 23 -19 2 -15 13 -24 33 -28 l29 -7 -19 -24 c-11 -13 -22
-48 -26 -77 -9 -68 -14 -87 -27 -87 -6 0 -8 25 -6 63 3 54 1 63 -14 64 -10 1
-18 -2 -18 -8 0 -5 5 -9 10 -9 6 0 10 -16 10 -36 0 -25 -3 -33 -12 -28 -9 5
-8 2 1 -10 11 -13 11 -20 3 -28 -9 -9 -12 -9 -12 0 0 7 -8 12 -17 12 -11 0
-14 -3 -7 -8 10 -7 27 -43 24 -51 -4 -10 29 -21 68 -21 29 0 44 5 48 15 4 10
10 12 18 6 14 -11 176 -19 176 -9 0 5 -24 8 -52 8 -29 0 -60 5 -68 11 -12 9
-12 10 3 5 10 -3 25 0 33 8 12 12 8 14 -30 14 -37 -1 -43 -4 -38 -20 2 -10 -1
-18 -7 -18 -6 0 -11 10 -11 23 l-1 22 -19 -24 c-13 -14 -20 -18 -21 -10 0 8
-4 5 -9 -6 -7 -16 -9 -16 -9 -3 -1 12 -10 16 -37 16 -57 0 -49 9 14 16 l59 7
6 67 c10 111 7 125 -33 144 -19 10 -29 18 -22 18 7 0 10 5 7 10 -3 6 1 10 9
10 9 0 16 -6 16 -12 0 -7 5 -5 11 5 12 21 29 22 29 2 0 -8 5 -15 11 -15 6 0 8
7 5 16 -3 9 -6 20 -6 25 0 11 6 11 -92 -8z"/>
<path d="M1247 859 c-9 -6 -15 -15 -11 -20 3 -6 11 -3 18 7 11 14 13 9 12 -35
-1 -46 4 -56 27 -52 4 0 7 -12 7 -28 0 -17 5 -33 10 -36 6 -4 8 3 6 17 -3 13
-5 31 -5 41 -1 9 -7 17 -15 17 -15 0 -29 53 -15 58 14 5 11 42 -3 42 -7 0 -21
-5 -31 -11z"/>
<path d="M2428 858 c7 -7 12 -21 13 -32 0 -19 1 -19 10 2 11 28 4 42 -19 42
-12 0 -13 -3 -4 -12z"/>
<path d="M2315 831 c-3 -6 -1 -11 4 -11 6 0 11 -8 11 -19 0 -14 6 -17 24 -14
19 4 24 0 28 -21 6 -28 1 -31 -21 -17 -8 5 -10 14 -6 21 5 9 4 11 -3 6 -7 -4
-12 -19 -12 -33 0 -22 4 -25 26 -20 21 4 25 1 21 -14 -3 -11 -1 -17 4 -13 5 3
9 -4 9 -16 0 -12 -4 -18 -10 -15 -24 15 -41 -17 -35 -64 14 -130 17 -145 27
-127 12 22 38 4 38 -27 0 -16 -3 -18 -12 -9 -19 19 -28 14 -28 -18 0 -33 14
-39 29 -12 10 16 10 16 11 0 0 -10 7 -18 16 -18 14 0 15 7 11 37 -4 21 -11 39
-17 41 -5 2 -8 8 -4 13 3 5 0 9 -5 9 -6 0 -11 7 -11 15 0 8 -9 15 -20 15 -11
0 -20 5 -20 10 0 6 7 10 15 10 8 0 15 6 15 13 0 8 4 7 10 -3 5 -8 10 -10 10
-5 0 6 -4 17 -10 25 -6 9 -5 17 3 22 6 4 8 10 4 14 -3 4 -13 1 -21 -5 -12 -10
-16 -8 -21 9 -4 12 -4 24 -1 27 3 4 6 -1 6 -10 0 -10 5 -14 14 -11 12 4 14 21
11 72 -5 87 -16 152 -25 152 -5 0 -6 -9 -3 -20 7 -26 -5 -25 -33 1 -14 13 -24
17 -29 10z"/>
<path d="M2413 824 c-18 -18 -16 -34 3 -34 10 0 14 -6 11 -14 -3 -8 1 -17 9
-20 8 -3 14 -1 14 5 0 6 5 7 11 3 6 -3 15 -1 19 5 5 10 10 9 21 -1 20 -20 47
-29 54 -18 4 6 -3 10 -14 10 -15 0 -21 6 -21 21 0 18 -4 20 -26 15 -17 -5 -23
-3 -19 4 3 5 2 10 -4 10 -5 0 -14 -8 -20 -17 -10 -19 -15 -13 -23 29 -2 13 -5
14 -15 2z"/>
<path d="M743 816 c-31 -10 -45 -11 -53 -2 -8 8 -11 7 -8 -4 2 -9 -6 -16 -22
-18 -26 -3 -69 -18 -152 -54 -41 -18 -57 -38 -58 -70 0 -19 20 -6 26 16 5 21
21 36 44 40 3 1 11 5 18 9 11 8 16 2 13 -15 -3 -18 17 -6 22 12 5 19 30 33 83
46 24 6 24 5 20 -37 -2 -24 -5 -48 -6 -54 -1 -5 -1 -19 0 -30 3 -27 21 52 20
89 0 15 5 35 11 42 13 16 45 19 52 4 3 -6 4 -5 3 2 -2 8 14 18 38 25 29 8 34
11 16 11 -14 1 -44 -5 -67 -12z"/>
<path d="M1111 817 c-6 -8 -7 -18 -3 -22 4 -5 1 -5 -6 -1 -7 4 -15 1 -18 -8
-3 -9 -10 -13 -15 -10 -5 3 -6 -3 -2 -12 5 -13 3 -16 -9 -11 -17 6 -28 -18
-28 -65 0 -37 -10 -59 -24 -52 -6 3 -2 -1 8 -10 10 -8 23 -13 28 -10 5 3 15 0
23 -6 10 -9 35 -10 80 -5 l65 7 -2 61 -2 62 -3 -52 c-2 -29 -9 -53 -14 -53 -6
0 -7 5 -3 12 5 8 2 9 -9 5 -13 -5 -15 -2 -8 16 4 12 6 28 4 35 -3 7 0 19 6 26
9 10 9 20 0 40 -7 14 -15 26 -19 26 -14 0 -33 -31 -36 -58 -11 -96 -17 -120
-30 -115 -8 3 -12 8 -10 12 2 3 -2 12 -10 19 -12 11 -14 10 -14 -3 0 -8 -5
-15 -11 -15 -6 0 -9 21 -7 53 2 38 7 52 18 52 11 0 14 -8 12 -29 -3 -19 0 -26
7 -21 6 3 8 11 5 17 -4 6 0 14 7 19 12 8 12 10 0 18 -9 6 -10 11 -2 15 6 4 8
13 5 19 -4 7 -4 9 1 5 10 -9 47 10 40 21 -3 5 2 11 10 15 8 3 15 1 15 -4 0 -5
6 -8 13 -6 6 1 9 1 5 -1 -8 -5 12 -53 23 -53 4 0 10 7 13 16 6 16 -7 40 -29
56 -17 12 -62 9 -74 -5z"/>
<path d="M2110 818 c0 -6 -7 -8 -15 -4 -24 9 -18 -31 6 -45 15 -8 20 -18 16
-35 -4 -21 0 -24 24 -24 33 0 37 14 24 75 -5 21 -55 51 -55 33z"/>
<path d="M1560 810 c0 -5 -13 -8 -30 -6 -19 2 -30 -1 -30 -9 0 -8 8 -11 19 -8
10 3 28 0 40 -6 14 -8 21 -8 21 -1 0 5 -4 10 -10 10 -5 0 -7 7 -4 15 4 8 3 15
0 15 -3 0 -6 -4 -6 -10z"/>
<path d="M2790 804 l-45 -14 40 5 c22 3 48 5 58 5 9 0 17 5 17 10 0 12 -13 11
-70 -6z"/>
<path d="M2940 800 c-11 -7 -5 -10 23 -10 20 0 37 5 37 10 0 13 -40 13 -60 0z"/>
<path d="M882 766 c-8 -19 -8 -27 0 -32 7 -5 8 -2 3 6 -6 10 -4 12 10 6 16 -6
16 -4 4 11 -12 15 -12 16 4 10 12 -5 17 -3 15 5 -8 22 -24 19 -36 -6z"/>
<path d="M1608 765 c-23 -13 -28 -23 -29 -58 -1 -23 -1 -45 0 -49 0 -5 -3 -8
-8 -8 -4 0 -6 -11 -3 -25 6 -34 22 -32 22 4 0 31 34 61 68 61 25 0 62 -41 62
-68 0 -12 4 -22 8 -22 15 0 1 134 -16 152 -24 25 -72 31 -104 13z m87 -33 c-2
-3 0 -14 6 -26 10 -21 10 -21 -9 1 -19 21 -62 23 -62 2 0 -5 -7 -9 -15 -9 -13
0 -13 3 -3 20 10 15 22 20 50 18 21 -1 35 -4 33 -6z"/>
<path d="M730 761 c-20 -14 -6 -25 16 -13 23 13 45 -7 33 -29 -4 -9 -11 -42
-14 -75 -7 -61 -11 -74 -24 -74 -4 0 -6 21 -4 47 4 35 1 48 -11 55 -10 5 -13
14 -9 21 11 18 12 38 1 31 -5 -3 -7 -9 -4 -12 3 -3 1 -12 -6 -19 -8 -10 -8
-17 -1 -21 14 -10 23 -51 11 -58 -5 -3 -7 -12 -4 -20 3 -8 0 -14 -6 -14 -7 0
-8 14 -4 40 4 25 2 40 -4 40 -5 0 -10 -15 -10 -32 0 -18 -3 -43 -6 -56 -6 -22
-5 -22 37 -16 24 4 50 12 56 18 8 7 14 46 15 101 3 89 3 90 -22 93 -14 1 -32
-2 -40 -7z"/>
<path d="M2460 741 l-24 -7 24 -17 c13 -9 34 -17 45 -16 19 0 18 1 -2 9 -13 5
-23 12 -23 15 0 4 4 3 10 0 6 -3 7 1 4 9 -3 9 -7 16 -8 15 0 -1 -12 -4 -26 -8z"/>
<path d="M2526 725 c4 -8 2 -21 -4 -28 -13 -15 20 -63 36 -53 13 8 5 63 -11
84 -13 17 -28 15 -21 -3z"/>
<path d="M585 701 c-14 -28 -14 -30 8 -33 17 -2 21 -8 18 -28 -3 -14 -5 -35
-5 -48 -1 -19 -5 -22 -26 -17 -23 5 -23 4 -7 -8 22 -18 22 -27 -3 -27 -11 0
-20 -4 -20 -9 0 -11 52 -1 66 14 17 16 34 125 20 125 -6 0 -5 4 3 9 19 12 4
51 -19 51 -11 0 -26 -12 -35 -29z"/>
<path d="M1260 690 c0 -39 -1 -42 -14 -25 -12 17 -13 17 -18 -6 -4 -20 0 -24
22 -25 26 -1 27 0 22 45 -6 60 -12 65 -12 11z"/>
<path d="M1836 688 c10 -18 25 -55 35 -83 l18 -50 1 62 c0 52 -3 63 -19 68
-11 3 -22 12 -25 20 -3 8 -10 15 -16 15 -6 0 -3 -14 6 -32z"/>
<path d="M415 702 c2 -2 -12 -18 -31 -35 -31 -30 -33 -33 -18 -52 16 -20 16
-20 10 2 -4 12 -2 24 5 29 8 5 10 2 7 -8 -4 -8 -2 -21 3 -29 6 -10 9 -6 9 14
0 16 10 38 25 53 30 30 30 30 5 30 -10 0 -17 -2 -15 -4z"/>
<path d="M496 678 c-12 -17 -13 -24 -4 -29 7 -5 9 -11 5 -15 -3 -4 -13 -1 -22
6 -13 11 -14 10 -9 -4 3 -9 1 -16 -5 -16 -17 0 -13 -40 4 -46 8 -4 15 -15 15
-25 0 -11 -7 -22 -15 -25 -20 -8 -19 -24 1 -24 32 0 48 30 48 91 1 32 4 59 9
59 10 0 9 38 -2 45 -5 3 -17 -5 -25 -17z"/>
<path d="M551 685 c-1 -11 -4 -40 -6 -65 l-4 -45 10 40 c5 22 8 51 6 65 -3 19
-4 20 -6 5z"/>
<path d="M1959 673 c-5 -16 -12 -34 -14 -41 -8 -22 7 -72 21 -72 17 0 17 5 2
29 -9 15 -9 29 1 62 9 31 15 39 22 28 5 -8 9 -18 9 -24 0 -5 -5 -3 -10 5 -8
13 -10 12 -10 -4 0 -11 8 -28 18 -39 9 -11 11 -17 5 -13 -9 5 -13 0 -13 -17 0
-20 6 -26 30 -29 17 -3 33 -1 36 4 3 4 -3 8 -13 9 -10 0 -13 3 -5 6 6 2 12 9
12 14 0 6 -4 8 -9 4 -17 -10 -23 15 -7 30 25 26 -1 75 -40 75 -18 0 -27 -8
-35 -27z"/>
<path d="M2226 684 c6 -3 9 -17 6 -32 -4 -26 -4 -26 12 -7 15 19 15 19 16 -10
1 -25 3 -27 10 -10 6 17 9 14 15 -18 7 -38 24 -61 21 -29 0 10 6 16 17 16 9
-1 17 2 17 7 0 5 -11 9 -25 9 -14 0 -25 5 -25 10 0 6 5 10 10 10 13 0 12 11
-3 31 -7 9 -28 18 -47 22 -19 3 -30 4 -24 1z"/>
<path d="M1298 663 c-8 -30 2 -43 34 -43 27 0 28 1 13 16 -9 9 -14 23 -11 30
3 9 -2 14 -13 14 -10 0 -21 -8 -23 -17z"/>
<path d="M2100 626 c0 -29 3 -74 6 -100 6 -44 8 -46 39 -46 28 0 45 -13 45
-35 0 -8 -66 8 -72 18 -5 8 -8 6 -8 -5 0 -9 8 -19 18 -21 16 -4 16 -5 0 -6
-10 0 -18 -7 -18 -13 0 -9 17 -13 50 -14 48 -1 49 0 47 27 -1 16 -6 29 -11 29
-5 0 -6 3 -3 7 4 3 1 11 -7 17 -8 6 -19 45 -24 86 -8 50 -17 79 -28 87 -10 7
-13 13 -7 13 15 0 43 -34 43 -54 0 -9 4 -15 9 -12 10 7 3 44 -12 64 -5 6 -22
12 -38 12 -28 0 -29 -1 -29 -54z"/>
<path d="M420 642 c0 -24 -29 -64 -41 -56 -6 3 -7 -5 -3 -23 9 -37 14 -42 14
-13 0 13 3 21 6 17 9 -9 -7 -68 -17 -61 -5 3 -9 -1 -9 -9 0 -8 6 -17 13 -20
17 -6 33 31 46 107 13 73 13 76 1 76 -5 0 -10 -8 -10 -18z"/>
<path d="M2459 638 c-1 -7 -1 -21 0 -30 1 -9 -6 -18 -16 -21 -17 -4 -17 -5 0
-6 12 -1 17 -10 18 -31 3 -73 4 -75 26 -78 13 -2 29 -12 37 -23 9 -13 16 -16
21 -10 3 6 2 11 -2 11 -5 0 -14 10 -22 21 -11 18 -11 23 1 30 10 7 9 9 -4 9
-10 0 -18 -7 -18 -17 0 -20 -9 -12 -14 13 -2 11 -7 31 -11 46 -4 15 -2 35 5
45 9 15 10 12 4 -15 -6 -32 -5 -33 15 -21 13 9 16 16 9 20 -6 4 -8 12 -4 18 9
15 -11 51 -29 51 -8 0 -16 -6 -16 -12z"/>
<path d="M1500 611 c8 -6 18 -7 22 -5 4 3 8 -2 8 -12 0 -9 7 -22 16 -28 21
-16 31 -108 10 -100 -8 3 -23 1 -33 -6 -15 -10 -14 -10 9 -6 22 5 26 3 21 -9
-3 -9 -12 -14 -19 -11 -8 3 -14 1 -14 -4 0 -6 6 -10 14 -10 19 0 26 -21 14
-44 -7 -13 -7 -16 1 -12 14 9 14 0 -1 -27 -11 -21 -11 -21 -19 -2 -7 19 -8 19
-8 -2 -1 -14 5 -23 14 -23 11 0 15 -12 15 -45 0 -63 15 -56 17 8 2 81 3 90 14
103 6 7 4 16 -6 24 -8 7 -15 21 -15 32 0 15 3 18 13 10 6 -5 21 -12 32 -15 18
-4 18 -5 -2 -6 -13 0 -23 -5 -23 -10 0 -4 11 -6 25 -3 14 2 25 7 25 11 0 10
64 7 72 -4 4 -5 8 -1 8 11 0 19 -5 21 -62 20 l-62 -1 3 47 c3 62 -36 128 -77
128 -20 0 -23 -3 -12 -9z"/>
<path d="M2235 577 c15 -110 12 -105 54 -109 23 -2 38 1 38 8 0 6 -7 11 -16
10 -10 -1 -17 13 -23 43 -4 26 -17 52 -33 67 l-25 23 5 -42z"/>
<path d="M2546 612 c-3 -6 -4 -25 -1 -44 2 -18 7 -55 10 -83 3 -27 12 -57 21
-66 10 -11 12 -19 5 -24 -6 -3 -11 -11 -11 -16 0 -6 4 -7 10 -4 5 3 18 1 27
-4 14 -8 15 -10 3 -11 -11 0 -16 -15 -18 -56 -4 -76 5 -116 26 -112 13 3 16
13 13 47 -1 25 -6 54 -11 65 -4 12 -4 30 0 41 4 11 3 26 -3 33 -5 7 -7 15 -4
19 4 3 -3 14 -15 24 -17 15 -18 21 -8 34 10 13 9 15 -10 15 -20 0 -21 2 -9 17
11 13 11 17 1 20 -6 3 -9 9 -6 14 3 6 8 22 10 37 5 30 -18 72 -30 54z"/>
<path d="M1220 602 c-15 -5 -12 -32 3 -32 7 0 18 5 25 12 9 9 12 8 12 -5 0
-21 9 -22 24 -2 15 19 117 30 128 13 5 -10 8 -8 8 4 0 15 -11 17 -95 15 -52
-1 -99 -3 -105 -5z"/>
<path d="M1786 595 c-3 -9 0 -15 9 -15 8 0 15 -4 15 -8 0 -5 7 -9 15 -9 22 0
18 18 -5 24 -11 3 -17 9 -14 14 3 5 1 9 -4 9 -6 0 -12 -7 -16 -15z"/>
<path d="M2609 600 c-4 -46 19 -192 30 -185 4 2 5 -9 3 -26 -3 -22 0 -29 12
-29 9 0 16 7 16 15 0 8 7 15 16 15 8 0 13 -4 10 -8 -2 -4 -1 -14 5 -22 5 -9 9
-10 9 -3 0 6 3 19 7 29 3 9 2 15 -3 12 -16 -10 -54 11 -54 28 0 9 -8 23 -17
31 -10 8 -12 12 -5 8 7 -4 12 0 12 9 0 9 -4 16 -8 16 -5 0 -8 21 -7 46 0 25
-5 53 -12 62 -10 14 -13 15 -14 2z"/>
<path d="M1693 593 c-7 -2 -9 -11 -6 -19 7 -18 53 -19 53 0 0 15 -27 25 -47
19z"/>
<path d="M817 576 c-4 -9 -1 -16 5 -16 9 0 9 -3 0 -12 -16 -16 -15 -28 3 -28
16 0 20 36 6 58 -7 11 -9 11 -14 -2z"/>
<path d="M1590 575 c0 -8 6 -15 14 -15 7 0 19 7 26 15 11 13 8 15 -14 15 -16
0 -26 -5 -26 -15z"/>
<path d="M2649 571 c5 -9 12 -41 16 -71 10 -79 27 -100 20 -25 -9 92 -15 112
-30 112 -10 0 -11 -5 -6 -16z"/>
<path d="M531 555 c-4 -29 -8 -48 -16 -67 -4 -11 -3 -18 4 -18 17 0 23 23 18
66 -2 22 -5 30 -6 19z"/>
<path d="M652 553 c1 -5 -3 -17 -9 -29 -19 -34 0 -48 25 -19 20 23 21 28 8 40
-16 16 -27 20 -24 8z"/>
<path d="M1730 525 c0 -24 2 -25 64 -25 59 0 64 2 59 20 -3 11 -1 20 5 20 14
0 33 -25 25 -33 -3 -4 13 -7 36 -7 23 0 40 4 37 9 -3 5 -14 7 -25 4 -11 -3
-21 2 -24 11 -4 9 -2 16 2 16 5 0 11 -5 13 -11 2 -7 9 -5 17 5 12 15 3 16 -98
16 l-111 0 0 -25z"/>
<path d="M2015 530 c5 -17 2 -20 -21 -20 -15 0 -25 -3 -21 -6 3 -3 24 -3 46 1
37 6 39 8 28 26 -16 26 -40 25 -32 -1z"/>
<path d="M336 484 c-4 -15 -5 -29 -1 -32 3 -3 5 2 5 11 0 10 5 17 10 17 6 0 8
-11 4 -25 -5 -20 -3 -24 9 -19 12 4 13 12 4 40 -12 41 -22 43 -31 8z"/>
<path d="M422 481 c-9 -25 -8 -31 2 -31 18 0 28 28 17 47 -6 12 -10 9 -19 -16z"/>
<path d="M2035 490 c3 -5 -1 -10 -10 -10 -10 0 -13 -5 -9 -12 6 -10 4 -10 -7
-2 -18 15 -61 25 -53 13 3 -5 15 -9 27 -10 21 0 21 -1 2 -9 -16 -7 -12 -9 18
-9 21 -1 36 3 33 7 -2 4 12 7 32 6 20 -2 27 0 15 2 -13 3 -23 12 -23 20 0 8
-7 14 -16 14 -8 0 -12 -4 -9 -10z"/>
<path d="M96 464 c-28 -29 -34 -49 -12 -41 7 3 19 0 25 -6 9 -9 10 -3 5 22 -6
28 -4 33 8 28 9 -3 21 0 27 6 8 8 11 7 11 -3 0 -10 3 -11 11 -3 6 6 17 9 24 7
7 -3 16 -1 20 5 4 7 -11 11 -43 11 -40 0 -54 -5 -76 -26z"/>
<path d="M1165 480 c-27 -5 -25 -7 20 -12 57 -7 64 -5 33 8 -13 6 -36 7 -53 4z"/>
<path d="M1728 455 c-2 -19 0 -35 4 -35 5 0 4 -9 -2 -19 -11 -21 2 -37 20 -26
6 3 10 -1 10 -9 0 -9 8 -16 18 -15 10 0 12 3 5 6 -7 2 -13 11 -13 19 0 8 -4
14 -10 14 -5 0 -10 11 -10 24 0 20 4 23 23 20 l22 -5 -22 10 c-26 12 -30 30
-8 32 28 3 33 4 41 12 4 4 -11 7 -33 7 -39 0 -41 -1 -45 -35z"/>
<path d="M1856 475 c4 -8 12 -15 20 -15 8 0 14 -6 14 -14 0 -9 8 -12 26 -8 16
3 30 -1 35 -9 7 -11 9 -11 9 2 0 9 -9 27 -21 40 -20 24 -20 24 -9 2 7 -16 7
-23 0 -23 -5 0 -10 5 -10 10 0 6 -9 10 -21 10 -11 0 -17 5 -14 10 3 6 -3 10
-14 10 -14 0 -19 -5 -15 -15z"/>
<path d="M849 460 c-6 -4 -8 -13 -4 -20 5 -8 -1 -11 -21 -8 l-28 3 -2 -80 c-1
-44 -5 -103 -8 -130 -2 -28 -1 -57 4 -65 6 -10 10 -11 10 -3 0 7 7 10 18 7 16
-5 16 -5 0 6 -19 12 -24 55 -8 65 6 3 10 14 9 23 0 14 -2 13 -9 -3 -8 -18 -9
-17 -9 8 -1 23 3 27 27 27 26 0 28 -3 24 -29 -3 -23 0 -29 20 -34 22 -6 22 -5
4 8 -11 8 -15 15 -8 15 6 0 9 7 5 18 -5 14 -3 15 8 5 7 -7 17 -13 23 -13 5 0
-1 9 -14 20 -19 17 -20 21 -7 26 9 3 13 12 10 20 -6 16 -18 10 -18 -9 0 -7
-15 -13 -33 -15 -29 -3 -33 -1 -28 15 3 10 1 35 -3 56 -7 29 -6 37 5 38 35 3
57 16 49 29 -3 5 7 10 22 12 l28 3 -27 6 c-15 3 -32 3 -39 -1z"/>
<path d="M965 460 c-4 -7 6 -10 25 -8 41 3 50 18 11 18 -16 0 -33 -5 -36 -10z"/>
<path d="M1302 459 c-57 -7 -86 -21 -36 -18 16 2 39 -1 52 -5 12 -4 22 -4 22
1 0 5 23 10 50 11 37 1 50 -2 50 -12 0 -7 11 -21 24 -29 24 -16 24 -16 28 18
4 32 2 35 -27 39 -35 5 -89 4 -163 -5z"/>
<path d="M1095 452 c-38 -2 -74 -7 -79 -13 -6 -6 -3 -9 10 -9 19 -1 19 -1 -1
-13 -15 -9 -20 -23 -21 -54 0 -24 3 -43 8 -43 4 0 8 21 8 47 0 25 3 43 7 40 3
-4 11 0 17 9 9 12 32 16 94 17 45 1 82 5 82 10 0 4 -3 7 -7 8 -5 0 -17 1 -28
3 -11 1 -51 0 -90 -2z"/>
<path d="M0 419 c0 -17 4 -28 10 -24 6 4 10 -9 10 -32 0 -23 3 -33 8 -25 5 7
16 10 25 6 19 -7 22 -20 7 -29 -13 -8 -2 -27 13 -22 7 2 17 -3 24 -12 8 -11
12 -12 13 -3 0 6 7 12 15 12 8 0 14 -5 12 -11 -1 -6 4 -14 11 -16 14 -5 12 18
-2 29 -15 10 -16 40 -2 35 7 -3 19 -1 27 4 10 6 6 9 -14 9 -21 0 -30 -6 -34
-20 -7 -25 -20 -26 -28 -2 -3 11 -17 24 -31 31 -20 9 -25 17 -21 32 3 12 3 19
0 16 -10 -11 -30 17 -25 35 2 10 -1 18 -7 18 -6 0 -11 -14 -11 -31z"/>
<path d="M1822 434 c-7 -8 -9 -14 -3 -14 5 0 7 -10 4 -21 -4 -15 -2 -20 7 -17
14 4 21 41 11 57 -3 5 -12 3 -19 -5z"/>
<path d="M2040 442 c0 -6 -3 -18 -6 -26 -5 -12 -2 -15 10 -10 9 4 16 1 16 -6
0 -8 -11 -11 -30 -8 -16 3 -30 1 -30 -4 0 -4 4 -8 9 -8 6 0 8 -8 6 -18 -2 -11
3 -19 12 -19 9 0 13 7 10 19 -4 12 -1 18 6 15 7 -2 11 -13 10 -23 -1 -10 5
-38 13 -61 9 -23 14 -46 11 -51 -4 -5 0 -9 8 -9 18 0 18 -1 5 33 -8 21 -8 29
2 36 10 6 9 8 -4 8 -14 0 -18 12 -20 67 -2 42 -8 68 -15 71 -7 2 -13 -1 -13
-6z"/>
<path d="M2316 442 c-3 -5 -17 -7 -32 -4 -21 4 -25 1 -22 -14 2 -13 15 -21 41
-25 34 -5 37 -4 37 17 0 24 -15 40 -24 26z"/>
<path d="M874 429 c-3 -6 -1 -16 5 -22 8 -8 11 -8 11 1 0 7 16 12 42 12 40 0
41 0 23 -20 -12 -14 -25 -17 -46 -13 -16 3 -35 0 -42 -6 -8 -6 -16 -10 -18 -8
-2 1 -3 0 -2 -2 2 -2 -3 -11 -10 -19 -10 -13 -9 -14 3 -7 16 10 29 14 68 20
13 2 33 12 44 22 21 18 21 18 15 -24 -3 -24 -1 -43 3 -43 15 0 16 109 2 115
-24 9 -91 5 -98 -6z"/>
<path d="M729 426 c-2 -3 -26 -6 -52 -7 -33 -2 -46 -7 -43 -15 3 -7 2 -15 -2
-19 -10 -9 -10 -55 0 -55 4 0 9 8 9 18 1 9 2 24 3 32 0 8 9 14 19 14 9 -1 17
2 17 7 0 5 21 9 46 9 27 0 43 -4 39 -10 -3 -5 -1 -10 5 -10 20 0 6 35 -16 38
-11 2 -22 1 -25 -2z"/>
<path d="M1257 423 c-4 -3 -7 -18 -7 -31 0 -24 1 -25 20 -7 11 10 20 24 20 32
0 14 -22 18 -33 6z"/>
<path d="M1320 390 c-25 -23 -27 -32 -28 -100 -1 -51 2 -69 8 -55 8 18 9 17 9
-7 1 -23 -3 -28 -21 -28 -17 0 -19 -3 -9 -9 11 -7 11 -9 0 -14 -8 -3 4 -6 26
-6 29 -1 36 2 25 9 -13 9 -13 10 0 10 11 0 11 3 3 8 -7 4 -12 35 -12 77 0 82
15 109 69 123 l35 9 -38 4 c-32 4 -44 0 -67 -21z"/>
<path d="M2485 402 c-3 -7 -9 -10 -15 -7 -5 3 -10 2 -10 -3 0 -14 73 -13 82 1
13 20 9 24 -22 23 -16 -1 -32 -7 -35 -14z"/>
<path d="M510 394 c-41 -7 -89 -16 -106 -18 -46 -8 -64 -17 -64 -32 0 -8 5
-14 10 -14 6 0 10 4 10 9 0 5 9 11 19 14 15 4 19 0 19 -17 -1 -44 -19 -76 -45
-76 -17 0 -24 -5 -21 -17 3 -19 28 -31 28 -13 0 6 -5 8 -12 4 -7 -4 -8 -3 -4
4 10 17 36 15 36 -3 0 -9 9 -15 24 -15 13 0 26 7 30 15 3 9 0 15 -8 15 -8 0
-17 -6 -19 -12 -3 -7 -6 2 -6 20 -1 17 4 32 10 32 6 0 17 7 26 16 9 8 22 13
30 10 10 -4 11 -1 3 14 -12 23 -33 17 -48 -13 -10 -21 -11 -20 -11 10 -1 26 4
33 29 42 22 7 30 7 30 -2 0 -7 4 -6 10 3 7 12 12 12 22 2 9 -9 9 -12 0 -12 -7
0 -12 -14 -12 -34 0 -39 -13 -52 -55 -59 -22 -3 -18 -4 16 -6 50 -1 59 9 59
70 0 33 21 51 63 54 48 4 49 4 42 15 -7 12 -8 12 -105 -6z"/>
<path d="M1076 385 c-27 -20 -12 -32 19 -15 28 15 44 8 27 -13 -6 -7 -9 -23
-6 -34 3 -12 1 -30 -5 -40 -9 -15 -10 -16 -11 -2 0 30 -83 42 -94 14 -6 -18
-2 -19 25 -4 11 5 29 7 39 4 16 -5 20 -15 20 -51 0 -27 -4 -44 -12 -44 -6 0
-3 -7 8 -15 17 -13 18 -14 1 -15 -15 0 -16 -3 -6 -21 6 -12 9 -40 6 -63 -3
-22 -3 -33 0 -23 3 11 11 16 19 13 9 -3 12 -1 9 4 -9 14 19 12 34 -2 11 -10
13 -10 7 -1 -5 10 6 13 43 13 44 0 50 3 54 22 l4 23 2 -22 c1 -20 6 -23 46
-23 38 0 45 3 45 19 0 11 5 23 11 26 6 4 8 14 5 22 -4 9 -1 22 5 29 9 11 8 14
-4 14 -10 0 -14 -8 -13 -25 2 -14 -3 -30 -10 -36 -11 -9 -14 -8 -14 5 0 9 -5
16 -10 16 -6 0 -10 -6 -8 -13 3 -14 -3 -17 -32 -17 -16 0 -20 7 -20 35 0 32
-2 35 -30 35 -20 0 -30 -5 -30 -15 0 -9 9 -15 25 -15 18 0 25 -5 25 -20 0 -15
-7 -20 -24 -20 -15 0 -26 -7 -29 -18 -4 -16 -5 -16 -6 1 0 9 -5 17 -11 17 -5
0 -10 -8 -11 -17 0 -11 -3 -13 -6 -5 -2 6 -9 9 -15 6 -6 -4 -14 0 -19 7 -6 10
-9 11 -9 2 0 -7 -3 -13 -7 -13 -5 0 -9 33 -10 73 l-2 74 40 1 c35 2 39 0 31
-16 -5 -9 -8 -34 -6 -54 2 -40 -4 -46 -25 -26 -10 11 -11 9 -5 -5 4 -11 15
-17 27 -15 18 3 21 11 24 58 1 30 5 76 7 102 4 36 0 52 -15 72 -23 30 -72 35
-103 11z m90 -31 c-3 -7 -1 -16 4 -19 18 -11 10 -25 -14 -25 -13 0 -27 8 -30
17 -4 10 -4 14 0 11 3 -4 14 0 23 9 11 12 13 17 3 21 -6 2 -12 8 -12 14 0 6 6
5 15 -2 9 -7 14 -19 11 -26z m12 -66 c-3 -7 -15 -14 -29 -15 -13 -1 -18 0 -10
3 11 5 11 8 0 15 -10 6 -5 9 14 9 19 0 27 -4 25 -12z"/>
<path d="M726 383 c-11 -3 -26 -11 -34 -19 -11 -12 -10 -14 7 -14 12 0 21 -5
21 -11 0 -5 -5 -7 -12 -3 -8 5 -9 2 -5 -9 7 -20 -1 -47 -15 -47 -5 0 -6 5 -2
12 4 7 3 8 -4 4 -15 -9 -4 -36 13 -30 10 4 12 -1 8 -15 -3 -12 -10 -18 -17
-14 -6 4 -6 0 2 -9 8 -10 11 -31 7 -59 -6 -42 -5 -43 7 -16 12 26 14 27 33 13
11 -9 15 -16 8 -16 -6 0 -9 -9 -6 -20 4 -14 14 -20 34 -20 16 0 29 -5 29 -10
0 -6 25 -10 59 -9 47 1 57 4 48 14 -7 8 -16 9 -22 5 -6 -5 -17 -5 -25 0 -15 9
4 16 60 22 25 3 25 5 27 100 2 90 1 98 -19 113 -31 21 -45 19 -24 -4 9 -10 14
-25 10 -35 -4 -10 1 -25 11 -36 15 -17 16 -20 3 -20 -9 0 -18 -10 -22 -22 -10
-37 -7 -51 9 -45 22 9 28 -9 9 -28 -12 -12 -19 -13 -30 -4 -11 9 -15 8 -20 -5
-3 -9 -12 -16 -19 -16 -8 0 -16 -8 -18 -17 -4 -17 -5 -17 -6 0 0 9 -7 17 -15
17 -8 0 -22 3 -32 7 -12 4 -15 3 -10 -5 4 -7 1 -12 -7 -12 -12 0 -13 7 -7 35
8 34 7 35 -22 35 l-29 0 7 48 c4 26 7 54 7 62 0 8 4 21 10 28 8 10 20 66 14
61 -1 -1 -11 -4 -21 -6z"/>
<path d="M2120 381 c0 -6 15 -7 34 -4 19 3 36 1 40 -6 11 -16 26 -13 20 4 -7
17 -94 22 -94 6z"/>
<path d="M1624 370 c-31 -12 -37 -26 -29 -68 6 -33 8 -34 15 -16 9 24 30 41
30 26 0 -6 8 -8 19 -5 11 3 21 -2 24 -11 5 -12 0 -14 -23 -11 -34 4 -49 -9
-23 -20 10 -3 19 -2 21 3 2 6 12 8 23 5 16 -4 19 -1 16 18 -3 15 -12 25 -25
27 -12 2 -22 8 -22 14 0 9 57 5 66 -5 9 -9 7 -82 -2 -80 -6 1 -31 4 -57 7
l-46 6 15 -28 c13 -25 12 -27 -6 -30 -23 -4 -27 -32 -5 -32 8 0 15 5 15 11 0
5 3 8 8 6 4 -3 16 -1 27 4 15 6 16 8 4 8 -9 1 -19 7 -22 15 -8 19 34 29 67 16
24 -9 26 -8 26 21 0 21 6 32 23 40 21 9 21 9 -4 4 -23 -4 -26 -2 -22 18 8 42
-63 79 -113 57z m66 -10 c12 -7 8 -10 -15 -10 -16 0 -41 -3 -55 -6 l-25 -5 25
15 c29 18 49 20 70 6z"/>
<path d="M1862 370 c-27 -12 -42 -46 -32 -80 3 -14 5 -53 4 -87 l-3 -63 29 0
c19 0 31 -6 35 -19 7 -22 38 -37 43 -22 2 6 12 11 23 11 10 0 19 7 19 15 0 9
-10 15 -26 15 -14 0 -23 4 -19 9 3 5 0 13 -6 17 -7 4 -9 3 -6 -3 4 -6 0 -13
-8 -17 -8 -3 -17 0 -21 5 -3 6 -15 9 -25 6 -15 -4 -19 0 -19 19 0 15 6 24 15
24 8 0 15 7 15 15 0 8 -6 15 -14 15 -8 0 -17 4 -20 9 -4 5 3 7 14 4 23 -6 27
12 5 21 -20 7 -21 76 -1 76 16 0 32 -18 39 -45 5 -16 6 -15 5 5 -1 60 1 65 17
50 8 -8 16 -32 18 -53 5 -48 14 -57 23 -23 9 36 -14 86 -43 97 -29 11 -31 11
-61 -1z"/>
<path d="M2303 366 c-7 -6 -19 -17 -28 -25 -13 -11 -15 -23 -9 -65 4 -28 8
-61 9 -73 1 -13 4 -26 8 -29 10 -10 -17 -44 -35 -44 -10 0 -18 5 -18 10 0 6
-8 10 -17 10 -15 0 -16 2 -3 10 10 6 11 10 3 10 -7 0 -13 11 -13 25 0 14 -4
25 -10 25 -5 0 -9 -22 -9 -50 l2 -50 44 0 c25 0 51 6 58 14 8 8 31 13 50 12
l36 -1 -5 65 c-6 80 -6 81 -15 50 -4 -14 -3 -33 3 -44 8 -14 8 -20 -2 -23 -10
-4 -10 -8 -1 -19 12 -15 1 -19 -16 -6 -12 9 -16 102 -4 102 5 0 9 5 9 12 0 6
-3 8 -7 4 -10 -10 -31 34 -26 55 3 11 9 16 14 13 5 -3 9 -1 9 5 0 16 -14 20
-27 7z"/>
<path d="M2346 372 c-4 -7 0 -15 10 -19 23 -9 54 -35 54 -46 0 -4 -5 -5 -12
-1 -8 5 -9 2 -3 -12 5 -10 10 -37 11 -59 2 -22 3 -42 4 -45 5 -11 7 -26 8 -48
2 -19 7 -23 30 -22 15 1 29 1 32 0 17 -6 52 -5 56 2 3 4 9 6 14 3 15 -9 23 16
10 28 -10 9 -11 9 -5 -2 5 -9 4 -12 -2 -8 -17 11 -26 89 -11 99 10 6 8 8 -4 8
-10 0 -18 4 -18 9 0 5 -3 16 -6 25 -3 9 -1 16 5 16 6 0 11 -9 11 -20 0 -14 7
-20 23 -20 16 0 18 3 9 9 -8 4 -13 10 -11 12 5 10 -13 48 -26 53 -10 4 -15 -2
-16 -17 -3 -40 3 -111 11 -149 7 -33 5 -38 -10 -38 -10 0 -22 9 -25 20 -3 11
-14 20 -23 20 -15 0 -15 -2 -2 -10 8 -5 11 -10 5 -10 -20 0 -34 16 -33 35 1
11 -2 32 -5 48 -7 26 -6 27 20 22 l28 -5 -30 15 c-24 13 -25 15 -7 11 20 -4
23 -1 20 22 -2 21 -10 28 -33 33 -16 3 -29 10 -27 17 1 7 -7 12 -17 12 -11 0
-21 5 -23 12 -3 9 -6 9 -12 0z"/>
<path d="M761 348 c1 -13 -2 -32 -7 -43 -7 -18 -6 -18 9 -6 19 15 23 56 7 66
-6 3 -9 -4 -9 -17z"/>
<path d="M1402 354 c-12 -8 -22 -25 -21 -37 1 -21 2 -20 10 3 5 16 7 -14 3
-80 -3 -83 -8 -108 -21 -117 -13 -10 -14 -13 -2 -13 8 -1 41 -2 74 -5 33 -2
54 -1 48 2 -9 3 -10 10 -3 24 6 10 7 19 2 19 -5 0 -14 -10 -20 -22 -10 -22
-11 -22 -13 7 -1 17 -1 33 0 38 0 4 -10 7 -24 7 -18 0 -25 5 -25 20 0 11 7 20
15 20 8 0 15 -7 15 -15 0 -8 5 -15 10 -15 6 0 10 28 10 65 0 45 -4 65 -12 65
-9 0 -10 2 -2 8 6 4 8 16 4 26 -6 19 -7 19 -12 -2 -4 -12 -12 -22 -18 -22 -10
0 -10 4 0 15 18 22 8 27 -18 9z"/>
<path d="M2458 346 c5 -19 6 -19 13 0 7 17 8 16 9 -6 1 -22 2 -23 9 -5 4 11
19 22 32 26 16 4 9 6 -22 6 -42 0 -46 -2 -41 -21z"/>
<path d="M545 346 c-11 -8 -18 -17 -15 -19 9 -9 61 5 57 16 -5 17 -21 18 -42
3z"/>
<path d="M1251 283 c1 -73 2 -75 9 -31 5 26 11 52 15 57 3 6 1 11 -5 11 -7 0
-9 8 -5 20 4 11 2 20 -4 20 -7 0 -11 -29 -10 -77z"/>
<path d="M2144 352 c-6 -4 -14 -22 -17 -39 -6 -30 -4 -33 18 -33 27 0 31 10
14 43 -10 21 -9 21 10 -2 12 -12 19 -27 16 -31 -3 -5 4 -6 15 -3 26 7 25 19
-5 48 -26 27 -33 29 -51 17z"/>
<path d="M313 329 c3 -11 -1 -36 -9 -55 -13 -31 -4 -49 11 -24 11 18 13 100 3
100 -6 0 -8 -9 -5 -21z"/>
<path d="M655 332 c-12 -30 -15 -81 -6 -87 5 -3 8 7 6 22 -1 15 4 37 12 49 8
13 10 25 5 28 -6 3 -13 -2 -17 -12z"/>
<path d="M2634 338 c-4 -7 -3 -8 4 -4 20 12 33 -3 20 -23 -8 -13 -8 -34 0 -81
13 -69 16 -75 31 -65 8 4 6 12 -5 22 -11 12 -12 18 -4 23 9 6 10 20 2 56 -7
30 -7 53 -1 60 5 6 6 14 2 17 -10 11 -41 8 -49 -5z"/>
<path d="M364 316 c-3 -9 -10 -13 -15 -10 -5 3 -9 -5 -9 -18 1 -22 1 -22 15
-4 8 11 20 23 26 27 8 5 8 8 0 13 -6 4 -14 0 -17 -8z"/>
<path d="M1484 268 c2 -38 0 -68 -5 -68 -5 0 -9 -7 -9 -15 0 -8 7 -15 14 -15
12 0 15 14 15 61 0 34 -5 71 -10 83 -6 14 -8 0 -5 -46z"/>
<path d="M1860 311 c0 -12 6 -21 16 -21 9 0 14 7 12 17 -5 25 -28 28 -28 4z"/>
<path d="M588 301 c-4 -12 -11 -20 -17 -17 -5 4 -12 2 -15 -3 -3 -5 3 -11 15
-14 22 -6 33 10 27 40 -3 15 -5 14 -10 -6z"/>
<path d="M2701 264 c0 -27 7 -65 15 -84 13 -34 14 -34 9 -5 -3 17 -7 52 -9 79
-6 65 -16 72 -15 10z"/>
<path d="M2733 270 c3 -25 6 -51 6 -57 1 -7 6 -13 12 -13 5 0 7 5 4 10 -4 6
-8 29 -10 52 -3 22 -7 44 -11 47 -3 3 -3 -14 -1 -39z"/>
<path d="M2910 283 c0 -20 5 -23 40 -23 41 0 52 -12 24 -28 -14 -8 -14 -10 3
-14 16 -4 20 0 21 23 0 16 -2 30 -6 30 -4 1 -20 3 -36 5 -16 2 -33 9 -37 16
-6 9 -9 6 -9 -9z"/>
<path d="M510 256 c0 -13 -5 -26 -12 -28 -6 -2 -8 -10 -4 -16 11 -19 23 -14
30 12 3 13 9 31 12 40 4 11 1 16 -10 16 -10 0 -16 -9 -16 -24z"/>
<path d="M1912 230 c-1 -33 3 -41 16 -39 38 3 45 0 32 -16 -15 -18 -10 -27 9
-16 21 14 4 53 -22 49 -18 -2 -22 2 -22 24 -1 44 -13 43 -13 -2z"/>
<path d="M2188 263 c-17 -4 -14 -33 4 -33 5 0 6 5 3 10 -3 6 -2 10 4 10 5 0
12 -10 14 -22 3 -17 5 -14 6 10 0 17 -2 31 -6 31 -5 -1 -16 -3 -25 -6z"/>
<path d="M1 243 c-2 -30 9 -53 25 -53 8 0 14 -4 14 -10 0 -19 28 -10 33 10 5
20 -1 24 -40 20 -17 -1 -23 5 -26 27 -3 20 -4 22 -6 6z"/>
<path d="M2116 252 c-4 -6 -3 -20 2 -29 5 -10 9 -33 8 -51 -1 -27 3 -32 21
-32 27 0 35 11 18 27 -11 10 -15 10 -18 0 -3 -7 -6 -4 -6 6 -1 9 4 17 9 17 6
0 10 7 10 15 0 8 -4 15 -8 15 -5 0 -13 10 -19 22 -6 15 -12 18 -17 10z"/>
<path d="M565 240 c3 -5 1 -10 -5 -10 -7 0 -5 -6 4 -15 8 -8 18 -15 21 -15 4
0 5 7 1 15 -3 8 -1 15 5 15 6 0 7 5 4 10 -3 6 -13 10 -21 10 -8 0 -12 -4 -9
-10z"/>
<path d="M160 229 c-8 -5 -28 -14 -44 -19 -16 -6 -26 -13 -23 -16 11 -11 63 7
75 26 14 22 13 23 -8 9z"/>
<path d="M179 194 c-5 -15 -8 -34 -7 -43 3 -13 -6 -16 -50 -16 -36 0 -56 -5
-62 -15 -12 -19 20 -26 48 -11 11 6 41 8 68 5 45 -4 47 -3 29 10 -24 19 -4 21
28 4 12 -6 37 -11 55 -9 17 1 32 -1 32 -4 0 -11 -26 -33 -46 -38 -17 -4 -17
-5 3 -6 12 0 25 4 28 9 4 6 11 8 16 4 5 -3 9 -2 8 3 -6 35 3 53 26 53 16 0 25
-6 25 -15 0 -10 11 -15 35 -15 19 0 35 5 35 10 0 6 -14 10 -31 10 -17 0 -28 4
-24 10 7 12 -1 13 -120 16 -55 1 -91 6 -93 13 -2 6 6 11 17 11 24 0 28 25 6
34 -11 4 -19 -3 -26 -20z"/>
<path d="M242 203 c-10 -19 -10 -23 0 -24 7 0 42 -2 78 -4 36 -2 70 1 76 6 7
6 16 4 24 -6 10 -12 10 -15 -1 -15 -11 0 -11 -2 1 -10 8 -5 22 -9 30 -9 10 0
11 2 3 6 -7 2 -13 12 -13 21 0 15 2 15 10 2 8 -13 10 -12 10 3 0 10 -8 17 -20
17 -11 0 -20 5 -20 10 0 6 -12 3 -27 -7 -16 -11 -28 -13 -30 -7 -2 6 -24 9
-52 7 -41 -4 -50 -1 -53 14 -3 16 -5 16 -16 -4z"/>
<path d="M2014 198 c1 -14 -4 -22 -11 -20 -7 1 -13 -2 -13 -8 0 -6 27 -10 60
-10 57 0 60 1 48 19 -15 24 -48 35 -48 15 0 -8 -4 -14 -10 -14 -5 0 -10 9 -10
20 0 11 -4 20 -9 20 -4 0 -8 -10 -7 -22z"/>
<path d="M680 204 c0 -6 -7 -19 -15 -30 -13 -16 -14 -16 -9 -1 5 15 -1 17 -59
17 -53 0 -65 -3 -63 -15 1 -9 5 -15 9 -15 4 0 12 0 18 0 5 0 7 5 4 10 -3 6 1
10 9 10 10 0 16 -9 16 -24 0 -28 -20 -47 -20 -19 -1 17 -2 17 -15 -1 -11 -14
-15 -16 -15 -5 0 9 -3 10 -8 3 -4 -6 -14 -14 -22 -17 -9 -3 -2 -6 15 -7 17 -1
42 -3 57 -5 19 -2 25 0 22 10 -3 7 7 17 25 23 30 11 69 57 57 69 -3 3 -6 2 -6
-3z"/>
<path d="M844 195 c-19 -15 -19 -16 1 -13 11 1 26 -1 33 -5 14 -9 15 -6 6 17
-8 20 -15 20 -40 1z"/>
<path d="M968 182 c-4 -14 2 -18 31 -17 36 0 61 10 61 24 0 4 -7 8 -15 8 -8 0
-15 -4 -15 -9 0 -5 -6 -6 -12 -1 -24 14 -46 12 -50 -5z"/>
<path d="M1514 173 c4 -16 9 -36 12 -45 3 -11 0 -18 -8 -19 -27 -3 49 -17 96
-18 40 -1 47 2 42 15 -3 9 -6 18 -6 20 0 2 -15 4 -33 4 -34 0 -87 20 -87 33 0
4 14 7 30 7 20 0 30 5 30 15 0 11 -11 15 -41 15 -40 0 -41 -1 -35 -27z"/>
<path d="M1737 178 c3 -17 2 -19 -5 -10 -7 11 -11 8 -16 -12 -8 -34 -26 -33
-27 2 0 15 -3 22 -5 15 -3 -7 -12 -9 -19 -6 -11 4 -11 -3 3 -36 16 -40 18 -41
65 -41 40 0 47 3 47 20 0 11 -7 20 -15 20 -10 0 -15 11 -15 35 0 19 -4 35 -9
35 -5 0 -7 -10 -4 -22z"/>
<path d="M1762 183 c4 -20 48 -31 48 -13 0 6 -4 9 -9 5 -5 -3 -12 -1 -15 4 -4
5 4 12 16 14 17 3 14 5 -10 6 -27 1 -33 -2 -30 -16z"/>
<path d="M2780 175 c0 -22 4 -25 35 -25 25 0 35 4 35 16 0 9 -8 14 -17 13 -36
-3 -49 2 -28 11 19 8 19 9 -2 9 -18 1 -23 -5 -23 -24z"/>
<path d="M2600 158 c0 -11 7 -18 20 -18 11 0 20 5 20 10 0 6 -5 10 -11 10 -5
0 -8 4 -5 8 3 5 -1 9 -9 9 -8 0 -15 -9 -15 -19z"/>
<path d="M2068 143 c-10 -2 -18 -10 -18 -16 0 -8 -3 -8 -9 1 -7 11 -9 11 -14
-2 -5 -12 0 -16 22 -16 20 0 30 6 34 20 3 11 4 19 4 19 -1 -1 -10 -3 -19 -6z"/>
<path d="M710 129 c0 -7 -10 -9 -26 -5 -29 8 -64 -1 -64 -15 0 -10 53 -12 88
-3 21 6 32 34 12 34 -5 0 -10 -5 -10 -11z"/>
<path d="M1034 125 c-4 -8 -10 -15 -16 -15 -5 0 -6 5 -3 10 10 16 -15 12 -31
-5 -14 -13 -11 -15 25 -15 34 0 40 3 38 20 -2 24 -6 25 -13 5z"/>
<path d="M1805 131 c4 -8 2 -17 -6 -22 -9 -5 6 -8 41 -7 33 0 43 3 25 5 -16 3
-39 12 -49 21 -12 10 -16 11 -11 3z"/>
<path d="M2040 91 c0 -10 -12 -12 -50 -7 -41 5 -50 3 -50 -9 0 -8 -6 -15 -12
-15 -7 -1 0 -8 15 -16 16 -9 35 -13 42 -10 8 3 15 1 17 -4 2 -5 17 -11 33 -14
17 -4 23 -3 15 0 -8 4 -18 11 -21 16 -3 5 -21 10 -39 11 -53 3 -49 25 4 25 26
0 46 -3 46 -6 0 -4 32 -8 70 -9 39 -1 68 2 66 6 -8 12 198 8 206 -4 5 -6 8 -6
8 1 0 6 10 10 23 9 65 -7 64 -6 37 -15 -26 -8 2 -9 312 -13 81 0 144 -5 142
-9 -3 -4 0 -8 5 -8 6 0 11 5 11 10 0 6 15 8 40 4 27 -4 40 -3 40 5 0 12 -19
13 -194 11 -105 -1 -108 0 -103 19 3 12 1 21 -4 21 -5 0 -9 -9 -9 -20 0 -22
-7 -23 -114 -20 -36 1 -65 7 -73 16 -18 17 1 15 -188 18 -163 2 -188 0 -164
-15 11 -7 10 -9 -3 -9 -10 0 -18 7 -18 15 0 8 -7 15 -16 15 -9 0 -12 -5 -8
-12 5 -10 4 -10 -6 -1 -7 6 -19 9 -27 6 -8 -3 -19 0 -24 8 -7 11 -9 12 -9 0z"/>
<path d="M2900 83 c0 -15 2 -15 9 -4 8 13 12 13 27 0 10 -8 15 -9 11 -2 -5 8
3 13 25 16 23 3 17 4 -19 5 -44 2 -53 -1 -53 -15z"/>
<path d="M0 79 c0 -7 230 -18 239 -12 13 9 -17 12 -122 16 -64 2 -117 0 -117
-4z"/>
<path d="M458 78 c4 -3 30 -7 57 -8 69 -2 75 -2 75 11 0 8 -4 9 -13 0 -8 -6
-16 -8 -20 -5 -3 3 -28 7 -56 7 -27 1 -47 -1 -43 -5z"/>
<path d="M735 74 c-12 -9 -32 -13 -50 -10 -16 3 -48 1 -70 -3 -37 -8 -38 -9
-10 -11 17 -1 48 -2 70 -1 22 0 114 1 205 2 124 1 167 5 178 15 11 12 10 14
-6 14 -11 0 -23 -6 -26 -12 -4 -9 -8 -9 -11 -2 -5 10 -213 10 -242 -1 -6 -2
-13 2 -15 10 -2 11 -6 11 -23 -1z"/>
<path d="M2724 83 c7 -7 87 -5 95 3 2 2 -20 4 -49 4 -29 0 -50 -3 -46 -7z"/>
<path d="M1435 70 c45 -6 46 -7 13 -8 -20 -1 -39 -6 -42 -10 -3 -5 -40 -17
-83 -26 -103 -23 -110 -27 -38 -20 33 3 80 14 105 23 25 9 70 16 103 16 32 -1
60 2 63 7 3 4 -2 8 -11 8 -9 0 -13 4 -10 10 4 6 -22 9 -72 8 -73 -1 -75 -2
-28 -8z"/>
<path d="M1798 72 c-16 -2 -28 -7 -28 -12 0 -13 139 -8 143 5 4 10 -57 14
-115 7z"/>
<path d="M1920 25 c46 -18 74 -17 35 0 -16 8 -39 14 -50 14 -13 0 -8 -5 15
-14z"/>
<path d="M2243 28 c2 -8 16 -12 35 -10 21 2 32 -1 32 -10 0 -10 2 -10 9 1 5 8
14 10 22 5 7 -4 43 -9 79 -10 36 -1 54 0 40 2 -14 2 -50 8 -80 14 -116 20
-142 21 -137 8z"/>
<path d="M2710 22 c0 -12 76 -22 154 -21 l61 2 -65 8 c-36 4 -84 11 -107 14
-24 4 -43 2 -43 -3z"/>
</g>
</svg>
