<?xml version="1.0" standalone="no"?>
<!DOCTYPE svg PUBLIC "-//W3C//DTD SVG 20010904//EN"
 "http://www.w3.org/TR/2001/REC-SVG-20010904/DTD/svg10.dtd">
<svg version="1.0" xmlns="http://www.w3.org/2000/svg"
 width="300.000000pt" height="168.000000pt" viewBox="0 0 300.000000 168.000000"
 preserveAspectRatio="xMidYMid meet">
<metadata>
Created by potrace 1.10, written by Peter Selinger 2001-2011
</metadata>
<g transform="translate(0.000000,168.000000) scale(0.100000,-0.100000)"
fill="#000000" stroke="none">
<path d="M2110 1668 c-28 -11 -28 -11 52 -27 31 -7 67 -21 80 -31 55 -46 58
-51 58 -118 0 -83 8 -76 14 10 4 64 3 67 -32 99 -19 18 -42 34 -50 35 -8 2
-18 8 -22 15 -5 6 -15 9 -24 6 -9 -4 -24 -3 -33 1 -14 5 -10 8 17 13 l35 6
-35 1 c-19 0 -46 -4 -60 -10z"/>
<path d="M1994 1621 c-34 -42 -44 -67 -64 -160 -11 -49 -36 -122 -55 -162 -30
-62 -41 -76 -69 -86 -32 -11 -35 -10 -39 10 -4 20 -4 19 -6 -3 -1 -21 -6 -25
-32 -26 -31 -1 -107 -22 -124 -35 -5 -4 -32 -10 -58 -14 -41 -6 -45 -9 -31
-20 14 -9 24 -8 55 7 21 10 46 15 55 11 10 -4 15 -2 11 4 -4 6 6 9 26 8 17 -1
37 4 44 11 7 6 35 15 63 19 27 4 50 11 50 16 0 15 49 22 65 9 15 -13 39 -4 30
11 -4 5 -1 9 4 9 6 0 11 8 12 18 0 15 2 14 10 -3 7 -16 8 -13 4 13 -3 20 -1
31 5 27 6 -3 7 1 3 10 -5 14 -9 13 -29 -11 -13 -15 -24 -33 -24 -41 0 -7 -4
-13 -10 -13 -14 0 -6 63 9 68 6 2 9 8 5 13 -3 5 -1 9 5 9 5 0 13 9 16 20 4 11
10 18 14 16 4 -3 13 11 20 30 10 28 10 38 0 50 -6 8 -9 17 -5 21 3 3 6 1 6 -5
0 -7 4 -12 9 -12 5 0 11 24 14 53 6 66 17 110 29 118 6 4 8 13 6 21 -2 11 -9
8 -24 -11z"/>
<path d="M2194 1546 c-33 -18 -54 -37 -54 -49 0 -6 7 -2 15 9 8 10 15 15 15
10 0 -5 8 -2 18 7 10 9 32 17 50 19 17 1 29 4 26 7 -10 10 -50 9 -70 -3z"/>
<path d="M2100 1485 c-7 -8 -16 -12 -21 -9 -5 3 -6 -2 -3 -10 3 -8 -2 -28 -10
-45 -9 -16 -16 -38 -15 -48 0 -14 2 -15 6 -3 3 8 18 41 34 73 29 58 31 69 9
42z"/>
<path d="M2170 1470 c-13 -8 -12 -13 8 -32 19 -19 22 -20 22 -5 0 9 5 17 11
17 5 0 7 -5 4 -10 -3 -6 1 -13 9 -16 22 -8 20 -27 -4 -42 -11 -7 -20 -18 -20
-25 0 -19 20 -36 36 -30 19 7 18 23 -1 23 -8 0 -15 5 -15 11 0 5 4 7 10 4 5
-3 12 7 16 22 3 15 8 34 10 42 8 24 -16 41 -49 35 -25 -4 -28 -3 -17 5 19 13
1 14 -20 1z"/>
<path d="M1991 1430 c-9 -28 -8 -52 5 -118 3 -13 1 -21 -4 -18 -5 3 -12 -12
-16 -34 -3 -22 -16 -48 -28 -60 l-22 -20 36 0 c24 0 38 5 42 16 4 9 4 19 1 22
-3 3 -5 0 -5 -6 0 -7 -8 -12 -17 -11 -11 0 -13 3 -5 6 6 2 12 20 12 39 0 21 5
33 12 32 7 -2 13 7 14 18 0 12 4 33 8 48 9 37 -1 32 -14 -6 -9 -31 -10 -31 -5
10 4 28 2 41 -5 37 -5 -3 -10 1 -10 9 0 9 3 16 8 16 4 0 8 11 8 25 2 33 -2 32
-15 -5z"/>
<path d="M2095 1403 c-11 -21 -28 -50 -39 -65 -18 -26 -19 -29 -3 -79 10 -28
17 -64 17 -80 0 -23 5 -29 21 -29 11 0 17 4 14 10 -3 5 -2 17 3 26 6 11 11 13
16 5 9 -14 56 -15 56 0 0 5 -10 9 -22 7 -15 -2 -22 2 -20 10 1 8 -2 11 -7 7
-12 -7 -41 45 -41 72 0 14 -2 15 -9 5 -7 -11 -9 -11 -14 2 -8 20 2 48 14 40 5
-3 9 3 9 13 0 14 2 15 9 5 6 -10 10 -8 15 10 6 21 7 22 20 6 14 -19 42 -25 31
-8 -3 6 -1 10 5 10 6 0 8 5 5 10 -4 6 -14 9 -23 8 -12 -2 -18 5 -20 25 -4 37
-14 34 -37 -10z"/>
<path d="M2560 1291 c0 -6 -17 -12 -37 -14 -33 -4 -33 -4 2 -1 22 2 60 7 85
12 l45 9 -47 2 c-27 0 -48 -3 -48 -8z"/>
<path d="M2197 1219 c-5 -17 1 -19 41 -20 26 0 54 -2 62 -3 8 -2 24 0 35 5 17
6 17 8 3 8 -10 1 -18 6 -18 11 0 6 -5 10 -11 10 -5 0 -7 -4 -4 -10 4 -6 -10
-10 -34 -10 -23 0 -41 4 -41 9 0 19 -28 19 -33 0z"/>
<path d="M135 1173 c11 -3 23 -9 26 -14 3 -5 40 -10 82 -12 42 -1 77 -5 77 -8
0 -4 20 -9 45 -11 25 -2 45 0 45 4 0 5 -18 8 -41 8 -24 0 -38 4 -34 10 4 6
-13 11 -42 11 -50 2 -59 2 -133 12 -25 3 -36 3 -25 0z"/>
<path d="M781 1166 c7 -8 108 -10 115 -3 4 4 -21 7 -56 7 -35 0 -61 -2 -59 -4z"/>
<path d="M630 1153 c1 -33 51 -53 129 -53 47 0 61 -4 79 -23 26 -27 28 -47 7
-47 -8 0 -15 4 -15 9 0 5 -8 12 -17 16 -11 4 -7 -5 11 -24 l30 -31 -30 -1
c-24 -1 -25 -2 -6 -6 25 -5 55 14 46 28 -3 5 0 9 5 9 6 0 11 -4 11 -10 0 -5
19 -10 43 -10 39 1 41 2 23 15 -14 10 -22 12 -27 4 -8 -14 -49 10 -49 28 0 7
-5 13 -11 13 -5 0 -8 4 -4 10 11 17 -40 38 -107 43 -38 3 -79 12 -93 21 -14 9
-25 13 -25 9z"/>
<path d="M1425 1119 c-16 -4 -56 -11 -87 -14 -32 -4 -58 -11 -58 -16 0 -14 58
-11 63 4 4 9 8 9 16 -3 8 -11 15 -12 33 -3 13 6 41 18 63 27 42 16 21 20 -30
5z"/>
<path d="M2167 1114 c3 -7 1 -14 -5 -14 -5 0 -4 -23 5 -57 7 -32 20 -87 27
-123 8 -36 15 -53 15 -37 1 15 -8 68 -19 118 -15 65 -18 95 -10 104 8 9 6 14
-4 18 -10 4 -13 1 -9 -9z"/>
<path d="M1040 1102 c0 -7 4 -11 9 -8 5 4 11 0 14 -6 3 -10 7 -10 20 1 9 7 23
11 32 8 8 -4 17 -2 20 3 4 6 0 10 -7 11 -78 4 -88 3 -88 -9z"/>
<path d="M404 1097 c-8 -22 -1 -30 21 -25 14 3 14 5 1 23 -14 19 -15 19 -22 2z"/>
<path d="M1480 1100 c0 -5 8 -10 18 -10 9 0 25 -14 34 -30 9 -17 22 -30 28
-30 6 0 6 7 -2 20 -7 11 -16 20 -20 20 -5 0 -8 6 -8 14 0 8 -7 17 -16 20 -23
9 -34 7 -34 -4z"/>
<path d="M1215 1091 c-27 -4 -36 -9 -27 -14 16 -11 82 0 82 13 0 6 -3 9 -7 9
-5 -1 -26 -5 -48 -8z"/>
<path d="M485 1081 c-48 -10 -15 -17 55 -10 36 3 51 6 33 7 -17 1 -37 4 -45 6
-7 2 -26 1 -43 -3z"/>
<path d="M980 1081 c0 -6 7 -8 15 -4 20 7 39 -16 71 -85 31 -68 31 -87 2 -77
-78 23 -123 27 -91 7 17 -11 74 -144 68 -160 -2 -7 -1 -10 4 -7 16 9 25 -16
10 -27 -11 -8 -10 -9 3 -5 19 7 28 -10 24 -45 -2 -20 1 -25 17 -24 11 1 22 -5
24 -11 3 -9 -8 -13 -34 -14 -21 -1 -45 -3 -53 -4 -8 -1 -21 -3 -27 -4 -15 -1
-18 -31 -3 -31 6 0 10 4 10 9 0 17 69 18 86 1 15 -14 16 -13 11 3 -4 9 -2 17
4 17 5 0 13 -8 16 -17 4 -10 11 -22 17 -26 7 -6 4 -7 -6 -3 -10 3 -20 1 -23
-4 -4 -6 1 -10 9 -10 9 0 16 -4 16 -10 0 -5 8 -6 17 -3 12 5 15 2 10 -10 -3
-9 -2 -19 4 -23 6 -3 15 -16 20 -28 l10 -21 -5 22 c-3 15 0 20 10 16 8 -3 14
-9 14 -15 0 -5 4 -7 8 -4 4 2 14 1 22 -4 9 -5 20 -4 28 2 8 8 16 8 20 2 6 -9
20 -10 40 -4 4 1 11 2 16 1 4 -1 15 4 24 11 14 11 15 9 9 -22 -3 -19 -3 -29 0
-22 2 6 9 10 14 7 5 -4 7 7 5 24 -2 19 2 32 11 35 11 5 13 1 7 -16 -6 -19 -4
-21 7 -12 8 6 24 10 36 9 12 -1 20 2 17 6 -8 13 28 27 84 33 46 5 56 2 76 -17
12 -12 30 -21 39 -19 9 2 17 -2 17 -8 0 -8 11 -11 30 -8 23 3 31 0 36 -14 3
-10 10 -16 15 -13 5 4 9 -9 10 -27 3 -77 -2 -269 -7 -345 -5 -69 -4 -83 8 -83
26 0 40 128 32 296 -10 191 -9 205 6 214 17 11 20 107 3 128 -7 9 -13 13 -13
7 -7 -96 -11 -130 -18 -137 -12 -12 -99 10 -147 37 -22 13 -56 38 -75 55 -19
17 -66 56 -105 85 -38 29 -114 97 -169 150 -54 54 -94 91 -90 83 20 -34 124
-155 124 -144 0 3 14 -8 30 -24 17 -17 35 -30 40 -30 6 0 10 -4 10 -10 0 -14
32 -50 45 -50 5 0 26 -15 45 -33 19 -17 37 -31 40 -30 3 0 12 -3 20 -8 11 -6
11 -8 2 -9 -7 0 -10 -4 -7 -10 3 -5 -7 -12 -22 -15 -15 -3 -75 -17 -133 -30
-58 -14 -119 -26 -137 -27 -34 -2 -67 18 -56 35 3 5 1 7 -4 4 -6 -4 -16 0 -23
8 -7 8 -9 15 -4 15 4 0 -2 10 -13 23 -46 49 -181 302 -169 314 3 3 17 1 33 -4
22 -7 40 -32 88 -123 33 -62 81 -136 106 -164 25 -28 49 -59 52 -69 6 -17 9
-17 22 -3 14 13 8 26 -52 123 -37 59 -104 180 -148 268 -72 144 -83 160 -107
163 -16 2 -28 -1 -28 -7z"/>
<path d="M370 1046 c0 -7 9 -16 20 -19 12 -3 20 -14 20 -26 0 -17 8 -22 40
-27 29 -5 40 -11 40 -24 0 -15 13 -20 68 -29 188 -30 342 -31 389 -2 15 10 14
11 -7 4 -49 -14 -295 -7 -398 12 -27 5 -33 10 -29 26 4 14 0 19 -16 19 -38 0
-67 12 -67 27 0 12 24 14 158 9 144 -4 149 -4 57 5 -55 5 -130 9 -166 9 -48
-1 -71 3 -82 14 -19 20 -27 20 -27 2z"/>
<path d="M2350 1005 c21 -16 42 -23 58 -20 38 7 39 15 1 15 -20 0 -44 7 -55
15 -10 8 -23 15 -28 15 -6 0 5 -11 24 -25z"/>
<path d="M1570 1012 c0 -5 14 -21 31 -38 44 -41 53 -62 38 -82 -11 -14 -11
-15 1 -4 15 13 41 16 39 5 -4 -25 3 -43 17 -43 8 0 12 -4 9 -10 -3 -5 0 -10 7
-10 12 0 85 -102 100 -141 4 -10 23 -25 43 -33 l35 -15 2 -98 c2 -130 2 -119
-5 -193 l-6 -65 15 60 c11 41 14 94 12 168 -2 59 -1 107 2 107 3 0 36 -30 74
-66 l68 -66 74 4 c49 2 79 9 89 19 14 13 11 15 -24 14 -22 0 -39 -4 -38 -9 1
-5 -4 -11 -10 -13 -7 -3 -13 2 -13 11 0 21 -10 20 -26 -1 -13 -17 -13 -17 -14
0 0 9 -5 17 -11 17 -5 0 -7 -4 -4 -10 3 -5 3 -10 -2 -10 -12 1 -73 58 -73 70
0 5 -5 10 -11 10 -7 0 -25 14 -41 30 -15 17 -32 30 -37 30 -10 0 -118 122
-155 174 -45 62 -168 196 -180 196 -3 0 -6 -4 -6 -8z"/>
<path d="M2661 1004 c-13 -9 -42 -18 -64 -19 -38 -2 -39 -1 -21 12 17 14 16
14 -16 7 -19 -5 -50 -8 -68 -8 -55 1 -20 -15 38 -17 30 -1 63 -6 74 -12 12 -6
21 -6 25 1 3 5 16 12 28 16 11 4 24 13 27 21 7 19 6 19 -23 -1z"/>
<path d="M565 971 c11 -4 56 -11 100 -14 49 -3 67 -2 46 3 -50 12 -169 21
-146 11z"/>
<path d="M2770 971 c-29 -5 -32 -7 -13 -13 27 -7 74 2 67 13 -3 5 -8 8 -12 8
-4 -1 -23 -5 -42 -8z"/>
<path d="M1430 959 c0 -8 20 -39 45 -68 25 -29 48 -58 52 -64 15 -23 63 -60
70 -54 3 4 -18 33 -48 64 -30 32 -69 76 -87 98 -18 23 -32 33 -32 24z"/>
<path d="M2400 942 c0 -16 -7 -52 -16 -81 -8 -29 -13 -55 -10 -58 2 -3 10 12
16 34 14 50 25 133 16 133 -3 0 -6 -13 -6 -28z"/>
<path d="M1938 953 c6 -2 12 -11 12 -19 0 -8 7 -17 15 -20 8 -4 15 -12 15 -20
0 -8 5 -14 10 -14 6 0 10 -10 10 -22 0 -13 7 -32 15 -42 19 -25 19 -19 0 33
-16 48 -62 111 -79 110 -7 0 -6 -2 2 -6z"/>
<path d="M2221 903 c0 -35 -5 -63 -11 -63 -5 0 -10 -9 -10 -21 0 -12 4 -17 11
-14 20 13 27 52 19 106 l-8 54 -1 -62z"/>
<path d="M2594 886 c11 -9 36 -16 55 -15 l36 1 -30 8 c-84 23 -82 23 -61 6z"/>
<path d="M316 855 c-11 -14 -33 -27 -55 -31 -55 -11 -101 -33 -101 -48 0 -11
7 -13 28 -7 15 4 33 6 41 3 9 -3 12 0 9 10 -5 12 3 13 56 6 33 -5 83 -7 109
-4 42 5 47 3 37 -9 -9 -11 -9 -15 -1 -15 6 0 16 10 22 23 8 18 19 22 57 23 26
1 49 -2 52 -7 3 -4 28 -14 55 -21 28 -7 52 -15 55 -18 3 -4 14 -7 25 -7 43 -1
102 -10 113 -17 12 -7 42 3 42 15 0 9 -34 15 -135 24 -41 4 -94 17 -128 32
-44 20 -61 23 -69 15 -17 -17 -42 -15 -70 7 -13 11 -41 22 -61 26 -20 4 -37
11 -37 16 0 18 -26 8 -44 -16z m83 -21 c5 4 12 2 16 -4 3 -5 15 -10 26 -10 11
0 17 -4 14 -10 -7 -11 -136 -12 -153 -1 -8 5 -5 13 8 24 11 9 20 12 20 7 0 -6
4 -10 10 -10 5 0 7 7 3 16 -5 15 -3 15 20 -1 14 -9 31 -14 36 -11z"/>
<path d="M0 828 c0 -10 8 -18 18 -19 14 0 14 -2 -3 -9 -20 -9 -20 -9 0 -9 11
-1 30 -4 43 -7 18 -5 22 -2 22 15 0 12 -6 21 -15 21 -8 0 -15 5 -15 10 0 6 -7
10 -15 10 -8 0 -15 -6 -15 -12 0 -9 -4 -8 -10 2 -8 13 -10 12 -10 -2z"/>
<path d="M80 834 c0 -12 16 -36 21 -33 2 1 15 -1 27 -5 18 -6 29 -2 43 13 19
21 19 21 -3 21 -13 -1 -38 2 -55 6 -18 3 -33 2 -33 -2z"/>
<path d="M2565 829 c-10 -27 -55 -163 -55 -165 0 -2 7 -1 15 2 8 4 13 10 10
14 -8 13 31 18 77 9 23 -4 52 -8 63 -8 43 1 -41 28 -87 29 -27 0 -48 4 -48 10
0 5 9 25 19 44 11 19 17 37 13 42 -4 4 1 5 10 1 10 -3 19 1 23 11 3 9 3 13 -1
9 -4 -4 -13 -2 -20 4 -10 8 -15 8 -19 -2z"/>
<path d="M2798 835 c-3 -3 -40 -6 -82 -7 -42 0 -74 -3 -71 -6 8 -8 299 -2 331
8 21 6 2 9 -72 9 -55 1 -103 -1 -106 -4z"/>
<path d="M480 781 c0 -11 67 -24 80 -16 6 3 10 1 10 -4 0 -6 11 -11 25 -11 15
0 25 -6 25 -14 0 -8 4 -18 10 -21 5 -3 7 0 4 8 -4 10 3 13 27 9 22 -3 27 -7
18 -13 -10 -6 -6 -9 14 -9 17 0 27 -5 27 -15 0 -8 7 -15 16 -15 14 0 15 2 3
17 -13 15 -11 16 16 10 24 -6 27 -5 12 4 -10 6 -23 8 -30 6 -7 -2 -23 1 -37 8
-80 42 -121 54 -151 48 -23 -4 -30 -3 -25 5 5 8 -2 12 -18 12 -14 0 -26 -4
-26 -9z"/>
<path d="M2127 773 c-7 -12 11 -53 23 -53 15 0 12 36 -4 49 -8 7 -16 8 -19 4z"/>
<path d="M1628 732 c18 -15 32 -30 32 -34 0 -16 126 -128 143 -128 3 0 -37 43
-89 95 -52 52 -100 95 -107 95 -7 0 3 -13 21 -28z"/>
<path d="M945 730 c28 -12 73 -12 80 0 4 6 -14 10 -47 9 -39 0 -48 -3 -33 -9z"/>
<path d="M816 683 c-5 -12 -9 -14 -14 -6 -5 8 -13 9 -22 3 -13 -8 -12 -10 3
-10 9 0 17 -4 17 -9 0 -5 -8 -12 -17 -14 -16 -4 -16 -5 -1 -6 20 -1 48 25 48
45 0 19 -6 18 -14 -3z"/>
<path d="M2367 652 l-37 -38 10 -179 c5 -99 10 -237 10 -307 0 -105 3 -128 14
-128 23 0 28 17 17 56 -10 35 -10 36 10 19 11 -11 19 -13 19 -7 0 7 -4 12 -10
12 -5 0 -10 7 -10 15 0 8 -5 15 -11 15 -6 0 -9 6 -6 13 2 6 11 11 21 9 21 -4
20 4 -5 39 -13 19 -18 36 -14 47 7 15 8 15 14 -2 5 -12 10 -16 14 -9 4 6 -1
19 -10 29 -13 12 -14 19 -5 22 6 2 12 8 12 13 0 6 -4 7 -10 4 -5 -3 -10 -3
-11 2 0 4 -2 21 -4 38 -2 16 0 34 4 40 5 5 8 26 8 45 0 19 -2 27 -4 18 -9 -36
-21 -17 -16 25 6 47 20 70 36 60 6 -4 8 0 4 10 -8 22 0 21 49 -2 45 -22 89
-66 99 -99 3 -12 11 -19 17 -16 7 4 6 9 -2 14 -13 8 -13 20 1 37 7 7 5 13 -3
16 -8 4 -7 6 5 6 9 1 17 -5 17 -12 0 -9 9 -12 29 -9 31 4 35 -7 16 -37 -5 -9
4 -6 21 6 24 17 31 18 42 7 20 -21 93 -38 114 -25 12 7 19 7 23 0 4 -5 14 -9
23 -7 10 1 38 -8 64 -21 26 -12 56 -20 65 -18 14 4 13 5 -4 6 -13 0 -23 5 -23
10 0 5 9 7 20 4 12 -3 20 0 20 7 0 9 -10 11 -30 6 -19 -3 -29 -2 -25 4 6 10
-7 14 -39 10 -11 -1 -28 9 -38 22 -9 12 -18 18 -18 12 0 -6 -15 -11 -34 -12
-27 -1 -36 3 -41 18 -4 11 -11 20 -17 20 -6 0 -6 -6 2 -15 18 -21 1 -20 -81 7
-59 19 -67 24 -58 39 5 11 16 16 24 13 8 -4 15 -1 15 5 0 6 7 11 15 11 22 0
18 -21 -5 -27 -11 -3 -17 -9 -14 -14 3 -5 10 -6 16 -3 6 4 14 1 18 -6 5 -8 15
-10 26 -6 18 7 17 8 -4 20 -24 13 -20 29 4 19 8 -3 14 1 14 11 0 10 -6 13 -15
10 -8 -4 -22 0 -31 7 -11 9 -18 9 -22 2 -8 -12 -72 -5 -72 7 0 14 21 17 66 10
24 -4 41 -3 38 2 -3 4 6 8 19 8 13 0 26 3 30 6 9 9 -4 35 -14 28 -5 -3 -9 2
-9 10 0 8 8 16 18 19 9 2 0 4 -21 3 -31 -1 -34 -3 -21 -13 14 -10 14 -12 -3
-16 -15 -4 -14 -5 4 -6 12 0 24 -5 27 -10 3 -4 -24 -9 -61 -9 -52 -1 -70 -5
-85 -22 -22 -23 -23 -23 -49 -10 -10 6 -19 7 -19 3 1 -21 19 -30 63 -28 26 0
47 -3 47 -7 0 -4 -7 -8 -16 -8 -8 0 -12 -4 -9 -10 3 -6 -5 -10 -19 -10 -14 0
-28 5 -31 10 -3 6 -18 10 -32 10 -19 0 -24 4 -19 16 4 12 2 15 -9 10 -14 -5
-39 2 -92 27 -29 13 -30 31 -2 22 13 -4 19 -3 15 3 -3 5 -20 13 -38 17 -32 6
-32 7 -10 17 12 6 22 15 22 21 0 5 7 7 15 4 8 -4 17 -2 20 3 4 6 15 10 26 10
11 0 17 -4 14 -10 -3 -5 -1 -10 4 -10 6 0 11 6 11 13 0 9 2 9 8 0 4 -6 41 -15
82 -18 41 -4 73 -5 70 -2 -3 3 -22 7 -43 9 -20 1 -37 5 -37 9 0 3 -14 5 -31 3
-25 -3 -30 -1 -25 12 4 12 2 15 -9 11 -8 -4 -17 -2 -20 3 -4 6 -11 10 -16 10
-6 0 -7 -4 -4 -10 4 -6 -5 -10 -22 -9 -17 1 -21 3 -10 6 9 2 15 9 12 14 -10
15 -18 10 -58 -29z"/>
<path d="M425 667 c-10 -8 -15 -19 -11 -26 11 -18 -3 -51 -20 -44 -15 6 -20
-12 -5 -21 5 -4 21 7 34 24 14 16 31 30 37 30 6 0 9 4 6 9 -3 5 -15 7 -26 4
-11 -3 -20 0 -20 6 0 6 6 11 14 11 8 0 18 5 21 10 9 14 -8 12 -30 -3z"/>
<path d="M2725 671 c-53 -11 -12 -20 76 -16 103 5 104 5 54 16 -46 9 -88 9
-130 0z"/>
<path d="M473 623 c-4 -21 -6 -41 -5 -45 1 -5 -2 -8 -8 -8 -5 0 -7 -7 -3 -16
9 -24 20 -3 28 54 8 60 0 71 -12 15z"/>
<path d="M714 634 c-6 -2 -8 -18 -6 -34 5 -36 20 -41 17 -5 -2 14 1 25 6 25 5
0 9 5 9 10 0 10 -7 12 -26 4z"/>
<path d="M2442 604 c5 -4 35 -8 118 -13 13 -1 13 -2 0 -11 -13 -8 -12 -10 3
-10 9 0 17 6 17 14 0 8 5 16 10 18 6 2 -26 4 -71 5 -45 1 -79 0 -77 -3z"/>
<path d="M2815 590 l-30 -7 28 -8 c16 -4 38 -3 50 2 20 9 20 10 2 14 -11 3
-33 2 -50 -1z"/>
<path d="M2768 561 c11 -6 10 -9 -5 -13 -23 -6 -30 -58 -8 -58 8 0 15 -4 15
-10 0 -5 14 -10 30 -10 20 0 30 -5 30 -15 0 -9 6 -12 15 -8 13 4 11 11 -12 33
-18 19 -32 25 -39 19 -7 -6 -16 -4 -25 7 -11 14 -10 16 6 14 25 -3 85 19 85
31 0 6 -9 5 -20 -1 -16 -8 -26 -7 -42 5 -13 8 -27 15 -33 15 -5 0 -4 -4 3 -9z"/>
<path d="M2915 561 c17 -8 18 -10 3 -10 -10 -1 -18 -6 -18 -13 0 -6 -3 -8 -6
-5 -8 8 -44 -11 -44 -22 0 -12 58 -34 88 -34 26 0 30 -14 5 -20 -10 -3 0 -5
22 -5 22 0 32 2 23 5 -10 2 -18 11 -18 18 0 8 -15 17 -35 21 -39 7 -45 19 -14
29 25 8 21 39 -6 42 -20 3 -20 3 0 -6z"/>
<path d="M990 521 c0 -15 62 -33 74 -21 7 7 1 10 -16 10 -15 0 -30 5 -33 10
-8 12 -25 13 -25 1z"/>
<path d="M1975 435 c-7 -67 -4 -82 13 -71 8 4 5 126 -3 134 -1 2 -6 -27 -10
-63z"/>
<path d="M840 479 c0 -3 8 -21 17 -39 14 -30 17 -32 23 -14 4 11 3 21 -4 23
-6 2 -16 11 -23 20 -7 9 -13 13 -13 10z"/>
<path d="M2040 470 c0 -5 4 -10 8 -10 10 0 44 -64 53 -100 6 -21 7 -19 8 13 0
20 -3 37 -9 37 -5 0 -10 6 -10 13 0 15 -33 57 -44 57 -3 0 -6 -4 -6 -10z"/>
<path d="M1220 458 c0 -8 13 -13 30 -14 37 -1 35 18 -3 23 -17 2 -27 -1 -27
-9z"/>
<path d="M518 426 c-21 -18 -35 -35 -32 -38 9 -10 52 16 47 28 -2 7 5 15 16
19 12 3 21 11 21 16 0 16 -14 9 -52 -25z"/>
<path d="M2884 444 c9 -8 14 -20 11 -25 -4 -5 3 -5 18 0 14 6 29 6 38 0 19
-12 52 -11 44 1 -3 6 -17 10 -29 10 -13 0 -29 7 -36 15 -7 8 -23 15 -37 15
-22 0 -23 -1 -9 -16z"/>
<path d="M815 403 c-4 -13 -11 -20 -16 -18 -4 3 -7 -4 -6 -15 1 -10 8 -22 16
-25 19 -8 29 4 11 15 -11 7 -11 11 -1 24 7 8 11 21 8 28 -4 8 -8 5 -12 -9z"/>
<path d="M1022 363 c-8 -14 -9 -24 -2 -28 5 -3 10 -3 10 1 0 4 9 -1 20 -11 18
-17 20 -17 14 -2 -3 9 -10 17 -14 17 -5 0 -10 10 -12 23 l-3 22 -13 -22z"/>
<path d="M2288 373 c-2 -5 -1 -28 3 -53 l6 -45 1 53 c2 48 -2 63 -10 45z"/>
<path d="M2527 363 c-4 -3 -7 -13 -6 -22 0 -12 3 -11 9 4 7 19 9 18 19 -7 13
-34 17 -35 17 -5 0 28 -23 47 -39 30z"/>
<path d="M1972 283 c-1 -38 -5 -116 -8 -176 -5 -76 -3 -107 5 -107 6 0 11 11
11 25 0 14 5 25 11 25 6 0 9 -9 6 -20 -3 -11 -1 -20 4 -20 11 0 11 37 0 63 -4
10 -10 18 -14 18 -18 -2 -19 0 -7 14 7 8 9 15 5 15 -5 0 -1 8 8 18 10 10 13
22 8 28 -16 17 -22 74 -8 74 14 0 16 62 2 93 -14 33 -22 17 -23 -50z"/>
<path d="M575 321 c6 -19 4 -23 -8 -18 -12 4 -12 1 -3 -19 l11 -24 9 30 c7 22
5 34 -4 43 -10 10 -11 7 -5 -12z"/>
<path d="M1028 240 c-4 -24 -12 -46 -17 -48 -6 -2 -11 -8 -11 -13 0 -20 18 -7
47 35 25 35 27 43 13 39 -12 -3 -20 1 -22 14 -2 10 -7 -2 -10 -27z"/>
<path d="M351 239 c-7 -16 -11 -32 -8 -35 3 -3 8 4 12 15 3 12 11 21 16 21 5
0 9 7 9 15 0 25 -14 17 -29 -16z"/>
<path d="M1660 229 c0 -6 7 -9 15 -5 8 3 15 1 15 -4 0 -6 5 -10 10 -10 6 0 10
7 10 15 0 9 -9 15 -25 15 -14 0 -25 -5 -25 -11z"/>
<path d="M852 200 c-12 -16 -22 -33 -21 -36 0 -4 -5 -10 -11 -14 -8 -5 -7 -9
4 -13 9 -4 16 -3 17 1 3 29 10 46 25 63 9 10 15 21 12 24 -2 3 -14 -9 -26 -25z"/>
<path d="M2086 165 c6 -44 10 -52 21 -42 3 4 1 17 -5 30 -6 12 -13 29 -16 37
-3 8 -3 -3 0 -25z"/>
<path d="M2293 95 c-2 -56 2 -95 7 -95 6 0 10 40 10 95 0 52 -3 95 -7 95 -5 0
-9 -43 -10 -95z"/>
<path d="M1885 139 c-4 -12 -7 -37 -7 -57 0 -20 -6 -45 -14 -57 -12 -19 -12
-22 1 -22 18 0 21 12 30 95 7 62 2 81 -10 41z"/>
<path d="M856 131 c-4 -6 0 -14 8 -17 9 -3 16 -12 16 -20 0 -8 5 -14 10 -14
15 0 12 12 -9 39 -12 16 -20 20 -25 12z"/>
<path d="M749 107 c-7 -11 -3 -57 4 -57 5 0 7 8 4 19 -4 17 -2 17 22 5 14 -7
29 -21 33 -31 6 -14 7 -13 5 6 -1 16 -14 31 -34 42 -18 10 -34 18 -34 16z"/>
<path d="M990 85 c0 -20 3 -26 9 -17 6 10 10 9 14 -7 3 -14 10 -19 21 -15 9 3
13 10 10 15 -3 5 -10 7 -15 4 -5 -4 -9 -2 -9 2 0 5 -7 18 -15 29 -14 18 -14
18 -15 -11z"/>
<path d="M2117 70 c7 -42 20 -70 33 -70 6 0 7 7 1 18 -5 9 -16 33 -24 52 l-16
35 6 -35z"/>
<path d="M689 81 c10 -6 11 -13 2 -29 -17 -33 -13 -37 9 -9 29 36 29 40 0 44
-17 2 -21 0 -11 -6z"/>
<path d="M903 74 c-3 -8 -12 -13 -19 -10 -8 3 -14 1 -14 -5 0 -5 7 -12 15 -15
8 -4 15 -15 15 -26 0 -10 4 -17 9 -14 8 5 12 86 4 86 -2 0 -6 -7 -10 -16z"/>
<path d="M467 74 c-4 -4 -7 -19 -7 -33 0 -23 1 -24 16 -9 11 11 13 21 7 32 -5
9 -12 13 -16 10z"/>
<path d="M776 35 c-4 -14 -11 -23 -16 -20 -6 3 -10 1 -10 -4 0 -29 49 7 50 37
0 22 -18 12 -24 -13z"/>
</g>
</svg>
