<?xml version="1.0" standalone="no"?>
<!DOCTYPE svg PUBLIC "-//W3C//DTD SVG 20010904//EN"
 "http://www.w3.org/TR/2001/REC-SVG-20010904/DTD/svg10.dtd">
<svg version="1.0" xmlns="http://www.w3.org/2000/svg"
 width="300.000000pt" height="225.000000pt" viewBox="0 0 300.000000 225.000000"
 preserveAspectRatio="xMidYMid meet">
<metadata>
Created by potrace 1.10, written by Peter Selinger 2001-2011
</metadata>
<g transform="translate(0.000000,225.000000) scale(0.100000,-0.100000)"
fill="#000000" stroke="none">
<path d="M1320 2229 c0 -11 5 -29 10 -40 8 -15 7 -23 -5 -35 -19 -19 -20 -31
-2 -15 22 18 52 -21 38 -48 -13 -23 -3 -32 28 -24 13 3 20 11 17 18 -3 8 2 16
10 19 20 8 17 25 -3 20 -22 -5 -64 26 -45 33 6 3 9 9 6 15 -4 7 4 8 23 4 27
-6 33 -3 51 28 14 23 29 36 49 39 l28 4 -30 2 c-23 1 -37 -7 -59 -34 -20 -23
-33 -32 -40 -25 -7 5 -18 5 -25 0 -9 -5 -19 -3 -28 5 -17 18 -17 35 1 35 8 0
18 5 21 10 4 6 -5 10 -19 10 -20 0 -26 -5 -26 -21z"/>
<path d="M2207 2217 c-29 -25 -35 -37 -31 -57 l5 -25 -15 25 c-12 20 -15 22
-16 7 0 -10 5 -28 11 -40 7 -12 8 -19 4 -14 -5 4 -16 0 -25 -8 -14 -13 -56
-19 -100 -14 -28 3 -82 -12 -96 -26 -8 -8 -21 -12 -29 -9 -11 5 -15 -2 -15
-25 0 -24 4 -31 19 -31 27 0 52 -11 46 -20 -3 -5 5 -6 16 -3 21 6 21 6 -2 19
l-24 13 28 1 c15 0 41 10 57 21 21 16 37 20 59 16 18 -4 31 -2 31 3 0 6 16 18
35 27 19 9 35 23 35 31 0 21 42 51 73 52 15 0 27 2 27 4 0 10 -44 86 -50 86
-4 0 -23 -15 -43 -33z"/>
<path d="M1869 2185 c-3 -2 -21 -5 -41 -7 -20 -1 -35 -6 -32 -10 7 -11 63 -3
76 10 7 7 10 12 7 12 -3 0 -8 -2 -10 -5z"/>
<path d="M80 2162 c0 -17 84 -34 186 -37 57 -2 112 -9 123 -15 27 -14 51 -13
51 4 0 16 -21 26 -56 26 -16 0 -23 4 -18 11 7 11 -21 10 -116 -6 -14 -2 -56 3
-95 10 -83 18 -75 17 -75 7z"/>
<path d="M2072 2145 c-15 -32 -15 -32 4 -39 8 -3 13 -2 10 3 -3 5 8 11 24 15
21 4 30 11 30 26 0 11 -5 20 -11 20 -6 0 -8 -8 -5 -17 6 -17 5 -17 -8 0 -18
24 -31 21 -44 -8z"/>
<path d="M1902 2139 c-11 -16 -11 -19 -1 -13 7 4 31 7 54 5 45 -2 39 13 -10
23 -24 5 -33 2 -43 -15z"/>
<path d="M1261 2088 c-17 -17 -40 -49 -50 -72 -21 -44 -15 -71 23 -114 28 -32
130 -58 169 -42 19 7 17 9 -14 9 -20 1 -49 8 -65 15 -15 8 -32 12 -37 9 -15
-9 -58 39 -51 59 4 12 0 18 -11 18 -9 0 -15 6 -12 13 2 6 10 11 16 10 6 -2 11
6 11 16 0 11 16 36 35 57 55 58 43 78 -14 22z"/>
<path d="M130 2050 c0 -5 -16 -10 -37 -10 -51 0 -35 -11 23 -15 33 -3 44 -1
34 5 -14 9 -7 14 13 11 5 -1 6 3 2 9 -8 13 -35 13 -35 0z"/>
<path d="M230 2040 c0 -5 12 -12 28 -16 15 -3 45 -12 67 -19 22 -7 65 -16 95
-20 30 -4 66 -12 80 -17 14 -6 39 -12 55 -14 24 -3 27 -2 12 7 -9 5 -21 8 -26
5 -5 -3 -14 0 -20 8 -6 7 -39 17 -72 20 -34 4 -69 11 -78 16 -17 8 -123 40
-134 40 -4 0 -7 -4 -7 -10z"/>
<path d="M480 2026 c41 -7 105 -16 142 -20 36 -3 74 -9 82 -12 23 -9 20 3 -4
16 -27 15 -64 19 -190 24 l-105 4 75 -12z"/>
<path d="M2670 2033 c-87 -5 -98 -9 -78 -30 14 -14 22 -14 60 -3 24 7 57 12
74 11 18 0 37 6 44 14 10 13 9 15 -11 13 -13 -1 -53 -3 -89 -5z"/>
<path d="M2202 2019 c-29 -11 -24 -33 9 -37 32 -3 51 11 43 31 -7 19 -18 20
-52 6z"/>
<path d="M1706 2005 c-3 -8 -12 -15 -21 -15 -8 0 -15 -4 -15 -9 0 -5 -10 -11
-22 -14 -26 -7 -23 -12 14 -21 23 -5 33 -1 55 25 16 17 37 35 48 40 16 6 12 8
-16 8 -24 1 -39 -4 -43 -14z"/>
<path d="M2303 2013 c-28 -5 -30 -23 -4 -23 26 0 51 10 51 21 0 9 -8 10 -47 2z"/>
<path d="M2077 1991 c-35 -17 -36 -19 -15 -23 35 -6 55 1 61 23 6 23 3 23 -46
0z"/>
<path d="M2483 2003 c-13 -2 -23 -8 -23 -13 0 -8 -69 -36 -82 -32 -4 1 -23 -5
-42 -13 -20 -9 -36 -12 -36 -9 0 3 -8 -3 -17 -14 -20 -22 -113 -40 -113 -21 0
8 -5 7 -15 -1 -9 -7 -30 -14 -46 -15 -17 -2 -38 -10 -47 -19 -15 -15 -13 -16
20 -16 20 0 39 4 43 9 3 6 26 7 52 4 28 -3 43 -2 40 4 -4 6 3 8 17 6 13 -3 27
0 30 6 4 6 18 11 30 11 13 0 29 7 36 15 7 8 27 15 45 15 20 0 35 6 39 15 3 8
13 15 23 15 10 0 31 7 46 15 24 12 32 13 48 2 10 -8 16 -17 12 -21 -4 -4 0 -4
9 -1 9 4 30 -1 47 -9 38 -20 41 -20 41 2 0 13 2 14 9 3 5 -7 14 -10 21 -6 20
12 80 -4 81 -23 0 -14 2 -14 6 -2 6 16 23 30 37 30 4 0 5 -7 2 -16 -5 -13 1
-12 30 5 26 16 40 19 54 11 10 -5 20 -6 22 -1 5 13 48 24 48 12 0 -6 6 -8 14
-5 19 7 32 -16 15 -26 -7 -5 -17 -6 -21 -4 -4 3 -8 0 -8 -5 0 -12 11 -14 34
-5 9 4 16 18 16 34 0 25 -4 29 -40 35 -22 4 -40 12 -41 18 0 7 -5 1 -10 -12
-9 -22 -10 -22 -34 -7 -30 20 -84 21 -91 2 -9 -23 -33 -27 -66 -10 -24 12 -36
14 -55 5 -37 -17 -67 -13 -107 14 -20 14 -40 24 -44 24 -4 -1 -17 -4 -29 -6z"/>
<path d="M1822 1973 c-28 -4 -31 -7 -22 -23 9 -16 14 -18 35 -8 22 10 45 40
27 36 -4 0 -22 -3 -40 -5z"/>
<path d="M40 1943 c0 -13 -6 -20 -16 -19 -9 0 -18 -3 -20 -9 -3 -6 16 -8 48
-6 49 4 51 5 27 15 -15 6 -27 15 -27 19 -1 19 -12 19 -12 0z"/>
<path d="M95 1940 c-3 -4 1 -10 9 -13 7 -3 24 -20 37 -38 21 -30 21 -32 3 -25
-40 17 -57 19 -50 8 4 -7 16 -12 27 -12 10 0 18 -5 17 -12 -4 -17 78 -38 152
-38 36 0 100 0 143 0 44 0 77 4 77 10 0 6 -50 9 -132 7 -125 -2 -220 12 -217
31 6 35 -4 59 -31 74 -16 9 -32 13 -35 8z"/>
<path d="M1869 1937 c-14 -11 -13 -15 9 -36 23 -23 24 -23 17 -2 -7 24 7 28
25 6 7 -8 16 -13 20 -10 4 3 8 -6 8 -20 0 -14 -4 -22 -9 -19 -19 12 -34 -14
-36 -61 -6 -153 -7 -158 -15 -139 -6 15 -7 13 -5 -8 3 -16 1 -28 -3 -28 -15 0
-43 -68 -38 -94 4 -19 0 -31 -14 -40 -11 -8 -19 -20 -18 -27 6 -38 -1 -58 -15
-53 -12 5 -13 2 -7 -17 8 -22 34 -41 31 -22 -4 22 3 34 24 43 17 7 18 9 5 9
-12 1 -18 9 -18 27 0 15 4 23 11 19 6 -4 17 1 24 11 17 22 19 38 5 29 -5 -3
-10 -2 -10 4 0 5 5 13 10 16 6 4 10 14 9 23 -3 38 2 47 15 24 14 -26 13 -29
19 126 1 28 5 52 9 52 5 0 8 -7 8 -15 0 -8 5 -15 10 -15 6 0 10 9 10 20 0 11
-3 20 -7 20 -5 0 -8 15 -8 34 0 19 4 32 8 29 5 -3 11 4 14 16 3 11 9 18 14 15
5 -3 9 3 10 13 0 12 4 9 11 -9 5 -16 13 -28 18 -28 5 0 12 -10 16 -22 8 -26
120 -135 147 -144 10 -3 17 -13 15 -22 -2 -10 3 -24 12 -32 9 -8 22 -24 28
-35 7 -13 12 -15 12 -6 0 23 40 -19 41 -43 0 -20 1 -20 9 1 8 19 13 21 34 14
13 -6 26 -7 29 -4 3 2 13 -7 22 -21 10 -14 22 -23 31 -19 7 3 17 -2 20 -11 3
-9 11 -16 18 -15 39 5 87 -3 100 -17 9 -8 20 -12 26 -9 6 3 13 0 16 -8 2 -7
10 -14 17 -15 7 0 21 -3 32 -6 11 -2 23 -5 27 -5 4 -1 5 -8 2 -16 -4 -10 0
-15 13 -15 10 0 43 -12 72 -26 37 -19 51 -31 46 -42 -4 -12 -3 -13 10 -2 12
10 15 10 15 -4 0 -9 6 -16 14 -16 8 0 22 -3 30 -6 12 -5 15 -2 10 9 -3 9 -12
13 -20 10 -8 -3 -14 1 -14 10 0 8 -7 18 -15 21 -13 4 -14 10 -5 26 7 13 7 20
1 20 -6 0 -8 7 -5 15 4 9 -6 22 -28 35 -35 21 -78 27 -78 10 0 -5 5 -10 11
-10 6 0 9 -9 6 -19 -3 -14 2 -20 19 -24 28 -5 31 1 7 19 -15 11 -16 15 -4 26
12 11 13 10 8 -4 -4 -12 -1 -18 7 -18 13 0 32 -47 23 -56 -7 -7 -37 8 -37 18
0 5 -4 6 -10 3 -20 -12 -55 24 -55 58 0 21 -5 32 -15 33 -8 0 -28 6 -44 13
-25 10 -31 9 -38 -4 -11 -19 -28 -20 -28 0 0 15 -38 40 -48 31 -3 -3 0 -6 6
-6 7 0 12 -4 12 -10 0 -6 -9 -6 -25 0 -14 5 -25 7 -25 5 0 -8 -71 32 -101 56
-14 11 -45 23 -68 25 -47 6 -75 27 -110 85 -11 20 -30 39 -41 42 -12 3 -20 14
-20 26 0 15 -6 21 -22 21 -17 0 -31 14 -53 51 -16 28 -39 67 -51 86 -11 20
-31 41 -45 49 -30 17 -79 17 -100 1z m761 -482 c18 -22 7 -28 -23 -12 -15 8
-24 17 -20 20 11 12 30 8 43 -8z"/>
<path d="M1488 1922 c-29 -3 -62 -32 -37 -32 8 0 20 -4 28 -9 12 -8 12 -12 2
-25 -11 -14 -11 -16 3 -16 9 0 19 7 22 15 4 8 13 15 20 15 8 0 17 7 21 16 3 9
16 15 32 14 48 -4 61 0 61 15 0 13 -12 15 -62 13 -35 -2 -75 -4 -90 -6z"/>
<path d="M2834 1895 c-4 -14 -4 -29 0 -32 3 -4 6 3 6 15 0 26 15 29 24 6 4 -9
9 -14 12 -11 8 7 -14 47 -26 47 -5 0 -12 -11 -16 -25z"/>
<path d="M1781 1873 c4 -22 -3 -31 -24 -37 -18 -4 -24 -13 -25 -35 0 -17 -8
-45 -17 -64 -9 -19 -17 -44 -18 -56 -1 -11 -5 -21 -9 -21 -4 0 -8 -12 -8 -26
0 -14 4 -23 10 -19 6 3 10 13 10 21 0 29 60 144 76 144 8 0 13 4 10 8 -3 5 5
8 17 8 18 -1 21 4 19 27 -3 25 11 37 21 20 2 -5 2 -3 1 4 -2 6 2 14 9 16 7 2
8 8 4 13 -4 5 -13 2 -18 -6 -8 -11 -12 -12 -16 -2 -5 13 -44 17 -42 5z"/>
<path d="M520 1842 c0 -11 81 -44 96 -38 7 3 35 -1 61 -9 42 -12 46 -12 29 0
-11 8 -29 16 -40 17 -59 4 -74 7 -108 22 -21 9 -38 13 -38 8z"/>
<path d="M1536 1825 c-32 -15 -59 -22 -80 -18 -25 4 -38 -2 -69 -31 -20 -20
-36 -37 -35 -37 2 -1 15 -2 29 -3 20 -1 25 2 21 13 -4 10 -1 13 12 8 10 -4 15
-3 11 3 -3 6 0 10 9 10 8 0 17 6 19 13 4 8 6 7 6 -3 1 -8 10 -21 21 -27 16
-11 18 -10 14 2 -7 18 -3 19 31 3 30 -14 32 -33 5 -48 -18 -10 -24 -7 -21 13
0 4 -3 7 -9 7 -14 0 -13 -11 10 -57 25 -53 46 -67 25 -17 -17 40 -10 54 28 54
27 0 17 32 -14 47 -15 7 -33 20 -40 29 -13 15 -11 17 19 12 23 -3 31 -1 28 8
-5 12 18 13 30 1 4 -4 13 -2 20 4 8 7 21 8 31 3 26 -11 53 -13 53 -3 0 5 7 6
15 3 8 -4 15 -1 15 5 0 15 -11 18 -80 25 -45 4 -64 1 -104 -19z"/>
<path d="M0 1795 c0 -14 11 -19 38 -16 6 1 12 -3 12 -9 0 -8 6 -8 20 0 16 9
20 8 20 -5 0 -10 9 -15 26 -15 33 0 153 -57 161 -76 3 -8 14 -14 25 -14 10 0
32 -7 48 -15 36 -19 133 -33 110 -16 -13 10 -13 12 0 21 20 13 37 13 42 0 2
-7 14 -7 36 1 18 6 39 8 48 5 8 -3 12 -2 9 4 -3 6 -2 10 4 10 5 0 13 -5 17
-11 4 -6 19 -9 36 -5 16 3 27 2 24 -2 -6 -9 36 -8 51 1 7 4 14 3 18 -3 3 -5
12 -10 18 -10 7 0 6 4 -3 10 -8 5 -10 10 -4 10 5 0 15 -5 22 -12 7 -7 12 -8
12 -3 0 6 5 3 10 -5 7 -11 10 -11 10 -2 0 9 11 7 40 -9 21 -12 37 -25 35 -29
-8 -13 169 -8 177 4 4 6 8 0 8 -14 l0 -24 16 22 c8 12 21 22 28 22 17 0 29
-27 15 -34 -5 -2 -4 -3 3 -2 15 4 11 38 -5 48 -7 4 -20 5 -29 2 -10 -3 -18 -3
-18 0 0 3 32 15 70 27 39 11 73 25 76 30 3 5 9 7 14 4 4 -3 11 2 14 11 3 8 10
13 16 9 5 -3 21 2 35 11 14 9 26 14 26 10 1 -3 2 -10 3 -15 0 -5 14 -21 29
-35 17 -16 26 -33 23 -41 -3 -8 -2 -15 3 -15 16 0 19 39 5 51 -8 6 -14 18 -14
25 0 8 -5 14 -11 14 -5 0 -7 -6 -3 -12 4 -8 3 -10 -2 -5 -5 5 -9 12 -9 15 -1
16 -17 32 -34 32 -9 0 -50 -16 -90 -36 -88 -43 -221 -84 -273 -84 -21 0 -56 9
-76 19 -62 32 -122 44 -236 47 -89 3 -119 0 -169 -17 -54 -18 -66 -19 -102 -8
-22 7 -54 23 -71 35 -106 77 -304 142 -304 99z"/>
<path d="M2928 1797 c-16 -6 -28 -17 -28 -24 0 -17 -17 -17 -23 0 -3 6 -6 -1
-6 -16 -1 -29 -24 -61 -35 -50 -3 4 -6 1 -6 -5 0 -7 -5 -12 -11 -12 -5 0 -7 5
-3 12 4 7 3 8 -4 4 -7 -4 -12 -18 -12 -32 0 -21 -4 -24 -20 -19 -16 5 -20 2
-20 -14 0 -20 0 -20 33 -1 17 11 44 32 59 47 15 15 48 49 75 76 49 48 49 53 1
34z"/>
<path d="M1796 1765 c4 -8 1 -15 -6 -15 -7 0 -10 -7 -6 -15 3 -8 0 -14 -6 -12
-16 3 -30 -54 -16 -70 8 -11 7 -12 -6 -7 -9 3 -16 1 -16 -6 0 -6 4 -9 9 -5 5
3 12 1 15 -4 4 -5 -2 -12 -11 -14 -14 -4 -14 -5 3 -6 14 -1 24 6 27 19 3 11 1
20 -4 20 -5 0 -9 7 -9 15 0 8 4 15 8 15 4 0 16 14 25 30 18 29 16 70 -3 70 -5
0 -7 -7 -4 -15z"/>
<path d="M755 1745 c25 -9 107 -12 94 -4 -8 5 -34 8 -59 8 -25 0 -40 -2 -35
-4z"/>
<path d="M2303 1732 c-35 -5 -27 -17 12 -19 20 -2 35 2 35 8 0 5 -4 8 -9 5 -5
-4 -11 -3 -13 1 -1 5 -13 7 -25 5z"/>
<path d="M1863 1702 c-13 -14 -24 -30 -24 -36 -1 -6 -3 -22 -4 -35 l-2 -24 18
24 c10 13 19 31 19 40 0 8 5 20 11 26 6 6 10 15 8 21 -2 5 -14 -2 -26 -16z"/>
<path d="M2591 1710 c0 -8 6 -26 14 -40 13 -23 14 -23 15 -4 0 11 -7 29 -15
40 -11 14 -14 15 -14 4z"/>
<path d="M2762 1708 c-7 -7 -12 -8 -12 -4 0 5 -9 -3 -21 -18 -11 -14 -17 -30
-14 -36 9 -15 22 -12 29 6 3 8 2 12 -4 9 -6 -3 -10 -1 -10 4 0 6 6 11 13 11 7
0 18 9 25 20 14 23 12 26 -6 8z"/>
<path d="M1650 1692 c-14 -7 -15 -16 -11 -115 1 -17 5 -26 12 -22 6 4 8 26 4
56 -4 29 -2 49 3 49 5 0 12 9 15 20 5 21 2 23 -23 12z"/>
<path d="M2467 1686 c-4 -10 -3 -15 3 -11 6 3 10 1 10 -5 0 -8 -9 -10 -26 -6
-17 5 -23 3 -19 -4 3 -5 -1 -10 -9 -10 -10 0 -13 -6 -10 -15 4 -8 2 -21 -4
-28 -5 -6 -9 -21 -9 -31 0 -18 2 -17 16 5 8 13 35 43 58 66 30 28 40 44 32 49
-8 4 -9 3 -5 -4 4 -7 1 -12 -8 -12 -8 0 -16 5 -18 12 -3 7 -7 5 -11 -6z"/>
<path d="M2349 1669 l-24 -20 26 15 c28 18 40 13 33 -12 -5 -14 -4 -14 6 1 11
17 6 37 -9 37 -5 0 -19 -9 -32 -21z"/>
<path d="M2861 1668 c-1 -9 -17 -26 -36 -38 -19 -12 -35 -29 -35 -37 0 -12 3
-13 13 -4 8 6 18 7 22 3 5 -4 5 -1 1 6 -13 22 6 37 22 16 12 -16 14 -16 9 -2
-4 10 0 21 7 25 9 5 11 15 5 28 -6 16 -8 16 -8 3z"/>
<path d="M1933 1600 c0 -36 2 -50 4 -32 2 17 2 47 0 65 -2 17 -4 3 -4 -33z"/>
<path d="M2551 1652 c-1 -7 -5 -11 -10 -8 -15 10 -41 -5 -41 -23 0 -9 3 -12 8
-6 4 6 22 12 39 13 28 3 32 1 26 -15 -6 -16 -5 -16 10 -4 24 19 22 45 -3 38
-10 -3 -21 0 -24 7 -3 7 -5 7 -5 -2z"/>
<path d="M1195 1633 c-26 -18 -16 -21 30 -8 37 11 38 12 14 17 -15 2 -34 -1
-44 -9z"/>
<path d="M1465 1633 c10 -24 8 -57 -4 -61 -12 -4 -3 -32 11 -32 5 0 7 4 3 9
-3 5 4 12 15 16 11 3 20 11 20 17 0 7 -5 6 -14 -1 -12 -10 -13 -8 -9 8 3 12 9
18 14 15 5 -3 4 6 -3 20 -13 29 -45 37 -33 9z"/>
<path d="M1600 1594 c-6 -14 -10 -34 -10 -44 0 -10 -6 -21 -12 -23 -10 -4 -10
-6 0 -6 6 -1 12 -6 12 -12 0 -5 -3 -8 -7 -6 -5 3 -8 -8 -9 -24 -1 -15 3 -26 7
-23 5 3 6 -10 4 -28 -5 -30 -5 -31 5 -9 6 14 12 32 13 40 2 9 8 26 15 38 14
25 16 63 4 63 -5 0 -7 14 -4 30 5 37 -5 39 -18 4z"/>
<path d="M2730 1610 c0 -5 -9 -10 -20 -10 -11 0 -20 -4 -20 -9 0 -15 -32 -22
-45 -11 -10 8 -15 4 -20 -20 -9 -41 0 -48 28 -23 12 11 37 28 55 39 27 15 45
44 27 44 -3 0 -5 -4 -5 -10z"/>
<path d="M2756 1584 c-3 -9 -3 -21 1 -27 4 -6 0 -8 -10 -4 -10 3 -17 2 -17 -4
0 -6 8 -9 18 -7 9 2 16 10 15 16 -2 7 1 12 5 12 5 0 9 7 9 15 0 20 -13 19 -21
-1z"/>
<path d="M1804 1536 c-3 -9 -10 -14 -14 -11 -4 3 -10 -2 -14 -10 -3 -8 0 -15
6 -15 9 0 9 -3 0 -12 -7 -7 -12 -16 -12 -21 0 -5 7 -2 15 7 17 17 38 67 31 74
-3 3 -8 -3 -12 -12z"/>
<path d="M1544 1534 c3 -4 -7 -28 -21 -56 -26 -50 -24 -79 4 -43 14 17 15 18
9 2 -3 -10 -6 -23 -6 -28 0 -5 -7 -9 -15 -9 -8 0 -15 -3 -15 -8 0 -11 -58 -34
-69 -28 -5 3 -11 -4 -15 -17 -11 -41 -7 -49 16 -27 12 11 31 19 43 18 14 -2
19 2 17 13 -2 16 25 47 37 41 3 -1 7 7 9 18 3 17 6 19 18 9 10 -8 14 -8 14 0
0 6 -5 11 -11 11 -6 0 -9 7 -5 15 3 8 1 15 -4 15 -6 0 -10 2 -10 5 0 3 0 10 0
16 0 5 4 8 8 5 9 -5 8 42 -1 49 -4 3 -5 2 -3 -1z"/>
<path d="M2905 1518 c-16 -11 -22 -18 -13 -15 9 3 19 -1 22 -9 3 -9 11 -14 18
-12 14 5 20 38 7 38 -6 0 -7 5 -4 10 8 13 5 12 -30 -12z"/>
<path d="M1710 1495 c-2 -30 -2 -30 -10 -5 -8 23 -8 23 -9 -8 -1 -18 -6 -42
-11 -52 -8 -15 -6 -21 8 -29 10 -5 24 -6 32 -1 8 5 19 6 25 3 5 -4 6 -2 2 3
-5 5 -16 9 -25 9 -18 0 -20 14 -8 57 5 15 6 33 3 40 -3 7 -6 0 -7 -17z"/>
<path d="M2156 1494 c-4 -15 -2 -32 3 -37 8 -8 11 -5 11 10 0 12 3 28 6 37 3
9 2 16 -4 16 -5 0 -13 -12 -16 -26z"/>
<path d="M1053 1476 c1 -6 7 -14 12 -18 6 -5 5 -8 -3 -8 -7 0 -10 -4 -7 -10 3
-5 -2 -10 -12 -10 -11 0 -14 -3 -7 -8 13 -8 25 -64 13 -56 -5 3 -9 -6 -9 -20
0 -40 0 -40 -19 -61 -10 -11 -22 -37 -25 -58 -6 -34 -9 -37 -34 -31 -35 9 -41
14 -14 14 16 0 22 6 22 21 0 11 -5 17 -10 14 -6 -4 -7 -11 -4 -17 5 -7 2 -9
-8 -5 -9 3 -21 0 -27 -6 -8 -8 -11 -7 -11 6 0 9 5 17 11 17 5 0 7 5 3 12 -5 8
-2 9 10 5 13 -5 17 -2 15 11 -3 32 1 41 16 36 8 -4 15 -2 15 3 0 5 -9 9 -20
10 -11 1 -20 -2 -20 -8 0 -5 -5 -9 -11 -9 -5 0 -7 5 -3 12 5 7 3 8 -6 3 -10
-6 -11 -2 -6 19 4 15 2 26 -4 26 -5 0 -10 -3 -10 -7 0 -5 -3 -19 -7 -32 -4
-16 -3 -22 5 -17 6 3 15 -1 21 -11 7 -13 4 -25 -11 -45 -10 -15 -16 -28 -12
-28 3 0 2 -6 -3 -12 -5 -7 -8 -28 -8 -47 1 -22 -5 -37 -17 -44 -10 -7 -18 -16
-18 -20 0 -5 -7 -15 -16 -24 -8 -9 -13 -21 -10 -29 3 -7 0 -15 -7 -17 -9 -3
-9 -8 1 -18 10 -11 12 -10 12 4 0 9 6 17 13 17 8 0 7 3 -3 10 -12 7 -4 20 44
65 33 30 63 55 68 55 4 0 7 5 5 12 -1 6 11 12 28 13 26 2 54 9 76 21 4 2 10
-3 13 -12 3 -8 2 -12 -4 -9 -14 9 -50 -13 -50 -30 0 -8 7 -15 15 -15 8 0 12 6
9 14 -9 23 12 27 31 6 11 -12 31 -20 52 -20 38 0 46 19 8 21 -14 1 -30 2 -37
3 -13 1 -20 36 -7 36 5 0 9 5 9 10 0 6 -7 10 -15 10 -26 0 -16 17 10 19 48 3
55 4 55 13 0 15 38 8 56 -9 17 -17 17 -17 11 7 -5 22 -5 23 7 8 18 -24 25 -23
19 2 -4 16 -2 19 12 14 13 -5 14 -9 3 -16 -10 -8 -10 -9 2 -5 8 2 14 10 13 16
-4 13 -1 14 31 1 25 -9 26 -8 26 30 0 22 -4 40 -10 40 -5 0 -10 -9 -10 -20 0
-22 -35 -41 -60 -32 -18 6 -86 78 -94 98 -9 24 -23 15 -22 -15 1 -16 6 -29 11
-28 5 1 10 -5 10 -13 0 -8 -5 -14 -10 -13 -6 1 -11 -7 -11 -18 0 -10 4 -19 8
-19 4 0 8 5 8 11 0 5 4 8 9 4 5 -3 12 3 14 12 4 17 5 17 6 1 0 -10 6 -18 11
-18 6 0 10 -5 10 -11 0 -6 -6 -9 -14 -6 -8 3 -28 2 -44 -3 -20 -5 -34 -4 -42
3 -10 9 -11 9 -6 0 4 -8 1 -13 -7 -13 -7 0 -20 -11 -27 -25 -12 -23 -30 -25
-30 -4 0 6 4 8 9 5 5 -3 11 1 14 9 4 9 1 12 -9 8 -9 -3 -14 1 -14 11 0 9 7 19
15 22 9 4 15 19 15 35 0 16 4 29 9 29 6 0 8 9 6 20 -2 11 0 20 6 20 5 0 9 5 9
11 0 5 -4 7 -10 4 -5 -3 -10 -1 -10 5 0 6 10 10 23 8 16 -2 21 -9 19 -23 -2
-16 -1 -17 7 -5 17 24 13 48 -9 55 -11 3 -20 12 -20 20 0 7 -9 15 -20 18 -11
3 -18 0 -17 -7z"/>
<path d="M921 1425 c-11 -19 -24 -35 -29 -35 -6 0 -12 -9 -15 -21 -4 -13 -10
-18 -18 -13 -8 4 -10 3 -5 -4 9 -14 -12 -55 -24 -47 -4 3 -6 -4 -3 -14 3 -10
-2 -30 -11 -43 -9 -14 -13 -28 -9 -31 3 -4 1 -7 -6 -7 -7 0 -9 -4 -6 -10 3 -5
1 -10 -5 -10 -6 0 -8 -5 -5 -10 4 -6 1 -17 -5 -25 -7 -8 -9 -15 -6 -15 4 0 0
-12 -8 -27 -8 -16 -17 -41 -21 -56 -3 -15 -10 -25 -15 -22 -6 3 -10 -5 -10
-19 0 -14 -5 -26 -10 -26 -6 0 -20 -9 -31 -19 -20 -19 -45 -20 -123 -8 -17 3
-35 -1 -43 -8 -19 -20 -16 -27 6 -15 26 13 34 13 25 -2 -5 -7 -3 -8 6 -3 7 4
46 7 86 6 45 -1 74 2 74 8 0 5 13 29 29 53 15 24 31 56 35 72 9 36 75 207 86
221 4 6 10 21 13 36 4 14 21 42 39 63 18 21 33 44 34 52 3 22 -2 17 -25 -21z"/>
<path d="M951 1412 c-13 -18 -17 -33 -11 -42 5 -8 7 -17 4 -21 -11 -19 15 -16
32 3 11 12 14 18 7 15 -6 -4 -14 -3 -18 3 -3 5 1 10 9 10 9 0 16 8 16 17 0 13
-3 14 -12 5 -17 -17 -29 -15 -22 3 4 8 12 15 20 15 8 0 14 5 14 10 0 19 -19
10 -39 -18z"/>
<path d="M2878 1380 c2 -17 0 -36 -6 -43 -8 -9 -3 -12 21 -14 18 0 26 1 20 4
-20 7 -15 23 7 23 15 0 20 -7 20 -24 0 -14 -4 -27 -8 -30 -4 -3 -6 -20 -4 -39
3 -25 11 -38 28 -46 36 -16 44 -14 43 12 0 12 -3 16 -6 10 -6 -17 -18 -16 -38
3 -12 12 -13 19 -4 30 6 7 8 18 4 24 -3 5 1 17 9 26 9 8 16 22 16 29 0 18 -37
38 -52 29 -7 -4 -8 -3 -4 4 6 10 -22 32 -42 32 -5 0 -7 -14 -4 -30z"/>
<path d="M1765 1360 c-4 -16 -4 -34 0 -40 3 -5 1 -19 -5 -30 -6 -11 -7 -20 -2
-20 13 0 7 -77 -8 -95 -7 -9 -19 -14 -26 -11 -7 3 -15 -1 -17 -8 -4 -9 2 -11
21 -8 24 5 26 3 13 -11 -7 -9 -17 -15 -21 -12 -5 3 -12 0 -16 -6 -5 -8 3 -10
25 -7 17 2 31 1 31 -4 0 -4 20 -8 44 -8 24 0 61 -8 82 -17 22 -9 47 -15 58
-14 11 2 16 -2 12 -8 -4 -6 -3 -11 3 -11 5 0 13 5 16 10 11 17 111 -11 132
-37 6 -8 17 -13 24 -11 14 5 -43 68 -62 68 -6 0 -9 7 -5 15 4 12 2 13 -14 3
-10 -7 -17 -16 -14 -20 3 -4 -2 -5 -10 -2 -9 3 -16 12 -16 20 0 8 -4 14 -10
14 -5 0 -7 -7 -4 -15 8 -21 -25 -8 -48 18 -17 18 -18 19 -18 2 0 -14 -3 -15
-14 -6 -11 9 -15 9 -19 -1 -3 -8 -6 -6 -6 5 -1 15 -5 16 -21 7 -17 -9 -20 -8
-20 7 0 10 -3 14 -8 8 -11 -16 -37 -12 -37 5 0 8 -4 21 -8 28 -5 6 -5 18 0 25
14 23 -5 197 -22 197 -2 0 -6 -13 -10 -30z"/>
<path d="M1517 1364 c-3 -3 3 -16 15 -28 20 -22 43 -65 40 -79 -1 -4 1 -6 6
-6 18 3 32 -2 32 -12 0 -6 -8 -8 -17 -5 -17 6 -17 5 0 -8 19 -14 24 -31 6 -20
-7 4 -6 -2 2 -17 12 -23 12 -23 -12 -7 -13 9 -23 22 -21 29 2 10 0 10 -12 0
-10 -9 -16 -9 -21 -1 -4 7 -18 9 -30 6 -13 -3 -26 -2 -29 3 -10 15 -57 -12
-51 -29 4 -12 3 -12 -7 1 -7 9 -19 14 -27 11 -7 -2 -17 2 -22 9 -7 11 -11 10
-23 -6 -14 -17 -17 -18 -26 -5 -5 8 -8 20 -5 27 2 7 -2 10 -11 6 -17 -6 -19
-33 -2 -33 6 0 8 -3 5 -7 -13 -12 37 -30 55 -19 11 7 24 6 40 -1 19 -9 28 -7
47 8 25 20 51 25 51 9 0 -5 6 -7 13 -4 8 3 27 0 43 -6 l29 -12 -30 -12 c-19
-8 -25 -15 -17 -20 7 -4 12 -2 12 6 0 10 2 10 9 -1 6 -9 11 -10 15 -2 4 6 13
11 19 11 7 0 6 -4 -3 -10 -12 -8 -10 -10 9 -10 20 0 21 -2 11 -15 -7 -9 -8
-15 -2 -15 16 0 22 26 9 40 -10 10 -4 11 24 6 61 -11 66 12 14 66 -23 25 -51
62 -60 82 -10 20 -21 36 -26 36 -5 0 -9 6 -9 14 0 8 -7 17 -16 20 -19 7 -19 7
-27 0z"/>
<path d="M1664 1353 c2 -3 -2 -20 -10 -38 -21 -50 -17 -54 11 -13 29 43 31 55
10 55 -8 0 -13 -2 -11 -4z"/>
<path d="M1340 1329 c0 -6 12 -22 26 -37 15 -15 23 -21 20 -14 -4 6 -2 12 3
12 21 0 10 19 -19 34 -16 8 -30 10 -30 5z"/>
<path d="M1678 1278 c-15 -18 -15 -22 -2 -35 9 -10 12 -23 8 -36 -6 -19 -5
-20 9 -8 15 12 15 16 2 41 -10 18 -11 31 -5 35 6 3 10 1 10 -6 0 -7 3 -10 6
-6 3 3 2 12 -3 21 -7 13 -11 12 -25 -6z"/>
<path d="M1930 1250 c0 -11 5 -20 10 -20 6 0 10 -9 10 -20 0 -11 5 -20 10 -20
13 0 13 4 -4 45 -17 39 -26 45 -26 15z"/>
<path d="M2011 1242 c0 -12 -8 -34 -17 -48 -15 -22 -15 -24 0 -18 18 7 30 43
23 71 -4 14 -5 13 -6 -5z"/>
<path d="M1221 1219 c-23 -14 -32 -16 -28 -6 3 7 0 14 -7 14 -17 0 -17 -65 0
-71 16 -6 27 21 11 28 -7 2 -2 8 11 11 12 4 22 11 22 16 0 5 11 9 25 9 14 0
25 5 25 10 0 16 -22 12 -59 -11z"/>
<path d="M2211 1163 c-5 -10 -8 -53 -7 -96 2 -67 0 -76 -11 -61 -12 16 -13 16
-13 1 0 -9 -4 -17 -10 -17 -5 0 -9 8 -8 18 3 35 -2 72 -10 72 -4 0 -6 -18 -4
-40 4 -37 2 -40 -22 -40 -14 0 -26 -5 -26 -11 0 -6 12 -9 28 -6 15 2 21 2 13
-1 -12 -3 -12 -5 0 -13 11 -7 9 -9 -7 -9 -23 0 -58 32 -47 43 3 4 1 7 -5 7 -6
0 -13 -4 -16 -9 -3 -5 -15 -7 -26 -4 -11 3 -20 0 -20 -6 0 -6 12 -11 28 -12
15 0 21 -3 15 -6 -7 -2 -13 -12 -13 -20 0 -11 7 -14 23 -11 15 3 24 0 24 -8 0
-9 -11 -12 -36 -10 -20 3 -30 2 -23 -1 33 -13 4 -23 -65 -22 -53 0 -72 3 -58
9 16 7 17 9 3 9 -28 1 -48 -10 -48 -28 0 -14 -2 -14 -10 -1 -5 8 -10 10 -10 5
0 -6 9 -18 20 -28 11 -9 20 -13 20 -9 0 5 21 8 48 8 32 -1 46 3 45 12 -2 8 9
12 30 11 27 0 29 -2 12 -9 -16 -7 -14 -9 15 -9 26 -1 31 2 20 9 -13 8 -13 10
2 10 9 0 23 3 32 6 10 4 16 1 16 -9 0 -16 12 -15 78 5 27 8 33 14 28 31 -4 15
-2 17 7 8 19 -19 24 -13 24 32 0 39 -1 40 -9 15 -15 -45 -23 -32 -23 37 0 51
3 65 15 65 13 0 13 2 1 9 -10 7 -12 20 -7 50 7 44 2 52 -13 24z m-17 -191 c8
-14 -5 -50 -20 -56 -16 -6 -64 13 -64 26 0 4 8 8 19 8 10 0 24 7 31 15 14 17
26 19 34 7z"/>
<path d="M2312 1160 c-14 -23 -16 -66 -3 -74 7 -5 24 84 17 91 -1 1 -7 -7 -14
-17z"/>
<path d="M1458 1157 c-7 -8 -19 -12 -26 -9 -17 5 -15 -15 3 -22 8 -3 19 2 24
12 7 11 11 12 11 4 0 -18 20 -5 20 14 0 18 -14 18 -32 1z"/>
<path d="M1286 1144 c-4 -9 -9 -14 -13 -11 -3 4 -12 2 -20 -4 -9 -9 -17 -8
-27 0 -10 9 -16 8 -26 -4 -7 -8 -20 -15 -28 -15 -15 0 -15 -2 -1 -15 15 -16
79 -11 79 5 0 4 16 11 35 14 38 7 38 7 29 30 -8 21 -20 20 -28 0z"/>
<path d="M1348 1152 c-22 -4 -24 -42 -3 -42 16 0 30 23 23 38 -1 4 -11 6 -20
4z"/>
<path d="M807 1087 c-15 -33 -26 -62 -24 -64 7 -6 58 97 55 111 -2 7 -15 -14
-31 -47z"/>
<path d="M1387 1130 c3 -11 9 -20 14 -20 5 0 9 -18 9 -41 0 -41 13 -46 23 -9
3 12 1 18 -5 14 -6 -4 -8 1 -3 15 4 14 1 23 -9 27 -9 3 -16 12 -16 20 0 8 -4
14 -9 14 -5 0 -7 -9 -4 -20z"/>
<path d="M1060 1121 c0 -5 -7 -12 -16 -15 -8 -3 -12 -2 -9 4 3 6 1 10 -4 10
-6 0 -11 -4 -11 -9 0 -5 -12 -12 -27 -16 -32 -8 -43 -21 -43 -53 0 -12 -7 -25
-15 -28 -21 -8 -19 -21 6 -35 19 -10 20 -9 14 11 -5 17 -4 21 6 15 9 -6 11 -3
6 8 -4 11 -1 17 8 17 8 0 15 7 15 15 0 8 -5 15 -11 15 -8 0 -8 5 1 15 15 18
100 21 100 4 0 -7 -11 -9 -27 -6 -24 4 -26 4 -10 -8 9 -7 17 -23 16 -36 l0
-24 -11 23 c-6 12 -15 22 -21 22 -5 0 -4 -7 3 -15 6 -8 9 -19 5 -25 -8 -13 18
-13 31 0 7 7 17 5 30 -5 18 -14 18 -14 -11 -15 -22 0 -26 -3 -15 -9 8 -6 18
-7 23 -4 5 3 5 -2 0 -12 -12 -21 -5 -55 11 -55 6 0 12 10 13 21 1 12 6 26 10
30 10 10 53 0 53 -12 0 -5 7 -9 15 -9 17 0 20 -16 5 -25 -15 -10 -12 -25 6
-25 9 0 14 -5 12 -12 -6 -18 -28 -21 -28 -4 0 9 -8 16 -20 16 -11 0 -20 5 -20
10 0 6 -4 10 -10 10 -5 0 -10 -7 -10 -15 0 -8 -3 -14 -7 -14 -26 4 -63 -3 -63
-12 0 -6 9 -8 21 -4 13 5 25 2 29 -6 6 -9 31 -12 81 -11 40 0 79 -4 86 -10 9
-7 13 -7 13 1 0 6 -4 11 -10 11 -19 0 -50 40 -50 65 0 14 -4 25 -8 25 -5 0
-14 16 -20 37 -6 21 -7 32 -1 26 5 -5 40 -8 77 -6 77 4 96 9 87 22 -3 5 5 12
17 14 15 3 12 4 -9 4 -17 -1 -38 5 -47 12 -9 8 -19 11 -23 7 -3 -3 0 -6 7 -6
21 0 -2 -19 -31 -26 -57 -15 -93 -5 -125 33 -31 36 -31 36 -37 12 -10 -35 -9
-38 11 -33 21 6 44 -37 31 -58 -7 -10 -9 -10 -9 0 0 7 -4 10 -10 7 -5 -3 -10
1 -10 9 0 9 -10 18 -23 21 -27 7 -31 30 -11 60 21 29 17 44 -8 37 -14 -3 -19
-2 -14 6 4 7 2 12 -3 12 -6 0 -11 -4 -11 -9z"/>
<path d="M1639 1123 c0 -4 -2 -16 -4 -25 -4 -20 21 -25 28 -5 2 6 2 -1 -1 -18
-6 -40 -20 -54 -35 -35 -19 23 -55 41 -62 30 -3 -5 8 -17 25 -26 20 -13 30
-26 30 -43 0 -13 8 -30 18 -37 12 -8 17 -26 17 -57 0 -25 3 -41 6 -36 3 5 14
7 25 3 18 -7 18 -7 -1 15 -16 19 -17 24 -5 31 13 8 13 10 1 10 -11 0 -12 3 -4
11 14 14 98 16 98 3 0 -5 -17 -9 -37 -8 -29 1 -39 -4 -44 -18 -7 -22 4 -38 14
-22 4 6 29 13 55 16 26 3 50 8 53 11 10 9 -47 57 -69 58 -17 1 -18 2 -4 6 34
9 17 29 -22 24 -7 -2 -10 2 -6 8 3 6 -1 11 -9 11 -9 0 -17 9 -17 20 -1 11 -3
25 -4 30 -1 6 -3 14 -4 20 -1 12 -41 34 -42 23z m59 -111 c14 -13 18 -22 11
-33 -5 -8 -9 -9 -9 -4 0 6 -7 1 -15 -9 -8 -11 -16 -18 -17 -15 -17 27 -23 47
-20 62 5 22 23 22 50 -1z"/>
<path d="M1530 1098 c0 -21 29 -25 48 -6 19 19 14 25 -18 25 -22 0 -30 -5 -30
-19z"/>
<path d="M1496 1085 c3 -8 -1 -22 -10 -30 -19 -19 -20 -31 -4 -41 7 -4 8 -3 4
4 -4 7 -2 12 3 12 6 0 11 7 11 15 0 8 7 15 15 15 21 0 19 17 -5 30 -16 8 -18
8 -14 -5z"/>
<path d="M1710 1093 c0 -4 10 -17 22 -30 20 -21 22 -21 34 -5 12 15 13 14 14
-10 0 -16 5 -28 10 -28 6 0 10 -6 10 -14 0 -7 9 -16 19 -19 21 -5 31 10 31 46
0 18 -2 19 -10 7 -9 -13 -10 -13 -10 0 0 18 -55 44 -71 34 -9 -5 -10 -2 -6 9
3 10 2 17 -3 17 -6 0 -10 -7 -10 -16 0 -8 -5 -12 -10 -9 -6 4 -8 11 -5 16 4 5
1 9 -4 9 -6 0 -11 -3 -11 -7z"/>
<path d="M166 1047 c-3 -14 -1 -38 4 -53 6 -15 8 -29 5 -32 -2 -3 0 -11 7 -19
15 -19 2 -29 -17 -13 -13 11 -19 10 -34 -4 -10 -10 -32 -19 -47 -20 -16 -2
-27 -7 -24 -12 3 -5 13 -7 23 -6 32 6 17 -16 -20 -29 -24 -8 -32 -14 -21 -17
9 -2 28 4 42 14 14 9 26 13 26 10 0 -4 10 4 23 16 12 13 30 22 40 20 10 -2 29
4 43 13 20 13 23 19 14 30 -7 8 -8 20 -4 27 4 7 4 10 -1 6 -13 -13 -35 13 -35
41 0 40 -16 59 -24 28z"/>
<path d="M1546 1025 c9 -14 19 -25 23 -25 3 0 7 -12 8 -27 0 -15 6 -29 12 -31
6 -2 11 -10 11 -18 0 -12 3 -12 14 -2 11 11 11 14 -2 24 -9 7 -13 18 -9 28 5
11 -3 27 -23 46 -37 37 -56 39 -34 5z"/>
<path d="M364 1022 c4 -7 1 -12 -6 -12 -7 0 -26 -7 -42 -15 -16 -9 -35 -14
-42 -11 -21 8 -24 -43 -3 -54 22 -13 50 -14 31 -2 -9 6 -5 15 15 34 29 26 69
46 58 28 -3 -6 1 -10 10 -10 10 0 13 5 9 12 -5 8 5 9 37 5 40 -5 42 -4 25 9
-11 8 -31 13 -46 12 -14 -1 -32 2 -39 7 -10 5 -12 4 -7 -3z"/>
<path d="M1460 1004 c0 -1 16 -11 35 -20 19 -9 35 -23 35 -30 0 -12 4 -12 19
-2 19 12 19 12 -1 26 -19 14 -88 34 -88 26z"/>
<path d="M123 990 c3 -11 -4 -16 -24 -17 -18 -1 -42 -16 -64 -37 -38 -38 -45
-59 -17 -50 14 5 14 3 -2 -10 -20 -16 -20 -16 0 -16 27 0 36 10 23 26 -14 17
34 64 65 64 37 0 48 14 30 36 -10 12 -14 13 -11 4z"/>
<path d="M848 993 c6 -3 12 -14 12 -25 0 -12 8 -27 18 -34 27 -21 35 -16 12 8
-12 13 -19 30 -17 38 3 11 -3 16 -17 17 -12 1 -15 -1 -8 -4z"/>
<path d="M1963 983 c-13 -2 -23 -8 -23 -11 0 -12 39 -42 55 -42 24 0 27 18 3
23 -19 3 -17 5 6 6 28 1 29 2 10 16 -10 8 -21 14 -24 13 -3 0 -15 -3 -27 -5z"/>
<path d="M416 952 l-39 -27 28 -3 c21 -3 25 -6 14 -13 -10 -6 -5 -9 18 -9 17
0 35 -5 38 -11 5 -6 -9 -9 -38 -8 -25 2 -51 -2 -59 -8 -19 -15 -90 -37 -115
-35 -16 1 -21 -4 -20 -18 1 -14 8 -20 24 -20 17 0 21 4 16 18 -3 9 -3 14 1 10
4 -3 23 0 43 8 19 8 32 10 28 5 -3 -6 -2 -11 4 -11 5 0 13 9 16 20 3 11 11 20
16 20 6 0 7 -4 4 -10 -3 -5 -2 -10 4 -10 5 0 11 6 13 12 6 18 58 -7 58 -27 0
-15 -2 -15 -16 0 -21 20 -60 12 -86 -17 -22 -25 -24 -35 -3 -18 8 6 19 9 26 5
8 -6 7 -10 -2 -17 -10 -7 -8 -8 6 -3 11 3 32 9 47 12 22 4 30 14 39 47 6 22
15 46 20 52 13 16 60 14 66 -2 3 -8 9 -14 15 -14 5 0 7 4 4 9 -4 5 -3 11 1 14
5 2 2 2 -4 1 -7 -2 -13 1 -13 6 0 6 26 11 58 11 31 1 46 4 32 6 -42 8 -171 -7
-163 -20 4 -7 0 -8 -11 -4 -10 4 -24 7 -32 7 -8 0 -14 9 -13 23 1 16 2 18 6 5
5 -19 23 -25 23 -7 0 5 4 8 9 5 5 -4 4 5 -2 19 -14 30 -12 30 -61 -3z m25
-126 c5 3 9 0 9 -5 0 -11 -4 -12 -37 -15 -23 -1 -28 21 -6 26 10 2 20 0 21 -4
2 -5 8 -6 13 -2z"/>
<path d="M801 955 c-13 -14 -21 -28 -17 -32 3 -3 15 5 27 18 12 13 26 23 31
21 5 -1 7 2 3 8 -9 15 -18 12 -44 -15z"/>
<path d="M1276 945 c5 -30 4 -34 -10 -29 -9 3 -16 3 -16 -1 0 -8 27 -36 35
-36 2 0 12 -2 22 -6 10 -4 19 -1 21 6 3 8 18 -2 39 -26 28 -30 32 -39 19 -41
-20 -4 -46 21 -46 44 0 16 -1 16 -19 0 -10 -10 -21 -26 -24 -38 -5 -16 -2 -19
13 -15 11 3 27 -1 37 -9 10 -7 32 -14 48 -14 21 0 33 -7 40 -22 6 -13 16 -22
23 -21 11 3 17 -16 12 -46 -1 -8 4 -12 13 -8 13 5 15 -3 14 -39 -1 -24 -3 -44
-4 -44 -8 0 -35 53 -39 76 -3 16 -6 29 -7 30 -6 6 -107 20 -112 16 -3 -3 -5
-14 -5 -25 0 -16 3 -17 15 -7 13 10 15 9 15 -9 0 -15 5 -22 18 -20 25 3 71
-21 77 -43 4 -10 10 -18 15 -18 4 0 6 -9 3 -20 -3 -11 -1 -20 5 -20 6 0 14 9
17 20 3 11 10 20 14 20 5 0 6 11 4 24 -3 13 0 33 6 44 8 16 8 23 -2 29 -7 4
-23 30 -36 56 -21 41 -28 47 -50 44 -14 -2 -20 -2 -14 0 27 9 -59 106 -87 98
-29 -8 -41 9 -24 33 13 20 52 33 40 14 -2 -4 3 -16 11 -27 15 -19 15 -19 8 4
-7 21 -5 23 16 18 13 -4 33 -7 44 -8 13 -1 10 -4 -10 -9 l-30 -7 35 -6 c19 -3
61 -9 93 -12 76 -8 68 -16 -17 -16 -60 -1 -66 -2 -54 -17 11 -13 10 -15 -9
-10 -13 4 -23 2 -23 -3 0 -5 12 -9 27 -9 19 0 40 -15 79 -57 30 -31 57 -53 61
-49 4 4 -9 23 -30 42 -20 19 -37 36 -37 38 0 2 34 7 75 11 41 4 78 11 81 16 3
5 2 9 -3 8 -24 -4 -43 3 -43 16 0 8 -7 15 -16 15 -8 0 -13 4 -10 9 4 5 -13 12
-36 16 -24 4 -55 13 -69 20 -26 14 -181 55 -206 55 -11 0 -12 -8 -7 -35z m324
-96 c0 -8 -78 -16 -103 -11 -10 2 -15 8 -11 13 6 10 114 9 114 -2z m-200 -159
c9 -5 17 -5 21 1 3 6 10 4 18 -4 9 -12 7 -16 -9 -20 -11 -3 -20 -1 -20 4 0 5
-9 9 -20 9 -11 0 -20 5 -20 10 0 12 10 13 30 0z"/>
<path d="M1850 954 c-6 -14 -10 -26 -10 -27 0 -1 25 0 55 1 53 4 71 16 40 28
-8 4 -12 10 -9 15 3 5 -11 9 -31 9 -29 0 -37 -5 -45 -26z"/>
<path d="M976 958 c-12 -39 -3 -48 46 -45 45 2 48 4 48 30 0 15 -5 27 -11 27
-5 0 -8 -4 -5 -8 2 -4 1 -14 -5 -22 -6 -10 -9 -11 -9 -2 0 6 -10 12 -22 13
-22 1 -22 1 2 9 24 8 23 8 -8 9 -18 1 -34 -5 -36 -11z"/>
<path d="M2280 953 c0 -13 -5 -23 -11 -23 -8 0 -8 -4 0 -14 7 -8 37 -18 67
-22 50 -6 54 -8 48 -28 -10 -34 -19 -38 -64 -26 -53 14 -49 22 5 10 l40 -9
-25 19 c-13 10 -28 16 -32 14 -3 -2 -10 0 -13 6 -5 8 -11 8 -19 1 -7 -6 -31
-9 -53 -8 -23 1 -40 0 -38 -3 2 -3 0 -12 -5 -20 -7 -12 -13 -11 -31 5 -12 11
-19 14 -15 8 5 -10 -6 -13 -43 -13 -36 0 -50 -4 -48 -12 2 -15 -36 -12 -41 3
-5 13 -40 11 -46 -3 -3 -9 -9 -7 -20 6 -9 11 -16 15 -16 10 0 -5 -10 -10 -21
-11 -29 -3 -32 -8 -19 -30 16 -25 76 -20 83 8 8 29 26 23 35 -13 10 -39 42
-52 42 -18 0 18 4 21 25 18 16 -4 25 -1 25 8 0 10 22 14 83 16 62 2 81 6 79
16 -1 8 2 11 8 7 5 -3 10 -12 10 -19 0 -14 42 -26 88 -26 14 0 34 -7 44 -17
17 -15 18 -15 18 5 0 13 -6 22 -15 22 -8 0 -15 7 -15 15 0 20 17 19 41 -4 13
-12 17 -21 10 -26 -16 -10 -13 -35 4 -35 9 0 20 -11 25 -25 10 -25 34 -33 45
-15 3 6 -1 10 -9 10 -9 0 -16 9 -16 21 0 11 -4 17 -10 14 -6 -4 -7 1 -3 11 5
14 3 16 -11 11 -10 -4 -15 -3 -11 3 11 18 45 11 45 -9 0 -11 5 -23 12 -27 6
-4 8 -3 4 4 -3 5 0 13 6 16 11 5 11 7 0 12 -6 3 -10 10 -6 15 3 5 -4 9 -16 9
-30 0 -60 18 -60 35 0 8 -4 15 -9 15 -5 0 -12 8 -14 18 -3 12 -5 10 -7 -8 l-2
-25 -7 25 c-5 16 -13 24 -24 22 -11 -2 -17 4 -17 18 0 11 -4 20 -10 20 -5 0
-10 -8 -10 -17 0 -13 -2 -15 -8 -5 -5 8 -16 10 -27 6 -13 -5 -16 -4 -11 4 4 7
2 20 -3 29 -9 16 -10 16 -11 -4z"/>
<path d="M730 920 c-8 -5 -37 -10 -65 -10 -69 -1 -37 -19 39 -22 49 -2 55 -4
40 -15 -19 -14 -13 -29 8 -19 7 4 29 15 48 26 19 10 36 17 38 15 8 -8 8 -55 1
-55 -5 0 -9 6 -9 14 0 28 -17 25 -18 -3 0 -21 5 -31 19 -34 26 -7 64 3 49 13
-8 5 -2 10 15 14 32 8 75 35 75 47 0 5 -13 6 -30 3 -18 -4 -36 -1 -45 6 -13
11 -15 8 -15 -13 0 -14 -5 -29 -11 -33 -8 -5 -10 1 -7 19 3 14 2 26 -1 25 -18
-2 -22 4 -11 17 10 12 10 15 -4 15 -9 0 -16 -6 -16 -13 0 -9 -12 -13 -35 -13
-21 1 -35 6 -35 14 0 14 -10 15 -30 2z"/>
<path d="M244 909 c-2 -4 29 -9 70 -11 42 -2 72 0 68 3 -10 10 -132 17 -138 8z"/>
<path d="M960 853 c-40 -33 -55 -53 -56 -72 0 -14 -5 -25 -11 -24 -5 1 -10 -5
-10 -13 0 -11 6 -9 23 7 13 12 21 26 18 31 -4 7 70 88 80 88 1 0 2 -15 2 -32
1 -18 5 -44 9 -58 4 -14 8 -32 8 -41 1 -14 5 -15 24 -6 23 10 27 32 5 32 -5 0
-14 3 -18 8 -4 4 -2 7 5 7 7 0 9 5 6 10 -4 6 -11 8 -16 5 -5 -4 -9 -4 -9 -1 0
2 -3 11 -6 19 -4 12 0 14 15 10 12 -3 21 -9 21 -15 0 -17 32 -58 41 -52 5 3 0
19 -11 35 -12 16 -19 33 -15 38 3 5 1 12 -5 16 -5 3 -10 1 -10 -4 0 -6 -6 -11
-13 -11 -9 0 -14 12 -14 33 0 17 2 26 5 20 5 -18 19 -16 19 2 0 26 -30 15 -87
-32z"/>
<path d="M1818 878 c-3 -7 -22 -13 -48 -13 -25 0 -45 -6 -48 -13 -5 -17 94
-17 101 1 3 6 6 2 6 -10 1 -22 -3 -23 -69 -23 -62 0 -70 -2 -70 -19 0 -16 9
-18 69 -20 80 -2 93 9 81 66 -9 40 -16 50 -22 31z"/>
<path d="M215 870 c3 -6 -1 -7 -10 -4 -11 4 -19 -4 -30 -30 -8 -20 -22 -36
-30 -36 -8 0 -19 -8 -24 -17 -6 -10 -11 -13 -11 -7 0 9 -11 9 -42 2 -47 -12
-73 -28 -44 -28 10 0 15 -5 11 -12 -4 -7 -1 -6 7 3 17 20 46 30 53 19 9 -15
18 -12 48 16 17 15 34 23 44 20 17 -7 43 10 43 28 0 6 -7 2 -15 -8 -8 -11 -15
-16 -16 -10 0 5 -2 17 -4 26 -2 14 9 18 63 24 98 10 111 23 24 24 -46 0 -71
-4 -67 -10z"/>
<path d="M575 871 c-41 -4 -65 -9 -57 -14 6 -5 12 -5 12 0 0 4 4 2 9 -5 13
-21 84 -42 99 -30 6 6 12 7 12 2 0 -4 6 -1 13 8 6 8 21 18 31 22 19 7 19 6 1
-14 -14 -15 -15 -20 -4 -20 10 -1 8 -4 -4 -11 -13 -8 -22 -7 -32 1 -8 7 -15 7
-19 1 -10 -15 32 -34 60 -27 21 6 24 12 24 51 0 25 -3 45 -6 45 -3 0 -19 -10
-36 -21 -21 -16 -33 -18 -40 -11 -8 8 -5 14 13 21 13 5 17 9 9 9 -8 -1 -46 -4
-85 -7z"/>
<path d="M75 835 c-3 -8 -7 -22 -10 -30 -2 -9 2 -15 10 -15 8 0 15 8 15 18 0
10 5 23 12 30 9 9 8 12 -5 12 -10 0 -20 -7 -22 -15z"/>
<path d="M497 836 c-3 -8 1 -17 9 -20 9 -3 12 -11 8 -17 -5 -8 -8 -8 -14 0 -5
9 -10 8 -19 -2 -9 -12 -8 -16 3 -20 9 -4 18 -2 21 3 4 6 11 10 17 10 6 0 3 -9
-7 -20 -20 -22 -30 -80 -13 -80 5 0 6 -6 1 -12 -4 -7 -9 -21 -10 -31 -3 -17
-2 -17 13 -3 8 9 13 20 9 25 -6 11 29 33 39 24 3 -3 6 2 6 12 0 14 -3 15 -15
5 -20 -17 -36 -3 -32 28 5 34 47 46 47 13 0 -11 4 -22 8 -25 5 -3 9 8 9 24 0
18 -6 30 -13 30 -7 0 -16 5 -20 12 -5 7 -3 8 6 3 8 -5 11 -3 8 6 -3 8 -14 15
-26 17 -12 2 -20 7 -17 12 3 5 1 11 -4 14 -5 3 -11 0 -14 -8z"/>
<path d="M1077 836 c-8 -20 21 -56 38 -50 8 4 12 10 9 15 -3 5 3 9 13 10 14 0
14 2 -4 9 -13 5 -23 14 -23 20 0 15 -27 12 -33 -4z"/>
<path d="M322 813 c-5 -10 -7 -24 -5 -31 3 -8 -1 -10 -11 -6 -10 4 -16 1 -16
-9 0 -9 8 -13 26 -11 34 3 38 9 21 25 -15 16 -11 43 5 33 7 -4 8 -2 4 4 -10
16 -14 15 -24 -5z"/>
<path d="M1180 820 c0 -6 10 -8 26 -4 20 5 25 4 19 -6 -4 -7 -2 -16 6 -21 11
-7 11 -9 1 -9 -7 0 -11 -4 -7 -10 4 -6 15 -6 32 1 20 7 28 6 35 -3 6 -10 8
-10 8 0 0 18 18 15 47 -8 14 -11 29 -17 34 -14 5 3 9 1 9 -5 0 -6 7 -8 16 -4
19 7 3 26 -25 28 -11 1 -27 7 -36 15 -10 8 -33 13 -52 11 -27 -2 -36 2 -39 16
-4 13 -16 20 -40 21 -19 2 -34 -2 -34 -8z"/>
<path d="M1621 810 l-33 -5 42 -52 c23 -29 39 -57 36 -62 -3 -4 6 -8 19 -8 14
0 25 2 25 6 0 3 -23 29 -50 58 l-49 52 37 3 c20 2 30 5 22 8 -8 4 -30 4 -49 0z"/>
<path d="M2120 810 c0 -6 11 -8 26 -4 17 4 25 3 21 -3 -4 -6 5 -15 19 -22 32
-14 37 -14 28 2 -5 8 -2 8 9 -2 17 -14 22 -5 11 23 -5 12 -9 13 -26 3 -16 -9
-22 -9 -25 1 -6 14 -63 17 -63 2z"/>
<path d="M2260 795 c13 -16 50 -21 50 -6 0 5 -10 11 -22 15 -36 9 -41 7 -28
-9z"/>
<path d="M1179 783 c0 -10 -2 -26 -4 -36 -3 -14 0 -16 10 -7 14 12 17 60 4 60
-5 0 -9 -8 -10 -17z"/>
<path d="M2340 789 c0 -5 4 -8 9 -4 5 3 13 1 16 -5 4 -6 1 -9 -6 -8 -6 2 -13
-2 -16 -8 -4 -11 32 -12 43 -1 9 9 -15 37 -32 37 -8 0 -14 -5 -14 -11z"/>
<path d="M431 758 c-14 -39 -10 -43 28 -27 32 14 32 34 0 24 -21 -7 -25 5 -7
23 8 8 8 12 1 12 -6 0 -16 -14 -22 -32z"/>
<path d="M595 763 c0 -16 4 -31 8 -34 4 -3 9 -16 10 -27 1 -12 7 -22 14 -22 7
0 13 -4 13 -10 0 -17 16 -11 44 15 14 13 26 21 26 18 0 -3 7 0 15 7 9 7 14 19
11 27 -4 9 3 13 22 13 21 0 24 -2 12 -10 -13 -9 -13 -10 0 -10 12 -1 12 -3 -2
-11 -10 -5 -15 -16 -12 -24 6 -15 25 -21 23 -7 -3 19 2 23 16 12 13 -11 12
-14 -7 -29 -14 -12 -16 -18 -7 -18 8 0 26 -4 42 -8 17 -5 27 -3 27 4 0 6 -4
11 -10 11 -5 0 -12 16 -16 36 -4 24 -11 34 -20 30 -9 -3 -14 2 -14 14 0 18 -7
20 -62 20 -36 1 -74 7 -88 15 -36 21 -46 18 -45 -12z m85 -37 c0 -29 -7 -35
-31 -29 -26 7 -24 31 4 36 17 3 16 5 -8 6 -21 1 -26 4 -16 10 22 14 51 1 51
-23z"/>
<path d="M966 773 c2 -7 -6 -22 -17 -32 -13 -12 -18 -24 -13 -32 5 -9 2 -10
-9 -6 -10 3 -17 2 -17 -3 0 -6 4 -10 9 -10 5 0 16 -3 25 -6 10 -4 16 -1 16 8
0 7 9 31 21 52 16 30 17 37 5 33 -8 -3 -17 -3 -19 1 -2 4 -2 1 -1 -5z"/>
<path d="M1849 781 c-4 -10 -30 -13 -99 -12 l-93 0 29 -32 c61 -66 70 -79 51
-71 -14 5 -16 1 -11 -25 7 -32 -11 -45 -22 -16 -5 12 -10 13 -20 4 -24 -20
-15 -30 23 -27 32 3 39 7 47 35 8 29 5 37 -26 75 l-35 43 83 0 c46 0 84 -3 84
-7 0 -4 7 -5 15 -2 8 4 15 11 15 17 0 6 -3 7 -7 4 -3 -4 -11 1 -18 10 -9 12
-13 13 -16 4z"/>
<path d="M1930 780 c0 -5 7 -10 16 -10 8 0 20 -13 25 -29 6 -16 17 -32 25 -35
21 -8 75 5 68 16 -4 6 1 8 13 4 12 -4 28 1 41 13 33 28 28 47 -12 49 -29 2
-34 0 -29 -16 3 -15 -3 -22 -28 -31 -41 -14 -44 -14 -29 4 11 13 8 15 -20 15
-24 0 -31 4 -26 15 4 11 -1 15 -19 15 -14 0 -25 -4 -25 -10z"/>
<path d="M225 762 c-8 -21 4 -30 15 -12 7 10 10 11 10 3 0 -7 8 -13 18 -12 10
0 12 3 4 6 -6 2 -10 8 -7 13 3 4 -4 10 -14 13 -12 3 -22 -1 -26 -11z"/>
<path d="M396 753 c7 -29 -5 -51 -17 -32 -7 11 -9 10 -9 -3 0 -10 -4 -18 -10
-18 -9 0 -14 14 -11 33 0 4 -3 7 -9 7 -5 0 -10 -9 -10 -20 0 -15 -7 -20 -25
-20 -19 0 -23 4 -19 18 5 13 4 14 -4 3 -10 -14 -6 -41 6 -39 4 0 16 0 27 -1
17 -1 18 -3 5 -11 -26 -17 -6 -11 35 10 45 23 65 25 65 7 0 -7 -14 -14 -32
-15 -18 -2 -37 -7 -41 -11 -9 -9 42 -9 73 0 10 2 14 -2 14 -13 -1 -10 2 -18 7
-18 5 0 9 5 9 10 0 6 7 10 15 10 8 0 15 5 15 11 0 6 -8 8 -19 4 -16 -5 -18 -2
-14 15 4 13 1 20 -9 20 -9 0 -23 17 -31 38 -9 20 -14 27 -11 15z"/>
<path d="M2157 746 c-16 -23 -15 -24 13 -36 17 -7 27 -16 24 -21 -3 -5 -1 -9
5 -9 5 0 12 6 15 13 4 6 4 2 2 -10 -3 -16 1 -23 11 -23 9 0 12 6 9 18 -6 17 0
18 56 17 74 -3 124 8 96 20 -10 4 -40 5 -67 3 -30 -2 -53 2 -60 9 -9 10 -5 11
19 7 23 -5 30 -3 30 10 0 11 -9 16 -30 16 -23 0 -31 -5 -36 -25 -7 -28 -24
-24 -24 6 0 11 -4 18 -9 14 -5 -3 -12 -1 -16 5 -10 16 -22 12 -38 -14z"/>
<path d="M2550 760 c13 -9 12 -12 -4 -25 -11 -8 -16 -18 -13 -22 4 -3 13 1 20
10 10 14 18 15 50 6 20 -5 37 -14 37 -19 0 -5 12 -8 28 -7 15 1 26 -3 25 -9
-1 -6 4 -11 12 -11 7 0 11 6 8 12 -5 15 -47 35 -73 35 -11 0 -20 5 -20 10 0 6
-11 10 -25 10 -14 0 -25 5 -25 10 0 6 -8 10 -17 10 -16 0 -16 -2 -3 -10z"/>
<path d="M148 740 c-1 -14 -7 -23 -12 -22 -5 2 -13 -2 -17 -10 -5 -7 -9 -8 -9
-2 0 7 -11 9 -26 6 -15 -3 -23 -10 -20 -17 3 -8 -5 -12 -20 -12 -29 0 -30 -1
-38 -33 -4 -14 -4 -20 1 -15 7 9 87 48 103 51 25 4 60 18 60 24 0 4 11 5 24 3
13 -3 27 0 30 6 5 7 -4 11 -23 11 -18 0 -34 7 -40 17 -8 15 -10 14 -13 -7z"/>
<path d="M1203 740 c-18 -28 -16 -32 8 -25 13 5 19 3 15 -3 -3 -5 1 -12 9 -16
21 -7 19 17 -2 43 -18 22 -18 22 -30 1z"/>
<path d="M1240 750 c0 -3 5 -12 10 -20 9 -13 11 -13 20 0 15 22 12 29 -10 27
-11 -1 -20 -4 -20 -7z"/>
<path d="M2376 745 c-19 -15 -19 -15 1 -15 11 0 26 -6 32 -14 17 -20 -14 -36
-71 -37 -24 -1 -35 -3 -25 -6 10 -3 17 -14 17 -28 0 -24 17 -35 53 -35 21 1
21 1 -3 16 -24 14 -22 14 32 12 40 -2 59 1 63 10 3 9 10 10 21 4 9 -5 24 -7
34 -5 9 2 31 -9 49 -26 25 -24 37 -29 47 -20 10 8 17 3 29 -21 9 -18 14 -38
11 -46 -7 -19 12 -28 30 -13 14 11 14 14 1 24 -21 15 -31 54 -17 70 6 8 7 16
2 19 -6 3 -12 -4 -15 -16 -5 -18 -8 -19 -21 -9 -14 12 -14 15 -1 28 9 8 12 20
8 26 -5 8 -9 6 -11 -5 -4 -22 -22 -24 -22 -2 0 8 -4 12 -10 9 -5 -3 -10 -15
-10 -27 0 -18 -3 -16 -30 12 -16 17 -34 29 -40 25 -5 -3 -10 -1 -10 4 0 6 -5
11 -11 11 -6 0 -8 -7 -5 -16 5 -12 2 -15 -10 -10 -8 3 -18 6 -20 6 -2 0 -4 11
-4 23 0 13 -9 32 -21 43 -20 18 -20 18 -14 -11 7 -29 7 -29 -8 -10 -9 11 -17
26 -17 33 0 16 -10 15 -34 -3z m38 -76 c-5 -8 3 -10 25 -7 17 2 31 1 31 -4 0
-4 -30 -8 -66 -8 -45 0 -63 3 -58 11 3 6 17 9 30 6 14 -2 27 0 30 4 3 5 7 9
10 9 3 0 2 -5 -2 -11z"/>
<path d="M1517 738 c4 -7 8 -17 9 -23 1 -5 8 -23 15 -40 9 -23 13 -26 16 -12
3 12 15 17 44 17 28 0 39 4 39 15 0 8 -6 15 -12 16 -44 2 -72 10 -87 23 -21
19 -35 21 -24 4z"/>
<path d="M1092 728 c-7 -7 -11 -21 -11 -32 1 -19 2 -19 6 -2 4 15 7 16 14 5 6
-10 9 -6 9 14 0 31 -1 32 -18 15z"/>
<path d="M1297 717 c-10 -13 -15 -29 -11 -42 12 -37 21 -35 26 5 2 14 7 30 11
37 13 21 -8 22 -26 0z"/>
<path d="M225 695 c-25 -21 -26 -23 -7 -18 13 3 22 1 22 -6 0 -5 7 -8 16 -4
12 4 13 8 3 13 -6 5 -9 15 -6 24 8 20 8 20 -28 -9z"/>
<path d="M1147 712 c-3 -4 -3 -19 0 -33 4 -21 9 -25 34 -21 20 3 31 -1 35 -12
3 -9 10 -16 15 -16 14 0 10 27 -7 44 -17 17 -49 22 -39 6 3 -5 -1 -10 -10 -10
-12 0 -14 4 -5 19 5 11 10 22 10 25 0 9 -28 7 -33 -2z"/>
<path d="M840 691 c0 -5 7 -12 16 -15 10 -4 13 -13 9 -26 -5 -17 -2 -20 20
-20 23 0 26 4 22 21 -4 16 -3 18 9 8 7 -6 11 -15 8 -20 -9 -16 53 -9 67 7 7 8
21 13 31 11 10 -3 16 -1 12 4 -3 5 -28 9 -55 9 -27 0 -66 7 -86 15 -41 17 -53
19 -53 6z"/>
<path d="M2118 693 c-16 -2 -28 -9 -28 -14 0 -6 5 -7 12 -3 8 5 9 0 5 -15 -5
-20 -3 -22 16 -17 12 3 30 6 40 6 25 0 21 21 -5 28 -23 6 -23 6 2 13 28 8 5 9
-42 2z"/>
<path d="M2000 667 c0 -23 -2 -23 -99 -23 -55 0 -98 2 -96 6 2 3 -6 7 -17 7
-24 2 -13 -12 23 -31 12 -6 24 -17 27 -25 3 -10 0 -11 -9 -5 -8 5 -23 7 -34 6
-15 -2 -16 0 -7 6 11 7 11 10 -2 15 -18 7 -20 -1 -6 -37 5 -14 15 -26 21 -26
6 0 9 6 6 14 -11 28 45 11 67 -20 20 -29 20 -29 0 -11 -22 19 -54 23 -54 7 0
-5 4 -10 9 -10 5 0 20 -4 33 -9 13 -5 26 -8 29 -7 4 0 16 -7 27 -17 20 -18 48
-15 36 4 -3 5 -10 7 -15 4 -5 -4 -9 1 -9 9 0 9 -6 16 -12 16 -7 0 -23 16 -36
35 -34 53 -14 42 57 -29 45 -45 74 -66 98 -71 19 -3 37 -14 40 -23 11 -28 44
-52 74 -52 30 0 52 -20 22 -20 -24 -1 -57 -26 -44 -34 14 -9 137 -9 189 -1 23
4 42 13 42 19 0 6 5 4 10 -4 5 -8 10 -10 10 -5 0 6 4 5 8 -2 5 -8 13 -9 22 -3
12 7 11 12 -4 29 -11 12 -25 21 -33 21 -23 0 -12 53 11 56 10 1 22 8 26 15 6
8 11 6 19 -9 15 -29 14 -42 -4 -36 -10 4 -15 0 -15 -15 0 -27 15 -27 35 1 l15
23 -2 -28 c-1 -15 -6 -27 -11 -27 -5 0 -7 -12 -4 -27 3 -15 1 -36 -4 -45 -6
-12 -6 -18 1 -18 5 0 10 6 10 13 0 8 4 7 11 -3 7 -11 8 -5 4 20 -6 31 -3 38
18 49 40 22 28 89 -14 76 -12 -4 -15 1 -11 25 3 23 0 30 -13 30 -9 0 -23 7
-32 15 -8 8 -19 13 -24 9 -6 -3 -16 0 -24 6 -11 9 -15 9 -15 1 0 -6 -13 -11
-29 -11 -16 0 -37 -7 -45 -16 -20 -19 -20 -25 -1 -18 10 4 15 0 15 -14 0 -11
7 -25 15 -32 27 -22 19 -43 -15 -37 -16 4 -32 2 -35 -3 -8 -13 -52 -13 -60 0
-3 6 -16 10 -29 10 -13 0 -40 18 -66 45 -25 26 -53 45 -66 45 -20 0 -101 66
-92 75 2 2 23 -3 48 -11 24 -8 55 -13 69 -11 26 4 26 4 4 12 -30 10 -19 25 17
25 16 0 35 6 42 13 8 8 22 10 38 6 14 -4 19 -7 13 -8 -23 -2 -13 -17 37 -55
47 -36 52 -38 69 -22 10 9 21 13 24 9 4 -3 7 1 7 11 0 9 -4 15 -8 12 -17 -10
-62 -15 -57 -5 4 5 12 9 20 9 7 0 15 6 18 14 4 10 -3 14 -29 13 -19 -1 -34 -5
-34 -10 0 -4 5 -5 12 -1 8 5 9 2 5 -10 -4 -10 -7 -20 -7 -23 0 -3 -7 0 -15 7
-24 20 -19 50 8 50 16 0 23 6 25 23 1 21 -2 23 -28 19 -17 -2 -30 -8 -30 -13
0 -5 -7 -6 -15 -3 -9 4 -46 3 -83 -2 -59 -7 -63 -8 -32 -14 l35 -6 -42 -5
c-24 -2 -43 0 -43 5 0 5 -18 6 -40 3 -23 -3 -38 -1 -34 4 3 5 -11 9 -30 9 -19
0 -37 3 -39 8 -3 4 42 8 100 9 58 1 106 3 108 5 3 2 2 14 -2 26 -4 17 -13 22
-39 22 -29 0 -34 -4 -34 -23z m376 -179 c4 -6 -1 -17 -11 -24 -16 -12 -21 -11
-37 3 -14 13 -16 18 -6 25 19 11 46 10 54 -4z"/>
<path d="M127 674 c-11 -11 -9 -52 4 -59 16 -10 18 -3 11 33 -4 19 -10 30 -15
26z"/>
<path d="M584 672 c8 -14 -46 -60 -76 -66 -19 -3 -28 0 -31 12 -4 15 -5 15 -6
-1 -1 -24 41 -39 75 -27 35 14 91 70 70 70 -9 0 -16 5 -16 10 0 6 -5 10 -11
10 -5 0 -8 -4 -5 -8z"/>
<path d="M1131 650 c-1 -27 -4 -31 -11 -20 -7 10 -10 11 -10 2 0 -25 -42 -102
-53 -95 -6 4 -8 0 -5 -8 3 -8 0 -26 -8 -40 -7 -13 -13 -31 -13 -39 0 -10 2
-11 6 -2 7 19 67 14 90 -8 18 -16 22 -17 27 -5 3 8 1 15 -5 15 -6 0 -9 6 -6
13 2 6 10 11 16 10 6 -2 11 6 11 17 0 25 -30 27 -31 3 0 -11 -3 -13 -6 -5 -7
17 -23 15 -23 -3 0 -9 -6 -12 -15 -9 -24 10 -18 60 10 82 25 20 35 40 13 26
-6 -4 -8 -3 -5 3 13 21 54 21 66 0 16 -25 26 -15 11 12 -6 12 -19 21 -30 21
-14 0 -20 9 -23 33 l-4 32 -2 -35z"/>
<path d="M1620 659 c0 -5 18 -9 40 -9 22 0 40 3 40 8 0 4 -18 8 -40 8 -22 1
-40 -2 -40 -7z"/>
<path d="M220 643 c0 -8 -78 -43 -104 -47 -9 -1 -18 -5 -22 -9 -4 -4 -13 1
-20 11 -13 16 -13 16 -14 0 0 -10 -7 -18 -15 -18 -8 0 -15 -4 -15 -10 0 -5 2
-10 3 -10 14 0 157 41 180 51 26 12 38 39 17 39 -5 0 -10 -3 -10 -7z"/>
<path d="M655 631 c-3 -11 -9 -20 -13 -20 -4 1 -17 -2 -29 -6 -15 -5 -21 -14
-19 -31 4 -34 16 -42 16 -11 0 31 14 35 29 10 9 -16 10 -15 11 8 0 14 7 34 15
45 14 18 14 18 9 -2 -3 -12 -1 -32 6 -44 9 -17 14 -19 26 -10 17 15 8 34 -12
26 -11 -4 -14 1 -12 21 4 31 -18 42 -27 14z"/>
<path d="M733 634 c-3 -8 -12 -13 -19 -10 -8 3 -14 1 -14 -3 0 -17 24 -18 42
-2 20 17 23 31 8 31 -6 0 -13 -7 -17 -16z"/>
<path d="M380 625 c0 -8 6 -14 13 -12 7 1 11 -6 10 -18 -1 -11 0 -14 3 -7 7
15 34 16 34 1 0 -5 -5 -7 -12 -3 -7 4 -8 3 -4 -5 4 -6 12 -9 17 -6 5 4 18 3
29 0 16 -5 19 -14 17 -46 -2 -27 1 -39 10 -39 7 0 10 7 7 18 -3 9 2 6 10 -8
l15 -25 1 34 c0 25 -3 32 -15 27 -8 -3 -15 -1 -15 4 0 6 4 10 10 10 21 0 -3
27 -33 36 -18 5 -31 15 -30 21 2 7 -3 10 -11 7 -7 -3 -16 2 -19 10 -8 20 -37
21 -37 1z"/>
<path d="M1007 623 c-12 -12 -34 -17 -79 -18 -38 0 -63 -4 -65 -12 -3 -7 4
-11 16 -10 12 1 21 5 21 9 0 4 5 8 11 8 5 0 8 -4 5 -8 -3 -5 13 -8 34 -8 24 0
42 6 45 14 4 10 9 11 18 4 9 -8 12 -4 13 14 2 29 3 28 -19 7z"/>
<path d="M1282 600 c1 -30 6 -39 16 -35 7 3 23 5 34 5 13 0 18 5 16 18 -2 11
-11 16 -23 14 -11 -2 -17 -1 -13 4 9 8 -9 34 -24 34 -5 0 -8 -18 -6 -40z"/>
<path d="M1545 632 c-5 -4 -10 -47 -11 -97 -1 -49 1 -84 4 -76 3 11 6 11 12 1
7 -11 11 -10 23 2 26 26 25 51 -3 59 -24 7 -24 7 -2 8 16 1 22 6 20 19 -4 23
-21 34 -30 19 -5 -8 -8 -6 -8 6 0 10 8 17 20 17 11 0 20 7 20 15 0 8 -9 15
-21 15 -11 0 -17 5 -14 10 7 12 4 13 -10 2z"/>
<path d="M1605 620 c2 -8 4 -21 4 -28 1 -7 12 -17 26 -24 13 -6 22 -15 18 -21
-3 -6 -1 -7 5 -3 19 12 14 44 -10 60 -18 13 -19 16 -5 16 9 0 17 3 17 8 0 4
-13 7 -29 7 -20 0 -28 -4 -26 -15z"/>
<path d="M246 604 c-3 -9 -11 -12 -17 -8 -8 4 -9 3 -5 -4 5 -8 -1 -12 -16 -12
-33 0 -55 -15 -34 -23 8 -3 18 -2 22 4 3 6 11 8 17 6 15 -5 67 20 67 32 0 16
-28 20 -34 5z"/>
<path d="M839 613 c-1 -5 -1 -11 0 -15 2 -12 -17 -10 -24 2 -10 16 -65 13 -59
-4 5 -12 -9 -28 -26 -32 -19 -4 -39 -18 -45 -32 -5 -14 -3 -14 13 1 20 18 42
19 53 4 4 -5 33 -12 66 -16 58 -7 59 -6 55 16 -3 16 0 23 11 23 10 0 14 -7 10
-22 l-5 -23 19 22 c10 11 27 23 38 26 11 3 -20 4 -68 3 -59 -2 -91 -7 -97 -15
-4 -8 -10 -9 -14 -3 -3 5 1 15 9 22 8 7 12 16 9 21 -3 5 0 9 5 9 6 0 11 -4 11
-10 0 -16 47 -11 54 6 3 9 6 18 6 20 0 7 -20 4 -21 -3z"/>
<path d="M1400 600 c0 -11 3 -20 8 -20 4 0 18 -16 31 -36 19 -27 22 -37 12
-43 -10 -7 -10 -12 0 -30 17 -26 29 -27 30 -3 0 9 2 26 4 37 5 23 -54 115 -72
115 -7 0 -13 -9 -13 -20z m49 -36 c18 -25 31 -47 29 -49 -4 -5 -68 81 -68 90
0 11 8 2 39 -41z"/>
<path d="M2433 612 c-13 -2 -23 -10 -23 -17 0 -8 -6 -12 -14 -9 -9 3 -16 -4
-20 -22 -8 -30 0 -46 10 -20 3 9 10 16 16 16 5 0 7 -4 4 -9 -3 -5 3 -11 14
-14 11 -3 23 -1 26 4 3 5 0 8 -8 7 -18 -4 -11 34 9 49 20 15 15 20 -14 15z"/>
<path d="M321 598 c-1 -10 -8 -18 -16 -18 -17 0 -20 -16 -5 -25 6 -3 10 -15
10 -26 0 -10 5 -19 10 -19 6 0 10 7 10 15 0 18 9 19 44 5 15 -5 26 -17 25 -27
0 -16 -2 -15 -9 2 -8 19 -9 19 -9 -2 -1 -13 -5 -23 -11 -23 -5 0 -7 8 -4 18 5
13 4 14 -4 3 -6 -8 -17 -11 -25 -8 -9 3 -21 -1 -29 -10 -11 -14 -10 -16 15
-11 19 4 30 1 34 -9 7 -17 36 -9 75 20 24 18 26 22 11 32 -9 7 -13 17 -9 23 4
7 3 12 -3 12 -5 0 -12 -6 -15 -12 -5 -10 -7 -10 -12 0 -3 6 -10 10 -15 6 -5
-3 -12 2 -15 10 -3 9 -13 16 -20 16 -8 0 -19 10 -24 23 -7 17 -9 18 -9 5z"/>
<path d="M1148 585 c-6 -6 29 -75 38 -75 2 0 4 8 4 18 0 21 -33 65 -42 57z"/>
<path d="M1680 578 c0 -15 30 -20 45 -8 12 10 15 9 15 -4 0 -9 7 -16 15 -16 9
0 25 -16 36 -35 12 -19 23 -35 26 -35 2 0 1 5 -2 10 -3 6 -1 10 5 10 7 0 10 5
8 11 -2 6 -6 9 -8 8 -3 -2 -21 14 -41 34 -29 30 -43 37 -68 35 -17 -1 -31 -6
-31 -10z"/>
<path d="M2474 565 c14 -13 26 -33 26 -45 0 -11 5 -20 12 -20 6 0 9 -3 5 -6
-3 -3 8 -27 24 -54 16 -26 29 -58 29 -71 0 -20 2 -21 11 -9 8 11 12 12 16 3 2
-7 13 -13 22 -13 15 0 18 -7 15 -34 -2 -26 1 -33 12 -29 8 3 11 9 8 15 -9 14
5 60 16 53 14 -8 13 8 -1 22 -6 6 -18 9 -25 6 -8 -3 -14 -1 -14 5 0 5 7 12 15
16 8 3 15 12 15 21 0 21 -9 19 -31 -6 -27 -31 -53 -18 -44 21 5 21 3 30 -6 30
-19 0 -48 30 -43 45 3 7 -12 27 -33 44 -44 37 -68 42 -29 6z"/>
<path d="M238 546 c-32 -18 -39 -19 -62 -7 -18 10 -42 12 -87 7 -46 -6 -64 -4
-70 6 -4 7 -11 9 -15 5 -11 -10 9 -28 34 -30 11 0 19 -4 16 -8 -2 -4 0 -10 6
-14 5 -3 10 -1 10 6 0 8 4 8 15 -1 9 -7 18 -10 22 -6 3 3 1 6 -5 6 -7 0 -12 5
-12 11 0 5 5 7 11 3 6 -3 15 0 20 7 6 10 9 11 9 2 0 -7 9 -13 19 -13 11 0 26
-9 34 -21 15 -20 35 -10 22 11 -3 6 4 10 17 10 13 1 36 6 52 13 23 10 26 15
15 23 -10 8 -24 5 -51 -10z"/>
<path d="M2111 548 c1 -13 5 -34 9 -48 l8 -25 1 26 c1 36 12 43 25 16 6 -12
26 -30 45 -39 l34 -17 -44 -4 c-40 -3 -38 -4 14 -5 34 -1 57 2 57 9 0 5 -4 8
-8 5 -5 -3 -34 19 -65 47 -66 60 -77 65 -76 35z"/>
<path d="M2800 555 c0 -9 11 -20 24 -27 14 -6 26 -20 28 -32 2 -11 9 -20 16
-18 11 2 16 -10 13 -34 -1 -6 10 -16 24 -22 14 -6 25 -16 25 -22 0 -5 7 -10
15 -10 8 0 15 7 15 15 0 8 -6 15 -13 15 -13 0 -43 40 -39 53 1 4 -3 7 -9 7 -5
0 -7 5 -4 10 4 6 1 9 -7 8 -8 -2 -14 8 -16 25 -2 15 -8 27 -13 27 -6 0 -7 -4
-4 -10 3 -5 1 -10 -4 -10 -6 0 -11 6 -11 14 0 8 -7 17 -16 20 -22 9 -24 8 -24
-9z"/>
<path d="M651 539 c-11 -12 -19 -24 -17 -26 7 -7 35 9 40 24 10 25 0 26 -23 2z"/>
<path d="M1244 546 c6 -17 1 -42 -25 -136 -6 -19 -11 -46 -12 -60 0 -14 -5
-27 -9 -30 -13 -10 -22 -70 -10 -70 6 0 14 9 17 20 4 11 11 18 16 15 5 -4 9
-1 9 4 0 6 7 11 15 11 8 0 15 9 15 21 0 33 18 59 37 52 11 -4 14 -3 9 5 -4 7
-14 12 -22 12 -8 0 -12 4 -9 10 7 11 -12 51 -29 62 -6 4 -8 10 -4 13 3 4 16
-3 27 -14 28 -28 36 -10 10 23 -12 16 -16 26 -8 26 6 0 17 -7 23 -15 10 -14
13 -14 31 0 19 16 19 16 -2 5 -20 -9 -23 -8 -23 9 0 19 -40 52 -40 34 0 -4 -5
-1 -11 7 -9 12 -10 12 -5 -4z m0 -235 c-7 -10 -24 13 -24 33 0 37 15 40 20 4
3 -18 5 -35 4 -37z"/>
<path d="M1380 550 c-7 -31 -7 -39 0 -35 4 3 10 -2 14 -10 3 -8 11 -15 18 -14
10 0 10 2 0 6 -6 2 -10 8 -7 12 2 5 -2 17 -10 27 -8 10 -15 17 -15 14z"/>
<path d="M1610 543 c1 -5 7 -19 15 -33 l15 -25 -2 33 c-1 18 -8 32 -15 32 -7
0 -13 -3 -13 -7z"/>
<path d="M925 518 c-8 -13 -21 -23 -27 -23 -6 0 -13 -6 -16 -13 -2 -7 2 -10
12 -6 14 5 15 2 7 -20 -7 -16 -7 -27 -1 -31 6 -4 10 -11 10 -18 0 -8 -3 -8
-11 0 -8 8 -18 7 -37 -3 -15 -8 -33 -14 -39 -14 -17 0 -16 -8 1 -26 24 -23 46
-17 46 12 0 21 4 25 20 21 20 -5 48 17 32 27 -8 5 -9 22 -3 60 0 4 8 5 17 2
12 -5 14 -1 9 17 l-6 22 19 -22 c19 -22 20 -22 25 -3 3 13 -1 24 -13 30 -25
14 -27 13 -45 -12z"/>
<path d="M1673 526 c0 -8 6 -12 14 -9 7 3 13 0 13 -7 0 -6 -4 -9 -8 -6 -4 2
-14 1 -22 -4 -13 -8 -13 -13 -2 -31 8 -12 9 -18 2 -14 -7 4 -9 -8 -6 -42 2
-26 5 -60 5 -75 1 -16 8 -28 19 -31 14 -4 14 -5 1 -6 -13 -1 -16 -10 -12 -43
7 -82 14 -107 29 -116 9 -5 15 -13 15 -18 -1 -5 14 -10 34 -12 19 -2 35 1 35
6 0 6 22 13 50 17 45 6 49 9 39 26 -8 16 -14 17 -30 9 -11 -6 -25 -8 -31 -4
-6 4 -8 3 -4 -4 7 -11 -29 -28 -51 -24 -7 2 -13 -3 -14 -10 -2 -40 -18 42 -25
122 -6 78 -10 93 -25 97 -20 6 -26 23 -9 23 6 0 10 25 10 56 0 67 19 96 46 69
23 -23 31 -9 9 15 -10 12 -25 18 -32 16 -7 -3 -13 -1 -13 4 0 6 -8 10 -18 10
-10 0 -19 -6 -19 -14z"/>
<path d="M2550 517 c0 -8 13 -20 29 -27 16 -6 32 -18 35 -26 6 -16 32 -9 40
12 7 19 -4 45 -16 38 -6 -4 -5 -10 3 -15 12 -8 11 -11 -1 -19 -10 -7 -18 -6
-25 3 -5 8 -22 22 -37 31 -24 15 -28 16 -28 3z"/>
<path d="M702 511 c-19 -12 12 -41 43 -41 21 0 22 -2 12 -25 -8 -16 -20 -25
-35 -25 -13 0 -32 -5 -43 -10 -15 -8 -19 -7 -19 5 0 8 7 15 15 15 10 0 15 10
14 33 l-1 32 -13 -30 c-12 -25 -21 -21 -16 7 0 4 -6 5 -15 1 -11 -4 -12 -8 -4
-13 15 -9 -2 -44 -34 -73 -20 -18 -20 -18 -1 -12 11 4 52 11 90 16 113 13 155
21 155 29 0 10 -20 25 -44 34 -19 6 -19 6 -4 -11 16 -17 15 -18 -13 -20 -29
-2 -39 10 -18 22 6 4 8 13 5 20 -2 7 1 18 7 24 9 9 8 11 -6 5 -9 -3 -24 -1
-32 6 -12 10 -15 10 -16 -1 0 -9 -3 -8 -7 3 -5 11 -12 14 -20 9z"/>
<path d="M596 488 c-9 -12 -16 -18 -16 -13 0 5 -18 -11 -40 -35 -45 -50 -48
-55 -20 -38 11 7 20 17 20 21 0 5 7 7 15 3 10 -4 15 1 15 15 0 15 5 19 16 15
8 -3 12 -2 9 4 -3 6 0 10 7 10 8 0 14 9 15 20 2 26 -2 25 -21 -2z"/>
<path d="M2689 491 c-18 -14 -21 -22 -12 -32 6 -8 7 -22 2 -34 -11 -28 -11
-35 1 -35 6 0 10 3 9 8 -5 31 40 80 49 53 6 -19 52 -13 51 7 0 10 -3 12 -6 5
-6 -17 -18 -16 -37 3 -15 14 -17 14 -32 0 -20 -21 -24 -20 -24 4 0 11 7 20 15
20 8 0 15 5 15 10 0 14 -4 13 -31 -9z"/>
<path d="M810 485 c7 -8 17 -12 22 -9 5 3 18 -2 29 -12 24 -21 25 -14 2 12
-10 10 -29 20 -42 22 -20 2 -22 0 -11 -13z"/>
<path d="M1611 478 c-1 -14 3 -28 8 -30 5 -1 12 -28 15 -57 9 -79 18 -77 13 3
-3 38 -9 71 -14 75 -6 3 -13 13 -16 21 -3 9 -6 4 -6 -12z"/>
<path d="M1844 489 c-3 -5 8 -9 23 -9 22 0 31 -6 40 -29 6 -16 20 -34 32 -40
18 -10 21 -9 21 10 l0 22 25 -23 c28 -26 25 -40 -11 -40 -29 0 -32 -22 -6 -49
9 -11 23 -27 30 -35 17 -21 53 -21 46 -1 -4 10 -13 13 -24 10 -10 -3 -21 -1
-25 4 -3 7 0 8 10 5 13 -5 14 -2 5 21 -15 40 -12 53 8 27 10 -12 31 -27 47
-32 29 -10 29 -10 3 -6 -15 2 -25 -1 -22 -6 3 -4 25 -7 50 -6 24 0 43 3 41 4
-19 19 -80 52 -89 49 -8 -2 -22 14 -33 38 -17 36 -26 44 -65 54 -25 6 -38 12
-30 12 10 1 11 4 3 12 -15 15 -71 20 -79 8z"/>
<path d="M156 481 c-4 -5 -6 -24 -5 -43 0 -38 -11 -98 -18 -98 -3 0 -14 9 -23
20 -10 12 -21 17 -24 12 -3 -6 1 -12 9 -16 22 -8 18 -25 -9 -36 -13 -5 -27
-14 -31 -19 -3 -6 -17 -11 -31 -11 -13 0 -24 -4 -24 -10 0 -5 4 -10 10 -10 14
0 64 23 71 33 3 5 8 8 10 7 4 -2 19 1 106 20 60 13 62 35 3 27 -35 -4 -37 -3
-38 24 0 16 4 29 10 29 7 0 6 5 -1 14 -8 10 -9 16 -1 21 5 3 10 11 10 16 0 6
-4 7 -10 4 -5 -3 -10 -2 -10 4 0 5 6 12 13 14 9 4 9 6 0 6 -6 1 -14 -3 -17 -8z"/>
<path d="M1725 445 c1 -18 6 -38 10 -45 4 -7 2 -16 -6 -21 -20 -12 -7 -18 19
-8 12 5 22 15 22 23 0 8 -10 17 -22 19 -17 3 -14 5 10 6 25 1 32 5 32 21 0 11
0 23 0 26 0 4 -15 8 -33 9 -32 2 -34 0 -32 -30z"/>
<path d="M987 425 c-9 -20 -12 -37 -7 -40 5 -3 12 7 16 22 4 15 11 34 17 41 5
7 6 12 0 12 -5 0 -17 -16 -26 -35z"/>
<path d="M1553 443 c-31 -4 -31 -5 -38 -76 -4 -40 -11 -76 -15 -82 -4 -5 -10
-34 -13 -62 -6 -51 -5 -53 19 -53 14 0 22 -4 19 -10 -3 -5 3 -10 15 -10 29 0
22 34 -8 38 -14 2 -22 10 -22 24 0 16 5 19 23 15 l22 -6 -21 15 c-15 10 -20
22 -16 39 2 14 8 25 13 25 4 0 7 12 6 28 -2 22 2 27 21 27 27 0 47 26 29 37
-20 13 -30 9 -17 -7 16 -19 9 -28 -14 -19 -10 4 -15 13 -12 21 3 8 6 19 6 24
0 5 9 9 20 9 11 0 20 7 20 15 0 8 -1 14 -2 13 -2 0 -17 -3 -35 -5z"/>
<path d="M226 415 c4 -8 9 -13 14 -10 9 6 32 -44 25 -55 -9 -15 17 -23 68 -21
27 1 54 -2 61 -7 6 -5 20 -9 31 -10 11 -1 43 -5 70 -9 45 -7 50 -11 53 -36 2
-15 8 -25 13 -22 5 4 9 1 9 -4 0 -6 5 -11 10 -11 6 0 10 7 10 15 0 8 4 15 9
15 4 0 8 -10 7 -22 -1 -14 4 -22 12 -20 6 1 12 -2 12 -8 0 -14 -13 -13 -28 2
-9 9 -12 9 -12 -1 0 -7 -5 -9 -12 -5 -13 8 -48 13 -48 8 0 -2 14 -11 30 -19
17 -9 28 -20 26 -24 -3 -5 12 -5 34 -1 49 9 56 3 28 -27 -12 -13 -18 -23 -13
-23 5 0 0 -7 -11 -16 -11 -8 -12 -13 -4 -10 8 3 23 9 33 12 9 4 17 11 17 16 0
5 -4 6 -10 3 -5 -3 -10 -3 -10 2 0 4 20 21 45 36 25 16 45 33 45 38 0 14 -58
11 -63 -3 -4 -10 -8 -9 -16 2 -6 8 -11 11 -11 6 0 -4 -9 2 -19 15 -14 17 -16
26 -8 31 9 6 9 8 0 8 -13 0 -93 69 -93 81 0 11 44 7 52 -6 5 -6 8 -3 8 6 0 18
-44 34 -62 23 -6 -4 -9 -3 -5 2 3 5 -20 10 -51 11 -37 1 -50 -2 -37 -7 11 -4
23 -6 27 -4 4 3 9 0 13 -5 3 -6 12 -8 19 -5 8 3 17 1 21 -5 3 -6 -2 -11 -12
-12 -16 0 -16 -1 2 -9 13 -6 15 -9 5 -9 -8 -1 -26 5 -40 12 -14 7 -36 10 -50
7 -18 -5 -30 -1 -43 14 -10 12 -16 15 -12 9 9 -19 -6 -16 -21 5 -13 16 -14 16
-8 0 4 -13 1 -18 -11 -18 -10 0 -13 4 -9 13 5 8 3 8 -9 -2 -15 -12 -18 -10
-26 10 -7 19 -5 25 11 31 11 4 17 12 13 18 -4 6 -13 5 -26 -3 -13 -8 -22 -9
-27 -2 -12 16 -32 16 -26 0z"/>
<path d="M1012 406 c-6 -13 -8 -34 -5 -47 4 -15 3 -20 -6 -15 -6 4 -9 12 -6
17 4 5 2 9 -2 9 -5 0 -15 -15 -22 -32 l-13 -33 -7 25 c-5 17 -2 29 8 37 14 11
14 12 -1 13 -9 0 -20 -13 -26 -30 -9 -25 -8 -31 8 -40 14 -7 27 -5 50 8 29 16
32 16 44 0 19 -25 66 -24 73 2 3 11 10 17 16 13 6 -3 7 -1 3 5 -4 6 -1 20 5
30 9 15 8 23 -7 40 -19 22 -54 30 -54 12 0 -5 9 -10 20 -10 22 0 25 -16 11
-53 -7 -17 -17 -24 -35 -24 -32 0 -37 7 -38 57 0 22 -1 40 -3 40 -1 0 -7 -11
-13 -24z"/>
<path d="M1380 386 c0 -13 -7 -26 -15 -30 -10 -4 -15 1 -15 15 0 18 -2 19 -15
5 -29 -29 -17 -36 58 -35 39 0 66 3 60 6 -7 2 -13 13 -13 24 0 25 -16 24 -30
-1 -16 -29 -27 -24 -22 10 2 17 2 30 -2 30 -3 0 -6 -11 -6 -24z"/>
<path d="M1793 404 c-16 -7 -5 -34 14 -34 8 0 11 -4 8 -10 -3 -5 -2 -10 3 -10
6 0 13 7 16 16 3 8 2 13 -3 10 -5 -3 -11 1 -14 8 -3 8 -1 17 6 20 7 3 6 4 -3
4 -8 0 -20 -2 -27 -4z"/>
<path d="M2533 380 c-23 -10 -32 -30 -12 -30 5 0 7 -5 3 -12 -4 -7 -3 -8 4 -4
7 4 12 15 12 24 0 15 2 15 10 2 8 -12 10 -11 10 8 0 12 -1 22 -2 21 -2 0 -13
-4 -25 -9z"/>
<path d="M12 360 c-10 -17 -10 -20 3 -20 8 0 15 -4 15 -9 0 -5 7 -12 16 -15
11 -4 15 -2 11 8 -3 7 -1 18 4 23 6 6 4 10 -5 10 -8 0 -12 -5 -9 -10 3 -5 0
-7 -8 -5 -8 3 -13 12 -11 22 4 21 0 20 -16 -4z"/>
<path d="M1611 268 c0 -65 -1 -121 -2 -125 0 -4 4 -9 10 -11 12 -4 13 119 2
198 -7 47 -9 39 -10 -62z"/>
<path d="M2973 366 c1 -6 -9 -10 -23 -9 -23 2 -23 2 5 -11 22 -11 32 -11 37
-3 12 19 9 34 -6 34 -8 0 -14 -5 -13 -11z"/>
<path d="M675 360 c4 -6 14 -10 23 -8 10 1 23 -1 30 -6 16 -10 27 -2 17 13 -3
6 -22 11 -41 11 -22 0 -33 -4 -29 -10z"/>
<path d="M620 351 c0 -7 -5 -9 -12 -5 -8 4 -10 3 -5 -2 9 -9 13 -10 42 -13 8
0 15 -9 15 -18 0 -13 2 -15 8 -5 5 7 17 10 28 7 10 -3 6 1 -11 9 -16 8 -28 17
-27 21 2 4 1 9 -2 13 -3 3 -6 0 -6 -8 0 -10 -3 -10 -15 0 -11 9 -15 9 -15 1z"/>
<path d="M2770 351 c0 -6 -11 -29 -25 -49 -14 -20 -25 -41 -25 -47 0 -5 12 8
27 30 14 22 31 43 37 47 8 5 7 11 -2 20 -9 9 -12 9 -12 -1z"/>
<path d="M1742 328 c7 -13 11 -29 10 -35 -2 -7 4 -13 13 -13 13 0 14 4 5 21
-7 11 -9 27 -6 35 4 9 -1 14 -15 14 -17 0 -18 -3 -7 -22z"/>
<path d="M1831 333 c-10 -11 -16 -13 -19 -5 -4 12 -32 17 -32 6 0 -4 8 -13 18
-21 12 -10 14 -16 5 -19 -23 -10 -14 -21 12 -16 20 3 23 8 15 22 -7 13 -6 20
5 24 8 3 15 1 15 -4 0 -13 41 -71 73 -102 15 -15 30 -41 33 -58 5 -21 12 -30
25 -30 11 0 19 -4 19 -10 0 -5 -11 -10 -25 -10 -14 0 -25 3 -25 8 0 4 -26 6
-58 4 l-57 -4 5 -56 c4 -46 9 -58 24 -60 18 -4 19 -2 5 19 -23 38 -18 72 12
83 15 5 33 7 40 4 8 -3 18 -5 23 -4 9 1 30 -43 28 -56 -1 -5 3 -8 8 -8 13 0
13 17 0 25 -16 10 -11 28 6 21 8 -3 12 -2 9 4 -13 21 27 22 46 1 22 -23 49
-30 30 -8 -6 8 -8 17 -4 20 3 4 -2 7 -13 7 -18 1 -18 1 -1 14 16 12 16 14 1
20 -8 3 -28 6 -42 6 -22 0 -33 11 -62 61 -19 33 -35 65 -35 69 0 5 -3 12 -7
16 -5 4 -8 2 -8 -5 0 -7 -5 -9 -11 -5 -8 4 -8 9 0 17 6 6 11 15 11 19 0 13
-28 9 -33 -4 -3 -7 -6 -3 -6 10 -1 26 -10 28 -30 5z"/>
<path d="M2875 340 c-4 -6 -11 -7 -17 -4 -7 4 -8 2 -4 -4 4 -7 2 -12 -3 -12
-19 0 -12 -28 11 -44 12 -9 28 -26 36 -38 7 -13 11 -16 8 -7 -2 9 3 27 12 40
l16 23 6 -24 c6 -27 30 -40 30 -16 0 9 -4 16 -10 16 -5 0 -10 4 -10 9 0 5 10
7 22 3 14 -3 19 -1 14 6 -11 18 -59 10 -78 -11 -16 -18 -18 -18 -24 -3 -3 9
-14 16 -23 16 -14 0 -14 2 -1 10 8 5 28 10 44 10 l29 0 -23 20 c-27 23 -27 23
-35 10z"/>
<path d="M810 325 c0 -17 16 -20 25 -4 4 6 13 8 21 5 8 -3 14 -1 14 4 0 6 -13
10 -30 10 -20 0 -30 -5 -30 -15z"/>
<path d="M2404 326 c-3 -7 -47 -26 -99 -41 -81 -24 -92 -30 -79 -42 8 -8 20
-13 27 -10 6 2 26 -2 44 -10 40 -16 44 -16 37 1 -7 17 74 28 94 13 9 -7 17 -6
25 2 9 10 8 11 -6 5 -12 -4 -17 -2 -15 7 2 9 -5 13 -22 12 -14 -2 -47 -5 -73
-8 -29 -3 -46 -1 -42 5 3 6 17 10 31 10 13 0 32 4 42 9 9 5 25 12 34 15 9 3
22 14 28 25 9 17 8 21 -5 21 -9 0 -18 -6 -21 -14z"/>
<path d="M2582 320 c-7 -11 -18 -20 -26 -20 -7 0 -20 -8 -27 -17 -12 -16 -12
-17 2 -5 9 7 23 10 31 7 22 -9 52 19 42 38 -9 15 -11 15 -22 -3z"/>
<path d="M743 323 c10 -3 16 -11 13 -18 -2 -7 2 -16 10 -19 15 -6 18 3 8 28
-3 9 -16 15 -28 15 -18 -1 -18 -2 -3 -6z"/>
<path d="M1922 314 c3 -19 34 -41 43 -32 4 3 2 16 -5 27 -13 25 -43 28 -38 5z"/>
<path d="M1413 309 c9 -6 14 -15 11 -21 -4 -7 -2 -8 4 -4 17 10 15 -13 -3 -31
-11 -11 -29 -14 -68 -10 -28 3 -56 6 -62 8 -5 2 -10 0 -10 -5 0 -6 11 -11 25
-12 14 -2 46 -5 73 -9 35 -4 47 -2 47 7 0 9 3 9 10 -2 7 -11 10 -2 10 33 0 27
-4 46 -9 42 -5 -3 -12 -1 -16 5 -3 5 -12 10 -18 10 -7 0 -4 -5 6 -11z"/>
<path d="M2110 296 c0 -9 -4 -16 -10 -16 -5 0 -10 5 -10 10 0 6 -8 10 -17 10
-14 0 -13 -3 5 -16 12 -8 26 -13 31 -9 5 3 13 1 16 -5 5 -8 11 -8 20 0 13 10
45 4 45 -9 0 -18 -14 -19 -27 -3 -13 15 -13 15 -3 -5 6 -13 17 -23 25 -23 8 0
15 -5 15 -11 0 -5 5 -7 10 -4 6 4 7 12 1 22 -4 9 -6 23 -4 32 6 23 -42 50 -59
33 -8 -8 -15 -9 -25 -1 -10 9 -13 8 -13 -5z"/>
<path d="M862 291 c-8 -4 -13 -12 -13 -17 0 -5 -7 -10 -17 -10 -44 -4 -46 -6
-24 -15 13 -5 28 -7 33 -3 5 3 9 0 9 -5 0 -6 -5 -11 -11 -11 -5 0 -7 -5 -4
-11 7 -11 -24 -8 -72 6 -19 6 -20 11 -12 32 8 23 8 24 -6 13 -8 -7 -15 -18
-15 -25 0 -17 33 -45 54 -45 9 0 14 -5 11 -10 -3 -6 -18 -7 -33 -4 -22 5 -25
4 -15 -6 10 -11 9 -16 -5 -27 -16 -14 -16 -14 3 -8 16 5 15 1 -7 -20 -32 -30
-34 -35 -12 -35 8 0 13 4 9 9 -3 5 4 12 15 16 11 3 20 11 20 16 0 5 14 9 31 9
27 0 30 -2 19 -15 -11 -13 -10 -14 4 -9 9 3 16 10 16 15 0 10 44 12 78 3 12
-4 22 -10 22 -14 0 -8 -44 -27 -74 -32 -11 -2 -21 -9 -24 -15 -5 -17 33 -17
47 0 6 8 30 22 53 32 24 9 53 22 65 28 33 15 42 -1 13 -24 l-25 -20 32 15 c46
23 83 20 126 -9 20 -14 37 -28 37 -31 0 -9 -27 -33 -32 -29 -2 2 -4 -5 -4 -15
0 -11 4 -20 8 -20 4 0 8 6 8 13 0 8 11 24 25 37 24 23 35 47 16 35 -5 -3 -21
0 -36 7 -22 10 -23 13 -10 20 8 5 19 7 24 3 5 -3 31 -8 58 -11 26 -3 57 -8 68
-11 23 -8 31 -10 46 -12 5 0 7 -5 4 -11 -3 -5 -1 -10 4 -10 15 0 14 13 -1 28
-10 10 -10 15 1 21 8 5 10 14 6 22 -7 10 -10 8 -15 -6 -4 -10 -14 -19 -23 -21
-22 -3 -22 12 1 25 15 9 14 10 -5 8 -13 -1 -23 -5 -23 -10 0 -13 -68 1 -96 19
-17 12 -27 13 -43 4 -12 -6 -21 -7 -21 -1 0 5 6 11 13 14 9 3 9 7 0 18 -17 21
-1 43 26 34 12 -4 21 -2 21 4 0 6 -6 11 -13 11 -7 0 -23 9 -35 20 l-22 21 0
-76 c0 -68 -9 -91 -25 -65 -3 6 -18 10 -33 10 -21 0 -24 2 -12 10 8 5 22 7 32
4 9 -2 19 -1 22 4 3 6 -6 12 -19 15 -14 2 -28 1 -30 -4 -3 -4 -23 -6 -45 -4
-26 3 -44 -1 -54 -10 -15 -15 -50 -10 -40 6 3 5 -4 9 -15 9 -23 0 -28 16 -8
23 6 2 -2 3 -19 2 -17 -1 -35 -5 -41 -8 -6 -4 -13 -4 -16 -1 -10 10 55 84 73
84 9 0 17 7 17 14 0 11 -5 12 -18 5 -23 -12 -42 -12 -34 1 7 12 4 12 -13 1z
m-35 -119 c0 -10 -9 -19 -19 -19 -21 -2 -23 8 -6 25 17 17 27 15 25 -6z"/>
<path d="M956 275 c-17 -13 -17 -15 -2 -30 19 -20 19 -20 4 -45 -15 -23 -3
-39 15 -20 10 10 9 11 -2 5 -9 -5 -12 -3 -9 6 3 9 15 13 31 11 26 -3 28 0 27
36 -1 4 -12 6 -26 5 -18 -2 -24 2 -22 15 2 9 10 20 18 24 13 6 13 7 0 7 -8 0
-23 -6 -34 -14z"/>
<path d="M364 268 c3 -10 1 -18 -4 -18 -6 0 -10 -5 -10 -11 0 -8 4 -9 13 0 8
6 17 8 20 5 3 -4 14 1 24 11 16 17 16 17 -6 10 -16 -5 -27 -3 -33 6 -8 11 -9
10 -4 -3z"/>
<path d="M1240 269 c0 -6 -7 -8 -16 -5 -10 4 -14 1 -12 -6 3 -7 14 -14 26 -16
17 -3 22 2 22 17 0 12 -4 21 -10 21 -5 0 -10 -5 -10 -11z"/>
<path d="M1744 250 c8 -8 16 -23 17 -33 3 -15 7 -13 21 11 l18 30 -35 4 c-30
3 -33 2 -21 -12z"/>
<path d="M1936 256 c3 -8 28 -16 61 -19 36 -4 60 -12 65 -21 5 -9 16 -16 24
-16 13 0 13 4 -1 30 -13 25 -22 30 -53 31 -20 1 -51 3 -69 5 -24 3 -31 0 -27
-10z"/>
<path d="M473 245 c-7 -7 -9 -16 -5 -21 4 -4 -1 -4 -12 0 -12 4 -24 0 -36 -14
-9 -11 -20 -17 -23 -13 -4 3 -10 -3 -14 -13 -8 -21 -28 -44 -38 -44 -4 0 -13
-7 -21 -15 -12 -12 -12 -15 -2 -15 10 0 9 -3 -2 -10 -11 -7 -12 -10 -2 -10 8
0 16 9 19 20 5 18 15 25 36 21 5 -1 6 2 4 6 -3 5 2 17 10 28 15 20 15 20 8 -2
-5 -17 -2 -23 9 -23 14 0 43 -37 34 -45 -10 -9 -50 -16 -45 -8 4 6 -4 8 -18 5
-27 -5 -44 -22 -23 -22 7 -1 2 -7 -12 -15 -18 -10 -20 -14 -8 -15 28 0 47 11
41 26 -3 8 0 14 6 14 6 0 11 -8 11 -17 0 -11 3 -14 8 -7 12 18 98 55 114 49 9
-4 18 1 22 10 3 9 10 13 16 10 5 -3 10 -1 10 4 0 6 -7 11 -15 11 -9 0 -12 6
-9 15 4 8 10 12 15 9 5 -3 9 0 9 6 0 7 -8 9 -20 5 -16 -5 -19 -3 -14 12 5 17
5 17 -6 0 -7 -10 -9 -29 -6 -42 6 -22 3 -24 -29 -22 -28 2 -37 7 -42 25 -3 12
-10 22 -15 22 -6 0 -5 6 2 15 11 13 14 13 26 -2 13 -17 15 -16 18 17 0 9 10
14 24 13 23 -3 31 20 10 33 -7 5 -9 2 -4 -7 4 -8 1 -7 -6 2 -11 13 -16 14 -25
4z"/>
<path d="M1842 241 c6 -10 17 -17 23 -14 7 2 17 -14 25 -41 7 -26 17 -46 22
-46 11 0 3 28 -22 84 -11 25 -19 34 -23 25 -4 -10 -6 -10 -6 -1 -1 6 -8 12
-16 12 -12 0 -13 -3 -3 -19z"/>
<path d="M2101 241 c8 -10 48 -69 89 -130 41 -61 76 -104 78 -97 2 9 10 12 19
9 11 -4 14 -2 9 5 -4 7 -14 12 -22 12 -8 0 -14 4 -14 9 0 6 -13 24 -29 42 -30
33 -34 48 -16 61 13 10 26 10 23 1 -4 -17 15 -54 43 -82 16 -16 29 -28 29 -25
0 2 9 -5 20 -16 20 -20 40 -26 40 -12 0 4 -23 30 -51 57 -28 28 -55 60 -60 73
-5 12 -16 22 -26 23 -30 1 -66 9 -72 16 -3 3 4 3 17 0 34 -8 11 16 -45 48 -38
21 -43 22 -32 6z"/>
<path d="M2577 222 c-27 -26 -37 -32 -37 -20 0 9 -5 20 -11 24 -9 5 -10 -1 -5
-22 4 -17 3 -24 -2 -16 -7 10 -13 8 -26 -7 -15 -16 -23 -18 -38 -10 -10 5 -16
15 -13 22 4 7 -1 3 -9 -8 -15 -18 -15 -20 5 -27 12 -5 31 -6 42 -2 14 4 17 3
12 -6 -10 -16 54 29 116 82 11 9 16 19 11 22 -4 3 -25 -12 -45 -32z"/>
<path d="M2760 251 c0 -5 14 -14 31 -21 17 -7 35 -24 40 -37 6 -16 16 -23 34
-23 34 0 32 12 -6 29 -24 10 -28 16 -18 23 11 7 11 9 -1 7 -22 -2 -60 12 -60
22 0 5 -4 9 -10 9 -5 0 -10 -4 -10 -9z"/>
<path d="M1799 223 c-10 -11 -10 -14 -1 -9 7 4 12 2 12 -8 0 -15 37 -32 47
-22 9 9 -18 36 -36 36 -14 0 -14 2 -1 10 8 5 10 10 4 10 -6 0 -18 -8 -25 -17z"/>
<path d="M292 218 c-7 -7 -12 -18 -12 -25 0 -7 -5 -13 -10 -13 -6 0 -5 -8 2
-20 8 -13 16 -16 22 -10 6 6 20 10 32 10 23 0 41 27 27 41 -5 5 -15 4 -23 -1
-13 -9 -13 -10 0 -10 8 0 2 -7 -14 -15 -34 -18 -44 -14 -21 9 9 9 13 21 9 28
-5 8 -2 9 9 5 10 -3 17 -2 17 3 0 14 -24 12 -38 -2z"/>
<path d="M1970 225 c0 -2 5 -16 12 -30 8 -17 19 -25 37 -25 15 0 21 4 15 8 -6
4 -14 17 -18 30 -4 13 -15 22 -27 22 -10 0 -19 -2 -19 -5z"/>
<path d="M2727 198 l-27 -23 30 -17 c16 -9 30 -13 30 -9 0 5 -7 11 -15 15 -13
5 -13 9 -3 26 15 23 28 26 28 6 0 -16 37 -46 57 -46 23 0 14 18 -13 24 -17 5
-24 12 -20 21 3 8 1 15 -3 15 -5 0 -15 2 -23 5 -7 3 -25 -5 -41 -17z"/>
<path d="M1416 202 c-3 -6 5 -19 18 -29 24 -19 23 -40 -1 -37 -7 1 -18 2 -24
3 -8 1 -8 5 -1 14 7 8 7 17 -2 30 -18 23 -29 22 -16 -2 5 -11 7 -26 4 -34 -3
-10 2 -18 15 -22 25 -8 58 1 63 18 5 16 -48 72 -56 59z"/>
<path d="M2220 200 c0 -10 5 -12 33 -14 6 -1 15 -5 19 -11 4 -5 10 -6 15 -2 8
9 -17 28 -28 21 -4 -2 -10 0 -14 6 -8 13 -25 13 -25 0z"/>
<path d="M2640 189 c-19 -10 -46 -20 -60 -22 -13 -2 -26 -9 -28 -15 -2 -7 -10
-12 -18 -12 -9 0 -12 -4 -9 -10 5 -8 145 57 164 75 9 10 -15 2 -49 -16z"/>
<path d="M2929 179 c33 -31 51 -34 59 -9 3 8 0 10 -7 5 -7 -4 -21 2 -32 14
-11 12 -27 21 -36 21 -11 0 -6 -9 16 -31z"/>
<path d="M2069 154 c12 -21 21 -44 21 -51 0 -6 5 -15 12 -19 7 -4 8 -3 4 4 -4
7 -3 12 3 12 5 0 12 -9 16 -19 5 -17 85 -69 85 -56 0 5 -62 100 -78 120 -5 6
-7 16 -4 23 2 7 -6 12 -21 12 -14 0 -33 3 -42 6 -14 6 -13 1 4 -32z"/>
<path d="M2313 183 c-15 -5 -18 -33 -4 -33 5 0 16 7 24 15 8 8 18 11 22 7 5
-4 5 -1 1 6 -7 12 -22 14 -43 5z"/>
<path d="M1646 173 c-3 -3 -6 -17 -6 -30 0 -22 2 -23 15 -9 8 8 15 19 15 25 0
13 -15 22 -24 14z"/>
<path d="M2646 135 c-3 -13 -16 -34 -28 -45 -21 -19 -21 -20 -2 -20 11 0 24
-4 29 -9 18 -17 85 -51 100 -51 12 0 12 3 -2 18 -10 10 -20 17 -22 16 -9 -8
-41 18 -41 34 0 14 -2 15 -10 2 -13 -20 -35 2 -26 26 5 13 9 15 18 6 7 -7 19
-12 28 -12 13 1 12 3 -2 14 -10 7 -18 18 -18 24 0 23 -18 21 -24 -3z"/>
<path d="M2323 144 c-20 -9 33 -51 86 -69 28 -9 51 -20 51 -25 0 -14 -18 -21
-25 -10 -4 6 -16 8 -28 4 -30 -9 -31 -11 -14 -29 19 -19 43 -20 50 -1 3 7 23
18 44 24 21 5 29 11 18 11 -43 3 -72 51 -31 51 7 0 13 7 13 15 0 16 -7 18 -31
9 -9 -3 -13 -11 -9 -17 4 -6 0 -8 -10 -4 -10 3 -17 2 -17 -3 0 -6 -7 -10 -15
-10 -20 0 -19 17 1 28 13 7 10 11 -15 22 -18 7 -34 10 -38 6 -3 -3 2 -6 13 -6
15 0 16 -2 5 -9 -17 -11 -43 -3 -35 10 6 10 5 10 -13 3z"/>
<path d="M1480 129 c0 -10 13 -14 42 -15 27 -1 46 -7 54 -19 8 -10 16 -17 18
-14 2 2 -3 13 -13 25 -11 14 -27 20 -46 19 -17 -1 -36 2 -42 8 -9 6 -13 5 -13
-4z"/>
<path d="M2810 124 c0 -8 -4 -12 -10 -9 -5 3 -10 3 -10 -2 0 -16 18 -35 46
-49 16 -9 24 -10 17 -3 -6 6 -9 18 -6 26 4 10 0 14 -13 11 -15 -2 -18 2 -16
20 2 12 1 22 -2 22 -3 0 -6 -7 -6 -16z"/>
<path d="M2920 117 c-9 -15 -9 -22 0 -31 9 -8 11 -6 8 8 -1 10 3 21 10 23 6 3
12 0 12 -7 0 -6 5 -8 10 -5 6 3 10 12 10 18 0 20 -37 15 -50 -6z"/>
<path d="M1678 78 c-6 -54 -2 -78 12 -78 5 0 6 10 2 22 -3 12 -1 19 5 15 13
-8 10 70 -4 84 -7 7 -12 -6 -15 -43z"/>
<path d="M2495 99 c-8 -23 10 -42 32 -34 24 8 22 -12 -2 -25 -22 -12 -25 -40
-3 -40 5 0 6 5 2 12 -5 8 -2 9 12 3 10 -4 30 -9 44 -12 21 -3 20 -1 -9 15
l-35 19 30 17 c23 14 25 16 7 13 -21 -5 -28 3 -24 26 1 5 -4 5 -10 1 -7 -4
-18 1 -25 10 -11 16 -13 16 -19 -5z"/>
<path d="M541 92 c-6 -11 -11 -27 -11 -36 0 -8 -12 -19 -27 -24 -16 -6 -22
-11 -15 -11 7 -1 10 -6 7 -11 -3 -6 -1 -10 5 -10 6 0 13 7 16 15 4 8 9 13 14
10 4 -2 16 11 26 30 14 26 15 38 7 46 -8 8 -14 6 -22 -9z"/>
<path d="M2860 92 c1 -13 35 -48 53 -55 16 -6 15 -2 -5 22 -23 29 -48 47 -48
33z"/>
<path d="M465 80 c-3 -5 -3 -10 2 -10 4 0 1 -5 -7 -10 -13 -8 -13 -10 2 -10 9
0 23 3 32 6 13 5 13 8 1 20 -16 17 -22 17 -30 4z"/>
<path d="M1410 80 c-20 -5 -9 -11 60 -33 78 -25 201 -45 186 -30 -4 4 -28 9
-54 11 -26 2 -49 7 -52 10 -3 4 -11 7 -17 8 -39 3 -44 5 -38 14 4 6 11 8 16 5
5 -4 9 -2 9 4 0 19 -23 24 -32 7 -12 -22 -32 -21 -24 2 5 15 5 15 -8 -1 -11
-14 -15 -15 -18 -5 -2 10 -11 12 -28 8z"/>
<path d="M0 65 c0 -8 8 -15 18 -15 10 0 19 7 19 15 0 8 -9 15 -19 15 -10 0
-18 -7 -18 -15z"/>
<path d="M690 60 c-35 -12 -46 -19 -30 -19 14 0 45 9 70 19 57 24 32 24 -40 0z"/>
<path d="M1240 72 c0 -5 11 -15 25 -22 13 -7 22 -17 19 -22 -7 -12 34 -10 57
3 16 8 26 7 46 -6 14 -9 48 -19 76 -21 l52 -5 -75 26 c-41 15 -91 27 -110 27
-19 0 -47 6 -62 14 -16 8 -28 11 -28 6z"/>
<path d="M1631 68 c-1 -13 -10 -18 -33 -19 l-33 -1 30 -7 c35 -9 49 0 42 25
-4 17 -5 17 -6 2z"/>
<path d="M2747 67 c-3 -8 -1 -20 4 -28 5 -9 9 -10 9 -2 0 8 9 9 32 2 40 -11
38 -11 38 1 0 6 -9 10 -20 10 -11 0 -20 4 -20 10 0 5 -7 6 -17 3 -11 -4 -14
-3 -9 5 4 7 3 12 -2 12 -6 0 -12 -6 -15 -13z"/>
<path d="M2050 44 c0 -8 5 -12 10 -9 6 3 10 3 10 -2 0 -4 14 -8 30 -8 19 0 30
5 30 14 0 9 -8 11 -24 7 -14 -3 -28 -2 -31 4 -9 15 -25 12 -25 -6z"/>
<path d="M560 41 c0 -5 -3 -16 -6 -25 -5 -13 1 -16 28 -16 26 0 34 4 34 19 0
10 -6 17 -12 14 -7 -2 -15 0 -19 6 -8 13 -25 14 -25 2z"/>
<path d="M1082 37 c-10 -11 -9 -17 1 -25 20 -17 40 0 24 22 -11 15 -15 16 -25
3z"/>
<path d="M2580 42 c0 -13 39 -32 55 -26 12 5 13 9 4 20 -12 15 -59 20 -59 6z"/>
<path d="M0 29 c0 -5 7 -9 16 -9 8 0 12 -4 9 -10 -4 -6 7 -10 26 -10 38 0 30
12 -18 28 -20 7 -33 7 -33 1z"/>
<path d="M975 29 c-16 -5 -45 -8 -62 -7 -18 1 -38 -3 -44 -9 -8 -8 10 -10 67
-9 66 1 79 4 82 19 4 19 0 19 -43 6z"/>
<path d="M1245 27 c-11 -6 -26 -12 -33 -13 -8 -2 -17 -6 -20 -10 -10 -11 61 5
72 16 15 15 3 20 -19 7z"/>
<path d="M2154 15 c8 -8 31 -15 52 -15 44 0 42 8 -4 12 -18 1 -32 6 -32 10 0
4 -7 8 -16 8 -14 0 -14 -2 0 -15z"/>
<path d="M1750 10 c0 -5 17 -7 37 -4 52 6 54 14 5 14 -23 0 -42 -4 -42 -10z"/>
</g>
</svg>
