<?xml version="1.0" standalone="no"?>
<!DOCTYPE svg PUBLIC "-//W3C//DTD SVG 20010904//EN"
 "http://www.w3.org/TR/2001/REC-SVG-20010904/DTD/svg10.dtd">
<svg version="1.0" xmlns="http://www.w3.org/2000/svg"
 width="275.000000pt" height="183.000000pt" viewBox="0 0 275.000000 183.000000"
 preserveAspectRatio="xMidYMid meet">

<g transform="translate(0.000000,183.000000) scale(0.100000,-0.100000)"
fill="#000000" stroke="none">
<path d="M1035 1820 c3 -6 -4 -10 -17 -10 -33 0 -69 -11 -63 -19 2 -4 -18 -7
-45 -6 -27 1 -47 -1 -45 -4 3 -2 -1 -11 -8 -19 -9 -13 -9 -14 0 -8 14 8 8 -19
-8 -40 -5 -6 -6 -14 -2 -17 3 -4 1 -7 -5 -7 -7 0 -12 -9 -12 -20 0 -36 -15
-21 -16 15 0 22 3 31 8 23 4 -7 8 -10 8 -6 0 3 3 14 6 23 4 10 2 15 -7 13 -7
-2 -13 2 -14 9 0 21 -12 24 -26 6 -9 -11 -10 -14 -1 -9 6 4 12 3 12 -3 0 -5
-5 -13 -10 -16 -6 -4 -10 -14 -9 -23 3 -36 -1 -44 -21 -39 -13 3 -20 0 -20 -9
0 -8 -4 -14 -10 -14 -5 0 -10 4 -10 9 0 5 -10 11 -22 13 -22 3 -24 9 -19 51 1
7 7 4 16 -7 8 -11 15 -15 15 -9 0 7 -5 15 -11 18 -6 4 -8 13 -5 21 4 9 -2 14
-15 14 -11 0 -18 -4 -14 -9 3 -5 -4 -16 -16 -24 l-21 -15 21 -7 c12 -3 19 -11
16 -16 -3 -5 -14 -3 -25 4 -21 12 -18 45 4 59 7 5 6 8 -4 7 -25 -1 -55 -15
-56 -28 -1 -6 -2 -15 -3 -21 0 -5 -12 -10 -26 -10 -28 0 -75 -20 -75 -32 0 -4
-4 -8 -10 -8 -5 0 -6 8 -3 17 6 14 3 14 -19 -3 -31 -23 -52 -71 -34 -78 6 -2
3 -5 -6 -5 -21 -1 -22 3 -7 32 10 21 9 21 -10 -2 -12 -12 -18 -28 -14 -34 4
-6 0 -8 -10 -4 -9 3 -16 3 -16 -1 3 -18 -2 -32 -11 -32 -5 0 -7 8 -4 18 5 13
4 14 -4 3 -6 -8 -8 -20 -5 -27 3 -8 -2 -11 -15 -7 -11 2 -23 0 -26 -6 -7 -10
6 -15 29 -12 6 1 -3 -10 -19 -25 -20 -18 -31 -22 -36 -14 -5 8 -14 5 -29 -11
-23 -25 -20 -39 4 -19 10 8 15 9 15 2 0 -7 -14 -15 -32 -20 -17 -4 -34 -14
-36 -22 -5 -13 -3 -13 13 0 14 11 12 3 -9 -35 -19 -36 -21 -44 -7 -27 11 13
28 22 38 21 24 -3 53 10 53 24 0 7 -4 7 -12 -1 -7 -7 -16 -12 -21 -12 -6 0 4
13 21 29 16 16 28 32 24 35 -3 3 0 6 6 6 14 0 15 -2 2 -34 -11 -31 1 -41 32
-26 21 10 21 10 6 -3 -10 -8 -14 -18 -10 -22 4 -5 1 -5 -6 -1 -8 5 -21 1 -31
-8 -9 -8 -33 -17 -53 -20 -37 -4 -83 -24 -75 -32 2 -3 15 -1 28 4 13 5 34 8
46 7 12 -1 20 2 17 7 -3 4 -1 8 5 8 21 0 21 -21 -1 -29 -13 -5 -31 -19 -40
-30 -19 -23 -38 -28 -38 -10 0 6 -7 8 -16 5 -14 -5 -15 -4 -4 9 10 12 10 15
-3 15 -27 0 -47 -12 -47 -27 0 -8 5 -11 12 -7 7 4 8 3 4 -5 -4 -6 -11 -9 -16
-6 -5 3 -11 1 -15 -4 -3 -5 3 -14 12 -20 11 -6 13 -11 5 -11 -7 0 -10 -5 -6
-11 4 -7 -1 -9 -12 -7 -11 2 -18 11 -18 20 1 15 -1 16 -22 2 -13 -9 -27 -13
-31 -11 -5 3 -10 -7 -11 -23 -2 -27 0 -29 28 -27 16 1 30 6 30 11 0 5 6 3 14
-3 10 -9 16 -9 21 -1 4 6 14 8 24 5 9 -3 26 2 37 10 10 8 26 14 34 14 9 0 5
-5 -9 -13 -18 -10 -20 -15 -10 -20 8 -3 4 -3 -8 0 -17 4 -21 2 -17 -9 3 -9 -6
-19 -25 -27 -27 -11 -36 -26 -32 -52 0 -4 -7 -4 -16 -1 -11 4 -13 8 -5 11 7 2
12 8 12 14 0 6 -11 3 -25 -6 -13 -9 -32 -16 -42 -16 -15 0 -16 -2 -3 -10 10
-6 11 -10 3 -10 -17 0 -17 -27 0 -33 9 -4 9 -6 0 -6 -8 -1 -13 -15 -13 -36 0
-35 1 -36 37 -34 21 1 52 -2 68 -5 20 -5 25 -4 17 2 -11 7 -10 11 3 16 10 3
23 2 30 -4 9 -8 17 -6 29 6 10 9 25 14 37 11 13 -3 19 -1 16 6 -2 7 5 20 16
30 25 22 26 21 20 -3 -6 -24 18 -28 36 -6 10 11 8 17 -6 25 -10 6 -13 11 -6
11 6 0 15 -5 18 -10 4 -6 11 -7 17 -4 7 5 9 1 5 -9 -8 -21 1 -22 23 -2 13 11
24 13 41 6 17 -6 28 -5 38 6 8 9 22 12 38 8 14 -3 22 -2 19 3 -3 6 6 12 20 15
18 3 24 1 20 -9 -3 -8 -2 -13 2 -13 21 3 32 -3 32 -17 0 -11 -9 -15 -32 -13
-18 1 -49 1 -68 -1 -33 -2 -33 -3 -10 -10 14 -4 19 -8 12 -9 -7 -1 -22 -10
-34 -20 -11 -11 -27 -17 -37 -14 -12 4 -13 3 -5 -6 6 -6 27 -12 47 -13 20 -1
34 -5 30 -11 -3 -5 -22 -6 -42 -3 -75 13 -91 14 -91 5 0 -5 12 -6 28 -3 27 7
27 7 9 -14 -18 -20 -18 -21 3 -32 16 -8 18 -15 11 -24 -7 -9 -7 -16 1 -24 9
-9 9 -12 0 -12 -6 0 -16 9 -21 19 -9 16 -16 18 -48 11 -48 -11 -57 -3 -15 12
18 7 32 19 32 26 0 9 -6 12 -16 8 -8 -3 -12 -2 -9 4 3 6 1 10 -4 10 -6 0 -11
-5 -11 -11 0 -7 -10 -9 -25 -5 -14 4 -25 2 -25 -3 0 -11 -98 -36 -107 -27 -4
3 0 6 8 7 8 1 3 4 -11 8 -14 4 -31 3 -37 -2 -9 -6 -13 -6 -13 2 0 6 -8 11 -18
11 -10 0 -24 6 -31 13 -11 9 -13 9 -7 0 5 -9 0 -13 -13 -13 -21 0 -26 -34 -8
-58 6 -8 6 -12 -2 -12 -15 0 -15 -126 0 -136 6 -3 14 -2 18 4 4 6 11 5 19 -4
11 -12 8 -14 -18 -14 -28 0 -30 -2 -30 -39 0 -35 2 -39 25 -37 21 1 23 3 10
12 -14 10 -14 12 -1 17 8 3 17 1 20 -6 3 -9 5 -9 5 0 1 6 10 9 21 6 20 -5 20
-6 -1 -39 -11 -19 -17 -34 -12 -34 4 0 1 -5 -7 -11 -13 -9 -13 -10 0 -6 8 2
15 9 15 15 0 6 8 21 18 32 27 32 39 68 24 74 -7 2 -2 5 10 5 12 1 24 7 26 14
4 8 8 8 14 2 11 -14 33 -17 33 -5 0 6 8 10 18 10 25 1 68 35 53 44 -6 4 -11 2
-11 -5 0 -8 -4 -9 -13 0 -10 8 -17 7 -26 -2 -11 -9 -14 -9 -18 1 -3 6 -10 9
-15 6 -7 -4 -8 -2 -4 5 6 9 11 9 22 0 12 -10 16 -8 21 9 3 12 9 22 14 22 5 0
6 -7 3 -15 -4 -8 -1 -15 5 -15 12 0 14 20 3 36 -4 6 -17 13 -30 17 -18 4 -22
2 -18 -9 3 -8 -1 -14 -8 -14 -8 0 -16 -4 -18 -8 -1 -4 -13 -3 -26 4 -19 9 -20
13 -8 17 9 4 16 1 16 -5 0 -7 5 -6 15 2 12 10 13 15 3 21 -8 5 -3 10 15 14 15
4 27 14 27 22 0 8 5 11 10 8 6 -4 7 -11 4 -17 -4 -6 7 -9 27 -8 53 3 56 1 55
-22 -1 -14 -11 -28 -26 -36 -23 -11 -23 -12 -2 -8 25 5 29 -6 7 -24 -8 -7 -13
-16 -10 -20 3 -5 -1 -11 -7 -13 -7 -3 1 -5 17 -3 17 1 36 5 42 9 6 4 13 2 15
-3 2 -6 17 -8 38 -4 29 6 31 9 15 15 -14 5 -9 7 15 4 19 -2 39 -4 44 -4 5 -1
3 -7 -3 -15 -7 -8 -20 -12 -30 -9 -23 6 -65 -32 -57 -52 2 -7 -4 -15 -15 -18
-10 -3 -19 -1 -19 4 0 5 5 9 10 9 6 0 10 11 10 25 0 23 -11 31 -35 25 -5 -2
-30 -4 -55 -6 -75 -5 -107 -15 -131 -40 -16 -17 -18 -24 -8 -25 8 0 3 -5 -11
-11 -15 -6 -20 -12 -12 -15 7 -3 23 2 36 11 26 16 27 11 9 -34 -9 -22 -7 -26
16 -36 24 -10 71 -85 71 -113 0 -12 52 -15 64 -4 4 4 23 6 43 4 26 -2 33 0 27
10 -5 9 -2 11 9 6 21 -8 34 12 16 24 -11 6 -8 9 8 9 12 0 25 5 28 10 4 6 -3 9
-17 7 -12 -2 -29 2 -36 10 -7 7 -24 13 -38 13 -13 0 -24 4 -24 9 0 6 12 6 29
1 16 -4 32 -5 36 -2 3 4 10 0 15 -8 7 -11 12 -12 21 -3 6 6 18 9 25 6 9 -3 14
2 14 16 0 12 5 21 11 21 6 0 4 7 -5 15 -8 8 -19 15 -25 15 -15 0 -14 9 6 28
11 11 18 13 20 5 2 -6 13 -9 24 -6 18 5 17 0 -12 -78 -17 -46 -33 -91 -36
-100 -4 -12 -22 -19 -69 -24 -48 -5 -67 -11 -74 -25 -8 -16 -6 -19 17 -22 14
-2 29 -9 31 -17 3 -8 0 -11 -6 -7 -6 4 -8 -2 -5 -15 6 -20 7 -20 18 -6 9 12
31 18 78 19 36 2 60 6 53 10 -15 10 0 10 47 -1 20 -5 37 -6 37 -2 0 3 19 6 42
5 24 -1 100 2 170 5 115 5 125 5 117 -11 -6 -11 -4 -18 6 -22 8 -3 15 -1 15 4
0 18 48 10 84 -12 33 -21 35 -26 30 -60 -5 -33 -3 -38 14 -38 11 0 23 6 25 13
4 10 6 10 6 0 1 -19 75 -16 158 6 56 14 75 16 92 7 12 -7 18 -16 14 -20 -4 -4
-8 -13 -8 -19 0 -9 -32 -12 -110 -11 -70 1 -97 -1 -75 -6 32 -7 31 -7 -18 -9
-35 -1 -51 -5 -46 -12 3 -6 16 -8 28 -5 11 3 28 1 36 -4 11 -7 7 -10 -16 -10
-45 0 -94 11 -89 20 3 5 -5 6 -17 2 -16 -4 -19 -2 -13 9 8 12 6 12 -8 0 -9 -7
-17 -10 -18 -5 0 5 -5 0 -10 -11 -7 -16 -8 -14 -4 9 5 23 3 27 -10 22 -9 -3
-23 -6 -31 -6 -20 0 -18 -56 2 -64 9 -3 20 -4 25 0 5 3 9 0 9 -6 0 -5 12 -10
28 -10 72 2 200 -7 212 -15 7 -5 11 -4 8 1 -4 5 119 8 298 8 176 -1 307 2 310
8 8 13 -16 38 -37 38 -21 0 -23 7 -19 63 2 36 0 38 -18 28 -28 -15 -42 7 -16
26 16 11 17 17 6 33 -7 12 -8 20 -2 20 20 0 10 19 -17 32 -15 7 -30 24 -34 38
-4 14 -7 19 -8 11 -1 -7 -7 -11 -16 -7 -10 3 -15 -1 -16 -12 0 -13 -3 -11 -12
6 -8 17 -8 28 0 41 7 11 8 23 2 32 -5 8 -9 10 -9 4 0 -15 -20 18 -20 34 0 9
11 2 28 -16 22 -25 32 -29 54 -22 16 4 36 6 45 4 10 -2 27 -4 38 -5 14 -2 11
-5 -10 -10 -28 -7 -28 -8 -5 -9 40 -1 70 10 70 28 0 14 -12 16 -84 13 -83 -3
-84 -3 -79 20 3 13 2 20 -2 16 -9 -9 -65 19 -65 32 0 5 -9 11 -19 15 -10 3
-24 19 -31 35 -15 36 -31 31 -24 -8 4 -20 2 -24 -6 -16 -10 10 -14 20 -19 53
-1 3 -8 -4 -16 -15 -14 -18 -14 -17 -15 14 0 17 5 32 10 32 6 0 10 -5 10 -12
0 -6 3 -9 6 -5 3 3 2 12 -2 19 -12 19 -12 48 -1 48 6 0 7 3 4 7 -4 3 0 14 9
24 9 10 13 22 10 28 -8 13 -69 9 -87 -5 -8 -6 -23 -14 -33 -18 -15 -5 -17 -4
-8 7 6 7 12 56 14 108 2 64 7 97 17 105 9 7 -3 8 -45 3 -33 -4 -83 -8 -111 -8
-30 -1 -53 -6 -53 -12 0 -5 -6 -7 -12 -3 -7 4 -6 -1 3 -10 12 -14 14 -28 8
-74 -4 -31 -13 -106 -18 -167 -6 -60 -14 -130 -17 -153 l-7 -44 51 26 c27 14
58 36 69 48 10 13 27 30 37 38 18 14 19 13 14 -12 -3 -15 -1 -25 4 -22 5 3 8
28 7 55 -2 38 2 52 16 63 10 7 15 18 12 23 -4 6 2 13 13 16 12 3 20 -1 23 -12
3 -12 7 -9 15 12 13 31 18 33 26 11 3 -8 2 -12 -4 -9 -6 3 -10 -1 -10 -9 0 -9
-5 -16 -12 -16 -6 0 -9 -2 -6 -6 3 -3 -2 -22 -12 -42 -19 -37 -19 -37 3 -54
12 -10 28 -16 35 -13 22 8 65 -14 58 -31 -3 -8 -2 -12 4 -9 6 3 10 1 10 -5 0
-5 15 -19 33 -30 l32 -20 -55 1 c-41 1 -49 3 -30 9 l25 7 -27 11 c-16 6 -28
16 -28 22 0 7 -9 5 -22 -4 -16 -11 -25 -13 -35 -4 -10 8 -13 6 -13 -11 0 -11
-5 -21 -11 -21 -5 0 -7 5 -4 11 4 6 -2 5 -14 -3 -12 -7 -21 -16 -21 -20 0 -4
-17 -17 -37 -28 -48 -25 -77 -50 -92 -79 -10 -17 -16 -20 -24 -12 -8 8 -8 14
-2 19 15 10 12 41 -4 51 -16 10 -44 3 -36 -9 2 -4 -2 -16 -10 -26 -8 -10 -15
-14 -15 -7 0 6 4 14 9 17 19 12 3 41 -25 47 -16 3 -39 11 -51 18 -22 11 -34
-1 -13 -14 6 -4 7 -11 4 -17 -4 -7 0 -6 13 1 30 15 57 -8 51 -42 -3 -15 -1
-24 3 -21 5 3 9 -10 8 -28 0 -27 -2 -30 -9 -13 -5 11 -9 14 -9 7 -1 -18 -47
-10 -73 12 -19 17 -20 19 -5 28 10 5 17 16 17 24 0 8 -4 13 -9 10 -13 -8 -19
14 -14 51 5 32 5 32 34 18 42 -22 47 -19 53 28 31 240 47 391 42 403 -4 9 -14
13 -28 9 -13 -2 -45 -7 -73 -10 -27 -3 -72 -9 -98 -14 -26 -4 -50 -4 -53 0 -7
12 14 21 44 18 37 -3 62 10 62 31 0 22 19 30 73 30 23 0 60 5 82 10 22 5 76
11 120 15 44 3 94 9 110 12 17 3 76 11 133 17 91 10 102 10 101 -4 -3 -29 1
-41 11 -35 5 3 7 12 4 19 -8 20 8 26 72 31 32 2 62 9 68 15 5 5 20 10 33 10
30 0 30 -27 1 -33 -20 -4 -19 -4 5 -6 15 0 27 -6 27 -12 0 -5 4 -7 10 -4 14 9
12 -8 -3 -30 -8 -10 -29 -20 -47 -22 -29 -3 -31 -1 -19 13 12 14 8 15 -32 10
-24 -4 -61 -8 -81 -9 -27 -1 -40 -8 -47 -24 -8 -17 -7 -23 2 -23 8 0 7 -4 -3
-10 -10 -6 -11 -10 -2 -10 6 0 12 -12 12 -27 0 -25 0 -26 20 -8 11 10 20 13
20 8 0 -6 -7 -16 -15 -23 -9 -7 -13 -20 -10 -29 5 -13 4 -14 -6 -4 -17 17 -32
17 -22 1 4 -7 8 -20 8 -28 0 -8 9 -15 20 -14 18 0 20 -7 21 -65 0 -35 -2 -59
-4 -53 -7 22 -19 12 -26 -18 -3 -17 -20 -45 -38 -62 -19 -17 -25 -28 -15 -25
12 5 17 1 17 -11 0 -13 3 -12 16 6 15 21 41 22 28 0 -4 -7 4 -8 23 -4 21 5 34
2 43 -9 15 -18 36 -20 46 -3 4 7 3 8 -4 4 -8 -5 -12 0 -12 12 0 17 -6 20 -41
18 -43 -2 -57 7 -40 28 29 35 61 219 39 232 -7 4 -8 3 -4 -4 5 -8 2 -10 -9 -6
-11 5 -13 13 -9 28 4 11 7 26 7 33 0 6 5 9 11 7 6 -2 24 -6 41 -8 16 -3 31
-10 33 -16 2 -5 8 -10 14 -10 6 0 8 16 4 44 -6 38 -4 44 14 49 33 9 48 -17 55
-98 8 -83 26 -115 20 -35 -2 27 0 50 4 50 5 0 8 13 7 30 -1 16 -4 30 -8 30
-15 0 -8 39 8 48 11 6 13 11 5 16 -17 11 -14 36 4 30 16 -7 14 20 -4 55 -6 11
-11 29 -11 40 0 11 -3 22 -7 24 -12 7 -135 -12 -156 -24 -21 -11 -40 -2 -33
16 3 10 -4 10 -37 3 -46 -12 -78 -12 -182 -1 -68 6 -69 7 -30 15 40 8 354 58
366 58 13 0 20 -33 8 -40 -6 -5 -3 -9 10 -13 19 -5 20 -2 15 31 -3 21 -7 38
-8 39 -1 2 -43 -4 -93 -12 -216 -35 -372 -54 -423 -51 -36 2 -59 -2 -68 -11
-7 -7 -25 -13 -40 -13 -15 0 -38 -3 -51 -7 -24 -6 -24 -6 -5 13 10 11 21 17
24 14 3 -4 12 -7 21 -7 13 0 15 6 9 29 -7 21 -5 28 6 28 8 0 14 5 14 11 0 5 4
7 10 4 10 -6 16 13 25 93 4 38 2 52 -7 52 -9 0 -9 3 0 12 7 7 12 22 12 33 0
32 54 57 110 53 32 -2 45 -7 45 -18 0 -8 9 -23 20 -33 11 -9 16 -17 10 -16
-25 3 -30 -4 -32 -48 -2 -28 2 -50 10 -55 9 -6 9 -10 -2 -17 -11 -7 -11 -9 0
-14 12 -5 11 -8 -1 -17 -11 -8 -12 -13 -3 -16 10 -4 10 -10 1 -24 -15 -24 -4
-37 17 -20 9 8 15 30 15 59 0 64 19 92 21 31 l2 -45 6 40 c7 48 17 36 20 -25
3 -60 11 -65 11 -7 0 36 5 49 22 61 12 8 25 13 30 10 4 -3 8 7 8 21 0 25 -2
26 -32 20 -25 -5 -29 -4 -18 4 8 6 23 11 33 11 15 0 17 7 15 45 -2 25 -4 45
-6 45 -2 0 -10 -7 -19 -15 -19 -20 -37 -15 -41 11 -3 19 -20 33 -71 60 -22 11
-20 13 34 24 44 9 59 17 67 36 11 24 15 25 100 23 48 -2 91 0 94 4 4 4 -38 7
-94 7 -71 0 -102 -4 -104 -12 -3 -7 -8 7 -12 31 -7 49 4 72 34 64 14 -4 21 1
25 18 6 23 21 30 159 76 15 5 18 2 14 -13 -3 -11 1 -25 8 -32 19 -18 26 -15
14 7 -9 18 -5 20 43 26 l52 7 0 43 0 43 -132 1 c-89 1 -134 -2 -138 -10 -6 -8
-10 -7 -16 2 -6 9 -12 10 -16 4 -5 -5 -15 -11 -23 -11 -31 -3 -70 -13 -82 -21
-7 -4 -22 -9 -33 -10 -36 -5 -155 -50 -173 -66 -29 -25 -82 -44 -144 -51 -3
-1 -10 -4 -14 -8 -11 -11 -34 -10 -34 2 0 6 6 10 14 10 8 0 17 7 20 16 3 8 10
12 16 9 5 -3 10 -1 10 5 0 6 4 9 8 6 4 -2 19 4 32 15 l25 20 -30 -7 -30 -7 19
22 c20 22 20 22 0 15 -15 -5 -14 -2 6 16 14 12 18 19 10 15 -10 -4 -9 -2 2 8
10 8 15 17 11 20 -11 11 -53 8 -53 -4 0 -8 -4 -8 -12 -2 -17 13 -91 15 -83 3z
m26 -42 c-12 -12 -17 -24 -11 -26 5 -2 8 -8 4 -13 -3 -5 -1 -9 5 -9 6 0 15 9
21 19 12 23 50 17 49 -8 0 -10 -2 -11 -6 -3 -6 16 -28 15 -42 -2 -12 -15 -61
-19 -61 -5 0 5 6 9 13 9 9 0 9 2 -1 9 -11 7 -10 9 3 15 17 6 12 26 -6 26 -6 0
-7 -4 -4 -10 3 -5 -3 -10 -14 -10 -12 0 -21 5 -21 11 0 5 5 7 10 4 6 -3 10 -2
10 2 0 13 53 31 64 22 4 -4 -1 -18 -13 -31z m92 27 c-3 -9 -8 -14 -10 -11 -3
3 -2 9 2 15 9 16 15 13 8 -4z m-220 -45 c3 -11 2 -22 -2 -24 -4 -3 -8 6 -9 20
-2 29 4 31 11 4z m59 -42 c-13 -13 -24 5 -16 27 7 16 8 16 17 0 6 -11 6 -20
-1 -27z m-34 -28 c-7 -10 -16 -17 -20 -14 -4 3 -2 13 4 24 7 10 16 17 20 14 4
-3 2 -13 -4 -24z m72 8 c0 -6 -3 -8 -7 -5 -3 4 -12 2 -20 -4 -13 -11 -19 2 -6
14 11 11 33 8 33 -5z m-143 -18 c-30 -24 -38 -25 -31 -6 5 13 21 21 48 25 5 0
-3 -8 -17 -19z m-277 -4 c0 -8 -5 -18 -12 -22 -7 -4 -8 -3 -4 4 4 7 2 12 -4
12 -6 0 -8 5 -5 10 9 15 25 12 25 -4z m456 -2 c-3 -9 -6 -19 -6 -24 0 -4 -21
-13 -46 -19 -25 -6 -64 -23 -86 -37 -41 -26 -60 -26 -38 1 12 15 0 22 -14 8
-12 -13 -44 -13 -49 0 -2 7 7 21 22 32 16 11 21 13 14 4 -7 -9 -10 -18 -7 -22
8 -7 61 9 90 28 13 8 24 13 24 9 0 -4 8 0 17 7 15 12 16 12 10 -5 -6 -14 -4
-17 9 -12 8 3 20 6 26 6 7 0 6 5 -1 14 -10 11 -8 15 6 19 32 8 35 7 29 -9z
m-531 -4 c-3 -5 -12 -10 -18 -10 -7 0 -6 4 3 10 19 12 23 12 15 0z m140 -10
c3 -5 -1 -10 -10 -10 -9 0 -13 5 -10 10 3 6 8 10 10 10 2 0 7 -4 10 -10z m-40
-20 c-3 -5 -10 -10 -16 -10 -5 0 -9 5 -9 10 0 6 7 10 16 10 8 0 12 -4 9 -10z
m92 -30 c-8 -10 -5 -9 9 3 23 19 39 23 29 7 -4 -6 -8 -26 -9 -45 -3 -31 -1
-33 15 -24 13 7 19 6 19 -1 0 -7 5 -6 14 2 8 7 13 16 13 19 -2 7 4 9 24 9 8 0
7 -6 -2 -17 -13 -15 -11 -16 18 -10 l31 6 -23 -24 c-23 -26 -45 -33 -45 -15 0
6 5 10 12 10 6 0 8 3 5 6 -10 10 -38 -17 -30 -30 3 -6 3 -8 -1 -4 -4 3 -21 2
-37 -2 -28 -8 -42 3 -16 13 7 3 4 6 -6 6 -11 1 -26 -8 -35 -19 -10 -11 -33
-22 -52 -25 -19 -2 -48 -8 -65 -13 -16 -5 -43 -8 -60 -8 -18 1 -37 -7 -47 -19
-10 -11 -17 -15 -18 -8 0 17 -43 10 -48 -7 -3 -7 0 -10 7 -6 6 4 11 2 11 -3 0
-6 -2 -11 -4 -11 -2 0 -12 -3 -22 -7 -11 -4 -15 -3 -11 4 8 12 -61 12 -81 -1
-21 -12 -29 4 -10 18 10 7 15 16 11 19 -3 4 4 7 16 7 36 0 98 30 82 39 -21 13
36 23 59 11 14 -7 20 -7 20 0 0 5 4 10 10 10 5 0 9 -3 7 -7 -3 -12 6 -15 25
-8 10 4 15 11 12 16 -3 5 3 6 12 2 12 -4 15 -3 10 5 -4 7 -1 12 8 12 9 0 16 5
16 10 0 6 7 10 15 10 9 0 12 -6 9 -15 -11 -27 3 -16 30 25 32 48 32 53 4 45
-13 -3 -6 4 15 15 21 11 35 25 31 31 -3 6 3 5 14 -2 17 -11 19 -16 9 -29z
m-139 17 c-7 -7 -29 -13 -48 -14 l-35 -2 40 14 c53 17 59 18 43 2z m86 -4
c-10 -7 -28 -13 -41 -13 -13 0 -23 -3 -24 -7 -4 -43 -35 -82 -64 -83 -5 0 2 8
18 18 15 10 24 22 20 25 -3 4 0 7 7 7 10 0 11 3 3 11 -8 8 -17 8 -33 -1 -30
-16 -73 -20 -81 -8 -4 6 -12 4 -20 -4 -21 -19 -46 -23 -31 -5 7 8 8 18 4 22
-4 5 -1 5 5 1 7 -4 22 -2 33 4 14 7 20 7 20 0 0 -6 14 -9 30 -8 17 1 30 6 30
10 0 4 6 8 14 8 7 0 26 7 42 14 15 8 31 13 36 10 4 -3 8 -1 8 5 0 5 9 9 21 8
19 -1 19 -2 3 -14z m-39 -59 c-17 -18 -31 -18 -16 -1 6 8 8 17 4 21 -4 4 0 4
10 1 14 -6 14 -9 2 -21z m526 -24 c5 0 9 -10 9 -22 0 -17 -3 -20 -9 -9 -6 9
-15 11 -27 6 -11 -5 -22 -7 -26 -7 -5 1 -8 -5 -8 -14 0 -11 6 -14 23 -9 18 5
19 4 7 -5 -11 -9 -12 -13 -2 -17 6 -2 9 -9 6 -15 -4 -6 -1 -14 5 -18 7 -4 -24
-15 -69 -24 -45 -10 -84 -15 -87 -12 -4 3 0 6 8 6 17 0 121 52 115 57 -2 3
-22 -5 -45 -16 -22 -12 -44 -21 -48 -21 -4 1 9 10 30 21 60 32 36 33 -28 2
-42 -20 -59 -25 -62 -15 -3 6 -9 9 -15 6 -6 -4 -9 -1 -6 7 2 8 16 15 30 17 15
2 31 14 39 28 7 14 35 35 64 48 71 33 80 35 83 19 2 -7 8 -13 13 -13z m-773
-5 c-3 -3 -9 2 -12 12 -6 14 -5 15 5 6 7 -7 10 -15 7 -18z m1014 -21 c-4 -21
-9 -25 -35 -22 -55 5 -36 30 34 47 3 0 4 -10 1 -25z m-882 11 c0 -2 -9 -9 -20
-15 -12 -6 -20 -7 -20 -1 0 5 8 12 18 14 9 3 18 5 20 6 1 0 2 -1 2 -4z m398
-36 c-1 -26 -3 -28 -16 -16 -9 9 -11 23 -7 36 9 30 24 17 23 -20z m-518 -4 c0
-2 -10 -9 -22 -15 -22 -11 -22 -10 -4 4 21 17 26 19 26 11z m957 -26 c-34 -4
-66 -14 -77 -24 -11 -10 -20 -14 -20 -9 0 25 116 60 145 45 6 -3 -16 -9 -48
-12z m83 1 c0 -5 -4 -10 -10 -10 -5 0 -10 5 -10 10 0 6 5 10 10 10 6 0 10 -4
10 -10z m-530 -39 c-1 -13 -3 -13 -15 3 -19 26 -19 42 0 26 8 -7 15 -20 15
-29z m-293 -6 c-4 -8 -15 -15 -26 -15 -23 0 -36 -16 -21 -25 14 -9 -27 -45
-49 -45 -10 1 -6 6 11 16 16 8 25 20 22 28 -6 16 21 46 42 46 8 0 14 5 14 12
0 6 3 9 6 5 4 -3 4 -13 1 -22z m614 -4 c-8 -5 -10 -14 -6 -22 6 -11 5 -11 -5
-2 -11 10 -11 15 0 28 7 8 15 13 19 10 3 -3 -1 -10 -8 -14z m-712 -5 c-14 -13
-70 -36 -64 -26 4 6 17 15 29 20 22 9 42 13 35 6z m611 -26 c0 -5 -7 -10 -16
-10 -13 0 -13 -2 2 -17 11 -11 13 -18 5 -21 -6 -2 -8 -8 -5 -14 3 -5 0 -55 -7
-111 -8 -56 -13 -107 -13 -114 1 -6 -11 -13 -27 -15 -17 -3 -29 0 -29 6 0 8
-3 8 -8 0 -9 -14 -87 -24 -125 -17 -20 4 -25 8 -15 14 9 6 4 9 -15 9 -19 0
-26 4 -21 12 4 7 3 8 -4 4 -7 -4 -12 -13 -12 -21 0 -8 -4 -16 -9 -19 -5 -3 -4
12 1 34 6 22 15 40 20 40 7 0 7 4 0 13 -7 8 -5 27 6 61 12 36 17 44 22 31 6
-18 7 -18 13 0 4 10 10 15 13 12 3 -3 14 3 25 14 18 18 18 21 4 35 -8 9 -13
20 -10 25 4 5 1 9 -4 9 -6 0 -11 10 -11 23 1 22 1 22 16 2 8 -11 12 -25 10
-31 -3 -7 1 -15 8 -17 9 -4 12 1 9 13 -5 21 -8 20 107 44 36 8 66 14 68 15 1
1 2 -3 2 -9z m98 -22 c17 -17 15 -30 -5 -26 -9 2 -17 11 -19 21 -3 20 7 22 24
5z m-840 -9 c-10 -5 -18 -18 -18 -28 0 -11 -7 -22 -16 -25 -15 -6 -15 -4 -3
11 12 15 12 16 -4 10 -12 -5 -16 -3 -11 5 5 7 2 9 -7 6 -42 -17 -50 -17 -19 0
21 12 37 16 41 10 4 -5 9 -3 12 6 4 9 14 16 24 16 17 -1 17 -1 1 -11z m37 -29
c-3 -5 -11 -10 -16 -10 -6 0 -7 5 -4 10 3 6 11 10 16 10 6 0 7 -4 4 -10z m105
-10 c-10 -6 -11 -10 -3 -10 10 0 9 -8 -1 -32 -8 -18 -20 -48 -26 -65 -7 -18
-16 -33 -21 -33 -12 0 0 53 14 62 9 6 9 13 -2 30 -13 20 -12 22 1 11 19 -17
29 -6 22 23 -5 19 -2 24 12 24 16 0 17 -2 4 -10z m384 -8 c2 -4 -4 -8 -14 -8
-10 0 -16 4 -14 8 3 4 9 8 14 8 5 0 11 -4 14 -8z m-492 -33 c-12 -11 -20 -24
-17 -29 3 -5 -4 -14 -15 -20 -11 -6 -20 -8 -20 -4 0 14 51 74 62 74 7 0 2 -9
-10 -21z m338 11 c0 -5 -2 -10 -4 -10 -3 0 -8 5 -11 10 -3 6 -1 10 4 10 6 0
11 -4 11 -10z m-430 -45 c0 -8 -8 -15 -17 -15 -14 0 -15 -2 -4 -12 10 -11 15
-10 25 5 16 21 27 23 20 3 -5 -13 -16 -19 -79 -41 -16 -6 -17 -5 -5 4 10 7 11
11 3 11 -23 0 -13 20 20 40 38 24 37 24 37 5z m-160 -15 c0 -5 -4 -10 -10 -10
-5 0 -10 5 -10 10 0 6 5 10 10 10 6 0 10 -4 10 -10z m300 -4 c0 -23 -16 -27
-17 -5 -1 10 2 19 8 19 5 0 9 -6 9 -14z m260 -38 c-11 -29 -17 -33 -49 -35
-25 -1 -30 1 -14 5 32 10 63 39 63 59 0 9 3 14 6 10 3 -3 0 -20 -6 -39z m-489
22 c6 0 7 -4 4 -10 -3 -5 -13 -10 -21 -10 -8 0 -13 4 -10 9 4 5 3 11 -1 14 -5
2 -2 2 5 0 8 -1 18 -3 23 -3z m149 -4 c0 -2 -7 -7 -16 -10 -8 -3 -12 -2 -9 4
6 10 25 14 25 6z m-50 -20 c0 -2 -8 -10 -17 -17 -16 -13 -17 -12 -4 4 13 16
21 21 21 13z m-95 -15 c3 -5 0 -13 -6 -17 -7 -4 -9 -3 -5 4 3 5 0 13 -6 15 -9
4 -10 6 -1 6 6 1 14 -3 18 -8z m390 -11 c-10 -11 -23 -20 -29 -20 -6 0 0 9 14
20 32 25 38 25 15 0z m-160 -18 c-3 -3 -11 0 -18 7 -9 10 -8 11 6 5 10 -3 15
-9 12 -12z m50 -9 c-19 -18 -145 -56 -145 -44 0 15 48 41 77 42 15 0 37 4 48
9 31 14 38 11 20 -7z m-245 -23 c0 -10 -9 -21 -19 -25 -22 -7 -38 -37 -18 -34
22 3 60 -1 56 -6 -3 -2 -21 -6 -42 -9 -20 -2 -45 -7 -56 -11 -15 -4 -19 -2
-16 12 2 10 4 21 4 26 1 4 6 7 12 7 6 0 9 -7 5 -15 -3 -9 0 -15 8 -15 9 0 12
7 9 20 -3 11 -14 20 -24 20 -27 0 -24 15 6 28 15 7 25 8 25 2 0 -6 -6 -10 -12
-10 -9 0 -8 -3 2 -10 18 -11 30 0 33 27 1 26 27 18 27 -7z m89 -12 c-9 -16
-14 -19 -17 -9 -2 7 2 17 9 22 20 13 21 11 8 -13z m334 3 c-2 -10 -16 -24 -29
-30 -40 -18 -52 -13 -19 9 17 11 26 20 20 21 -5 0 -1 4 10 9 11 5 21 9 22 9 0
1 -1 -7 -4 -18z m-93 -7 c0 -16 -23 -44 -35 -44 -21 0 -19 38 3 43 27 7 32 7
32 1z m773 -1 c-7 -2 -21 -2 -30 0 -10 3 -4 5 12 5 17 0 24 -2 18 -5z m-188
-10 c-11 -3 -25 -10 -32 -15 -7 -5 -16 -7 -21 -4 -5 3 -24 -1 -41 -10 -17 -8
-35 -13 -40 -10 -5 3 -12 -1 -15 -10 -5 -13 -15 -15 -51 -10 -54 9 -74 0 -48
-20 17 -12 16 -13 -10 -14 -16 0 -26 4 -22 10 4 6 -5 10 -20 10 -17 0 -29 7
-35 23 l-9 22 0 -23 c-1 -13 -5 -21 -11 -17 -14 9 5 49 25 54 12 2 16 -2 13
-11 -7 -16 44 -15 131 3 30 6 65 9 78 6 13 -2 23 -1 23 4 0 7 41 15 85 16 l20
1 -20 -5z m283 0 c-10 -2 -26 -2 -35 0 -10 3 -2 5 17 5 19 0 27 -2 18 -5z
m-1298 -12 c0 -11 -31 -24 -38 -16 -3 3 0 5 7 5 7 0 9 5 6 10 -3 6 1 10 9 10
9 0 16 -4 16 -9z m1140 -1 c0 -5 15 -10 34 -10 46 0 96 -11 96 -21 0 -4 -26
-6 -57 -3 -45 3 -52 1 -33 -6 19 -7 12 -8 -28 -4 -39 3 -52 2 -47 -7 6 -8 -6
-10 -39 -8 -25 2 -46 1 -46 -3 0 -5 -12 -7 -27 -7 -24 2 -25 2 -5 6 12 2 22 8
22 12 0 5 20 14 44 21 25 7 47 18 50 26 6 16 36 19 36 4z m273 3 c-7 -2 -21
-2 -30 0 -10 3 -4 5 12 5 17 0 24 -2 18 -5z m-1209 -27 c-3 -9 -10 -16 -15
-16 -6 0 -5 9 1 21 13 24 24 20 14 -5z m1251 15 c-26 -10 -150 -23 -142 -15 6
6 100 21 142 22 l20 1 -20 -8z m-1285 -10 c0 -18 -18 -21 -30 -6 -10 13 -9 15
9 15 11 0 21 -4 21 -9z m130 4 c0 -8 -58 -35 -75 -35 -27 0 -11 25 21 31 39 9
54 10 54 4z m-335 -38 c16 -5 15 -5 -4 -4 -14 1 -26 9 -28 17 -3 10 -2 11 4 4
4 -7 17 -14 28 -17z m-68 -20 c2 -3 -9 -7 -25 -9 -21 -3 -28 -1 -25 8 4 11 39
11 50 1z m50 -13 c-3 -3 -12 -4 -19 -1 -8 3 -5 6 6 6 11 1 17 -2 13 -5z m388
-4 c-11 -18 5 -31 25 -20 12 6 21 7 25 0 3 -5 -8 -16 -24 -25 -34 -17 -51 -19
-51 -6 0 16 19 61 25 61 4 0 3 -4 0 -10z m126 -18 c-6 -2 -9 -8 -5 -13 3 -5 1
-9 -4 -9 -18 0 -20 12 -4 29 10 9 19 12 21 7 2 -6 -1 -12 -8 -14z m-554 12
c-3 -3 -12 -4 -19 -1 -8 3 -5 6 6 6 11 1 17 -2 13 -5z m803 -58 c0 -2 -7 -6
-15 -10 -8 -3 -15 -1 -15 4 0 6 7 10 15 10 8 0 15 -2 15 -4z m110 0 c0 -2 -7
-6 -15 -10 -8 -3 -15 -1 -15 4 0 6 7 10 15 10 8 0 15 -2 15 -4z m-118 -39
c-12 -14 -11 -35 2 -55 4 -7 5 -26 1 -41 -5 -22 -2 -32 12 -39 10 -6 15 -14
11 -18 -4 -4 -19 1 -32 10 -38 24 -52 19 -22 -9 14 -13 26 -30 26 -37 0 -7 -7
-2 -16 10 -13 19 -44 31 -44 18 0 -2 -3 -11 -6 -20 -5 -12 0 -16 20 -16 32 0
34 -15 4 -23 -26 -7 -38 -1 -38 19 0 24 -19 6 -30 -29 l-10 -32 4 37 c3 20 15
47 27 59 17 17 19 24 9 27 -7 3 -20 -4 -27 -14 -14 -18 -14 -18 -11 6 2 20 9
26 35 28 26 3 33 8 39 35 3 17 14 37 23 44 13 11 13 12 1 10 -8 -2 -12 -2 -7
0 18 11 5 23 -13 13 -25 -13 -26 -2 -2 16 23 18 58 19 44 1z m165 -34 c3 -16
-3 -89 -15 -168 -12 -77 -22 -148 -23 -157 0 -10 -7 -18 -15 -18 -8 0 -14 -5
-14 -11 0 -5 -4 -8 -9 -4 -6 3 -9 18 -7 33 1 15 -3 34 -9 42 -19 23 -26 78
-12 84 7 2 5 5 -5 5 -21 1 -27 18 -20 61 6 37 38 72 60 65 15 -5 22 10 27 57
4 41 2 38 20 38 8 0 18 -12 22 -27z m-942 5 c28 0 29 0 7 -9 -13 -5 -21 -12
-19 -16 3 -5 -11 -9 -31 -10 -24 -2 -32 0 -24 6 11 7 10 9 -3 15 -24 9 -7 28
18 20 12 -4 35 -7 52 -6z m255 -66 c0 -8 -1 -13 -3 -11 -1 2 -9 12 -16 22 -12
15 -12 17 3 11 9 -3 16 -13 16 -22z m204 -76 c-7 -18 -32 -28 -39 -16 -4 6 1
10 9 10 9 0 16 5 16 10 0 6 4 10 10 10 5 0 7 -6 4 -14z m-37 -62 c-3 -3 -12
-4 -19 -1 -8 3 -5 6 6 6 11 1 17 -2 13 -5z m-467 -15 c0 -5 -4 -8 -9 -5 -5 4
-11 0 -14 -6 -2 -7 -8 -9 -13 -5 -5 4 -2 12 6 17 20 13 30 12 30 -1z m243 2
c10 0 15 -6 12 -11 -4 -6 -11 -8 -16 -5 -5 4 -9 2 -9 -4 0 -5 -14 -12 -30 -16
-17 -4 -27 -11 -24 -16 3 -6 -11 -3 -31 5 -21 9 -39 16 -42 16 -2 0 -1 5 2 10
3 6 17 10 30 10 13 0 26 4 29 8 4 7 17 8 79 3z m204 -47 c-3 -3 -12 -4 -19 -1
-8 3 -5 6 6 6 11 1 17 -2 13 -5z m-197 -34 c8 -5 11 -10 5 -10 -5 0 -17 5 -25
10 -8 5 -10 10 -5 10 6 0 17 -5 25 -10z m-130 -24 c0 -3 -4 -8 -10 -11 -5 -3
-10 -1 -10 4 0 6 5 11 10 11 6 0 10 -2 10 -4z m240 -21 c0 -8 -8 -15 -17 -14
-11 0 -13 3 -5 6 6 2 10 9 6 14 -3 5 0 9 5 9 6 0 11 -7 11 -15z m-127 -2 c-7
-2 -19 -2 -25 0 -7 3 -2 5 12 5 14 0 19 -2 13 -5z m498 -40 c-9 -16 -10 -14
-11 12 0 21 3 26 11 18 8 -8 8 -16 0 -30z m-556 17 c3 -6 -1 -7 -9 -4 -18 7
-21 14 -7 14 6 0 13 -4 16 -10z m785 0 c0 -5 -2 -10 -4 -10 -3 0 -8 5 -11 10
-3 6 -1 10 4 10 6 0 11 -4 11 -10z m441 -17 c10 -11 10 -14 2 -9 -7 4 -13 2
-13 -3 0 -6 -4 -11 -9 -11 -7 0 -8 17 -2 38 2 6 10 1 22 -15z m-1198 -17 c17
-13 16 -14 -2 -19 -13 -3 -21 1 -24 14 -6 22 1 24 26 5z m548 -17 c-9 -22 -10
-22 -10 -3 -1 11 2 24 6 27 12 12 14 0 4 -24z m-438 14 c-7 -2 -21 -2 -30 0
-10 3 -4 5 12 5 17 0 24 -2 18 -5z m420 -80 c-3 -7 1 -13 10 -13 18 0 29 24
21 45 -4 8 -1 15 5 15 6 0 11 7 11 15 0 19 14 19 29 1 9 -10 9 -16 1 -21 -8
-5 -8 -11 1 -21 6 -7 15 -11 20 -8 5 3 9 1 9 -5 0 -5 -8 -12 -17 -14 -11 -3
-5 -5 12 -6 18 -1 25 -5 20 -10 -6 -5 -51 -11 -101 -13 -91 -3 -91 -3 -81 19
5 12 13 20 17 18 4 -2 5 6 3 19 -3 14 3 30 13 41 18 18 19 17 25 -15 4 -18 5
-39 2 -47z m-509 32 c-7 -16 -24 -21 -24 -6 0 8 7 13 27 20 1 1 0 -6 -3 -14z
m1221 -33 c-3 -8 -5 -17 -5 -22 0 -4 -6 -10 -12 -13 -10 -3 -12 8 -9 41 3 42
4 44 17 27 8 -11 12 -26 9 -33z m-88 -14 c-3 -8 -6 -5 -6 6 -1 11 2 17 5 13 3
-3 4 -12 1 -19z m-151 -3 c-23 -17 -36 -19 -36 -6 0 5 10 12 23 14 12 2 24 5
27 5 3 1 -4 -5 -14 -13z m305 -45 c6 0 7 -5 3 -11 -9 -15 -24 9 -22 36 1 17 1
17 5 -2 2 -13 9 -23 14 -23z m-300 16 c5 3 8 0 7 -8 -2 -7 7 -14 19 -16 23 -3
54 -32 34 -32 -6 0 -11 5 -11 10 0 6 -8 10 -17 10 -19 0 -53 28 -52 44 0 6 3
6 6 -2 2 -6 9 -10 14 -6z m354 -65 c-7 -24 -35 -29 -35 -5 0 9 5 12 13 8 9 -6
9 -4 -1 8 -10 13 -10 17 0 21 20 7 31 -8 23 -32z m65 -2 c0 -5 -4 -7 -10 -4
-6 3 -10 -4 -11 -17 0 -13 -3 -17 -6 -10 -3 7 -2 19 1 27 6 17 26 20 26 4z
m-112 -44 c-3 -3 -9 2 -12 12 -6 14 -5 15 5 6 7 -7 10 -15 7 -18z m-456 -7
c-2 -10 -6 -18 -7 -18 -1 0 -5 8 -7 18 -3 11 0 19 7 19 7 0 10 -8 7 -19z m515
0 c-3 -8 -6 -5 -6 6 -1 11 2 17 5 13 3 -3 4 -12 1 -19z m82 -68 c0 -10 -3 -8
-9 5 -12 27 -12 43 0 25 5 -8 9 -22 9 -30z m41 19 c0 -5 -4 -9 -10 -9 -5 0
-10 7 -10 16 0 8 5 12 10 9 6 -3 10 -10 10 -16z m-30 -69 c0 -12 -28 -20 -46
-13 -15 6 -15 7 1 19 10 8 14 18 9 26 -4 7 2 4 14 -6 12 -11 22 -22 22 -26z"/>
<path d="M945 1630 c-3 -5 -1 -10 4 -10 6 0 11 5 11 10 0 6 -2 10 -4 10 -3 0
-8 -4 -11 -10z"/>
<path d="M705 1579 c-4 -6 -4 -13 -1 -16 3 -4 6 -1 6 6 0 7 5 9 12 5 7 -4 8
-3 4 4 -9 15 -13 15 -21 1z"/>
<path d="M680 1530 c0 -5 7 -10 15 -10 8 0 15 5 15 10 0 6 -7 10 -15 10 -8 0
-15 -4 -15 -10z"/>
<path d="M365 1429 c-11 -17 0 -20 21 -4 17 13 17 14 2 15 -9 0 -20 -5 -23
-11z"/>
<path d="M968 1333 c7 -3 16 -2 19 1 4 3 -2 6 -13 5 -11 0 -14 -3 -6 -6z"/>
<path d="M1008 1323 c-28 -4 -41 -24 -31 -48 5 -14 7 -14 22 -1 9 8 32 16 51
18 23 2 35 8 35 18 0 16 -29 21 -77 13z"/>
<path d="M1004 1243 c11 -11 45 -13 51 -3 4 6 -7 10 -26 10 -18 0 -29 -3 -25
-7z"/>
<path d="M865 1200 c3 -5 8 -10 11 -10 2 0 4 5 4 10 0 6 -5 10 -11 10 -5 0 -7
-4 -4 -10z"/>
<path d="M987 1133 c-15 -2 -25 -8 -22 -13 3 -5 19 -7 35 -3 21 4 30 2 30 -8
0 -9 3 -10 11 -2 13 13 4 34 -14 32 -7 -1 -24 -4 -40 -6z"/>
<path d="M941 1094 c0 -11 3 -14 6 -6 3 7 2 16 -1 19 -3 4 -6 -2 -5 -13z"/>
<path d="M1288 1824 c-9 -9 3 -44 13 -38 5 3 7 10 4 15 -4 5 -1 9 5 9 6 0 8 5
5 10 -7 11 -19 13 -27 4z"/>
<path d="M1350 1820 c-8 -5 -10 -10 -5 -10 6 0 17 5 25 10 8 5 11 10 5 10 -5
0 -17 -5 -25 -10z"/>
<path d="M1435 1820 c4 -6 11 -8 16 -5 14 9 11 15 -7 15 -8 0 -12 -5 -9 -10z"/>
<path d="M1933 1823 c4 -3 2 -11 -3 -18 -7 -8 1 -16 26 -28 19 -10 32 -22 29
-27 -3 -6 1 -10 10 -10 9 0 13 -4 10 -10 -3 -5 2 -24 11 -42 9 -18 21 -44 25
-58 7 -19 8 -15 5 18 -2 24 -12 52 -21 63 -17 18 -16 19 9 28 27 11 37 53 15
67 -8 4 -7 9 2 15 10 6 5 9 -16 9 -23 0 -27 -3 -15 -10 9 -6 10 -10 3 -10 -6
0 -15 5 -18 10 -3 6 -22 10 -42 10 -20 0 -33 -3 -30 -7z m98 -61 c-7 -2 -18 1
-23 6 -8 8 -4 9 13 5 13 -4 18 -8 10 -11z"/>
<path d="M2171 1817 c-6 -8 -8 -16 -5 -20 10 -9 34 4 34 19 0 18 -14 18 -29 1z"/>
<path d="M2225 1810 c15 -16 15 -22 5 -35 -10 -12 -10 -15 3 -15 18 0 33 33
18 38 -6 2 -11 10 -11 18 0 8 -7 14 -17 14 -14 0 -14 -2 2 -20z"/>
<path d="M2280 1820 c-9 -6 -10 -10 -3 -10 6 0 15 5 18 10 8 12 4 12 -15 0z"/>
<path d="M2350 1821 c0 -6 4 -13 10 -16 6 -3 7 1 4 9 -7 18 -14 21 -14 7z"/>
<path d="M2375 1820 c3 -5 8 -10 11 -10 2 0 4 5 4 10 0 6 -5 10 -11 10 -5 0
-7 -4 -4 -10z"/>
<path d="M2450 1818 c0 -5 4 -6 10 -3 5 3 7 0 4 -9 -3 -8 -12 -12 -20 -9 -8 3
-14 -1 -14 -8 1 -17 30 -57 30 -42 0 7 9 11 20 10 10 -1 17 -3 15 -5 -2 -2 -5
-2 -7 0 -2 2 -17 -10 -32 -25 -16 -16 -33 -26 -40 -24 -6 2 -22 -9 -36 -24
-13 -16 -30 -29 -37 -29 -7 0 -13 -4 -13 -9 0 -5 10 -7 22 -3 23 6 22 1 -18
-53 -12 -16 -27 -47 -34 -68 -7 -22 -16 -35 -23 -30 -6 4 -8 0 -4 -10 4 -10 0
-20 -11 -26 -16 -10 -16 -10 0 -11 11 0 26 17 39 42 24 47 47 68 65 61 12 -4
27 31 24 57 -1 11 2 11 12 -3 15 -20 48 -14 48 10 0 16 24 43 38 43 5 0 14 11
20 25 9 19 9 25 0 25 -12 0 21 29 34 30 4 0 4 -16 1 -35 -4 -23 -2 -35 6 -35
6 0 11 5 11 10 0 6 10 8 24 4 31 -8 44 14 15 25 -23 8 -23 8 -4 18 11 6 39 13
63 17 54 8 92 32 92 58 0 15 -5 18 -20 13 -15 -5 -18 -3 -14 9 5 14 -6 16 -76
16 l-82 0 6 -26 c5 -20 3 -27 -13 -31 -12 -3 -18 -9 -15 -14 3 -5 -1 -9 -9 -9
-15 0 -41 56 -33 69 2 3 -7 7 -20 7 -13 1 -24 -2 -24 -8z"/>
<path d="M592 1792 c-13 -9 -6 -42 8 -42 27 0 39 13 29 31 -11 21 -18 23 -37
11z"/>
<path d="M1250 1789 c0 -5 5 -7 10 -4 6 3 10 8 10 11 0 2 -4 4 -10 4 -5 0 -10
-5 -10 -11z"/>
<path d="M1335 1789 c-4 -6 -5 -12 -2 -15 2 -3 7 2 10 11 7 17 1 20 -8 4z"/>
<path d="M2303 1785 c-18 -20 -16 -30 3 -14 13 10 17 10 25 -2 10 -16 12 -8 3
15 -7 19 -15 20 -31 1z"/>
<path d="M2540 1790 c0 -5 5 -10 10 -10 6 0 10 5 10 10 0 6 -4 10 -10 10 -5 0
-10 -4 -10 -10z"/>
<path d="M449 1779 c-12 -8 -12 -11 1 -18 9 -6 19 -6 27 1 9 7 14 6 19 -6 9
-24 -1 -30 -26 -16 -12 6 -24 9 -28 6 -3 -3 0 -6 6 -6 22 0 12 -20 -10 -21
-22 0 -22 -1 2 -10 17 -7 26 -7 28 0 2 6 8 11 13 11 6 0 7 -4 4 -10 -9 -15 4
-30 20 -24 8 4 12 10 9 15 -3 5 0 9 5 9 6 0 10 3 9 8 -2 4 8 18 20 30 29 29
22 39 -11 17 -21 -13 -25 -13 -30 -2 -7 18 -41 27 -58 16z"/>
<path d="M373 1750 c-18 -11 -33 -22 -33 -24 0 -10 34 2 38 12 2 7 10 12 18
12 8 0 14 5 14 10 0 13 0 13 -37 -10z"/>
<path d="M748 1763 c7 -3 16 -2 19 1 4 3 -2 6 -13 5 -11 0 -14 -3 -6 -6z"/>
<path d="M1230 1760 c-18 -12 -2 -12 25 0 13 6 15 9 5 9 -8 0 -22 -4 -30 -9z"/>
<path d="M1950 1760 c0 -5 5 -10 11 -10 5 0 7 5 4 10 -3 6 -8 10 -11 10 -2 0
-4 -4 -4 -10z"/>
<path d="M2404 1745 c0 -14 6 -27 13 -29 9 -4 9 3 1 25 -12 36 -16 37 -14 4z"/>
<path d="M748 1743 c-10 -2 -18 -5 -18 -6 0 -1 -4 -17 -9 -35 -5 -17 -6 -32
-1 -32 4 0 11 12 15 27 3 15 14 33 23 40 18 13 17 13 -10 6z"/>
<path d="M2251 1743 c0 -4 4 -17 9 -28 8 -19 9 -19 9 2 1 12 -3 25 -9 28 -5 3
-10 3 -9 -2z"/>
<path d="M2189 1723 c-13 -16 -12 -17 4 -4 9 7 17 15 17 17 0 8 -8 3 -21 -13z"/>
<path d="M2144 1703 c5 -16 1 -26 -15 -37 -13 -9 -19 -19 -15 -23 4 -4 13 0
20 9 7 10 17 14 21 10 5 -4 5 -2 2 5 -4 6 -2 13 5 15 9 3 7 10 -6 23 -18 19
-18 19 -12 -2z"/>
<path d="M380 1695 c-14 -16 -3 -20 19 -6 8 5 9 11 3 15 -5 3 -15 -1 -22 -9z"/>
<path d="M1955 1700 c3 -5 8 -10 11 -10 2 0 4 5 4 10 0 6 -5 10 -11 10 -5 0
-7 -4 -4 -10z"/>
<path d="M2216 1688 c3 -5 10 -6 15 -3 13 9 11 12 -6 12 -8 0 -12 -4 -9 -9z"/>
<path d="M2270 1683 c0 -4 5 -15 10 -23 8 -13 10 -13 10 2 0 9 -4 20 -10 23
-5 3 -10 3 -10 -2z"/>
<path d="M2700 1660 c0 -5 5 -10 10 -10 6 0 10 5 10 10 0 6 -4 10 -10 10 -5 0
-10 -4 -10 -10z"/>
<path d="M2295 1640 c-7 -12 2 -30 16 -30 5 0 9 9 9 20 0 21 -15 27 -25 10z"/>
<path d="M2580 1632 c-59 -28 -62 -32 -49 -48 16 -20 36 -18 62 6 18 18 20 22
7 30 -13 8 -13 10 2 10 9 0 20 5 23 10 8 14 -4 11 -45 -8z"/>
<path d="M1824 1628 c3 -10 -3 -18 -17 -22 -18 -5 -19 -8 -7 -16 26 -16 0 -28
-130 -56 -69 -15 -129 -34 -133 -41 -4 -7 -15 -13 -22 -13 -8 0 -15 -5 -15
-11 0 -6 9 -8 21 -4 14 5 25 1 34 -12 14 -17 14 -17 15 4 0 15 7 24 23 27 12
3 54 12 94 21 89 19 103 19 103 1 0 -19 14 -28 33 -20 18 7 31 50 20 67 -4 7
-6 22 -5 34 2 12 -2 30 -8 40 -9 15 -11 15 -6 1z"/>
<path d="M2131 1623 c-9 -10 -10 -18 -2 -26 7 -7 12 -6 17 6 9 25 1 37 -15 20z"/>
<path d="M365 1619 c-4 -6 -5 -12 -2 -15 2 -3 7 2 10 11 7 17 1 20 -8 4z"/>
<path d="M1580 1620 c-17 -11 -8 -23 14 -18 9 2 12 8 8 15 -5 8 -13 9 -22 3z"/>
<path d="M2630 1619 c0 -5 5 -7 10 -4 6 3 10 8 10 11 0 2 -4 4 -10 4 -5 0 -10
-5 -10 -11z"/>
<path d="M1538 1603 c7 -3 16 -2 19 1 4 3 -2 6 -13 5 -11 0 -14 -3 -6 -6z"/>
<path d="M2700 1600 c-9 -6 -10 -10 -3 -10 6 0 15 5 18 10 8 12 4 12 -15 0z"/>
<path d="M235 1590 c-3 -5 1 -10 9 -10 9 0 16 5 16 10 0 6 -4 10 -9 10 -6 0
-13 -4 -16 -10z"/>
<path d="M2024 1593 c4 -7 -1 -27 -10 -45 -15 -28 -15 -31 -1 -20 13 11 16 10
22 -9 4 -12 3 -24 -2 -28 -10 -7 -11 -71 -1 -71 3 0 4 -9 1 -20 -3 -11 -1 -20
4 -20 5 0 8 -13 5 -30 -3 -20 0 -30 9 -30 20 0 -23 -29 -43 -30 -10 0 -18 -5
-18 -11 0 -8 -5 -8 -15 1 -8 7 -15 9 -16 4 0 -5 -2 -28 -3 -52 -3 -37 -2 -40
10 -25 7 10 14 15 14 11 0 -4 12 4 27 18 l28 26 5 -24 c5 -18 13 -23 35 -23
24 0 29 4 27 20 -2 11 -4 52 -4 90 0 99 -19 256 -30 249 -5 -3 -19 2 -30 13
-12 10 -18 13 -14 6z m30 -42 c16 -17 16 -19 0 -25 -12 -4 -15 -2 -10 9 3 8 1
15 -4 15 -6 0 -10 5 -10 10 0 14 5 13 24 -9z m23 -103 c-3 -8 -6 -5 -6 6 -1
11 2 17 5 13 3 -3 4 -12 1 -19z m3 -33 c0 -8 -4 -15 -10 -15 -5 0 -7 7 -4 15
4 8 8 15 10 15 2 0 4 -7 4 -15z m5 -35 c-3 -5 -12 -10 -18 -10 -7 0 -6 4 3 10
19 12 23 12 15 0z"/>
<path d="M2640 1584 c0 -1 6 -7 14 -13 10 -9 15 -8 19 3 4 10 0 14 -14 13 -10
-1 -19 -2 -19 -3z"/>
<path d="M2730 1575 c0 -11 5 -27 10 -35 8 -12 10 -12 10 5 0 11 -5 27 -10 35
-8 12 -10 12 -10 -5z"/>
<path d="M273 1555 c0 -28 12 -25 20 5 3 12 0 20 -8 20 -7 0 -12 -11 -12 -25z"/>
<path d="M2143 1573 c-25 -5 -25 -5 -28 -46 -1 -15 2 -26 7 -25 5 2 9 7 9 11
-2 13 40 48 49 42 6 -4 10 1 10 9 0 16 -6 17 -47 9z"/>
<path d="M2230 1552 c-18 -11 -35 -24 -36 -31 -1 -6 0 -7 3 -1 7 15 33 12 33
-4 0 -8 7 -17 16 -20 12 -4 14 -1 9 14 -4 12 1 26 14 39 26 26 7 27 -39 3z"/>
<path d="M2594 1555 c-24 -18 -7 -19 26 0 16 9 19 14 9 15 -8 0 -24 -7 -35
-15z"/>
<path d="M2698 1565 c-4 -4 -4 -14 0 -23 5 -15 4 -15 -11 -3 -14 11 -17 11
-17 0 1 -19 25 -49 40 -49 10 0 9 4 -1 17 -10 11 -10 14 -1 9 7 -4 12 -2 11 6
-1 23 -14 49 -21 43z"/>
<path d="M176 1553 c-4 -5 -12 -9 -17 -9 -5 -1 -13 -2 -19 -3 -5 0 -10 -9 -10
-19 0 -15 -34 -46 -52 -47 -3 0 -10 -3 -14 -7 -18 -19 -25 -6 -8 15 17 20 17
20 -8 -2 -15 -13 -25 -29 -21 -34 4 -6 0 -8 -10 -4 -14 5 -17 0 -17 -28 0 -33
0 -34 33 -24 17 6 51 12 74 14 41 4 52 12 98 64 l20 23 -40 -7 c-22 -4 -48 -9
-57 -12 -10 -2 -18 0 -18 6 0 6 6 11 14 11 7 0 22 11 32 25 10 14 27 25 36 25
10 0 18 5 18 10 0 12 -23 13 -34 3z m-96 -103 c0 -17 -58 -42 -66 -28 -4 6 -3
8 3 5 6 -4 18 2 28 13 19 22 35 26 35 10z"/>
<path d="M232 1530 c-7 -12 -17 -18 -22 -15 -6 3 -10 1 -10 -4 0 -18 15 -12
40 14 13 14 19 25 14 25 -5 0 -15 -9 -22 -20z"/>
<path d="M2625 1536 c-16 -7 -39 -23 -49 -35 -11 -11 -27 -21 -37 -21 -10 0
-24 -9 -32 -21 -8 -11 -22 -22 -31 -23 -18 -3 -34 -16 -19 -16 6 0 10 -11 9
-23 0 -15 -7 -24 -16 -23 -8 1 -15 -5 -15 -13 0 -26 24 -23 54 8 17 17 39 31
50 31 26 0 98 60 107 90 9 31 15 60 11 60 -1 -1 -15 -7 -32 -14z"/>
<path d="M2270 1530 c0 -5 5 -10 10 -10 6 0 10 5 10 10 0 6 -4 10 -10 10 -5 0
-10 -4 -10 -10z"/>
<path d="M2510 1499 c0 -5 5 -7 10 -4 6 3 10 8 10 11 0 2 -4 4 -10 4 -5 0 -10
-5 -10 -11z"/>
<path d="M2116 1459 c-8 -40 -4 -45 10 -14 6 13 8 28 4 35 -4 7 -10 -2 -14
-21z"/>
<path d="M1658 1473 c7 -3 16 -2 19 1 4 3 -2 6 -13 5 -11 0 -14 -3 -6 -6z"/>
<path d="M2350 1465 c-8 -9 -8 -15 -2 -15 12 0 26 19 19 26 -2 2 -10 -2 -17
-11z"/>
<path d="M1673 1457 c-39 -7 -53 -15 -57 -30 -8 -31 2 -39 29 -21 13 8 42 15
64 16 23 0 41 4 41 8 0 15 -12 40 -19 39 -3 -1 -29 -6 -58 -12z"/>
<path d="M1791 1460 c1 -8 5 -26 9 -40 l8 -25 1 25 c0 14 -4 32 -9 40 -9 13
-10 13 -9 0z"/>
<path d="M2153 1443 c-24 -16 -29 -48 -12 -73 8 -12 9 -11 7 5 -2 11 3 26 12
33 8 8 9 11 3 7 -7 -3 -13 -1 -13 4 0 6 4 11 9 11 5 0 11 7 15 15 7 18 7 18
-21 -2z"/>
<path d="M2434 1399 c-3 -6 -15 -9 -25 -6 -10 3 -22 0 -26 -5 -3 -7 -1 -8 5
-4 6 3 14 0 19 -8 6 -11 12 -9 26 10 10 13 16 24 13 24 -3 0 -8 -5 -12 -11z"/>
<path d="M140 1389 c-11 -6 -12 -9 -2 -9 7 0 10 -5 7 -10 -4 -6 -16 -8 -26 -5
-11 4 -25 2 -32 -3 -7 -6 -27 -12 -45 -15 -32 -5 -57 -17 -36 -17 5 0 10 -9
10 -20 0 -11 -4 -20 -8 -20 -4 0 -8 -18 -8 -40 0 -41 8 -47 41 -30 24 13 25
30 2 31 -10 0 -3 6 15 13 18 6 30 15 26 19 -4 4 -1 7 8 7 8 0 29 22 46 50 30
48 31 68 2 49z m-44 -44 c-11 -8 -24 -15 -30 -15 -5 0 -1 7 10 15 10 8 24 14
29 14 6 0 1 -6 -9 -14z m14 -31 c0 -9 -6 -14 -12 -11 -7 2 -21 -2 -30 -10 -9
-8 -22 -13 -29 -11 -9 3 46 41 69 47 1 1 2 -6 2 -15z"/>
<path d="M1285 1390 c-3 -6 1 -7 9 -4 18 7 21 14 7 14 -6 0 -13 -4 -16 -10z"/>
<path d="M60 1375 c-7 -9 -8 -15 -2 -15 5 0 12 7 16 15 3 8 4 15 2 15 -2 0 -9
-7 -16 -15z"/>
<path d="M1313 1375 c-18 -8 -33 -19 -33 -25 0 -6 5 -8 10 -5 6 4 11 -9 11
-32 1 -24 3 -30 6 -15 5 24 46 47 69 38 13 -5 27 31 18 46 -8 12 -45 9 -81 -7z"/>
<path d="M1710 1360 c-13 -8 -12 -10 3 -10 9 0 17 5 17 10 0 12 -1 12 -20 0z"/>
<path d="M2657 1350 c-18 -21 -12 -26 13 -10 8 5 11 10 5 10 -5 0 -3 5 5 10 8
5 10 10 5 10 -6 0 -18 -9 -28 -20z"/>
<path d="M2719 1353 c-44 -31 -50 -40 -32 -47 26 -10 52 3 59 30 8 33 3 37
-27 17z"/>
<path d="M1708 1303 c7 -3 16 -2 19 1 4 3 -2 6 -13 5 -11 0 -14 -3 -6 -6z"/>
<path d="M184 1279 c-19 -21 -19 -21 0 -18 11 2 20 12 22 22 3 22 1 22 -22 -4z"/>
<path d="M2707 1284 c-4 -4 -4 -11 -1 -15 7 -12 44 -11 44 0 0 5 -10 7 -22 3
-14 -3 -19 -2 -14 6 8 13 3 16 -7 6z"/>
<path d="M2680 1271 c0 -6 4 -13 10 -16 6 -3 7 1 4 9 -7 18 -14 21 -14 7z"/>
<path d="M2614 1249 c-9 -15 14 -18 32 -4 18 13 18 14 -4 12 -13 -1 -26 -5
-28 -8z"/>
<path d="M2710 1240 c0 -5 8 -7 18 -4 9 3 6 -1 -8 -9 -14 -9 -28 -13 -31 -11
-4 2 -5 -5 -2 -16 3 -11 9 -20 12 -20 15 0 7 -28 -12 -39 -15 -10 -17 -10 -12
0 6 8 4 10 -4 4 -7 -4 -10 -17 -7 -28 3 -13 -1 -25 -12 -33 -14 -11 -12 -11
15 -2 17 7 30 14 29 17 -2 4 0 15 3 25 6 16 10 13 27 -20 l19 -39 3 79 c2 44
1 85 -2 93 -6 15 -36 18 -36 3z"/>
<path d="M1741 1224 c0 -11 3 -14 6 -6 3 7 2 16 -1 19 -3 4 -6 -2 -5 -13z"/>
<path d="M2573 1226 c-13 -6 -23 -14 -23 -18 0 -3 -14 -3 -31 2 -26 8 -30 7
-25 -7 5 -12 1 -14 -21 -9 -19 4 -23 3 -14 -3 11 -7 10 -11 -5 -20 -16 -10
-12 -11 20 -6 31 5 99 39 125 61 11 9 -6 9 -26 0z"/>
<path d="M1651 1214 c0 -11 3 -14 6 -6 3 7 2 16 -1 19 -3 4 -6 -2 -5 -13z"/>
<path d="M2156 1205 c4 -8 8 -15 10 -15 2 0 4 7 4 15 0 8 -4 15 -10 15 -5 0
-7 -7 -4 -15z"/>
<path d="M2645 1189 c-4 -6 -5 -12 -2 -15 2 -3 7 2 10 11 7 17 1 20 -8 4z"/>
<path d="M1360 1166 c0 -9 5 -16 10 -16 6 0 10 4 10 9 0 6 -4 13 -10 16 -5 3
-10 -1 -10 -9z"/>
<path d="M2028 1163 c7 -3 16 -2 19 1 4 3 -2 6 -13 5 -11 0 -14 -3 -6 -6z"/>
<path d="M2565 1150 c-3 -5 -1 -10 4 -10 6 0 11 5 11 10 0 6 -2 10 -4 10 -3 0
-8 -4 -11 -10z"/>
<path d="M2079 1143 c0 -5 -3 -20 -5 -35 -3 -16 0 -28 5 -28 6 0 10 16 9 35
-1 31 -7 48 -9 28z"/>
<path d="M113 1133 c-12 -2 -24 -11 -27 -19 -5 -12 -1 -12 24 1 17 9 30 18 30
20 0 3 -1 4 -2 4 -2 -1 -13 -4 -25 -6z"/>
<path d="M2275 1129 c-4 -6 -5 -12 -2 -15 2 -3 7 2 10 11 7 17 1 20 -8 4z"/>
<path d="M2590 1130 c-13 -8 -12 -10 3 -10 9 0 17 5 17 10 0 12 -1 12 -20 0z"/>
<path d="M0 1104 c0 -27 14 -25 30 7 9 16 7 19 -10 19 -15 0 -20 -7 -20 -26z"/>
<path d="M2575 1103 c-11 -3 -25 -9 -31 -14 -6 -5 -19 -7 -28 -3 -24 9 -20
-11 7 -30 12 -9 16 -14 8 -10 -15 7 -32 -13 -24 -31 6 -17 63 -12 74 6 5 9 9
9 9 2 0 -6 8 -9 19 -6 14 4 19 13 19 35 -1 16 -4 25 -7 21 -10 -14 -70 -11
-64 3 2 6 13 10 24 7 13 -4 19 0 19 11 0 9 -1 15 -2 15 -2 -1 -12 -4 -23 -6z"/>
<path d="M2256 1083 c-6 -14 -5 -15 5 -6 7 7 10 15 7 18 -3 3 -9 -2 -12 -12z"/>
<path d="M2275 1070 c-3 -5 -1 -10 4 -10 6 0 11 5 11 10 0 6 -2 10 -4 10 -3 0
-8 -4 -11 -10z"/>
<path d="M2680 1065 c0 -16 16 -20 24 -6 3 5 -1 11 -9 15 -9 3 -15 0 -15 -9z"/>
<path d="M2640 1049 c0 -5 5 -7 10 -4 6 3 10 8 10 11 0 2 -4 4 -10 4 -5 0 -10
-5 -10 -11z"/>
<path d="M2445 1030 c-3 -5 -4 -10 -1 -10 2 0 11 -3 19 -6 8 -3 17 2 20 10 7
18 -27 23 -38 6z"/>
<path d="M2707 1017 c-9 -25 2 -47 24 -47 24 0 24 12 1 40 -16 20 -19 21 -25
7z"/>
<path d="M2200 990 c0 -11 2 -20 4 -20 2 0 6 9 9 20 3 11 1 20 -4 20 -5 0 -9
-9 -9 -20z"/>
<path d="M1725 980 l-40 -8 48 1 c26 0 47 4 47 9 0 4 -3 7 -7 7 -5 -1 -26 -5
-48 -9z"/>
<path d="M2630 983 c0 -7 -7 -13 -15 -13 -11 0 -13 -8 -8 -30 3 -18 1 -30 -5
-30 -7 0 -6 -10 3 -27 8 -16 17 -40 20 -55 4 -23 10 -26 41 -25 20 1 32 3 25
5 -19 6 -12 30 11 34 25 4 32 17 18 38 -8 13 -11 12 -25 -5 -16 -20 -16 -20
-14 0 3 42 -1 54 -16 49 -26 -11 -16 15 13 30 15 8 23 15 17 15 -5 1 -17 -4
-25 -9 -11 -7 -18 -3 -27 13 -7 12 -12 16 -13 10z m4 -88 c-4 -8 -8 -15 -10
-15 -2 0 -4 7 -4 15 0 8 4 15 10 15 5 0 7 -7 4 -15z m26 -75 c0 -5 -5 -10 -11
-10 -5 0 -7 5 -4 10 3 6 8 10 11 10 2 0 4 -4 4 -10z"/>
<path d="M1543 963 c9 -2 25 -2 35 0 9 3 1 5 -18 5 -19 0 -27 -2 -17 -5z"/>
<path d="M2570 952 c0 -5 7 -16 16 -23 14 -12 16 -11 13 5 -4 20 -29 35 -29
18z"/>
<path d="M1368 943 c6 -2 18 -2 25 0 6 3 1 5 -13 5 -14 0 -19 -2 -12 -5z"/>
<path d="M1950 940 c0 -5 7 -7 15 -4 8 4 15 8 15 10 0 2 -7 4 -15 4 -8 0 -15
-4 -15 -10z"/>
<path d="M233 924 c-3 -8 -18 -14 -34 -14 -16 0 -29 -5 -29 -12 0 -9 -3 -10
-8 -2 -4 6 -16 9 -27 7 -11 -2 -29 -5 -39 -6 -11 -1 -21 -8 -24 -15 -3 -11 6
-12 44 -7 27 4 61 11 76 17 15 6 34 8 42 5 8 -3 21 2 30 12 16 17 15 19 -4 24
-13 3 -23 0 -27 -9z"/>
<path d="M1293 933 c9 -2 25 -2 35 0 9 3 1 5 -18 5 -19 0 -27 -2 -17 -5z"/>
<path d="M1525 928 c-16 -4 -35 -6 -40 -4 -6 2 -19 -2 -30 -10 -10 -8 -14 -14
-8 -14 6 0 11 -6 10 -12 0 -7 1 -45 1 -85 2 -61 4 -71 17 -66 9 3 24 -2 34
-11 13 -12 21 -14 26 -7 6 11 5 12 -17 15 -6 0 -12 8 -13 17 -3 20 28 15 46
-7 24 -30 31 -12 28 79 -3 89 -3 92 19 95 12 2 20 7 17 12 -3 6 -16 5 -30 0
-13 -5 -25 -5 -27 -1 -2 4 -16 4 -33 -1z"/>
<path d="M1218 923 c6 -2 18 -2 25 0 6 3 1 5 -13 5 -14 0 -19 -2 -12 -5z"/>
<path d="M2501 914 c0 -11 3 -14 6 -6 3 7 2 16 -1 19 -3 4 -6 -2 -5 -13z"/>
<path d="M1103 913 c15 -2 39 -2 55 0 15 2 2 4 -28 4 -30 0 -43 -2 -27 -4z"/>
<path d="M2105 912 c-6 -4 -17 -16 -25 -26 -14 -18 -14 -19 7 -8 23 12 38 30
31 37 -2 2 -8 1 -13 -3z"/>
<path d="M5 900 c-8 -13 8 -18 29 -10 19 6 19 7 -2 12 -12 4 -24 2 -27 -2z"/>
<path d="M1033 903 c9 -2 23 -2 30 0 6 3 -1 5 -18 5 -16 0 -22 -2 -12 -5z"/>
<path d="M1960 890 c0 -5 4 -10 9 -10 6 0 13 5 16 10 3 6 -1 10 -9 10 -9 0
-16 -4 -16 -10z"/>
<path d="M2535 890 c-4 -6 1 -7 11 -3 13 5 15 3 9 -7 -5 -9 -4 -11 4 -6 6 4 9
12 6 17 -8 12 -22 12 -30 -1z"/>
<path d="M2230 881 c0 -7 -5 -9 -12 -5 -7 5 -8 3 -3 -5 5 -9 10 -10 18 -2 6 6
8 14 4 18 -4 3 -7 1 -7 -6z"/>
<path d="M1985 860 c-3 -5 -1 -10 4 -10 6 0 11 5 11 10 0 6 -2 10 -4 10 -3 0
-8 -4 -11 -10z"/>
<path d="M2115 851 c-3 -5 -1 -12 5 -16 5 -3 10 1 10 9 0 18 -6 21 -15 7z"/>
<path d="M1725 820 c-3 -5 -1 -10 4 -10 6 0 11 5 11 10 0 6 -2 10 -4 10 -3 0
-8 -4 -11 -10z"/>
<path d="M2310 815 c-7 -9 -11 -17 -9 -20 3 -2 10 5 17 15 14 24 10 26 -8 5z"/>
<path d="M1787 803 c-3 -5 -1 -17 4 -28 7 -17 8 -17 8 8 1 27 -4 34 -12 20z"/>
<path d="M2685 780 c3 -5 13 -10 21 -10 8 0 14 5 14 10 0 6 -9 10 -21 10 -11
0 -17 -4 -14 -10z"/>
<path d="M245 758 c11 -6 23 -16 27 -22 5 -7 11 -6 20 3 7 8 8 11 2 8 -7 -4
-14 0 -18 8 -3 8 -16 15 -28 15 -22 -1 -22 -1 -3 -12z"/>
<path d="M2296 754 c-9 -24 -2 -26 12 -4 7 11 8 20 3 20 -5 0 -12 -7 -15 -16z"/>
<path d="M1990 720 c-9 -6 -10 -10 -3 -10 6 0 15 5 18 10 8 12 4 12 -15 0z"/>
<path d="M2716 715 c-4 -10 1 -15 14 -15 13 0 18 5 14 15 -4 8 -10 15 -14 15
-4 0 -10 -7 -14 -15z"/>
<path d="M1882 695 c0 -16 2 -22 5 -12 2 9 2 23 0 30 -3 6 -5 -1 -5 -18z"/>
<path d="M2687 675 c22 -20 22 -22 6 -38 -16 -16 -15 -17 20 -17 42 0 47 9 16
28 -16 10 -18 16 -9 27 9 11 7 12 -9 8 -12 -3 -27 -1 -34 3 -7 5 -3 0 10 -11z"/>
<path d="M1574 669 c-4 -7 -3 -9 4 -5 6 3 13 -2 15 -11 4 -16 5 -16 6 -1 1 21
-15 32 -25 17z"/>
<path d="M2361 664 c0 -11 3 -14 6 -6 3 7 2 16 -1 19 -3 4 -6 -2 -5 -13z"/>
<path d="M1510 653 c0 -17 15 -16 30 1 9 12 8 15 -9 13 -12 -1 -21 -7 -21 -14z"/>
<path d="M1383 630 c-3 -11 -9 -17 -14 -14 -5 3 -9 0 -9 -5 0 -16 15 -13 40 7
21 17 21 19 6 25 -13 5 -19 1 -23 -13z"/>
<path d="M1544 631 c3 -5 -4 -12 -17 -15 l-22 -7 24 -10 c30 -12 57 6 40 27
-13 15 -34 19 -25 5z"/>
<path d="M1892 610 c0 -14 2 -19 5 -12 2 6 2 18 0 25 -3 6 -5 1 -5 -13z"/>
<path d="M2371 613 c9 -9 8 -13 0 -13 -7 0 -9 -5 -5 -11 4 -8 9 -7 15 2 13 21
11 36 -6 36 -11 0 -12 -4 -4 -14z"/>
<path d="M2550 615 c-7 -8 -9 -15 -4 -15 5 0 3 -4 -5 -9 -10 -6 -13 -29 -12
-79 l1 -71 -37 -6 c-53 -9 -62 -13 -30 -14 20 -1 27 -6 27 -21 0 -22 -15 -27
-23 -7 -4 7 -6 6 -6 -4 -1 -9 -12 -20 -26 -23 -14 -4 -25 -10 -25 -15 0 -6 14
-5 33 1 77 24 108 28 205 28 l102 1 0 99 c0 94 -1 99 -22 103 l-23 4 23 2 c12
0 22 6 22 11 0 17 -28 11 -43 -10 -9 -13 -30 -22 -60 -26 -46 -7 -47 -6 -62
30 -17 41 -18 41 -35 21z m49 -152 c2 -2 -5 -3 -17 -3 -14 0 -22 6 -22 16 0
14 3 15 18 3 9 -7 19 -15 21 -16z"/>
<path d="M1800 611 c0 -5 5 -13 10 -16 6 -3 10 -2 10 4 0 5 -4 13 -10 16 -5 3
-10 2 -10 -4z"/>
<path d="M1371 591 c-8 -6 -9 -11 -3 -15 6 -3 14 -1 17 5 9 14 2 20 -14 10z"/>
<path d="M2321 556 c-10 -12 -8 -13 8 -9 12 3 21 9 21 14 0 14 -16 11 -29 -5z"/>
<path d="M2360 559 c0 -5 5 -7 10 -4 6 3 10 8 10 11 0 2 -4 4 -10 4 -5 0 -10
-5 -10 -11z"/>
<path d="M1785 544 c-17 -13 -18 -16 -5 -24 24 -15 40 -12 40 9 0 27 -12 32
-35 15z"/>
<path d="M1902 470 c1 -85 11 -130 29 -130 4 0 5 9 2 20 -3 12 2 30 13 43 14
16 15 18 2 9 -12 -10 -18 -10 -23 -1 -4 6 -2 15 5 19 7 5 8 10 2 14 -5 3 -10
16 -10 28 -1 13 -6 39 -11 58 -8 29 -9 17 -9 -60z"/>
<path d="M27 543 l-27 -4 0 -159 0 -158 51 -7 c40 -6 54 -4 70 11 17 15 24 13
20 -8 0 -5 7 -8 16 -8 9 0 13 3 10 7 -4 3 1 11 10 18 8 6 14 18 11 25 -3 10
-8 9 -21 -4 -20 -21 -44 -12 -26 10 6 8 20 14 30 14 21 0 25 15 7 26 -7 4 -8
3 -4 -4 4 -7 3 -12 -2 -12 -6 0 -12 7 -16 15 -5 14 5 19 32 16 6 -1 12 3 12
10 0 8 -12 10 -36 6 -39 -6 -43 10 -8 28 48 25 50 29 19 36 -16 4 -55 7 -85 8
-49 1 -56 4 -67 28 -17 36 -16 55 3 79 8 10 13 13 9 7 -10 -21 4 -14 15 7 6
11 9 19 8 19 -2 -1 -15 -4 -31 -6z m13 -181 c0 -5 -7 -9 -15 -9 -8 0 -15 4
-15 9 0 4 7 8 15 8 8 0 15 -4 15 -8z m34 -64 c-6 -10 -4 -10 7 -2 8 6 24 11
37 12 19 1 21 -2 11 -19 -11 -21 -20 -26 -54 -31 -15 -2 -19 2 -17 16 3 17 2
18 -12 7 -14 -12 -16 -12 -10 2 3 9 13 18 22 20 10 3 18 5 20 6 2 0 0 -5 -4
-11z m22 -75 c-10 -10 -19 5 -10 18 6 11 8 11 12 0 2 -7 1 -15 -2 -18z"/>
<path d="M1371 528 c7 -16 16 -28 21 -28 13 0 10 9 -13 33 l-21 22 13 -27z"/>
<path d="M2235 520 c4 -19 7 -41 8 -47 0 -7 5 -13 11 -13 6 0 6 -4 -1 -11 -8
-8 -4 -19 18 -40 37 -36 52 -38 39 -3 -13 32 -12 37 0 29 6 -3 10 -2 10 2 0 5
-10 13 -22 18 -12 6 -23 20 -25 33 -2 13 -13 33 -24 45 l-22 22 8 -35z"/>
<path d="M2120 509 c0 -5 5 -7 10 -4 6 3 10 8 10 11 0 2 -4 4 -10 4 -5 0 -10
-5 -10 -11z"/>
<path d="M2153 490 c4 -15 1 -20 -11 -18 -16 3 -18 -1 -13 -39 2 -15 4 -14 11
4 7 16 14 21 26 16 14 -5 16 -3 11 11 -4 10 -7 24 -7 32 0 8 -5 14 -11 14 -6
0 -9 -9 -6 -20z"/>
<path d="M1260 470 c-14 -11 -20 -20 -14 -20 6 0 19 9 29 20 23 25 17 25 -15
0z"/>
<path d="M110 476 c0 -11 33 -36 47 -36 11 0 8 6 -10 20 -24 19 -37 25 -37 16z"/>
<path d="M1940 460 c0 -5 5 -10 10 -10 6 0 10 5 10 10 0 6 -4 10 -10 10 -5 0
-10 -4 -10 -10z"/>
<path d="M1189 430 c-13 -10 -19 -19 -13 -20 6 0 19 9 29 20 23 26 14 26 -16
0z"/>
<path d="M1285 440 c-4 -6 -11 -8 -16 -5 -12 8 -49 -4 -49 -15 0 -5 7 -6 17
-3 11 5 14 3 9 -6 -6 -8 2 -7 22 3 32 17 50 36 33 36 -5 0 -13 -5 -16 -10z"/>
<path d="M2160 430 c0 -5 5 -10 11 -10 5 0 7 5 4 10 -3 6 -8 10 -11 10 -2 0
-4 -4 -4 -10z"/>
<path d="M1220 384 c0 -8 5 -12 10 -9 6 4 8 11 5 16 -9 14 -15 11 -15 -7z"/>
<path d="M2036 378 c3 -4 0 -8 -6 -8 -6 0 -9 -4 -5 -9 3 -5 -3 -12 -12 -14
-11 -3 -6 -5 11 -6 24 -1 27 -3 16 -16 -11 -13 -10 -14 2 -10 9 3 20 17 27 31
8 19 8 24 -1 18 -7 -5 -9 -2 -6 7 4 10 -1 15 -12 15 -10 0 -16 -4 -14 -8z"/>
<path d="M2210 378 c0 -11 -8 -18 -20 -18 -11 0 -20 -5 -20 -11 0 -7 14 -10
35 -7 19 2 32 2 30 -1 -11 -11 18 -28 40 -23 31 5 42 21 24 33 -11 7 -9 9 6 9
16 0 17 2 5 10 -9 5 -19 5 -27 -2 -10 -8 -12 -7 -7 6 5 14 3 15 -22 6 -21 -8
-29 -8 -36 2 -6 10 -8 8 -8 -4z"/>
<path d="M2649 340 c-17 -14 -20 -19 -9 -20 8 0 21 9 28 20 15 25 11 25 -19 0z"/>
<path d="M2726 341 c-3 -5 1 -11 9 -15 9 -3 15 0 15 9 0 16 -16 20 -24 6z"/>
<path d="M2570 320 c0 -23 10 -26 28 -8 18 18 15 28 -8 28 -13 0 -20 -7 -20
-20z"/>
<path d="M2700 332 c0 -5 -15 -16 -32 -25 -25 -12 -28 -16 -13 -16 18 -1 18
-2 -3 -17 -12 -8 -19 -20 -16 -26 5 -7 0 -9 -14 -6 -15 4 -22 2 -22 -8 0 -25
52 -16 77 13 25 29 29 43 11 43 -6 0 -9 2 -7 5 3 2 14 2 26 -1 23 -6 21 -27
-4 -52 -7 -8 -10 -18 -7 -24 5 -7 0 -9 -14 -6 -12 4 -25 2 -28 -3 -3 -5 7 -10
23 -11 58 -3 88 6 68 20 -13 9 -16 42 -4 42 5 0 9 11 9 25 0 22 -3 25 -26 19
-23 -6 -25 -4 -19 15 3 11 4 21 1 21 -3 0 -6 -4 -6 -8z"/>
<path d="M1958 323 c6 -2 10 -9 6 -14 -3 -5 10 -8 28 -8 23 1 26 3 11 6 -13 2
-23 9 -23 14 0 5 -8 9 -17 8 -11 0 -13 -3 -5 -6z"/>
<path d="M1758 303 c7 -3 16 -2 19 1 4 3 -2 6 -13 5 -11 0 -14 -3 -6 -6z"/>
<path d="M1798 303 c7 -3 16 -2 19 1 4 3 -2 6 -13 5 -11 0 -14 -3 -6 -6z"/>
<path d="M2168 303 c6 -2 18 -2 25 0 6 3 1 5 -13 5 -14 0 -19 -2 -12 -5z"/>
<path d="M2606 284 c-11 -7 -17 -17 -13 -20 3 -4 14 1 23 10 21 22 15 28 -10
10z"/>
<path d="M2487 266 c-4 -9 -14 -14 -24 -11 -10 3 -4 -2 12 -10 l30 -16 -27 6
c-22 4 -26 2 -22 -10 7 -18 12 -18 40 -2 17 10 19 15 8 35 -9 19 -13 20 -17 8z"/>
<path d="M2060 252 c0 -6 10 -8 23 -5 17 4 19 2 7 -6 -11 -7 -4 -10 25 -9 22
1 55 -3 74 -7 27 -6 32 -5 26 5 -6 10 -2 11 19 6 14 -3 38 -9 52 -12 17 -4 29
-2 34 7 7 10 16 10 44 2 20 -6 36 -7 36 -2 0 4 7 6 15 3 9 -4 15 0 15 8 0 11
-18 14 -84 14 -48 -1 -82 -5 -78 -10 3 -6 -3 -6 -14 -2 -31 13 -194 19 -194 8z"/>
<path d="M2465 200 l-30 -6 29 -8 c20 -5 32 -3 38 6 6 10 10 10 18 -2 5 -8 10
-12 10 -8 0 4 12 3 27 -3 15 -6 24 -7 20 -3 -4 4 -3 12 2 18 10 12 -62 16
-114 6z"/>
<path d="M808 43 c7 -3 16 -2 19 1 4 3 -2 6 -13 5 -11 0 -14 -3 -6 -6z"/>
<path d="M5 30 c-3 -5 3 -10 14 -10 12 0 21 5 21 10 0 6 -6 10 -14 10 -8 0
-18 -4 -21 -10z"/>
</g>
</svg>
