<?xml version="1.0" standalone="no"?>
<!DOCTYPE svg PUBLIC "-//W3C//DTD SVG 20010904//EN"
 "http://www.w3.org/TR/2001/REC-SVG-20010904/DTD/svg10.dtd">
<svg version="1.0" xmlns="http://www.w3.org/2000/svg"
 width="275.000000pt" height="183.000000pt" viewBox="0 0 275.000000 183.000000"
 preserveAspectRatio="xMidYMid meet">

<g transform="translate(0.000000,183.000000) scale(0.100000,-0.100000)"
fill="#000000" stroke="none">
<path d="M1411 1724 c0 -11 3 -14 6 -6 3 7 2 16 -1 19 -3 4 -6 -2 -5 -13z"/>
<path d="M2148 1633 c-10 -2 -18 -8 -18 -13 0 -5 7 -6 17 -3 10 4 14 2 10 -4
-4 -6 0 -14 8 -17 13 -4 14 -2 5 14 -7 14 -7 20 0 20 5 0 10 -4 10 -9 0 -13
33 -7 38 7 4 12 -34 15 -70 5z"/>
<path d="M635 1620 c-3 -5 -1 -10 5 -10 6 0 9 -4 6 -8 -2 -4 8 -9 24 -10 25
-2 49 12 38 23 -10 10 -67 14 -73 5z"/>
<path d="M2160 1566 c0 -8 51 -13 56 -5 3 5 -9 9 -25 9 -17 0 -31 -2 -31 -4z"/>
<path d="M630 1551 c0 -5 9 -7 21 -4 12 3 25 0 29 -7 4 -7 13 -9 19 -6 23 14
10 26 -29 26 -22 0 -40 -4 -40 -9z"/>
<path d="M1474 1471 c3 -5 23 -12 43 -16 21 -4 41 -12 45 -18 5 -8 8 -6 8 5 0
11 -13 21 -37 27 -47 13 -66 14 -59 2z"/>
<path d="M1498 1423 c7 -3 16 -2 19 1 4 3 -2 6 -13 5 -11 0 -14 -3 -6 -6z"/>
<path d="M1545 1410 c3 -5 10 -10 16 -10 5 0 9 5 9 10 0 6 -7 10 -16 10 -8 0
-12 -4 -9 -10z"/>
<path d="M1193 1383 c33 -4 37 -7 37 -31 0 -21 2 -24 10 -12 5 8 10 23 10 33
0 14 -8 17 -47 15 -44 -1 -45 -2 -10 -5z"/>
<path d="M1623 1383 c40 -4 47 -7 48 -26 1 -17 2 -18 6 -4 2 9 9 17 14 17 5 0
9 5 9 10 0 6 -26 9 -62 8 -57 -1 -58 -2 -15 -5z"/>
<path d="M2190 1370 l-25 -8 28 -1 c15 -1 27 4 27 9 0 6 -1 10 -2 9 -2 -1 -14
-5 -28 -9z"/>
<path d="M635 1360 c-3 -6 1 -7 9 -4 18 7 21 14 7 14 -6 0 -13 -4 -16 -10z"/>
<path d="M672 1358 c5 -15 37 -18 41 -3 1 6 -9 12 -22 13 -16 3 -22 -1 -19
-10z"/>
<path d="M1187 1355 c-4 -8 -2 -17 3 -20 6 -4 10 -4 10 -1 0 2 3 11 6 20 3 9
2 16 -4 16 -5 0 -12 -7 -15 -15z"/>
<path d="M1620 1361 c0 -5 7 -14 15 -21 13 -10 15 -9 15 9 0 12 -6 21 -15 21
-8 0 -15 -4 -15 -9z"/>
<path d="M1595 1350 c3 -5 8 -10 11 -10 2 0 4 5 4 10 0 6 -5 10 -11 10 -5 0
-7 -4 -4 -10z"/>
<path d="M1747 1343 c-4 -3 -7 -11 -7 -17 0 -6 5 -5 12 2 6 6 9 14 7 17 -3 3
-9 2 -12 -2z"/>
<path d="M958 1333 c6 -2 18 -2 25 0 6 3 1 5 -13 5 -14 0 -19 -2 -12 -5z"/>
<path d="M1377 1260 c-15 -12 -25 -26 -21 -31 3 -5 0 -8 -7 -7 -6 2 -14 -3
-16 -11 -4 -10 1 -11 18 -6 13 4 27 12 30 17 9 14 70 18 92 6 22 -11 22 -6 -1
20 -28 32 -63 37 -95 12z"/>
<path d="M1160 1234 c-6 -14 -9 -37 -9 -52 1 -23 3 -22 8 8 4 22 14 39 28 46
23 11 21 24 -4 24 -7 0 -18 -12 -23 -26z"/>
<path d="M1622 1248 c-15 -15 -16 -28 -2 -28 6 0 10 7 10 16 0 11 6 15 20 11
11 -3 18 -1 14 4 -7 13 -28 11 -42 -3z"/>
<path d="M1740 1237 c0 -8 7 -14 15 -14 8 0 15 6 15 14 0 7 -7 13 -15 13 -8 0
-15 -6 -15 -13z"/>
<path d="M2706 1204 c-3 -9 -6 -29 -6 -45 0 -16 -7 -46 -15 -67 -9 -22 -14
-57 -12 -84 l4 -45 -55 -1 c-33 0 -60 -6 -69 -14 -10 -11 -25 -12 -66 -5 -29
4 -64 9 -80 10 -23 2 -28 8 -33 37 -4 19 -11 40 -15 46 -5 6 -7 18 -4 26 4 9
-1 18 -9 21 -11 5 -15 0 -15 -16 1 -12 -5 -38 -11 -57 -20 -56 -23 -65 -22
-71 0 -3 -27 -5 -61 -5 -70 0 -73 5 -76 94 -1 34 -5 42 -20 42 -23 0 -27 -10
-36 -83 -8 -62 -5 -60 -95 -58 -78 2 -90 8 -90 49 0 35 -24 21 -28 -16 -2 -23
-8 -30 -23 -29 -10 1 -20 6 -21 12 0 5 -2 15 -3 20 -2 6 -3 18 -4 28 0 9 -8
17 -17 17 -8 0 -12 -4 -9 -10 4 -6 -4 -9 -17 -7 -19 2 -24 -3 -26 -30 -4 -43
-32 -45 -32 -3 0 19 -4 28 -12 25 -7 -2 -36 -6 -64 -9 -55 -6 -86 -15 -95 -28
-9 -14 -103 -27 -116 -16 -7 6 -13 7 -13 2 0 -5 -26 -8 -58 -8 -88 2 -92 3
-92 20 0 13 -8 15 -40 12 -22 -2 -41 -1 -42 3 -2 4 -22 10 -45 14 -31 5 -43 3
-43 -5 0 -10 -3 -10 -15 0 -13 11 -15 8 -15 -14 0 -27 -19 -37 -21 -11 -1 8
-2 21 -3 27 0 7 -10 14 -21 17 -11 2 -23 8 -26 13 -13 20 -29 -3 -29 -40 0
-45 -17 -31 -22 18 -2 23 -9 36 -20 38 -14 3 -19 -6 -24 -37 -4 -23 -10 -41
-14 -41 -5 0 -15 -3 -24 -6 -12 -5 -15 5 -18 48 -3 45 -6 53 -23 53 -15 0 -21
-8 -23 -30 -5 -61 -11 -72 -35 -72 -20 0 -24 7 -34 60 -12 60 -25 79 -53 74
-11 -2 -16 -19 -18 -70 l-3 -67 -34 0 c-19 0 -35 5 -35 11 0 6 -14 9 -33 7
-30 -3 -32 -1 -35 35 -2 20 -7 37 -12 37 -6 0 -6 10 -2 23 12 33 9 51 -8 55
-18 3 -44 -51 -54 -110 -4 -21 -12 -38 -19 -39 -143 -12 -194 -12 -202 1 -11
18 23 60 49 60 27 0 40 22 24 38 -6 6 -11 21 -12 33 -1 27 -28 33 -103 24 -37
-5 -53 -11 -53 -21 0 -8 6 -17 13 -19 14 -6 11 -105 -4 -105 -4 0 -6 6 -3 13
3 8 0 34 -6 58 -6 24 -16 63 -22 87 -6 29 -17 46 -31 52 -18 7 -18 9 -4 9 27
1 20 21 -8 21 -14 0 -24 -5 -23 -11 2 -7 -12 -16 -30 -21 l-33 -9 5 -217 c3
-119 5 -226 5 -237 0 -11 -3 -95 -5 -187 -3 -93 -2 -168 0 -168 15 0 241 95
244 102 2 4 11 8 19 8 9 0 45 14 80 30 34 17 69 30 77 30 8 0 46 16 85 35 39
19 74 35 79 35 9 0 166 62 227 90 22 10 65 26 95 36 30 9 66 23 80 29 82 42
245 105 257 101 8 -3 12 -2 9 3 -3 5 12 16 34 25 54 22 71 20 36 -3 -16 -11
-36 -17 -45 -14 -12 4 -13 2 -3 -4 17 -13 -27 -33 -71 -33 -23 0 -28 -3 -18
-9 8 -5 21 -7 30 -4 11 4 9 0 -4 -10 -11 -9 -27 -16 -35 -17 -13 0 -13 2 0 11
12 9 12 10 -3 5 -10 -3 -21 -6 -24 -6 -3 0 0 -7 7 -15 11 -13 10 -14 -5 -9
-12 5 -16 4 -12 -3 13 -21 -20 -36 -54 -24 -22 7 -36 8 -48 0 -13 -8 -11 -9 9
-4 21 5 22 4 7 -5 -9 -6 -26 -9 -36 -5 -11 3 -22 2 -25 -4 -3 -5 -16 -7 -29
-4 -20 4 -21 3 -5 -10 13 -10 15 -16 6 -25 -7 -7 -19 -12 -27 -12 -9 0 -29 -7
-45 -15 -15 -8 -35 -15 -43 -15 -8 0 -11 -5 -7 -12 5 -8 2 -9 -9 -5 -10 3 -17
3 -17 -1 0 -4 -23 -5 -52 -3 -47 3 -50 2 -36 -13 9 -9 21 -16 27 -16 6 0 11
-5 11 -11 0 -7 -14 -10 -35 -7 -19 2 -35 1 -35 -3 0 -4 -10 -10 -22 -12 -20
-4 -19 -4 5 -6 25 -1 42 -31 16 -31 -5 0 -7 4 -4 10 4 6 -5 10 -19 10 -14 0
-26 -5 -26 -11 0 -6 -26 -9 -72 -8 -43 2 -81 -2 -93 -9 -27 -16 -78 -36 -88
-34 -4 1 -7 -2 -7 -6 0 -4 -26 -16 -57 -27 -32 -10 -62 -22 -67 -27 -6 -4 -19
-8 -30 -8 -20 -1 -20 -1 -3 -11 13 -7 27 -7 49 0 39 14 50 6 14 -11 -21 -9
-34 -9 -59 0 -29 11 -35 9 -73 -18 -44 -31 -64 -37 -64 -20 0 16 -18 11 -39
-11 -13 -14 -26 -19 -40 -14 -18 5 -21 2 -21 -24 0 -34 2 -36 32 -20 26 14
107 19 114 7 3 -5 11 -4 19 2 9 8 20 8 30 2 14 -7 7 -13 -34 -30 -27 -12 -53
-27 -56 -32 -3 -6 -14 -10 -23 -10 -15 0 -15 2 -2 10 13 8 13 10 -1 10 -9 0
-19 -6 -22 -14 -3 -8 -18 -16 -34 -19 -25 -4 -25 -4 7 -6 l35 -2 -32 -14 c-23
-10 -33 -21 -33 -36 0 -20 3 -21 42 -15 23 4 48 12 55 18 9 7 13 7 13 0 0 -7
10 -8 31 -2 18 5 36 7 40 4 5 -3 9 -1 9 4 0 6 7 12 15 16 27 10 16 -14 -16
-33 -21 -13 -26 -21 -17 -25 7 -3 4 -4 -8 -1 -12 3 -27 -1 -34 -10 -7 -8 -18
-15 -24 -15 -6 0 -29 -16 -50 -35 -22 -19 -43 -35 -48 -35 -4 0 -8 -4 -8 -10
0 -7 440 -10 1301 -10 l1301 0 -67 53 c-37 28 -104 80 -149 115 -44 35 -88 69
-96 75 -8 7 -44 34 -80 61 -36 28 -90 71 -120 97 -89 75 -192 149 -200 144 -5
-3 -11 3 -15 12 -10 27 -96 87 -105 73 -5 -8 -10 -6 -15 7 -5 10 -9 21 -9 26
-1 4 -5 6 -11 5 -5 -2 -8 -7 -6 -13 11 -29 13 -105 2 -105 -6 0 -11 -4 -11
-10 0 -5 7 -10 15 -10 8 0 15 -3 15 -7 1 -19 18 -33 33 -27 25 9 21 41 -5 48
-17 4 -20 8 -11 17 6 6 9 17 7 24 -3 7 -1 16 5 20 6 3 11 1 11 -4 0 -6 6 -11
13 -11 17 0 57 -46 57 -65 0 -8 8 -15 18 -15 16 -1 44 -24 196 -167 l70 -66
-32 -28 -32 -28 33 6 32 5 -21 -22 c-20 -21 -29 -22 -153 -21 -85 1 -131 -2
-131 -9 0 -5 -18 -10 -40 -10 -23 0 -40 5 -40 11 0 9 -23 10 -79 6 -58 -5 -81
-3 -85 6 -4 7 -4 0 -1 -16 3 -15 1 -27 -5 -27 -5 0 -10 5 -10 10 0 15 -58 12
-63 -2 -2 -7 -7 -11 -10 -8 -3 3 12 29 34 58 44 57 61 130 39 157 -7 8 -9 22
-6 31 6 15 -2 16 -73 10 l-80 -6 -6 37 c-14 82 -19 87 -35 34 -5 -19 -5 -29 1
-26 20 13 21 -27 0 -46 -11 -11 -21 -24 -21 -29 0 -6 -19 -11 -42 -11 l-43 -2
47 -10 c49 -11 58 -23 58 -79 0 -15 4 -29 9 -33 5 -3 8 -17 7 -31 -3 -31 -56
-59 -93 -49 -18 4 -23 1 -23 -14 0 -13 -9 -20 -31 -25 -46 -9 -49 -8 -49 14 0
19 -7 20 -117 21 -65 1 -124 0 -132 -1 -8 -1 -25 4 -38 11 -17 9 -26 10 -31 2
-4 -5 -29 -12 -57 -15 -27 -3 -44 -3 -37 -1 23 9 12 22 -27 34 -38 11 -38 12
-44 73 -6 60 -5 62 31 99 51 54 218 197 228 197 5 0 0 -7 -10 -15 -17 -13 -18
-15 -3 -15 9 0 17 -4 17 -10 0 -5 -8 -10 -17 -10 -19 0 -7 -17 16 -22 11 -2
14 7 12 42 -2 40 2 49 33 79 20 19 36 32 36 28 0 -4 18 11 41 34 25 25 47 39
57 36 10 -2 23 -6 31 -8 9 -2 16 4 18 16 1 11 0 14 -3 8 -7 -16 -24 -17 -24
-1 0 15 129 137 158 148 43 18 66 7 73 -36 l6 -39 2 44 c1 37 3 42 16 31 10
-9 15 -9 15 -1 0 6 7 11 15 11 9 0 12 6 8 16 -7 18 11 15 82 -16 22 -10 74
-31 115 -48 79 -31 294 -123 345 -147 17 -8 89 -37 160 -64 138 -54 372 -149
418 -171 29 -14 34 -25 15 -33 -14 -6 -11 -6 60 -11 23 -1 47 -7 53 -13 16
-16 -88 -5 -122 12 -15 8 -34 13 -41 10 -8 -3 -22 2 -33 10 -19 15 -17 16 30
11 49 -5 50 -5 20 9 -16 8 -44 14 -60 15 -17 0 -40 6 -51 14 -11 8 -31 16 -44
18 -14 1 -25 10 -25 18 0 9 -14 17 -35 21 -19 3 -43 10 -52 14 -11 4 -18 3
-18 -4 0 -6 -4 -11 -10 -11 -5 0 -10 6 -10 14 0 9 -21 15 -72 20 -85 8 -118
15 -118 26 0 5 10 11 23 13 12 2 -7 4 -43 4 -36 0 -48 -2 -27 -4 34 -4 53 -22
25 -24 -7 0 -1 -5 15 -11 36 -13 35 -29 -2 -18 -16 4 -32 6 -35 3 -3 -3 -19 0
-36 7 -53 22 -58 -2 -9 -41 28 -22 41 -28 36 -16 -3 9 -2 17 3 17 6 0 10 -4
10 -10 0 -12 49 -63 84 -85 35 -23 46 -12 15 16 -27 23 -9 16 34 -13 30 -22
36 -41 10 -31 -10 3 -16 4 -13 2 3 -2 16 -13 29 -24 l24 -20 -8 25 c-7 25 -7
25 10 5 9 -11 14 -14 10 -7 -8 16 11 16 22 0 4 -7 6 -21 4 -32 -1 -11 2 -16 8
-11 6 3 9 10 6 15 -3 5 -1 11 5 15 6 4 10 -5 10 -19 0 -19 4 -24 16 -19 10 4
17 -1 21 -16 3 -11 11 -21 19 -21 7 0 20 -12 28 -27 l15 -28 -4 35 c-5 34 -5
34 6 8 6 -16 17 -28 25 -28 8 0 14 -6 14 -14 0 -8 10 -18 22 -22 12 -3 33 -19
48 -35 19 -21 29 -26 37 -18 8 8 17 7 34 -5 13 -9 19 -16 13 -16 -5 0 -16 6
-23 12 -11 11 -11 9 -2 -9 6 -13 15 -23 19 -23 5 0 25 -16 46 -35 40 -36 97
-75 112 -75 4 0 -7 11 -26 25 -19 14 -38 32 -42 40 -7 12 -4 12 26 0 50 -21
56 -19 56 19 0 28 -4 34 -25 38 -14 3 -25 1 -25 -3 0 -5 -10 -8 -22 -8 -17 1
-19 2 -5 6 25 7 21 25 -5 23 -47 -4 -58 0 -58 21 0 18 -5 21 -30 17 -23 -3
-30 -1 -26 9 3 7 -1 13 -9 13 -8 0 -15 5 -15 10 0 6 21 10 47 10 67 0 48 9
-32 15 -37 3 -77 11 -89 17 -21 12 -21 12 4 19 38 11 88 10 95 -1 4 -6 12 -10
18 -9 16 2 97 -34 97 -43 0 -16 49 -58 66 -57 18 0 18 1 -1 9 -17 7 -17 9 -2
9 15 1 17 12 17 81 0 64 -3 80 -15 80 -8 0 -15 4 -15 10 0 5 7 7 15 4 13 -5
15 46 15 430 0 421 -1 436 -19 436 -10 0 -22 -7 -25 -16z m-2473 -153 c3 -14
1 -18 -9 -14 -15 6 -18 16 -7 26 9 10 10 9 16 -12z m-43 -91 c-6 -10 -9 1 -9
35 1 48 1 49 9 15 5 -19 4 -41 0 -50z m40 10 c0 -11 -4 -20 -10 -20 -5 0 -10
9 -10 20 0 11 5 20 10 20 6 0 10 -9 10 -20z m34 -97 c-3 -26 -7 -50 -9 -53 -2
-4 5 -16 15 -28 39 -41 13 -84 -40 -67 -11 4 -20 2 -20 -4 0 -6 -9 -11 -20
-11 -16 0 -20 7 -20 30 0 20 5 30 15 30 8 0 15 5 15 11 0 7 12 8 33 4 29 -5
30 -5 14 9 -14 11 -17 25 -15 63 2 32 7 47 16 46 6 -2 12 2 12 7 0 6 2 10 5
10 3 0 3 -21 -1 -47z m541 27 c-3 -5 -14 -6 -26 -3 -15 4 -17 8 -8 13 15 10
41 1 34 -10z m1159 11 c3 -5 -1 -14 -9 -21 -13 -10 -15 -9 -15 9 0 21 14 28
24 12z m53 -13 c-3 -8 -6 -5 -6 6 -1 11 2 17 5 13 3 -3 4 -12 1 -19z m71 -23
c1 -19 -3 -35 -8 -35 -6 0 -9 18 -8 40 2 48 14 45 16 -5z m-1408 20 c0 -16
-27 -32 -37 -22 -3 4 -3 13 0 22 8 20 37 20 37 0z m1730 -11 c0 -8 -4 -14 -10
-14 -5 0 -10 9 -10 21 0 11 5 17 10 14 6 -3 10 -13 10 -21z m255 16 c2 -4 -2
-15 -9 -25 -9 -13 -20 -16 -40 -11 -22 5 -25 10 -17 25 10 18 57 26 66 11z
m-2486 -37 c9 -6 13 -15 9 -18 -10 -11 -38 21 -37 42 0 14 2 15 6 3 4 -8 13
-20 22 -27z m188 22 c0 -8 -6 -15 -13 -15 -8 0 -11 6 -8 15 4 8 9 15 13 15 4
0 8 -7 8 -15z m1892 -7 c0 -16 -2 -18 -6 -8 -3 8 -11 18 -17 22 -7 5 -4 8 7 8
11 0 17 -7 16 -22z m-489 3 c0 -6 -4 -13 -10 -16 -5 -3 -10 1 -10 9 0 9 5 16
10 16 6 0 10 -4 10 -9z m104 -16 c3 -9 0 -15 -9 -15 -8 0 -15 7 -15 15 0 8 4
15 9 15 5 0 11 -7 15 -15z m666 5 c0 -5 -5 -10 -11 -10 -5 0 -7 5 -4 10 3 6 8
10 11 10 2 0 4 -4 4 -10z m-585 -17 c9 -9 20 -12 23 -7 12 16 41 13 35 -4 -5
-12 -1 -14 18 -9 22 6 59 -7 49 -16 -3 -2 -36 1 -75 7 -52 9 -71 16 -73 29 -4
21 2 21 23 0z m-1600 -2 c3 -5 1 -12 -5 -16 -5 -3 -10 1 -10 9 0 18 6 21 15 7z
m560 -1 c-3 -5 -13 -10 -21 -10 -8 0 -14 5 -14 10 0 6 9 10 21 10 11 0 17 -4
14 -10z m1768 -10 c-3 -12 -8 -19 -11 -16 -5 6 5 36 12 36 2 0 2 -9 -1 -20z
m-1902 -23 c-10 -9 -11 -8 -5 6 3 10 9 15 12 12 3 -3 0 -11 -7 -18z m1436 2
c6 -21 7 -21 20 -4 12 17 13 17 13 2 0 -9 5 -17 10 -17 6 0 10 6 10 13 0 8 4
7 10 -3 8 -13 10 -12 10 5 0 12 3 16 10 9 5 -5 7 -19 4 -30 -5 -18 -10 -20
-57 -13 -29 4 -60 8 -69 8 -12 1 -18 9 -18 26 0 20 5 25 26 25 18 0 28 -6 31
-21z m-1823 -19 c11 -8 17 -10 13 -3 -13 21 9 23 26 2 30 -35 27 -37 -110 -65
-21 -4 -23 0 -23 32 0 35 1 36 35 32 31 -4 34 -2 29 17 -3 11 -2 16 3 10 4 -5
17 -17 27 -25z m189 3 c5 -7 14 -10 20 -7 9 5 9 4 1 -5 -19 -20 -59 -9 -62 16
-3 18 0 22 15 16 10 -3 22 -13 26 -20z m72 3 c12 -11 10 -13 -10 -13 -14 0
-22 3 -20 7 3 5 -1 11 -7 13 -8 3 -5 6 5 6 10 1 25 -5 32 -13z m1833 -2 c27
-5 30 -9 22 -25 -14 -26 -13 -29 14 -29 19 0 23 4 19 19 -3 10 0 22 6 25 7 5
11 -6 11 -29 0 -34 -2 -37 -23 -31 -13 3 -49 8 -81 12 -58 7 -74 19 -62 49 6
16 42 19 94 9z m114 -39 c-3 -20 1 -25 23 -31 18 -4 30 -2 36 7 6 10 8 7 6 -9
-2 -25 -6 -26 -58 -10 -35 10 -39 15 -39 44 0 26 3 31 18 27 14 -3 18 -11 14
-28z m-1516 -50 c-21 -16 -32 -13 -21 4 3 6 14 11 23 11 15 -1 15 -2 -2 -15z
m-63 -29 c4 -11 1 -13 -10 -9 -11 4 -14 2 -9 -5 8 -13 -24 -32 -54 -32 -14 0
-20 -5 -17 -13 5 -13 -68 -67 -96 -71 -7 -1 -24 -12 -37 -24 -26 -24 -40 -28
-40 -12 0 6 6 10 14 10 7 0 20 8 27 18 12 15 12 16 -1 6 -20 -15 -60 -24 -60
-14 0 4 12 11 27 15 16 4 34 12 42 18 11 10 9 13 -10 18 -18 5 -14 7 15 6 22
0 42 5 44 11 2 7 11 12 20 12 8 0 23 7 33 16 9 8 26 16 37 17 11 0 20 4 19 8
-2 8 33 38 44 39 4 0 9 -7 12 -14z m-478 -97 c5 -5 -5 -4 -23 2 -17 6 -32 13
-32 16 0 7 43 -8 55 -18z m1699 -61 c-3 -4 -12 -8 -20 -8 -8 0 -13 4 -10 8 3
5 12 9 20 9 8 0 13 -4 10 -9z m-155 -17 c7 -5 9 -11 4 -14 -6 -4 -19 0 -29 8
-15 11 -16 14 -4 15 8 0 21 -4 29 -9z m-1514 -39 c-3 -3 -11 0 -18 7 -9 10 -8
11 6 5 10 -3 15 -9 12 -12z m1672 12 c-3 -3 -12 -4 -19 -1 -8 3 -5 6 6 6 11 1
17 -2 13 -5z m-2018 -13 c10 -7 10 -10 1 -16 -7 -4 -15 -3 -19 2 -3 6 -13 13
-21 16 -11 4 -9 6 5 6 11 0 26 -3 34 -8z m415 -4 c-12 -7 -19 -18 -16 -26 4
-11 6 -11 14 0 8 12 9 12 6 1 -4 -16 -94 -26 -103 -12 -4 6 6 10 22 10 17 0
33 8 41 20 7 11 22 20 35 20 l22 -1 -21 -12z m-186 -25 c3 -18 -3 -23 -38 -28
-28 -5 -37 -10 -28 -15 10 -7 10 -9 1 -9 -7 0 -22 9 -32 19 -19 19 -19 20 11
30 17 6 40 11 50 11 12 0 16 4 12 11 -4 7 -1 10 7 7 8 -3 15 -14 17 -26z
m2167 18 c3 -5 -3 -10 -15 -10 -12 0 -18 5 -15 10 3 6 10 10 15 10 5 0 12 -4
15 -10z m-180 -48 c-6 -7 -55 11 -50 18 3 5 16 3 29 -3 14 -7 23 -13 21 -15z
m-145 -2 c0 -5 10 -10 21 -10 12 0 47 -16 79 -35 32 -19 62 -35 68 -35 5 0 15
-7 22 -15 10 -12 7 -15 -14 -21 -30 -7 -57 1 -54 16 2 6 -13 17 -34 24 -55 20
-129 66 -123 77 8 12 35 12 35 -1z m310 -40 c0 -5 -2 -10 -4 -10 -3 0 -8 5
-11 10 -3 6 -1 10 4 10 6 0 11 -4 11 -10z m40 -20 c0 -5 -2 -10 -4 -10 -3 0
-8 5 -11 10 -3 6 -1 10 4 10 6 0 11 -4 11 -10z m-2143 -6 c-3 -3 -12 -4 -19
-1 -8 3 -5 6 6 6 11 1 17 -2 13 -5z m-204 -71 c-7 -2 -19 -2 -25 0 -7 3 -2 5
12 5 14 0 19 -2 13 -5z m60 0 c-7 -2 -21 -2 -30 0 -10 3 -4 5 12 5 17 0 24 -2
18 -5z m1054 -15 c-3 -8 -6 -5 -6 6 -1 11 2 17 5 13 3 -3 4 -12 1 -19z m24 -5
c-12 -20 -14 -14 -5 12 4 9 9 14 11 11 3 -2 0 -13 -6 -23z m789 -64 c0 -6 -4
-7 -10 -4 -5 3 -10 11 -10 16 0 6 5 7 10 4 6 -3 10 -11 10 -16z m-2040 1 c0
-5 -5 -10 -11 -10 -5 0 -7 5 -4 10 3 6 8 10 11 10 2 0 4 -4 4 -10z m1943 -37
c-7 -2 -19 -2 -25 0 -7 3 -2 5 12 5 14 0 19 -2 13 -5z m-1426 -25 c-3 -8 -6
-5 -6 6 -1 11 2 17 5 13 3 -3 4 -12 1 -19z m691 -7 c2 -14 0 -21 -6 -17 -6 3
-12 -4 -14 -16 -2 -16 -6 -11 -14 20 -11 41 -11 43 10 40 13 -2 22 -12 24 -27z
m-58 -36 c5 3 11 2 14 -3 2 -4 -7 -9 -21 -10 -14 -1 -32 -7 -39 -13 -11 -9
-14 -6 -14 16 0 22 4 26 20 22 11 -3 21 0 21 6 1 7 3 4 6 -6 2 -9 8 -15 13
-12z m1310 -1 c0 -12 -2 -12 -14 -2 -8 7 -12 16 -9 21 7 11 23 -2 23 -19z"/>
<path d="M1397 1203 c-4 -3 -7 -17 -7 -30 0 -18 5 -23 25 -23 20 0 25 5 25 24
0 13 -7 27 -16 30 -19 7 -19 7 -27 -1z"/>
<path d="M2189 1189 c16 -6 28 -6 35 1 7 7 -1 10 -24 9 -33 0 -34 -1 -11 -10z"/>
<path d="M683 1178 c21 -7 32 -7 40 1 8 8 0 11 -28 10 -40 -1 -40 -1 -12 -11z"/>
<path d="M1186 1175 c-3 -8 -1 -15 4 -15 6 0 10 7 10 15 0 8 -2 15 -4 15 -2 0
-6 -7 -10 -15z"/>
<path d="M1332 1165 c0 -16 2 -22 5 -12 2 9 2 23 0 30 -3 6 -5 -1 -5 -18z"/>
<path d="M1630 1175 c0 -8 5 -15 10 -15 6 0 10 7 10 15 0 8 -4 15 -10 15 -5 0
-10 -7 -10 -15z"/>
<path d="M1853 1183 c9 -2 23 -2 30 0 6 3 -1 5 -18 5 -16 0 -22 -2 -12 -5z"/>
<path d="M1746 1113 c-3 -3 -5 -18 -5 -32 1 -21 2 -22 6 -6 3 11 10 23 15 26
7 4 7 9 0 12 -5 4 -12 4 -16 0z"/>
<path d="M1409 1085 c-4 -5 -5 -18 -4 -27 3 -18 -24 -24 -77 -19 -10 1 -18 -2
-18 -7 0 -6 33 -9 75 -9 41 0 75 4 75 9 0 4 -10 8 -22 9 -13 0 -17 3 -10 6 6
2 12 12 12 21 0 14 -2 14 -9 3 -7 -11 -10 -10 -13 5 -2 10 -6 15 -9 9z"/>
<path d="M1858 1083 c6 -2 18 -2 25 0 6 3 1 5 -13 5 -14 0 -19 -2 -12 -5z"/>
<path d="M1191 1034 c0 -11 3 -14 6 -6 3 7 2 16 -1 19 -3 4 -6 -2 -5 -13z"/>
<path d="M1630 1041 c0 -6 -10 -12 -22 -12 -17 -1 -18 -3 -6 -6 23 -6 55 12
39 21 -6 4 -11 2 -11 -3z"/>
<path d="M1146 1031 c-4 -5 1 -8 9 -7 21 3 31 16 12 16 -9 0 -18 -4 -21 -9z"/>
<path d="M1483 1029 c14 -8 22 -8 30 0 8 8 3 11 -18 11 -26 -1 -28 -2 -12 -11z"/>
<path d="M1746 1029 c3 -5 12 -9 21 -9 19 0 9 13 -12 16 -8 1 -13 -2 -9 -7z"/>
<path d="M1338 833 c7 -3 16 -2 19 1 4 3 -2 6 -13 5 -11 0 -14 -3 -6 -6z"/>
<path d="M1390 769 c-23 -6 -23 -7 -3 -8 16 -1 20 -6 16 -20 -3 -10 0 -22 6
-25 7 -4 11 1 11 12 0 10 10 23 22 29 l23 10 -25 4 c-14 3 -36 2 -50 -2z"/>
<path d="M1070 766 c0 -2 7 -7 16 -10 8 -3 12 -2 9 4 -6 10 -25 14 -25 6z"/>
<path d="M1310 766 c0 -9 40 -13 46 -5 3 5 -6 9 -20 9 -14 0 -26 -2 -26 -4z"/>
<path d="M1478 763 c6 -2 18 -2 25 0 6 3 1 5 -13 5 -14 0 -19 -2 -12 -5z"/>
<path d="M1664 762 c14 -24 89 -64 123 -67 21 -1 47 -6 57 -11 14 -5 17 -4 12
4 -5 8 4 12 28 12 19 0 36 -5 38 -11 2 -7 11 -10 19 -7 32 11 -56 41 -122 42
-37 1 -65 4 -62 9 2 4 -7 7 -21 7 -33 0 -57 10 -50 21 3 5 -2 9 -11 9 -9 0
-14 -4 -11 -8z"/>
<path d="M1610 719 c0 -5 5 -7 10 -4 6 3 10 8 10 11 0 2 -4 4 -10 4 -5 0 -10
-5 -10 -11z"/>
<path d="M1398 665 c-2 -19 0 -36 6 -38 5 -2 6 -9 2 -16 -8 -13 -45 20 -62 55
-6 14 -9 7 -12 -30 -3 -42 1 -53 24 -77 15 -16 30 -26 35 -24 4 3 9 0 11 -6 2
-7 12 -7 29 0 36 13 59 39 59 64 0 18 -2 19 -10 7 -7 -11 -10 -11 -10 -2 0 7
-4 11 -9 8 -5 -4 -12 8 -16 25 -5 23 -9 28 -16 18 -6 -10 -9 -4 -9 19 0 43
-17 41 -22 -3z m-34 -51 c3 -8 2 -12 -4 -9 -6 3 -10 10 -10 16 0 14 7 11 14
-7z"/>
<path d="M868 673 c7 -3 16 -2 19 1 4 3 -2 6 -13 5 -11 0 -14 -3 -6 -6z"/>
<path d="M1793 666 c4 -10 7 -20 7 -22 0 -2 6 -4 13 -4 6 0 30 -16 52 -35 43
-38 51 -41 57 -23 5 15 51 18 60 4 5 -7 8 -4 8 7 0 14 10 17 58 18 l57 1 -54
25 c-44 21 -72 26 -147 28 -50 1 -98 6 -105 10 -9 6 -11 3 -6 -9z m90 -23 c-7
-2 -21 -2 -30 0 -10 3 -4 5 12 5 17 0 24 -2 18 -5z m73 -8 c-33 -18 -36 -18
-36 -6 0 9 21 18 50 20 8 0 2 -6 -14 -14z m31 -11 c-3 -3 -12 -4 -19 -1 -8 3
-5 6 6 6 11 1 17 -2 13 -5z"/>
<path d="M828 653 c6 -2 18 -2 25 0 6 3 1 5 -13 5 -14 0 -19 -2 -12 -5z"/>
<path d="M1150 606 c0 -40 4 -48 25 -58 20 -9 28 -9 38 1 9 10 6 17 -15 35
-30 24 -37 42 -13 32 10 -4 15 1 15 14 0 11 -4 20 -10 20 -5 0 -10 -5 -10 -11
0 -8 -5 -8 -15 1 -13 11 -15 6 -15 -34z"/>
<path d="M1622 638 c-18 -18 -15 -85 4 -92 25 -10 33 -7 44 14 9 16 8 18 -5
14 -8 -4 -15 -1 -15 5 0 6 -7 8 -15 5 -8 -4 -15 -1 -15 5 0 7 7 14 15 17 8 4
15 15 15 25 0 22 -11 24 -28 7z"/>
<path d="M1060 581 c0 -5 7 -14 15 -21 12 -10 15 -10 15 3 0 8 -7 17 -15 21
-8 3 -15 2 -15 -3z"/>
<path d="M1930 570 c0 -5 5 -10 11 -10 5 0 7 5 4 10 -3 6 -8 10 -11 10 -2 0
-4 -4 -4 -10z"/>
<path d="M600 555 c-14 -8 -19 -14 -10 -14 8 0 24 6 34 14 25 19 9 19 -24 0z"/>
<path d="M1122 500 c0 -14 2 -19 5 -12 2 6 2 18 0 25 -3 6 -5 1 -5 -13z"/>
<path d="M1720 500 c0 -18 39 -49 41 -33 1 4 5 -8 9 -27 l7 -35 2 32 c1 21 -7
41 -23 57 -28 31 -36 32 -36 6z"/>
<path d="M1140 501 c0 -6 4 -13 10 -16 6 -3 7 1 4 9 -7 18 -14 21 -14 7z"/>
<path d="M1242 498 c-7 -7 -12 -18 -12 -25 0 -15 -16 -17 -25 -3 -10 17 -25
11 -25 -10 0 -15 -7 -20 -24 -20 -28 0 -43 -15 -18 -17 9 -1 32 -2 50 -4 17
-1 37 -8 43 -16 10 -11 8 -12 -7 -7 -16 5 -16 4 -4 -5 12 -8 19 -6 33 10 20
25 22 39 5 39 -9 0 -8 3 2 10 12 8 12 10 -3 16 -14 5 -15 9 -6 20 15 18 7 28
-9 12z"/>
<path d="M1578 493 c-6 -11 -3 -61 4 -69 3 -3 20 -6 37 -6 17 -1 31 -6 31 -13
0 -6 7 -12 15 -12 8 0 15 6 15 13 0 7 5 14 10 16 7 2 7 14 -1 37 l-12 34 -14
-29 c-11 -23 -12 -24 -9 -6 3 18 0 22 -12 20 -9 -2 -18 -13 -20 -26 -2 -12 -8
-22 -14 -22 -5 0 -7 7 -4 16 6 16 -19 61 -26 47z"/>
<path d="M1850 491 c0 -5 7 -11 15 -15 9 -3 15 0 15 9 0 8 -7 15 -15 15 -8 0
-15 -4 -15 -9z"/>
<path d="M1060 474 c0 -8 6 -11 15 -8 8 4 15 9 15 13 0 4 -7 8 -15 8 -8 0 -15
-6 -15 -13z"/>
<path d="M1318 463 c7 -3 16 -2 19 1 4 3 -2 6 -13 5 -11 0 -14 -3 -6 -6z"/>
<path d="M1280 426 c0 -12 10 -16 40 -16 22 0 40 4 40 9 0 4 -11 6 -25 3 -14
-2 -32 1 -40 8 -12 10 -15 9 -15 -4z"/>
<path d="M1430 420 c0 -5 7 -7 15 -4 8 4 15 8 15 10 0 2 -7 4 -15 4 -8 0 -15
-4 -15 -10z"/>
<path d="M1320 396 c0 -2 9 -6 20 -9 11 -3 20 -1 20 4 0 5 -9 9 -20 9 -11 0
-20 -2 -20 -4z"/>
<path d="M115 370 c-3 -5 -2 -10 4 -10 5 0 13 5 16 10 3 6 2 10 -4 10 -5 0
-13 -4 -16 -10z"/>
<path d="M1261 364 c0 -11 3 -14 6 -6 3 7 2 16 -1 19 -3 4 -6 -2 -5 -13z"/>
<path d="M65 271 c-3 -5 -1 -12 5 -16 5 -3 10 1 10 9 0 18 -6 21 -15 7z"/>
<path d="M110 270 c0 -5 9 -10 20 -10 11 0 20 5 20 10 0 6 -9 10 -20 10 -11 0
-20 -4 -20 -10z"/>
<path d="M2531 77 c2 -1 13 -9 24 -17 19 -14 19 -14 6 3 -7 9 -18 17 -24 17
-6 0 -8 -1 -6 -3z"/>
</g>
</svg>
